#N canvas 1246 114 451 706 10;
#X obj 151 316 + 0.1;
#X obj 151 291 * 1000;
#X obj 151 269 pow 10;
#X obj 83 447 + 0.5;
#X obj 83 470 *;
#X obj 83 523 * -1;
#X obj 83 546 + 1;
#X obj 82 331 sin;
#X obj 82 354 * 1;
#X obj 82 377 atan;
#X obj 82 400 /;
#X obj 119 377 atan 1;
#X obj 119 354 f;
#X obj 82 287 * 3.14159;
#X obj 82 424 * 0.5;
#X obj 82 309 * 2;
#X obj 139 443 pow 2;
#X obj 82 240 + 0;
#X obj 235 167 loadbang;
#X obj 235 217 - 1;
#X obj 150 217 * 0;
#X obj 83 497 change;
#X obj 83 626 list prepend vu;
#X obj 83 569 *;
#X obj 112 569 t b f;
#X obj 139 484 r \$0-toMachine;
#X obj 139 507 route lum;
#X obj 139 533 line;
#X obj 83 592 change;
#X floatatom 186 438 5 0 0 0 - - -;
#X obj 297 534 loadbang;
#X obj 297 580 - 1;
#X obj 210 578 * 10.23;
#X obj 82 265 fmod 1;
#X obj 83 651 s \$0-toOSC;
#X msg 32 540 1;
#X obj 210 653 s led-set;
#X obj 82 195 r \$3-phase;
#X obj 150 192 r \$3-déphase;
#X obj 139 415 r \$3-amplitude;
#X obj 151 247 r \$3-dureté;
#X obj 235 192 f \$2;
#X obj 297 557 f \$2;
#X obj 210 602 list prepend 0;
#X obj 55 47 sys/module_interface \$0 \$1 \$4 \$5;
#X obj 55 77 param_f \$0 lum \$0-PRESETS \$0-PRESETS2 \$3-line;
#X text 47 9 led/led name num(phase/hardware) motlum_ref preset1 preset2
;
#X connect 0 0 12 0;
#X connect 1 0 0 0;
#X connect 2 0 1 0;
#X connect 3 0 4 0;
#X connect 4 0 21 0;
#X connect 5 0 6 0;
#X connect 6 0 23 0;
#X connect 7 0 8 0;
#X connect 8 0 9 0;
#X connect 9 0 10 0;
#X connect 10 0 14 0;
#X connect 11 0 10 1;
#X connect 12 0 11 0;
#X connect 12 0 8 1;
#X connect 13 0 15 0;
#X connect 14 0 3 0;
#X connect 15 0 7 0;
#X connect 16 0 4 1;
#X connect 17 0 33 0;
#X connect 18 0 41 0;
#X connect 19 0 20 1;
#X connect 20 0 17 1;
#X connect 21 0 5 0;
#X connect 22 0 34 0;
#X connect 23 0 28 0;
#X connect 24 0 23 0;
#X connect 24 1 23 1;
#X connect 25 0 26 0;
#X connect 26 0 27 0;
#X connect 27 0 24 0;
#X connect 28 0 22 0;
#X connect 28 0 32 0;
#X connect 30 0 42 0;
#X connect 31 0 43 1;
#X connect 32 0 43 0;
#X connect 33 0 13 0;
#X connect 35 0 23 0;
#X connect 37 0 17 0;
#X connect 38 0 20 0;
#X connect 39 0 16 0;
#X connect 39 0 29 0;
#X connect 40 0 2 0;
#X connect 41 0 19 0;
#X connect 42 0 31 0;
#X connect 43 0 36 0;
