#N canvas 660 280 800 521 10;
#X obj 34 190 hsl 153 18 0 65535 0 0 empty empty empty -2 -9 0 10 #fcfcfc #000000 #000000 0 1;
#X obj 522 149 unpack f f, f 11;
#X obj 621 83 loadbang;
#X obj 621 106 f \$1;
#X obj 621 150 * 5;
#X obj 522 172 -, f 17;
#X obj 654 107 bng 18 250 50 0 empty empty empty 0 -9 0 10 #fcfcfc #000000 #000000;
#X obj 522 267 pack f f, f 11;
#X obj 522 79 spigot 1;
#X obj 583 80 tgl 18 0 empty empty empty 0 -9 0 10 #fcfcfc #000000 #000000 0 1;
#X obj 621 130 - 1;
#X obj 583 7 fruit/receive led\$1;
#X obj 42 279 fruit/send led\$1;
#X obj 522 56 r led-set;
#X obj 583 53 settings/onoff led\$1;
#X msg 522 290 c 10 c \$1 i \$2;
#X floatatom 642 215 5 0 0 0 - - - 0;
#X obj 585 207 * 65535;
#X obj 583 30 route present;
#X obj 32 62 fruit/fruit 1 led\$1 \$2 pwmFw 1;
#X msg 42 213 c 12 i \$1;
#X obj 218 157 hsl 153 18 0 65535 0 0 empty empty empty -2 -9 0 10 #fcfcfc #000000 #000000 0 1;
#X msg 228 216 c 13 i \$1;
#X floatatom 326 226 5 0 0 0 - - - 0;
#X msg 240 125 14000;
#X floatatom 658 332 5 0 0 0 - - - 0;
#X msg 548 19 0;
#X connect 0 0 20 0;
#X connect 1 0 5 0;
#X connect 1 1 17 0;
#X connect 2 0 3 0;
#X connect 3 0 10 0;
#X connect 4 0 5 1;
#X connect 5 0 7 0;
#X connect 5 0 25 0;
#X connect 6 0 3 0;
#X connect 7 0 15 0;
#X connect 8 0 1 0;
#X connect 9 0 8 1;
#X connect 10 0 4 0;
#X connect 11 0 18 0;
#X connect 13 0 8 0;
#X connect 14 0 9 0;
#X connect 15 0 12 0;
#X connect 17 0 7 1;
#X connect 18 0 14 0;
#X connect 20 0 12 0;
#X connect 21 0 22 0;
#X connect 21 0 23 0;
#X connect 22 0 12 0;
#X connect 24 0 21 0;
#X connect 26 0 14 0;
