#N canvas 930 194 715 527 12;
#X declare -path Fraise;
#X obj 22 207 fruit/receive fruit1;
#X obj 340 254 fruit/send2 fruit1;
#X obj 21 38 pied/pied 0 41424;
#X msg 440 150 c 120 c 4 i \$1;
#X obj 443 126 hsl 128 15 -1023 1023 0 0 empty empty empty -2 -8 0
10 -262144 -1 -1 0 1;
#X obj 443 188 hsl 128 15 -1023 1023 0 0 empty empty empty -2 -8 0
10 -262144 -1 -1 0 1;
#X msg 440 212 c 121 c 4 i \$1;
#X msg 412 99 0;
#X obj 19 9 declare -path Fraise;
#X obj 19 141 fruit/fruit 1 fruit1 10 lessiveFW;
#X obj 22 232 route s;
#X obj 22 256 route 0 1 2;
#X obj 22 432 change -1;
#X obj 46 364 change -1;
#X obj 71 289 change -1;
#X obj 22 475 s treuilzero0;
#X obj 46 407 s treuilzero1;
#X obj 46 387 tgl 15 0 empty empty empty 17 7 0 10 -262144 -1 -1 0
1;
#X obj 22 456 tgl 15 0 empty empty empty 17 7 0 10 -262144 -1 -1 0
1;
#X obj 71 313 tgl 15 0 empty empty empty 17 7 0 10 -262144 -1 -1 0
1;
#X obj 71 333 s startstopButton;
#X msg 285 142 c 30 i \$1 c \$2;
#X obj 285 98 r toDMXfraise;
#X obj 327 403 hsl 128 15 0 255 0 0 empty empty empty -2 -8 0 10 -262144
-1 -1 4233 1;
#X obj 324 448 s toDMXfraise;
#X msg 284 346 85;
#X msg 324 423 2 \$1;
#X obj 149 236 print;
#X msg 481 254 EAhQueCoucou;
#X obj 503 325 tgl 15 0 empty empty empty 17 7 0 10 -262144 -1 -1 1
1;
#X obj 500 297 metro 500;
#X obj 468 304 tgl 15 0 empty empty empty 17 7 0 10 -262144 -1 -1 1
1;
#X obj 503 345 * 85;
#X msg 507 404 1 \$1 \, 2 \$1 \, 3 \$1 \, 4 \$1 \, 5 \$1;
#X msg 503 369 1 \$1;
#X connect 0 0 10 0;
#X connect 3 0 1 0;
#X connect 4 0 3 0;
#X connect 5 0 6 0;
#X connect 6 0 1 0;
#X connect 7 0 4 0;
#X connect 7 0 5 0;
#X connect 10 0 11 0;
#X connect 10 1 27 0;
#X connect 11 0 12 0;
#X connect 11 1 13 0;
#X connect 11 2 14 0;
#X connect 12 0 18 0;
#X connect 13 0 17 0;
#X connect 14 0 19 0;
#X connect 17 0 16 0;
#X connect 18 0 15 0;
#X connect 19 0 20 0;
#X connect 21 0 1 0;
#X connect 22 0 21 0;
#X connect 23 0 26 0;
#X connect 25 0 23 0;
#X connect 26 0 24 0;
#X connect 28 0 1 1;
#X connect 29 0 32 0;
#X connect 30 0 29 0;
#X connect 31 0 30 0;
#X connect 32 0 34 0;
#X connect 34 0 24 0;
