#N canvas 448 174 450 300 10;
#X obj 158 23 keyname;
#X obj 167 97 gate;
#X msg 235 70 0;
#X msg 202 70 1;
#X msg 213 146 1;
#X msg 142 169 0;
#X obj 202 46 sel \$1;
#X obj 171 225 outlet;
#X obj 148 146 delay 50;
#X obj 167 119 select 0 1;
#X obj 170 196 change;
#X connect 0 0 1 0;
#X connect 0 1 6 0;
#X connect 1 0 9 0;
#X connect 2 0 1 1;
#X connect 3 0 1 1;
#X connect 4 0 10 0;
#X connect 5 0 10 0;
#X connect 6 0 3 0;
#X connect 6 1 2 0;
#X connect 8 0 5 0;
#X connect 9 0 8 0;
#X connect 9 1 4 0;
#X connect 10 0 7 0;
