#N canvas 649 262 791 531 10;
#X text 38 9 StepMotor \$0 num_motor first_dmxchannel;
#X text 16 222 courant max;
#X floatatom 90 293 5 0 255 0 - - -;
#X floatatom 156 266 5 0 100 0 - - -;
#X text 134 249 vitesse max;
#N canvas 72 224 313 238 resetpos 0;
#X msg 93 128 128 0 0 0;
#X msg 170 24 0 0 0 0;
#X obj 93 104 del 150;
#X obj 28 109 del 150;
#X obj 28 216 outlet;
#X obj 73 16 inlet;
#X obj 143 211 outlet;
#X msg 104 163 3 \$4 \, 4 \$3 \, 5 \$2 \, 6 \$1;
#X msg 172 95 2 0;
#X obj 73 40 t b b a b;
#X connect 0 0 7 0;
#X connect 2 0 0 0;
#X connect 2 0 3 0;
#X connect 3 0 4 0;
#X connect 5 0 9 0;
#X connect 7 0 6 0;
#X connect 8 0 6 0;
#X connect 9 1 2 0;
#X connect 9 2 7 0;
#X connect 9 3 8 0;
#X restore 212 206 pd resetpos;
#N canvas 355 101 424 556 simul 0;
#X obj 51 109 metro 10;
#X obj 157 182 / 100;
#X obj 166 394 f;
#X obj 138 395 +;
#X obj 138 371 *;
#X obj 346 284 f;
#X obj 51 89 tgl 15 1 empty empty empty 17 7 0 10 -262144 -1 -1 1 1
;
#X obj 95 177 -;
#X obj 95 199 t f f;
#X obj 122 221 abs;
#X obj 122 242 > 1;
#X obj 95 278 demultiplex;
#X obj 158 301 moses 0;
#X msg 158 323 -1;
#X msg 197 323 1;
#X msg 95 302 0;
#X obj 138 348 f;
#X obj 138 458 change;
#X floatatom 61 501 0 0 0 0 - - -;
#X msg 153 75 speed \$1;
#X msg 219 79 pos \$1;
#X floatatom 157 53 5 0 0 0 - - -;
#X floatatom 218 50 5 0 0 0 - - -;
#X floatatom 293 83 5 0 0 0 - - -;
#X obj 95 157 f;
#X obj 296 64 bng 15 250 50 0 empty empty empty 17 7 0 10 -262144 -1
-1;
#X floatatom 349 75 5 0 0 0 - - -;
#X obj 138 417 + 0.5;
#X obj 138 437 i;
#X msg 138 513 simulpos \$1;
#X obj 110 133 route pos speed resetpos;
#X obj 157 156 * 11.4;
#X obj 236 410 change;
#X msg 236 433 simulspeed \$1;
#X floatatom 292 401 5 0 0 0 - - -;
#X obj 46 162 f;
#X msg 271 331 0;
#X floatatom 87 405 5 0 0 0 - - -;
#X floatatom 23 285 0 0 0 0 - - -;
#X obj 110 17 inlet;
#X obj 138 535 outlet;
#X msg 204 173 \$1;
#X floatatom 219 238 5 0 0 0 - - -;
#X floatatom 40 216 5 0 0 0 - - -;
#X obj 346 430 / 400;
#X obj 348 450 + 0.5;
#X obj 348 469 i;
#X obj 348 490 change;
#X msg 291 513 simulframe \$1;
#X connect 0 0 24 0;
#X connect 1 0 4 1;
#X connect 1 0 10 1;
#X connect 1 0 42 0;
#X connect 2 0 3 1;
#X connect 3 0 2 0;
#X connect 3 0 7 1;
#X connect 3 0 27 0;
#X connect 4 0 3 0;
#X connect 4 0 32 0;
#X connect 4 0 37 0;
#X connect 6 0 0 0;
#X connect 7 0 8 0;
#X connect 7 0 43 0;
#X connect 8 0 11 0;
#X connect 8 1 9 0;
#X connect 9 0 10 0;
#X connect 9 0 38 0;
#X connect 10 0 11 1;
#X connect 11 0 15 0;
#X connect 11 1 12 0;
#X connect 12 0 13 0;
#X connect 12 1 14 0;
#X connect 13 0 16 0;
#X connect 14 0 16 0;
#X connect 15 0 16 0;
#X connect 16 0 4 0;
#X connect 17 0 29 0;
#X connect 17 0 18 0;
#X connect 17 0 44 0;
#X connect 19 0 30 0;
#X connect 20 0 30 0;
#X connect 21 0 19 0;
#X connect 22 0 20 0;
#X connect 24 0 7 0;
#X connect 27 0 28 0;
#X connect 28 0 17 0;
#X connect 29 0 40 0;
#X connect 30 0 24 1;
#X connect 30 0 35 0;
#X connect 30 1 31 0;
#X connect 30 2 41 0;
#X connect 30 2 36 0;
#X connect 31 0 1 0;
#X connect 32 0 33 0;
#X connect 32 0 34 0;
#X connect 33 0 40 0;
#X connect 36 0 32 0;
#X connect 39 0 30 0;
#X connect 41 0 24 1;
#X connect 41 0 2 0;
#X connect 44 0 45 0;
#X connect 45 0 46 0;
#X connect 46 0 47 0;
#X connect 47 0 48 0;
#X connect 48 0 40 0;
#X restore 332 70 pd simul;
#X obj 425 495 r \$0-Frame-snd;
#X floatatom 160 172 5 0 0 0 - - -;
#N canvas 0 285 670 300 Calage 0;
#X obj 237 96 b;
#X obj 142 14 tgl 15 0 empty empty empty 17 7 0 10 -262144 -1 -1 0
1;
#X obj 237 75 bng 15 250 50 0 empty empty empty 17 7 0 10 -262144 -1
-1;
#X obj 180 244 outlet;
#X obj 9 212 outlet;
#X obj 142 36 sel 0 1;
#X obj 107 84 t b b;
#X obj 26 140 del 200;
#X obj 67 117 b;
#X msg 134 106 speed 0;
#X obj 344 120 s \$0-Light-rcv;
#X obj 342 71 sel 0 1;
#X msg 330 92 80;
#X obj 341 51 pipe 10;
#X msg 361 93 130;
#X obj 196 119 del 350;
#X msg 63 217 0;
#X obj 63 240 s \$0-Frame-rcv;
#X obj 165 10 inlet;
#X msg 85 140 resetpos 0;
#X msg 254 120 resetpos 0;
#X obj 529 22 inlet;
#X obj 529 82 b;
#X obj 529 61 bng 15 250 50 0 empty empty empty 17 7 0 10 -262144 -1
-1;
#X obj 488 105 del 350;
#X msg 549 106 resetpos 0;
#X obj 488 194 t a;
#X msg 459 75 stop;
#X obj 340 166 del 200;
#X msg 486 131 speed 80 \, frame 1;
#X msg 409 166 resetpos 0;
#X obj 449 246 bng 15 250 50 0 empty empty empty 17 7 0 10 -262144
-1 -1;
#X msg 196 145 speed 3 \, pos 1e+06;
#X obj 429 141 del 750;
#X connect 0 0 20 0;
#X connect 0 0 15 0;
#X connect 1 0 5 0;
#X connect 2 0 0 0;
#X connect 5 0 6 0;
#X connect 5 1 2 0;
#X connect 6 0 8 0;
#X connect 6 1 9 0;
#X connect 7 0 4 0;
#X connect 7 0 16 0;
#X connect 8 0 19 0;
#X connect 8 0 7 0;
#X connect 9 0 3 0;
#X connect 11 0 12 0;
#X connect 11 1 14 0;
#X connect 12 0 10 0;
#X connect 13 0 11 0;
#X connect 14 0 10 0;
#X connect 15 0 32 0;
#X connect 16 0 17 0;
#X connect 18 0 1 0;
#X connect 19 0 3 0;
#X connect 20 0 3 0;
#X connect 21 0 23 0;
#X connect 22 0 25 0;
#X connect 22 0 24 0;
#X connect 22 0 27 0;
#X connect 23 0 22 0;
#X connect 24 0 29 0;
#X connect 24 0 33 0;
#X connect 25 0 26 0;
#X connect 26 0 3 0;
#X connect 27 0 28 0;
#X connect 27 0 33 0;
#X connect 28 0 4 0;
#X connect 29 0 26 0;
#X connect 30 0 3 0;
#X connect 32 0 3 0;
#X connect 33 0 30 0;
#X connect 33 0 28 0;
#X connect 33 0 31 0;
#X restore 394 183 pd Calage;
#X obj 468 204 route speed;
#X floatatom 468 228 5 0 0 0 - - -;
#X obj 605 64 inlet;
#X obj 605 87 sel 1;
#X obj 605 109 del 1000;
#X msg 642 115 0;
#X msg 89 316 1 \$1;
#X obj 128 461 pack f f;
#X msg 128 481 D \$1 \$2;
#X obj 128 417 - 1;
#X obj 128 439 + \$3;
#X msg 156 315 2 \$1;
#X obj 128 396 unpack f f;
#X floatatom 156 292 5 0 100 0 - - -;
#X obj 28 40 r \$1-2StepMotor;
#X obj 28 82 s \$0-2StepMotor;
#X obj 108 103 r \$0-2StepMotor;
#X obj 332 48 r \$0-2StepMotor;
#X msg 24 267 60;
#X obj 246 156 s \$0-init;
#X obj 24 243 r \$0-init;
#X obj 332 90 s \$0-StepMotor;
#X obj 354 425 r \$0-StepMotor;
#X obj 354 467 s \$1-StepMotor;
#X obj 354 446 iem_prepend \$2;
#X floatatom 259 356 5 0 0 0 - - -;
#X obj 128 502 s \$1-toDMX2;
#X obj 416 253 hradio 15 1 0 11 empty empty empty 0 -8 0 10 -262144
-1 -1 0;
#X obj 282 431 print;
#X msg 116 221 60;
#X obj 467 159 tgl 15 0 empty empty empty 17 7 0 10 -262144 -1 -1 0
1;
#X obj 343 280 * 400;
#X msg 63 371 7 \$1;
#X floatatom 63 353 5 0 255 0 - - -;
#X msg 285 325 1e+06;
#X msg 36 304 0;
#X obj 226 311 hradio 15 1 0 8 empty empty empty 0 -8 0 10 -262144
-1 -1 0;
#X msg 162 217 10;
#X msg 259 395 3 \$4 \, 4 \$3 \, 5 \$2 \, 6 \$1;
#N canvas 0 0 266 347 to4x8bits 0;
#X obj 25 33 i;
#X obj 57 78 mod 256;
#X obj 25 99 div 256;
#X obj 25 56 t f f;
#X obj 57 141 mod 256;
#X obj 25 162 div 256;
#X obj 25 119 t f f;
#X obj 57 204 mod 256;
#X obj 25 225 div 256;
#X obj 25 182 t f f;
#X obj 25 246 mod 256;
#X obj 25 269 pack f f f f;
#X obj 25 11 inlet;
#X obj 25 295 outlet;
#X msg 93 302 3 \$4 \, 4 \$3 \, 5 \$2 \, 6 \$1;
#X connect 0 0 3 0;
#X connect 1 0 11 3;
#X connect 2 0 6 0;
#X connect 3 0 2 0;
#X connect 3 1 1 0;
#X connect 4 0 11 2;
#X connect 5 0 9 0;
#X connect 6 0 5 0;
#X connect 6 1 4 0;
#X connect 7 0 11 1;
#X connect 8 0 10 0;
#X connect 9 0 8 0;
#X connect 9 1 7 0;
#X connect 10 0 11 0;
#X connect 11 0 13 0;
#X connect 12 0 0 0;
#X restore 259 376 pd to4x8bits;
#N canvas 0 0 266 347 to4x8bits 0;
#X obj 25 33 i;
#X obj 57 78 mod 256;
#X obj 25 99 div 256;
#X obj 25 56 t f f;
#X obj 57 141 mod 256;
#X obj 25 162 div 256;
#X obj 25 119 t f f;
#X obj 57 204 mod 256;
#X obj 25 225 div 256;
#X obj 25 182 t f f;
#X obj 25 246 mod 256;
#X obj 25 269 pack f f f f;
#X obj 25 11 inlet;
#X obj 25 295 outlet;
#X msg 93 302 3 \$4 \, 4 \$3 \, 5 \$2 \, 6 \$1;
#X connect 0 0 3 0;
#X connect 1 0 11 3;
#X connect 2 0 6 0;
#X connect 3 0 2 0;
#X connect 3 1 1 0;
#X connect 4 0 11 2;
#X connect 5 0 9 0;
#X connect 6 0 5 0;
#X connect 6 1 4 0;
#X connect 7 0 11 1;
#X connect 8 0 10 0;
#X connect 9 0 8 0;
#X connect 9 1 7 0;
#X connect 10 0 11 0;
#X connect 11 0 13 0;
#X connect 12 0 0 0;
#X restore 212 185 pd to4x8bits;
#X obj 395 217 tgl 15 0 empty empty empty 17 7 0 10 -262144 -1 -1 0
1;
#X obj 512 129 * 400;
#X obj 28 60 route \$2 -1;
#X floatatom 361 221 5 0 0 0 - - -;
#X obj 231 62 print;
#X msg 349 301 pos \$1;
#X obj 349 321 s \$0-2StepMotor;
#X obj 509 228 s \$0-2StepMotor;
#X msg 502 172 -2;
#X text 558 31 44*3=132;
#X msg 424 208 80;
#X obj 666 276 i;
#X obj 666 254 +;
#X msg 292 228 0;
#X msg 493 319 commandpos \$1;
#X obj 613 307 / 400;
#X obj 615 327 + 0.5;
#X obj 615 346 i;
#X obj 615 367 change;
#X obj 597 413 s \$0-StepMotor;
#X obj 557 290 f;
#X msg 615 387 commandframe \$1;
#X obj 108 123 route current speed pos resetpos init frame calage resetframe
calagef inc maxframe;
#N canvas 778 25 517 432 inc 0;
#X obj 146 54 inlet;
#X obj 204 54 inlet;
#X text 143 37 incr;
#X text 204 38 set;
#X obj 284 47 inlet;
#X text 285 30 max;
#X obj 100 359 outlet;
#X text 97 378 frame;
#X obj 146 92 +;
#X obj 121 128 t f f;
#X floatatom 316 108 5 0 0 0 - - -;
#X obj 204 187 div 44;
#X obj 288 145 r \$1-loopnbframes;
#X obj 204 230 * 44;
#X obj 204 252 +;
#X obj 164 249 min;
#X floatatom 100 98 5 0 0 0 - - -;
#X floatatom 198 357 5 0 0 0 - - -;
#X msg 108 60 1;
#X floatatom 213 308 5 0 0 0 - - -;
#X floatatom 240 255 5 0 0 0 - - -;
#X obj 453 283 div 44;
#X obj 453 326 * 44;
#X obj 453 306 + 0;
#X obj 399 298 mod 44;
#X floatatom 402 204 5 0 0 0 - - -;
#X floatatom 393 378 5 0 0 0 - - -;
#X obj 399 231 - 12;
#X obj 406 264 + 22;
#X obj 408 335 - 22;
#X obj 401 82 div 44;
#X obj 401 125 * 44;
#X floatatom 382 8 5 0 0 0 - - -;
#X floatatom 444 162 5 0 0 0 - - -;
#X obj 401 39 - 12;
#X obj 452 132 + 12;
#X obj 401 105 + 1;
#X obj 401 59 - 1;
#X obj 204 146 - 12;
#X obj 204 166 - 1;
#X obj 204 208 + 1;
#X obj 446 46 mod 44;
#X msg 465 16 10;
#X obj 229 125 mod 44;
#X floatatom 298 208 5 0 0 0 - - -;
#X obj 262 380 print;
#X floatatom 82 231 5 0 0 0 - - -;
#X floatatom 298 75 5 0 0 0 - - -;
#X obj 204 99 t b f;
#X connect 0 0 8 0;
#X connect 1 0 44 0;
#X connect 1 0 8 1;
#X connect 4 0 47 0;
#X connect 4 0 48 0;
#X connect 8 0 9 0;
#X connect 8 0 46 0;
#X connect 9 0 15 0;
#X connect 10 0 14 1;
#X connect 11 0 40 0;
#X connect 12 0 11 1;
#X connect 12 0 13 1;
#X connect 12 0 43 1;
#X connect 13 0 14 0;
#X connect 14 0 15 1;
#X connect 14 0 19 0;
#X connect 15 0 17 0;
#X connect 15 0 8 1;
#X connect 15 0 6 0;
#X connect 15 0 38 0;
#X connect 16 0 9 0;
#X connect 18 0 8 0;
#X connect 20 0 14 1;
#X connect 21 0 23 0;
#X connect 23 0 22 0;
#X connect 24 0 29 0;
#X connect 25 0 27 0;
#X connect 27 0 28 0;
#X connect 28 0 24 0;
#X connect 29 0 26 0;
#X connect 30 0 36 0;
#X connect 31 0 35 0;
#X connect 32 0 34 0;
#X connect 34 0 37 0;
#X connect 35 0 33 0;
#X connect 36 0 31 0;
#X connect 37 0 30 0;
#X connect 38 0 39 0;
#X connect 39 0 11 0;
#X connect 40 0 13 0;
#X connect 41 0 34 1;
#X connect 42 0 41 0;
#X connect 42 0 35 1;
#X connect 43 0 38 1;
#X connect 48 0 38 0;
#X connect 48 1 43 0;
#X connect 48 1 14 1;
#X restore 296 256 pd inc;
#X floatatom 516 103 5 0 0 0 - - -;
#X obj 558 186 s \$0-2StepMotor;
#X msg 558 164 resetpos \$1;
#X connect 2 0 16 0;
#X connect 3 0 23 0;
#X connect 5 0 3 0;
#X connect 5 1 22 0;
#X connect 6 0 31 0;
#X connect 9 0 3 0;
#X connect 9 1 10 0;
#X connect 10 0 11 0;
#X connect 10 0 23 0;
#X connect 10 1 58 0;
#X connect 12 0 13 0;
#X connect 13 0 14 0;
#X connect 16 0 22 0;
#X connect 17 0 18 0;
#X connect 18 0 36 0;
#X connect 19 0 20 0;
#X connect 20 0 17 0;
#X connect 21 0 22 0;
#X connect 22 0 19 0;
#X connect 22 1 17 1;
#X connect 23 0 21 0;
#X connect 24 0 53 0;
#X connect 26 0 73 0;
#X connect 27 0 6 0;
#X connect 28 0 2 0;
#X connect 30 0 28 0;
#X connect 32 0 34 0;
#X connect 34 0 33 0;
#X connect 35 0 49 0;
#X connect 37 0 41 0;
#X connect 39 0 3 0;
#X connect 40 0 9 0;
#X connect 41 0 56 0;
#X connect 42 0 22 0;
#X connect 43 0 42 0;
#X connect 44 0 35 0;
#X connect 45 0 2 0;
#X connect 46 0 35 0;
#X connect 47 0 3 0;
#X connect 48 0 22 0;
#X connect 49 0 48 0;
#X connect 50 0 5 0;
#X connect 52 0 77 0;
#X connect 53 0 25 0;
#X connect 53 1 25 0;
#X connect 56 0 57 0;
#X connect 59 0 52 0;
#X connect 61 0 41 0;
#X connect 62 0 63 1;
#X connect 63 0 62 0;
#X connect 64 0 74 1;
#X connect 65 0 70 0;
#X connect 66 0 67 0;
#X connect 67 0 68 0;
#X connect 68 0 69 0;
#X connect 69 0 72 0;
#X connect 71 0 66 0;
#X connect 71 0 65 0;
#X connect 72 0 70 0;
#X connect 73 0 2 0;
#X connect 73 1 3 0;
#X connect 73 2 8 0;
#X connect 73 2 35 0;
#X connect 73 2 71 0;
#X connect 73 3 50 0;
#X connect 73 3 64 0;
#X connect 73 3 71 0;
#X connect 73 4 29 0;
#X connect 73 5 41 0;
#X connect 73 5 54 0;
#X connect 73 5 74 1;
#X connect 73 6 9 0;
#X connect 73 6 51 0;
#X connect 73 7 52 0;
#X connect 73 7 74 1;
#X connect 73 7 75 0;
#X connect 73 8 9 1;
#X connect 73 9 74 0;
#X connect 73 10 74 2;
#X connect 74 0 41 0;
#X connect 77 0 76 0;
