#N canvas 1052 94 450 300 12;
#X obj 94 32 inlet;
#X obj 94 218 outlet;
#X text 184 16 apfx2 REF1 REF2 NAME;
#X obj 94 119 apf \$1 \$3;
#X obj 200 118 apf \$2 \$3;
#X obj 94 170 t f f;
#X connect 0 0 3 0;
#X connect 0 0 4 0;
#X connect 3 0 5 0;
#X connect 4 0 5 0;
#X connect 5 0 1 0;
#X connect 5 1 3 0;
#X connect 5 1 4 0;
