#N canvas 2053 611 1050 458 12;
#X obj 177 19 route Automatic\$1;
#X obj 23 131 unpack f f;
#X obj 23 66 route pantilt dimmer speed gobo color shutter, f 92;
#X msg 23 156 1 \$1;
#X msg 90 155 2 \$1;
#X msg 130 158 6 \$1;
#X msg 236 156 3 \$1;
#X msg 342 155 5 \$1;
#X msg 450 153 4 \$1;
#X msg 556 154 7 \$1;
#X obj 23 209 unpack f f;
#X obj 23 234 - 1;
#X obj 23 259 + \$2;
#X obj 23 284 pack f f;
#X obj 23 309 s 2DMX;
#X obj 713 80 r \$3-fromTeleco;
#X obj 713 134 s \$0-fromTeleco;
#X obj 713 109 route Automatic\$1;
#X obj 854 110 list prepend Automatic\$1;
#X obj 854 136 s \$3-toTeleco;
#X obj 854 80 r \$0-toTeleco;
#X obj 675 198 r \$0-toMachine;
#X obj 675 227 list prepend Automatic\$1;
#X obj 859 205 r \$3-PLAYED_CONTROL;
#X obj 675 254 s \$3-toMachine;
#X obj 129 131 line;
#X obj 177 308 param_f \$0 dimmer PRESETS_\$3 PRESETS_\$3_auto \$3-line;
#X obj 23 11 r \$0-toMachine;
#X obj 176 333 param_f \$0 speed PRESETS_\$3 PRESETS_\$3_auto;
#X obj 178 357 param_f \$0 gobo PRESETS_\$3 PRESETS_\$3_auto;
#X obj 178 382 param_f \$0 color PRESETS_\$3 PRESETS_\$3_auto;
#X obj 177 406 param_f \$0 shutter PRESETS_\$3 PRESETS_\$3_auto;
#X obj 178 276 param_2f \$0 pantilt PRESETS_\$3 PRESETS_\$3_auto \$3-line;
#X obj 859 256 s \$0-PLAYED_CONTROL;
#X obj 859 230 route Automatic\$1;
#X obj 674 313 list prepend Automatic\$1;
#X obj 674 288 r \$0-toRecord;
#X obj 674 340 s \$3-toRecord;
#X connect 1 0 3 0;
#X connect 1 1 4 0;
#X connect 2 0 1 0;
#X connect 2 1 25 0;
#X connect 2 2 6 0;
#X connect 2 3 7 0;
#X connect 2 4 8 0;
#X connect 3 0 10 0;
#X connect 4 0 10 0;
#X connect 5 0 10 0;
#X connect 6 0 10 0;
#X connect 7 0 10 0;
#X connect 8 0 10 0;
#X connect 9 0 10 0;
#X connect 10 0 11 0;
#X connect 10 1 13 1;
#X connect 11 0 12 0;
#X connect 12 0 13 0;
#X connect 13 0 14 0;
#X connect 15 0 17 0;
#X connect 17 0 16 0;
#X connect 18 0 19 0;
#X connect 20 0 18 0;
#X connect 21 0 22 0;
#X connect 22 0 24 0;
#X connect 23 0 34 0;
#X connect 25 0 5 0;
#X connect 27 0 2 0;
#X connect 34 0 33 0;
#X connect 35 0 37 0;
#X connect 36 0 35 0;
