#N canvas 1227 366 596 419 12;
#X obj 129 23 r \$1-fromTeleco;
#X obj 129 322 s \$1-toMachine;
#X obj 291 241 s \$1-toTeleco;
#X obj 441 184 r \$1-toMachineRecOut;
#X obj 129 293 list trim;
#X obj 129 50 route \$2;
#X obj 129 76 route \$3;
#X obj 291 185 apfx2c \$4 \$5 \$2_\$3;
#X obj 291 212 list prepend \$2 \$3;
#X obj 441 212 route \$2;
#X obj 441 240 route \$3;
#X obj 125 364 Brepeat_control \$2 \$3 \$1-toMachine;
#X obj 129 264 list prepend \$2 \$3;
#X connect 0 0 5 0;
#X connect 3 0 9 0;
#X connect 4 0 1 0;
#X connect 5 0 6 0;
#X connect 6 0 7 0;
#X connect 6 0 12 0;
#X connect 7 0 8 0;
#X connect 7 0 12 0;
#X connect 8 0 2 0;
#X connect 9 0 10 0;
#X connect 10 0 8 0;
#X connect 12 0 4 0;
