#N canvas 1 82 890 516 12;
#X obj 47 64 route \$1;
#X obj 47 122 tgl 15 0 empty empty empty 17 7 0 10 -262144 -1 -1 1
1;
#X obj 256 186 s toTeleco;
#X obj 47 251 s toTelecoDirect;
#X obj 47 218 oscformat \$1/vis;
#X obj 120 157 oscformat \$1/text;
#X obj 120 131 l2s;
#X floatatom 280 136 5 0 0 0 - - -;
#X obj 47 300 r fromTeleco;
#X obj 47 326 route \$1;
#X obj 47 37 r 2TelecoControls;
#X obj 47 429 s TelecoControls;
#X obj 47 142 t b f, f 7;
#X obj 47 166 del 10;
#X obj 47 190 f, f 7;
#X obj 47 378 list prepend \$1;
#X obj 47 403 list trim;
#X obj 47 352 route val;
#X obj 256 159 list prepend \$1/val;
#X obj 338 136 list prepend \$1/n;
#X obj 347 48 hradio 15 1 0 8 empty empty empty 0 -8 0 10 -262144 -1
-1 2;
#X obj 347 68 + 1;
#X obj 474 139 t a a;
#X obj 507 163 list length;
#X floatatom 507 187 5 0 0 0 - - -;
#X msg 513 37 Un Deux Trois;
#X msg 540 9 One Two Three Four;
#X obj 576 256 list split 1;
#X obj 474 229 t a a, f 15;
#X obj 474 286 list split 1;
#X obj 576 290 t a b;
#X obj 608 313 i;
#X obj 638 313 + 1;
#X msg 626 289 0;
#X obj 608 341 list prepend \$1;
#X obj 576 449 s toTelecoDirect;
#X obj 576 423 oscformat \$1_b0/text;
#X msg 608 365 set \$1_b\$2/text;
#X obj 47 96 route vis text val n texts itemtext, f 94;
#X obj 746 245 list split 1;
#X obj 714 219 t a a;
#X obj 714 269 list split 1;
#X msg 646 50 bang;
#X msg 695 52 1 2 3 4 5 6 7 8;
#X msg 420 199 0 \, \$1, f 5;
#X connect 0 0 38 0;
#X connect 1 0 12 0;
#X connect 4 0 3 0;
#X connect 5 0 3 0;
#X connect 6 0 5 0;
#X connect 7 0 18 0;
#X connect 8 0 9 0;
#X connect 9 0 17 0;
#X connect 10 0 0 0;
#X connect 12 0 13 0;
#X connect 12 1 14 1;
#X connect 13 0 14 0;
#X connect 14 0 4 0;
#X connect 15 0 16 0;
#X connect 16 0 11 0;
#X connect 17 0 15 0;
#X connect 18 0 2 0;
#X connect 19 0 2 0;
#X connect 20 0 21 0;
#X connect 21 0 19 0;
#X connect 22 0 28 0;
#X connect 22 1 23 0;
#X connect 23 0 24 0;
#X connect 23 0 33 0;
#X connect 23 0 44 0;
#X connect 25 0 22 0;
#X connect 26 0 22 0;
#X connect 27 0 30 0;
#X connect 28 0 29 0;
#X connect 28 1 27 0;
#X connect 29 1 28 0;
#X connect 30 0 36 0;
#X connect 30 1 31 0;
#X connect 31 0 32 0;
#X connect 31 0 34 0;
#X connect 32 0 31 1;
#X connect 33 0 31 1;
#X connect 34 0 37 0;
#X connect 36 0 35 0;
#X connect 37 0 36 0;
#X connect 38 0 1 0;
#X connect 38 1 6 0;
#X connect 38 2 18 0;
#X connect 38 3 19 0;
#X connect 38 4 22 0;
#X connect 38 5 40 0;
#X connect 39 0 34 0;
#X connect 40 0 41 0;
#X connect 40 1 39 0;
#X connect 41 1 36 0;
#X connect 42 0 22 0;
#X connect 43 0 22 0;
#X connect 44 0 19 0;
