#N canvas 709 44 687 603 12;
#X obj 297 231 + 0.1;
#X obj 297 206 * 1000;
#X obj 297 184 pow 10;
#X obj 229 362 + 0.5;
#X obj 229 385 *;
#X obj 229 438 * -1;
#X obj 229 461 + 1;
#X obj 228 246 sin;
#X obj 228 269 * 1;
#X obj 228 292 atan;
#X obj 228 315 /;
#X obj 265 292 atan 1;
#X obj 265 269 f;
#X obj 228 180 fmod 1;
#X obj 228 202 * 3.14159;
#X obj 228 339 * 0.5;
#X obj 228 224 * 2;
#X obj 228 109 inlet;
#X obj 285 358 pow 2;
#X obj 229 509 outlet;
#X obj 228 155 + 0;
#X obj 481 48 loadbang;
#X obj 481 73 f \$1;
#X obj 481 98 - 1;
#X obj 356 74 * 0;
#X obj 229 486 list prepend \$1;
#X obj 356 49 r \$2mode-dephase;
#X obj 297 162 r \$2mode2-val;
#X obj 285 330 r \$2mode3-val;
#X obj 140 539 s Pixel\$1-mult;
#X obj 416 511 list prepend Pixel\$1_vu;
#X obj 416 536 s \$2-toTeleco;
#X floatatom 112 451 5 0 0 0 - - - 0;
#X obj 229 412 change;
#X connect 0 0 12 0;
#X connect 1 0 0 0;
#X connect 2 0 1 0;
#X connect 3 0 4 0;
#X connect 4 0 33 0;
#X connect 5 0 6 0;
#X connect 6 0 25 0;
#X connect 6 0 29 0;
#X connect 6 0 30 0;
#X connect 7 0 8 0;
#X connect 8 0 9 0;
#X connect 9 0 10 0;
#X connect 10 0 15 0;
#X connect 11 0 10 1;
#X connect 12 0 11 0;
#X connect 12 0 8 1;
#X connect 13 0 14 0;
#X connect 14 0 16 0;
#X connect 15 0 3 0;
#X connect 16 0 7 0;
#X connect 17 0 20 0;
#X connect 18 0 4 1;
#X connect 20 0 13 0;
#X connect 21 0 22 0;
#X connect 22 0 23 0;
#X connect 23 0 24 1;
#X connect 24 0 20 1;
#X connect 25 0 19 0;
#X connect 26 0 24 0;
#X connect 27 0 2 0;
#X connect 28 0 18 0;
#X connect 30 0 31 0;
#X connect 33 0 5 0;
