#N canvas 0 94 450 300 12;
#X obj 78 37 inlet;
#X obj 78 118 pack f f;
#X obj 78 142 line;
#X obj 78 268 outlet;
#X obj 131 92 r \$1;
#X obj 78 69 unpack f f, f 14;
#X obj 78 167 t b f, f 7;
#X obj 78 192 del 1;
#X obj 78 217 f, f 7;
#X obj 78 242 pack f f, f 20;
#X obj 173 120 pack f f;
#X obj 173 144 line;
#X obj 226 94 r \$1;
#X obj 173 169 t b f, f 7;
#X connect 0 0 5 0;
#X connect 1 0 2 0;
#X connect 2 0 6 0;
#X connect 4 0 1 1;
#X connect 5 0 1 0;
#X connect 5 1 10 0;
#X connect 6 0 7 0;
#X connect 6 1 8 1;
#X connect 7 0 8 0;
#X connect 8 0 9 0;
#X connect 10 0 11 0;
#X connect 11 0 13 0;
#X connect 12 0 10 1;
#X connect 13 0 8 0;
#X connect 13 1 9 1;
