#N canvas 2389 721 753 455 12;
#X obj 139 21 inlet;
#X obj 30 18 r fromTeleco;
#X obj 30 48 spigot, f 16;
#X obj 30 132 t b a, f 11;
#X msg 30 157 2 \, 3 \, 4;
#X obj 30 242 list append;
#X obj 206 35 tgl 15 0 empty empty empty 17 7 0 10 #fcfcfc #000000 #000000 0 1;
#X obj 30 314 s fromTeleco;
#X obj 30 78 route proj1;
#X obj 30 103 route \$1;
#X msg 30 187 symbol proj\$1;
#X obj 136 189 list prepend \$1;
#X obj 30 267 list trim;
#X connect 0 0 2 1;
#X connect 1 0 2 0;
#X connect 2 0 8 0;
#X connect 3 0 4 0;
#X connect 3 1 11 0;
#X connect 4 0 10 0;
#X connect 5 0 12 0;
#X connect 6 0 2 1;
#X connect 8 0 9 0;
#X connect 9 0 3 0;
#X connect 10 0 5 0;
#X connect 11 0 5 1;
#X connect 12 0 7 0;
