#N canvas 2332 582 572 281 12;
#X obj 277 58 unpack f f, f 18;
#X obj 277 112 t b f, f 7;
#X obj 277 172 f, f 7;
#X obj 277 142 del 1;
#X obj 277 197 pack f f, f 23;
#X obj 400 113 t b f;
#X obj 277 87 apfx2c \$3 \$4 \$2_1;
#X obj 400 87 apfx2c \$3 \$4 \$2_2;
#X text 74 21 args: \$0 param_name preset1 preset2 [linetime_rcv];
#X obj 68 124 param_common \$1 \$2 2 \$5;
#X connect 0 0 6 0;
#X connect 0 1 7 0;
#X connect 1 0 3 0;
#X connect 1 1 2 1;
#X connect 2 0 4 0;
#X connect 3 0 2 0;
#X connect 4 0 9 0;
#X connect 5 0 3 0;
#X connect 5 1 4 1;
#X connect 6 0 1 0;
#X connect 7 0 5 0;
#X connect 9 0 0 0;
