#N canvas 2303 627 1378 526 12;
#X obj 280 161 t b f, f 7;
#X obj 280 271 f, f 7;
#X obj 280 246 del 1;
#X obj 403 162 t b f;
#X obj 280 107 unpack f f f f f f f f, f 131;
#X obj 280 296 pack f f f f f f f f, f 131;
#X obj 540 160 t b f;
#X obj 672 162 t b f, f 7;
#X obj 795 163 t b f;
#X obj 932 161 t b f;
#X obj 1063 162 t b f;
#X obj 1194 161 t b f;
#X obj 280 136 apfx2c \$3 \$4 \$2_1;
#X obj 403 136 apfx2c \$3 \$4 \$2_2;
#X obj 540 134 apfx2c \$3 \$4 \$2_3;
#X obj 672 137 apfx2c \$3 \$4 \$2_4;
#X obj 795 137 apfx2c \$3 \$4 \$2_5;
#X obj 932 135 apfx2c \$3 \$4 \$2_6;
#X obj 1063 136 apfx2c \$3 \$4 \$2_7;
#X obj 1194 135 apfx2c \$3 \$4 \$2_8;
#X text 42 24 args: \$0 param_name preset1 preset2 [linetime_rcv];
#X obj 85 197 param_common \$1 \$2 8 \$5;
#X connect 0 0 2 0;
#X connect 0 1 1 1;
#X connect 1 0 5 0;
#X connect 2 0 1 0;
#X connect 3 0 2 0;
#X connect 3 1 5 1;
#X connect 4 0 12 0;
#X connect 4 1 13 0;
#X connect 4 2 14 0;
#X connect 4 3 15 0;
#X connect 4 4 16 0;
#X connect 4 5 17 0;
#X connect 4 6 18 0;
#X connect 4 7 19 0;
#X connect 5 0 21 0;
#X connect 6 0 2 0;
#X connect 6 1 5 2;
#X connect 7 0 2 0;
#X connect 7 1 5 3;
#X connect 8 0 2 0;
#X connect 8 1 5 4;
#X connect 9 0 2 0;
#X connect 9 1 5 5;
#X connect 10 0 2 0;
#X connect 10 1 5 6;
#X connect 11 0 2 0;
#X connect 11 1 5 7;
#X connect 12 0 0 0;
#X connect 13 0 3 0;
#X connect 14 0 6 0;
#X connect 15 0 7 0;
#X connect 16 0 8 0;
#X connect 17 0 9 0;
#X connect 18 0 10 0;
#X connect 19 0 11 0;
#X connect 21 0 4 0;
