#N canvas 2193 592 551 724 12;
#X obj 46 44 r \$1-fromTeleco;
#X obj 46 449 s \$1-toMachine;
#X obj 46 73 route \$2;
#X obj 46 315 list prepend \$2;
#X obj 257 407 list prepend \$2;
#X obj 257 442 s \$1-toTeleco;
#X obj 46 420 list trim;
#X obj 46 231 list append;
#X obj 304 144 r \$1-PLAYED_CONTROL;
#X obj 304 169 route \$2;
#X obj 48 484 r REPEAT_CONTROL;
#X obj 48 624 list trim;
#X obj 48 574 list append 0;
#X obj 136 523 r \$1-toMachine;
#X obj 136 548 route \$2;
#X obj 48 599 list prepend \$2;
#X obj 48 649 s \$1-toMachine;
#X obj 257 257 spigot 1;
#X obj 135 116 outlet to_apf;
#X obj 135 154 inlet from_apf;
#X obj 46 257 t a b;
#X obj 358 210 t b b;
#X msg 358 236 0;
#X obj 392 236 del 1500;
#X msg 392 261 1;
#X obj 257 301 list split \$3;
#X obj 120 205 r \$4;
#X text 82 15 args: \$0 param_name nb_f [linetime_rcv];
#X obj 257 326 t b a, f 8;
#X obj 257 351 del 5;
#X obj 257 376 list, f 8;
#X obj 46 343 t b a, f 8;
#X obj 46 368 del 5;
#X obj 46 393 list, f 8;
#X obj 153 448 s \$1-toRecord;
#X obj 157 648 s \$1-toRecord;
#X connect 0 0 2 0;
#X connect 2 0 18 0;
#X connect 2 0 7 0;
#X connect 3 0 31 0;
#X connect 3 0 34 0;
#X connect 4 0 5 0;
#X connect 6 0 1 0;
#X connect 7 0 20 0;
#X connect 8 0 9 0;
#X connect 9 0 17 0;
#X connect 10 0 12 0;
#X connect 11 0 16 0;
#X connect 11 0 35 0;
#X connect 12 0 15 0;
#X connect 13 0 14 0;
#X connect 14 0 12 1;
#X connect 15 0 11 0;
#X connect 17 0 3 0;
#X connect 17 0 25 0;
#X connect 19 0 7 0;
#X connect 19 0 4 0;
#X connect 20 0 3 0;
#X connect 20 1 21 0;
#X connect 21 0 22 0;
#X connect 21 1 23 0;
#X connect 22 0 17 1;
#X connect 23 0 24 0;
#X connect 24 0 17 1;
#X connect 25 0 28 0;
#X connect 26 0 7 1;
#X connect 28 0 29 0;
#X connect 28 1 30 1;
#X connect 29 0 30 0;
#X connect 30 0 4 0;
#X connect 31 0 32 0;
#X connect 31 1 33 1;
#X connect 32 0 33 0;
#X connect 33 0 6 0;
