#N canvas 869 233 711 410 12;
#X obj 280 161 t b f, f 7;
#X obj 280 271 f, f 7;
#X obj 280 246 del 1;
#X obj 408 162 t b f;
#X obj 536 160 t b f;
#X obj 280 107 unpack f f f, f 37;
#X obj 280 296 pack f f f, f 42;
#X obj 280 136 apfx2c \$3 \$4 \$2_1;
#X obj 408 136 apfx2c \$3 \$4 \$2_2;
#X obj 536 134 apfx2c \$3 \$4 \$2_3;
#X text 42 24 args: \$0 param_name preset1 preset2 [linetime_rcv];
#X obj 69 190 param_common \$1 \$2 3 \$5;
#X connect 0 0 2 0;
#X connect 0 1 1 1;
#X connect 1 0 6 0;
#X connect 2 0 1 0;
#X connect 3 0 2 0;
#X connect 3 1 6 1;
#X connect 4 0 2 0;
#X connect 4 1 6 2;
#X connect 5 0 7 0;
#X connect 5 1 8 0;
#X connect 5 2 9 0;
#X connect 6 0 11 0;
#X connect 7 0 0 0;
#X connect 8 0 3 0;
#X connect 9 0 4 0;
#X connect 11 0 5 0;
