#N canvas 2097 1016 692 314 12;
#X obj 29 13 r fromTeleco;
#X obj 29 38 route proj\$1;
#X obj 29 63 s \$0-fromTeleco;
#X obj 157 14 r \$0-toTeleco;
#X obj 157 65 oscformat proj\$1;
#X obj 157 39 list;
#X obj 157 90 s toTelecoDirect;
#X obj 313 11 r \$0-toMachine;
#X obj 313 40 list prepend proj\$1;
#X obj 313 67 list trim;
#X obj 313 95 s CONTROL;
#X obj 474 14 r PLAYED_CONTROL;
#X obj 474 39 route proj\$1;
#X obj 474 64 s \$0-PLAYED_CONTROL;
#X connect 0 0 1 0;
#X connect 1 0 2 0;
#X connect 3 0 5 0;
#X connect 4 0 6 0;
#X connect 5 0 4 0;
#X connect 7 0 8 0;
#X connect 8 0 9 0;
#X connect 9 0 10 0;
#X connect 11 0 12 0;
#X connect 12 0 13 0;
