#N canvas 2090 650 765 531 12;
#X msg 22 316 1 \$1;
#X msg 139 320 2 \$1;
#X obj 22 369 unpack f f;
#X obj 22 394 - 1;
#X obj 22 419 + \$2;
#X obj 22 444 pack f f;
#X obj 22 471 s 2DMX;
#X msg 257 318 3 \$1;
#X obj 431 85 r \$3-fromTeleco;
#X obj 22 12 r \$3-toMachine;
#X obj 22 40 route Pixel\$1 stop;
#X obj 22 74 t a b, f 12;
#X msg 103 101 0;
#X obj 22 126 pack f f f f;
#X obj 22 160 unpack f f f f, f 50;
#X obj 22 192 line_f;
#X obj 139 194 line_f;
#X obj 257 193 line_f;
#X obj 431 37 param_3f \$3 Pixel\$1 PRESETS_\$3 NONE \$3-line;
#X obj 431 111 route Pixel\$1 Pixel1;
#X obj 499 160 spigot;
#X obj 538 135 r \$3-Pixel1_toAll;
#X obj 499 185 list prepend Pixel\$1;
#X obj 499 210 list trim;
#X obj 499 237 s \$3-fromTeleco;
#X obj 210 92 r Pixel\$1-mult;
#X obj 55 225 t b f;
#X obj 22 280 change;
#X obj 22 254 i;
#X obj 22 227 * 1;
#X obj 172 230 t b f;
#X obj 139 285 change;
#X obj 139 259 i;
#X obj 139 232 * 1;
#X obj 290 234 t b f;
#X obj 257 289 change;
#X obj 257 263 i;
#X obj 257 236 * 1;
#X connect 0 0 2 0;
#X connect 1 0 2 0;
#X connect 2 0 3 0;
#X connect 2 1 5 1;
#X connect 3 0 4 0;
#X connect 4 0 5 0;
#X connect 5 0 6 0;
#X connect 7 0 2 0;
#X connect 8 0 19 0;
#X connect 9 0 10 0;
#X connect 10 0 11 0;
#X connect 11 0 13 0;
#X connect 11 1 12 0;
#X connect 12 0 13 3;
#X connect 13 0 14 0;
#X connect 14 0 15 0;
#X connect 14 1 16 0;
#X connect 14 2 17 0;
#X connect 14 3 17 1;
#X connect 14 3 16 1;
#X connect 14 3 15 1;
#X connect 15 0 29 0;
#X connect 16 0 33 0;
#X connect 17 0 37 0;
#X connect 19 1 20 0;
#X connect 20 0 22 0;
#X connect 21 0 20 1;
#X connect 22 0 23 0;
#X connect 23 0 24 0;
#X connect 25 0 26 0;
#X connect 25 0 30 0;
#X connect 25 0 34 0;
#X connect 26 0 29 0;
#X connect 26 1 29 1;
#X connect 27 0 0 0;
#X connect 28 0 27 0;
#X connect 29 0 28 0;
#X connect 30 0 33 0;
#X connect 30 1 33 1;
#X connect 31 0 1 0;
#X connect 32 0 31 0;
#X connect 33 0 32 0;
#X connect 34 0 37 0;
#X connect 34 1 37 1;
#X connect 35 0 7 0;
#X connect 36 0 35 0;
#X connect 37 0 36 0;
