#N canvas 979 94 439 905 10;
#X obj 50 23 r fromTeleco;
#X msg 50 140 \$2 \$1;
#X obj 50 69 unpack s f;
#X obj 50 92 f;
#X obj 50 115 pack f f, f 10;
#X obj 50 163 route 1 0, f 51;
#X obj 97 523 s toTeleco;
#X obj 50 320 sel 1;
#X obj 50 430 route 0 1, f 29;
#X obj 50 407 list prepend 0, f 21;
#X obj 81 681 bng 15 250 50 0 empty empty empty 17 7 0 10 #00fc04 #000000 #000000;
#X obj 319 679 bng 15 250 50 0 empty empty empty 17 7 0 10 #fc0400 #000000 #000000;
#X obj 82 660 loadbang;
#X obj 283 492 del 50;
#X msg 74 580 _all_ load \$1;
#X msg 170 580 _all_ store \$1;
#X obj 170 464 t f b, f 10;
#X obj 201 187 spigot;
#X obj 50 187 t b f f, f 22;
#X obj 74 555 - 1;
#X obj 170 557 - 1;
#X obj 253 178 bng 15 250 50 0 empty empty empty 17 7 0 10 #fcfcfc #000000 #000000;
#X obj 82 756 route loaded saved;
#X obj 82 782 b;
#X obj 201 755 loadbang;
#X obj 50 46 route preset_\$1 store_\$1, f 42;
#X obj 50 213 f \$3;
#X obj 50 236 t f b;
#X obj 50 259 until;
#X obj 50 282 i;
#X obj 87 282 + 1;
#X msg 95 257 1;
#X obj 201 354 list append \$1;
#X msg 201 378 preset_\$2/\$1 1;
#X obj 77 353 list append \$1;
#X msg 77 379 preset_\$2/\$1 0;
#X obj 198 501 symbol \$1;
#X msg 198 524 store_\$1 0;
#X obj 283 518 s \$2-save;
#X obj 319 653 r \$2-save;
#X obj 82 632 apmaster \$2;
#X obj 74 605 s \$2-pattern-snd;
#X obj 82 733 r \$2-apmaster-snd;
#X obj 82 807 f \$3;
#X msg 82 833 _all_ _nbpattern_ \$1;
#X obj 82 857 s \$2-setap-snd;
#X obj 82 700 apmasterfile \$2 ../data/presets_\$1.txt;
#X floatatom 12 132 5 0 0 0 - - - 0;
#X msg 266 304 1;
#X obj 153 659 r RELOAD_PRESETS;
#X connect 0 0 25 0;
#X connect 1 0 5 0;
#X connect 2 0 3 0;
#X connect 2 1 4 1;
#X connect 3 0 4 0;
#X connect 3 0 47 0;
#X connect 4 0 1 0;
#X connect 5 0 18 0;
#X connect 5 1 17 0;
#X connect 7 1 34 0;
#X connect 8 0 19 0;
#X connect 8 1 16 0;
#X connect 9 0 8 0;
#X connect 10 0 46 0;
#X connect 11 0 46 1;
#X connect 12 0 10 0;
#X connect 13 0 38 0;
#X connect 14 0 41 0;
#X connect 15 0 41 0;
#X connect 16 0 20 0;
#X connect 16 1 13 0;
#X connect 16 1 36 0;
#X connect 17 0 21 0;
#X connect 17 0 32 0;
#X connect 18 0 26 0;
#X connect 18 1 9 0;
#X connect 18 2 7 1;
#X connect 19 0 14 0;
#X connect 20 0 15 0;
#X connect 22 0 23 0;
#X connect 22 1 23 0;
#X connect 23 0 43 0;
#X connect 24 0 23 0;
#X connect 25 0 2 0;
#X connect 25 1 9 1;
#X connect 25 1 17 1;
#X connect 26 0 27 0;
#X connect 27 0 28 0;
#X connect 27 1 31 0;
#X connect 28 0 29 0;
#X connect 29 0 30 0;
#X connect 29 0 7 0;
#X connect 30 0 29 1;
#X connect 31 0 29 1;
#X connect 32 0 33 0;
#X connect 33 0 6 0;
#X connect 34 0 35 0;
#X connect 35 0 6 0;
#X connect 36 0 37 0;
#X connect 37 0 6 0;
#X connect 39 0 11 0;
#X connect 42 0 22 0;
#X connect 43 0 44 0;
#X connect 44 0 45 0;
#X connect 48 0 32 0;
#X connect 49 0 10 0;
