#N canvas 2795 554 992 660 12;
#X obj 27 135 r fromTeleco;
#X obj 26 288 r MONITOR;
#X obj 26 321 list trim;
#X obj 26 452 pack f f;
#X obj 26 374 t b f;
#X obj 26 399 del 5;
#X obj 26 424 f;
#X obj 73 373 t b f;
#X obj 410 431 r MONITOR;
#X obj 410 459 list trim;
#X obj 410 487 route \$1L1 \$1L2 \$1L3, f 77;
#X obj 25 539 r MOT\$1-realPos;
#X obj 25 592 list prepend \$1Rreal;
#X obj 25 617 s MONITOR;
#X obj 26 349 route \$1X \$1Y \$1Rreal;
#X obj 25 565 change;
#X obj 29 13 r fromTeleco;
#X obj 29 38 route proj\$1;
#X obj 29 63 s \$0-fromTeleco;
#X obj 157 14 r \$0-toTeleco;
#X obj 157 65 oscformat proj\$1;
#X obj 157 39 list;
#X obj 25 505 s \$0-toTeleco;
#X obj 25 481 list prepend pantilt_vu;
#X obj 157 90 s toTelecoDirect;
#X obj 313 11 r \$0-toMachine;
#X obj 26 189 s \$0-Vrot;
#X obj 313 40 list prepend proj\$1;
#X obj 313 67 list trim;
#X obj 122 450 list prepend rotation_vu;
#X obj 615 115 presets_teleco projlum\$1 PRESETS_LUM\$1 16;
#X obj 617 20 apsubmaster \$0-PRESETS_MOT PRESETS_MOT proj\$1;
#X obj 617 45 apsubmaster \$0-PRESETS_LUM PRESETS_LUM proj\$1;
#X obj 25 228 param_2f \$0 pantilt \$0-PRESETS_MOT NONE \$0-Vrot;
#X obj 26 255 param_f \$0 rotation \$0-PRESETS_MOT NONE \$0-Vrot;
#X obj 401 230 param_f \$0 lumiere1 \$0-PRESETS_LUM PRESETS_LUM\$1 \$0-Vlum;
#X obj 101 189 s \$0-Vlum;
#X obj 410 543 s \$0-toTeleco;
#X obj 410 512 list prepend lumiere1_vu;
#X obj 588 513 list prepend lumiere2_vu;
#X obj 767 513 list prepend lumiere3_vu;
#X obj 401 258 param_f \$0 lumiere2 \$0-PRESETS_LUM PRESETS_LUM\$1 \$0-Vlum;
#X obj 401 283 param_f \$0 lumiere3 \$0-PRESETS_LUM \$0-PRESETS_LUMG \$0-Vlum;
#X obj 616 71 apsubmaster \$0-PRESETS_LUMG PRESETS_LUMG proj\$1;
#X obj 26 161 route Vrot Vlum, f 22;
#X obj 400 329 param_f \$0 mode1 \$0-PRESETS_LUM PRESETS_LUM\$1 \$0-Vlum;
#X obj 400 353 param_f \$0 mode2 \$0-PRESETS_LUM PRESETS_LUM\$1 \$0-Vlum;
#X obj 400 378 param_f \$0 mode3 \$0-PRESETS_LUM PRESETS_LUM\$1 \$0-Vlum;
#X obj 313 95 s CONTROL;
#X obj 474 14 r PLAYED_CONTROL;
#X obj 474 39 route proj\$1;
#X obj 474 64 s \$0-PLAYED_CONTROL;
#X obj 312 151 list prepend proj\$1;
#X obj 312 178 list trim;
#X obj 312 122 r \$0-toRecord;
#X obj 312 206 s REC_CONTROL;
#X connect 0 0 44 0;
#X connect 1 0 2 0;
#X connect 2 0 14 0;
#X connect 3 0 23 0;
#X connect 4 0 5 0;
#X connect 4 1 6 1;
#X connect 5 0 6 0;
#X connect 6 0 3 0;
#X connect 7 0 5 0;
#X connect 7 1 3 1;
#X connect 8 0 9 0;
#X connect 9 0 10 0;
#X connect 10 0 38 0;
#X connect 10 1 39 0;
#X connect 10 2 40 0;
#X connect 11 0 15 0;
#X connect 12 0 13 0;
#X connect 14 0 4 0;
#X connect 14 1 7 0;
#X connect 14 2 29 0;
#X connect 15 0 12 0;
#X connect 16 0 17 0;
#X connect 17 0 18 0;
#X connect 19 0 21 0;
#X connect 20 0 24 0;
#X connect 21 0 20 0;
#X connect 23 0 22 0;
#X connect 25 0 27 0;
#X connect 27 0 28 0;
#X connect 28 0 48 0;
#X connect 29 0 22 0;
#X connect 38 0 37 0;
#X connect 39 0 37 0;
#X connect 40 0 37 0;
#X connect 44 0 26 0;
#X connect 44 1 36 0;
#X connect 49 0 50 0;
#X connect 50 0 51 0;
#X connect 52 0 53 0;
#X connect 53 0 55 0;
#X connect 54 0 52 0;
