#N canvas 343 163 774 358 10;
#X obj 29 13 r fromTeleco;
#X obj 29 56 s \$0-fromTeleco;
#X obj 157 14 r \$0-toTeleco;
#X obj 157 36 list;
#X obj 157 80 s toTelecoDirect;
#X obj 313 11 r \$0-toMachine;
#X obj 313 55 list trim;
#X obj 313 77 s CONTROL;
#X obj 621 10 r PLAYED_CONTROL;
#X obj 621 52 s \$0-PLAYED_CONTROL;
#X obj 466 54 list trim;
#X obj 466 9 r \$0-toRecord;
#X obj 466 76 s REC_CONTROL;
#X obj 29 35 route ProjoFixes;
#X obj 157 58 oscformat ProjoFixes;
#X obj 313 33 list prepend ProjoFixes;
#X obj 466 32 list prepend ProjoFixes;
#X obj 621 31 route ProjoFixes;
#X obj 90 179 ProjoFixe 1 \$0;
#X obj 205 157 r \$0-toMachine;
#X obj 466 120 r \$0-fromTeleco;
#X obj 466 165 s \$0-Line;
#X floatatom 406 169 5 0 0 0 - - - 0;
#X obj 466 142 route Line FirstToAll, f 22;
#X obj 530 164 s \$0-FirstToAll;
#X obj 639 166 tgl 18 0 empty empty empty 0 -9 0 10 #fcfcfc #000000 #000000 0 1;
#X obj 467 215 param_f \$0 Vitesse PRESETS_\$0 NONE \$0-Line;
#X obj 205 203 line, f 6;
#N canvas 881 77 905 842 modes 0;
#X obj 203 128 tgl 15 0 empty empty empty 17 7 0 10 #fcfcfc #000000 #000000 0 1;
#X text 98 3 mode1:vitesse-sym-gauche=alterné \, droite=ensemble;
#X text 99 30 mode3: amplitude;
#X obj 150 104 * 2;
#X obj 150 127 - 1;
#X obj 150 150 abs;
#X obj 150 224 / 100;
#X obj 203 289 + 0;
#X obj 203 312 fmod 1;
#X obj 98 736 hsl 128 15 0 1 0 0 empty empty empty -2 -8 0 10 #fcfcfc #000000 #000000 0 1;
#X obj 203 266 f;
#X obj 99 717 hsl 128 15 0 1 0 0 empty empty empty -2 -8 0 10 #fcfcfc #000000 #000000 0 1;
#X obj 150 175 pow 3;
#X text 97 16 mode2: smooth \, si à ZÉRO=rnd;
#X obj 150 201 * 30;
#X obj 203 198 sel 0 1, f 42;
#X obj 327 260 / 1e+06;
#X obj 327 331 * 0.05;
#X obj 371 354 * 0.95;
#X obj 300 143 < 0.01;
#X obj 368 422 * 0.95;
#X obj 327 400 * 0.05;
#X obj 327 237 random 2e+06;
#X obj 327 283 - 1;
#X obj 327 471 + 1;
#X obj 327 494 / 2;
#X obj 327 354 + 0;
#X obj 327 377 clip -1 1;
#X obj 327 423 + 0;
#X obj 327 447 clip -1 1;
#X obj 402 308 * -1;
#X obj 402 331 + 1;
#X obj 406 377 * -1;
#X obj 406 400 + 1;
#X obj 421 279 f;
#X floatatom 508 214 5 0 0 0 - - - 0;
#X obj 508 236 / 100;
#X obj 327 307 * 3;
#X obj 485 185 * 1;
#X obj 486 159 pow 3;
#X obj 98 777 hsl 128 15 0 1 0 0 empty empty empty -2 -8 0 10 #fcfcfc #000000 #000000 0 1;
#X obj 98 756 hsl 128 15 0 1 0 0 empty empty empty -2 -8 0 10 #fcfcfc #000000 #000000 0 1;
#X obj 157 648 spigot;
#X obj 208 649 tgl 15 0 empty empty empty 17 7 0 10 #fcfcfc #000000 #000000 0 1;
#X obj 203 105 loadbang;
#X obj 89 561 dmxmode_chan 1 \$1;
#X obj 365 567 dmxmode_chan 3 \$1;
#X obj 228 563 dmxmode_chan 2 \$1;
#X obj 503 568 dmxmode_chan 4 \$1;
#X obj 638 568 dmxmode_chan 5 \$1;
#X obj 157 671 route 1 2 3 4 5, f 70;
#X obj 98 796 hsl 128 15 0 1 0 0 empty empty empty -2 -8 0 10 #fcfcfc #000000 #000000 0 1;
#X obj 203 173 f 1, f 12;
#X obj 203 149 metro 20;
#X obj 768 569 dmxmode_chan 6 \$1;
#X obj 282 36 r \$0-toMachine;
#X obj 282 82 line, f 6;
#X obj 282 59 route Vitesse Dureté;
#X obj 340 82 line, f 6;
#X obj 152 517 s \$0-phase;
#X connect 0 0 53 0;
#X connect 3 0 4 0;
#X connect 4 0 5 0;
#X connect 5 0 12 0;
#X connect 5 0 39 0;
#X connect 6 0 7 1;
#X connect 7 0 8 0;
#X connect 8 0 10 1;
#X connect 8 0 45 0;
#X connect 8 0 46 0;
#X connect 8 0 47 0;
#X connect 8 0 48 0;
#X connect 8 0 49 0;
#X connect 8 0 54 0;
#X connect 8 0 59 0;
#X connect 10 0 7 0;
#X connect 12 0 14 0;
#X connect 14 0 6 0;
#X connect 15 0 10 0;
#X connect 15 1 22 0;
#X connect 16 0 23 0;
#X connect 17 0 26 0;
#X connect 18 0 26 1;
#X connect 19 0 52 1;
#X connect 20 0 28 1;
#X connect 21 0 28 0;
#X connect 22 0 16 0;
#X connect 23 0 37 0;
#X connect 24 0 25 0;
#X connect 25 0 8 0;
#X connect 26 0 27 0;
#X connect 27 0 18 0;
#X connect 27 0 21 0;
#X connect 28 0 29 0;
#X connect 29 0 20 0;
#X connect 29 0 24 0;
#X connect 30 0 31 0;
#X connect 31 0 18 1;
#X connect 32 0 33 0;
#X connect 33 0 20 1;
#X connect 34 0 17 1;
#X connect 34 0 30 0;
#X connect 34 0 32 0;
#X connect 34 0 21 1;
#X connect 35 0 36 0;
#X connect 36 0 34 0;
#X connect 37 0 17 0;
#X connect 38 0 34 0;
#X connect 39 0 38 0;
#X connect 42 0 50 0;
#X connect 43 0 42 1;
#X connect 44 0 0 0;
#X connect 45 0 42 0;
#X connect 46 0 42 0;
#X connect 47 0 42 0;
#X connect 48 0 42 0;
#X connect 49 0 42 0;
#X connect 50 0 11 0;
#X connect 50 1 9 0;
#X connect 50 2 41 0;
#X connect 50 3 40 0;
#X connect 50 4 51 0;
#X connect 52 0 15 0;
#X connect 53 0 52 0;
#X connect 54 0 42 0;
#X connect 55 0 57 0;
#X connect 56 0 3 0;
#X connect 57 0 56 0;
#X connect 57 1 58 0;
#X connect 58 0 19 0;
#X restore 164 135 pd modes;
#X obj 205 180 route Vitesse Dureté Déphase Amp;
#X obj 252 203 line, f 6;
#X obj 299 203 line, f 6;
#X obj 346 203 line, f 6;
#X obj 205 226 s \$0-Vitesse;
#X obj 242 253 s \$0-Dureté;
#X obj 302 227 s \$0-Déphase;
#X obj 339 254 s \$0-Amp;
#X obj 467 238 param_f \$0 Dureté PRESETS_\$0 NONE \$0-Line;
#X obj 467 262 param_f \$0 Déphase PRESETS_\$0 NONE \$0-Line;
#X obj 467 285 param_f \$0 Amp PRESETS_\$0 NONE \$0-Line;
#X obj 467 190 presets_teleco ProjoFixes PRESETS_\$0 32;
#X connect 0 0 13 0;
#X connect 2 0 3 0;
#X connect 3 0 14 0;
#X connect 5 0 15 0;
#X connect 6 0 7 0;
#X connect 8 0 17 0;
#X connect 10 0 12 0;
#X connect 11 0 16 0;
#X connect 13 0 1 0;
#X connect 14 0 4 0;
#X connect 15 0 6 0;
#X connect 16 0 10 0;
#X connect 17 0 9 0;
#X connect 19 0 29 0;
#X connect 20 0 23 0;
#X connect 23 0 21 0;
#X connect 23 0 22 0;
#X connect 23 1 24 0;
#X connect 23 1 25 0;
#X connect 27 0 33 0;
#X connect 29 0 27 0;
#X connect 29 1 30 0;
#X connect 29 2 31 0;
#X connect 29 3 32 0;
#X connect 30 0 34 0;
#X connect 31 0 35 0;
#X connect 32 0 36 0;
