#N canvas 576 217 853 648 10;
#X obj 29 13 r fromTeleco;
#X obj 29 59 s \$0-fromTeleco;
#X obj 157 14 r \$0-toTeleco;
#X obj 157 39 list;
#X obj 157 85 s toTelecoDirect;
#X obj 313 11 r \$0-toMachine;
#X obj 313 57 list trim;
#X obj 313 79 s CONTROL;
#X obj 640 14 r PLAYED_CONTROL;
#X obj 640 64 s \$0-PLAYED_CONTROL;
#X obj 472 58 list trim;
#X obj 472 12 r \$0-toRecord;
#X obj 472 81 s REC_CONTROL;
#X obj 29 36 route ProjoFixe\$1;
#X obj 157 62 oscformat ProjoFixe\$1;
#X obj 313 35 list prepend ProjoFixe\$1;
#X obj 472 35 list prepend ProjoFixe\$1;
#X obj 640 39 route ProjoFixe\$1;
#X obj 155 263 + 0.1;
#X obj 155 238 * 1000;
#X obj 155 216 pow 10;
#X obj 87 394 + 0.5;
#X obj 87 417 *;
#X obj 87 470 * -1;
#X obj 87 493 + 1;
#X obj 86 278 sin;
#X obj 86 301 * 1;
#X obj 86 324 atan;
#X obj 86 347 /;
#X obj 123 324 atan 1;
#X obj 123 301 f;
#X obj 86 212 fmod 1;
#X obj 86 234 * 3.14159;
#X obj 86 371 * 0.5;
#X obj 86 256 * 2;
#X obj 143 390 pow 2;
#X obj 86 187 + 0;
#X obj 239 114 loadbang;
#X obj 239 139 f \$1;
#X obj 239 164 - 1;
#X obj 154 164 * 0;
#X obj 214 549 list prepend \$1;
#X obj 87 444 change;
#X obj 154 139 r \$2-Déphase;
#X obj 155 194 r \$2-Dureté;
#X obj 86 141 r \$2-phase;
#X obj 143 362 r \$2-Amp;
#X obj 87 573 list prepend vu;
#X obj 87 516 *;
#X obj 116 516 t b f;
#X obj 352 241 r \$0-toMachine;
#X obj 572 125 route loaded saved;
#X obj 572 151 b;
#X obj 711 124 loadbang;
#X msg 572 202 _all_ _nbpattern_ \$1;
#X obj 677 168 bng 18 250 50 0 empty empty empty 0 -9 0 10 #fcfcfc #000000 #000000;
#X obj 572 176 f 32;
#X obj 572 226 s \$0-PRESETS-setap-snd;
#X obj 572 252 apsubmaster \$0-PRESETS PRESETS_\$2 pj\$1;
#X obj 572 102 r PRESETS_\$2-apmaster-snd;
#X obj 571 280 param_f \$0 lum \$0-PRESETS NONE \$2-Line;
#X obj 352 264 route lum;
#X obj 352 290 line;
#X obj 87 539 change;
#X obj 87 598 s \$0-toTeleco;
#X floatatom 190 385 5 0 0 0 - - - 0;
#X obj 301 481 loadbang;
#X obj 301 504 f \$1;
#X obj 301 527 - 1;
#X obj 214 601 s projofix-set;
#X obj 214 525 * 10.23;
#X connect 0 0 13 0;
#X connect 2 0 3 0;
#X connect 3 0 14 0;
#X connect 5 0 15 0;
#X connect 6 0 7 0;
#X connect 8 0 17 0;
#X connect 10 0 12 0;
#X connect 11 0 16 0;
#X connect 13 0 1 0;
#X connect 14 0 4 0;
#X connect 15 0 6 0;
#X connect 16 0 10 0;
#X connect 17 0 9 0;
#X connect 18 0 30 0;
#X connect 19 0 18 0;
#X connect 20 0 19 0;
#X connect 21 0 22 0;
#X connect 22 0 42 0;
#X connect 23 0 24 0;
#X connect 24 0 48 0;
#X connect 25 0 26 0;
#X connect 26 0 27 0;
#X connect 27 0 28 0;
#X connect 28 0 33 0;
#X connect 29 0 28 1;
#X connect 30 0 29 0;
#X connect 30 0 26 1;
#X connect 31 0 32 0;
#X connect 32 0 34 0;
#X connect 33 0 21 0;
#X connect 34 0 25 0;
#X connect 35 0 22 1;
#X connect 36 0 31 0;
#X connect 37 0 38 0;
#X connect 38 0 39 0;
#X connect 39 0 40 1;
#X connect 40 0 36 1;
#X connect 41 0 69 0;
#X connect 42 0 23 0;
#X connect 43 0 40 0;
#X connect 44 0 20 0;
#X connect 45 0 36 0;
#X connect 46 0 35 0;
#X connect 46 0 65 0;
#X connect 47 0 64 0;
#X connect 48 0 63 0;
#X connect 49 0 48 0;
#X connect 49 1 48 1;
#X connect 50 0 61 0;
#X connect 51 0 52 0;
#X connect 51 1 52 0;
#X connect 51 1 55 0;
#X connect 52 0 56 0;
#X connect 53 0 52 0;
#X connect 54 0 57 0;
#X connect 56 0 54 0;
#X connect 59 0 51 0;
#X connect 61 0 62 0;
#X connect 62 0 49 0;
#X connect 63 0 47 0;
#X connect 63 0 70 0;
#X connect 66 0 67 0;
#X connect 67 0 68 0;
#X connect 68 0 41 1;
#X connect 70 0 41 0;
