#N canvas 1992 167 450 300 12;
#X obj 175 115 route \$1;
#X obj 87 54 r REPEAT_CONTROL;
#X obj 87 169 list prepend \$1;
#X obj 87 194 list trim;
#X obj 175 90 r \$2;
#X obj 87 219 s \$2;
#X obj 87 144 list append 0;
#X connect 0 0 6 1;
#X connect 1 0 6 0;
#X connect 2 0 3 0;
#X connect 3 0 5 0;
#X connect 4 0 0 0;
#X connect 6 0 2 0;
