#N canvas 1032 126 523 538 10;
#X obj 43 20 r fromTeleco;
#X obj 245 43 list;
#X obj 245 98 s toTelecoDirect;
#X obj 32 258 bng 15 250 50 0 empty empty empty 17 7 0 10 #00fc04 #000000 #000000;
#X obj 281 255 bng 15 250 50 0 empty empty empty 17 7 0 10 #fc0400 #000000 #000000;
#X obj 33 237 loadbang;
#X obj 104 236 r RELOAD_PRESETS;
#X obj 31 342 setting_onoff DMX;
#X obj 30 372 setting_onoff Proj1 proj 1;
#X obj 43 45 route settings_onoff;
#X obj 43 70 s fromTeleco-settings_onoff;
#X obj 245 12 r toTeleco-settings_onoff;
#X obj 245 71 oscformat settings_onoff;
#X obj 281 178 r SETTINGS-save;
#X obj 281 202 b;
#X obj 281 229 del 1000;
#X obj 32 278 apmasterfile SETTINGS ../data/settings.txt;
#X obj 33 209 apmaster SETTINGS;
#X obj 317 332 r settings_onoff;
#X obj 317 366 print;
#X obj 30 393 setting_onoff Proj2 proj 2;
#X obj 30 413 setting_onoff Proj3 proj 3;
#X obj 30 434 setting_onoff Proj4 proj 4;
#X obj 31 317 setting_onoff LyreV;
#X obj 31 459 setting_onoff ProjoFixe1 projofix 1;
#X connect 0 0 9 0;
#X connect 1 0 12 0;
#X connect 3 0 16 0;
#X connect 4 0 16 1;
#X connect 5 0 3 0;
#X connect 6 0 3 0;
#X connect 9 0 10 0;
#X connect 11 0 1 0;
#X connect 12 0 2 0;
#X connect 13 0 14 0;
#X connect 14 0 15 0;
#X connect 15 0 4 0;
