#N canvas 365 179 405 274 10;
#X obj 57 110 proj 1;
#X obj 104 110 proj 2;
#X obj 151 110 proj 3;
#X obj 198 110 proj 4;
#N canvas 0 94 722 374 reset_zeros 0;
#X obj 68 30 r fromTeleco;
#X obj 68 76 s RESET_ALL_ZEROS;
#X obj 68 53 route proj_home;
#X connect 0 0 2 0;
#X connect 2 0 1 0;
#X restore 133 73 pd reset_zeros;
#N canvas 1316 127 389 344 1->all 0;
#X obj 231 139 OnetoAll lumiere1;
#X obj 224 164 OnetoAll lumiere2;
#X obj 82 108 tgl 15 0 empty empty empty 17 7 0 10 #fcfcfc #000000 #000000 0 1;
#X obj 82 25 r fromTeleco;
#X obj 50 208 OnetoAll pantilt;
#X obj 43 233 OnetoAll rotation;
#X obj 207 190 OnetoAll mode1 1;
#X obj 192 210 OnetoAll mode2 1;
#X obj 180 232 OnetoAll mode3 1;
#X obj 82 48 route ALL_MOT ALL_LUM;
#X obj 143 105 tgl 15 0 empty empty empty 17 7 0 10 #fcfcfc #000000 #000000 0 1;
#X connect 2 0 4 0;
#X connect 2 0 5 0;
#X connect 3 0 9 0;
#X connect 9 0 2 0;
#X connect 9 1 10 0;
#X connect 10 0 0 0;
#X connect 10 0 8 0;
#X connect 10 0 7 0;
#X connect 10 0 6 0;
#X connect 10 0 1 0;
#X restore 153 174 pd 1->all;
#N canvas 2359 502 450 509 page_mot 0;
#X obj 89 53 r MONITOR;
#X obj 89 76 t b b;
#X msg 116 98 1;
#X msg 89 164 0;
#X msg 101 119 stop;
#X obj 89 187 change;
#X obj 89 214 tgl 15 0 empty empty empty 17 7 0 10 #fcfcfc #000000 #000000 0 1;
#X obj 89 141 del 200;
#X obj 238 63 r fromTeleco;
#X obj 238 86 route lumiere;
#X msg 238 137 1 \, 2 \, 3 \, 4;
#X obj 238 160 t b f;
#X msg 238 183 1 \, 2;
#X obj 238 111 t b f, f 10;
#X obj 238 206 pack f f f;
#X obj 238 252 s CONTROL;
#X msg 238 229 \$2L\$1 \$3 0.2;
#X obj 89 237 t f f f;
#X obj 108 262 metro 100;
#X obj 89 316 tgl 15 0 empty empty empty 17 7 0 10 #fcfcfc #000000 #000000 0 1;
#X obj 128 287 sel 1;
#X msg 128 310 set 0;
#X obj 66 266 sel 0;
#X msg 66 289 0;
#X obj 89 368 oscformat transport;
#X obj 89 397 s toTelecoDirect;
#X msg 89 337 list activity \$1;
#X connect 0 0 1 0;
#X connect 1 0 7 0;
#X connect 1 1 2 0;
#X connect 1 1 4 0;
#X connect 2 0 5 0;
#X connect 3 0 5 0;
#X connect 4 0 7 0;
#X connect 5 0 6 0;
#X connect 6 0 17 0;
#X connect 7 0 3 0;
#X connect 8 0 9 0;
#X connect 9 0 13 0;
#X connect 10 0 11 0;
#X connect 11 0 12 0;
#X connect 11 1 14 1;
#X connect 12 0 14 0;
#X connect 13 0 10 0;
#X connect 13 1 14 2;
#X connect 14 0 16 0;
#X connect 16 0 15 0;
#X connect 17 0 22 0;
#X connect 17 1 18 0;
#X connect 17 2 20 0;
#X connect 18 0 19 0;
#X connect 19 0 26 0;
#X connect 20 0 21 0;
#X connect 21 0 19 0;
#X connect 22 0 23 0;
#X connect 23 0 19 0;
#X connect 24 0 25 0;
#X connect 26 0 24 0;
#X restore 56 73 pd page_mot;
#N canvas 2040 540 807 417 lumG 0;
#X obj 78 39 r fromTeleco;
#X obj 558 293 tgl 15 0 empty empty empty 17 7 0 10 #fcfcfc #000000 #000000 0 1;
#X obj 558 341 s CONTROL_LUM;
#X msg 558 313 GMute \$1;
#X obj 78 65 route Vlum LumG_Mute;
#X obj 78 88 s LUMG-Vlum;
#X obj 300 35 apsubmaster LUMG-PRESETS_LUM PRESETS_LUM LumG;
#X obj 77 122 r fromTeleco;
#X obj 205 148 list;
#X obj 205 199 s toTelecoDirect;
#X obj 361 176 list trim;
#X obj 361 204 s CONTROL;
#X obj 616 117 r PLAYED_CONTROL;
#X obj 77 147 route LumG;
#X obj 205 174 oscformat LumG;
#X obj 361 149 list prepend LumG;
#X obj 616 142 route LumG;
#X obj 77 172 s LUMG-fromTeleco;
#X obj 205 123 r LUMG-toTeleco;
#X obj 361 120 r LUMG-toMachine;
#X obj 616 167 s LUMG-PLAYED_CONTROL;
#X obj 300 58 apsubmaster LUMG-PRESETS_LUMG PRESETS_LUMG LumG;
#X obj 84 258 param_f LUMG mode1 LUMG-PRESETS_LUM LUMG-PRESETS_LUMG LUMG-Vlum, f 64;
#X obj 84 282 param_f LUMG mode2 LUMG-PRESETS_LUM LUMG-PRESETS_LUMG LUMG-Vlum, f 64;
#X obj 84 306 param_f LUMG mode3 LUMG-PRESETS_LUM LUMG-PRESETS_LUMG LUMG-Vlum, f 64;
#X obj 84 328 param_f LUMG mode4 LUMG-PRESETS_LUM LUMG-PRESETS_LUMG LUMG-Vlum, f 64;
#X obj 479 177 list trim;
#X obj 479 150 list prepend LumG;
#X obj 479 123 r LUMG-toRecord;
#X obj 479 205 s REC_CONTROL;
#X connect 0 0 4 0;
#X connect 1 0 3 0;
#X connect 3 0 2 0;
#X connect 4 0 5 0;
#X connect 7 0 13 0;
#X connect 8 0 14 0;
#X connect 10 0 11 0;
#X connect 12 0 16 0;
#X connect 13 0 17 0;
#X connect 14 0 9 0;
#X connect 15 0 10 0;
#X connect 16 0 20 0;
#X connect 18 0 8 0;
#X connect 19 0 15 0;
#X connect 26 0 29 0;
#X connect 27 0 26 0;
#X connect 28 0 27 0;
#X restore 57 139 pd lumG;
#X obj 270 173 DMX DMX;
#X text 102 10 tout doit disparaitre !;
