#N canvas 1039 98 450 300 10;
#X obj 28 16 presets_teleco tourneurs PRESETS_TOURNEURS 32;
#X obj 29 144 r fromTeleco;
#X obj 29 194 s tourneurs-speed;
#X obj 28 109 tourneur 1 40;
#X obj 29 169 route tourneurs_speed tourneurs_home;
#X obj 153 195 s tourneurs_home;
#X connect 1 0 4 0;
#X connect 4 0 2 0;
#X connect 4 1 5 0;
