#N canvas 788 204 1034 643 12;
#X obj 29 13 r fromTeleco;
#X obj 29 63 s \$0-fromTeleco;
#X obj 157 14 r \$0-toTeleco;
#X obj 157 39 list;
#X obj 157 90 s toTelecoDirect;
#X obj 313 11 r \$0-toMachine;
#X obj 313 67 list trim;
#X obj 313 95 s CONTROL;
#X obj 485 14 r PLAYED_CONTROL;
#X obj 485 64 s \$0-PLAYED_CONTROL;
#X obj 312 178 list trim;
#X obj 312 122 r \$0-toRecord;
#X obj 312 206 s REC_CONTROL;
#X obj 29 38 route tourneur\$1;
#X obj 157 65 oscformat tourneur\$1;
#X obj 313 40 list prepend tourneur\$1;
#X obj 312 151 list prepend tourneur\$1;
#X obj 485 39 route tourneur\$1;
#X obj 782 25 route loaded saved;
#X obj 782 51 b;
#X obj 921 24 loadbang;
#X msg 782 102 _all_ _nbpattern_ \$1;
#X obj 887 68 bng 18 250 50 0 empty empty empty 0 -9 0 10 #fcfcfc #000000 #000000;
#X obj 782 2 r PRESETS_TOURNEURS-apmaster-snd;
#X obj 782 76 f 32;
#X obj 492 194 apsubmaster \$0-PRESETS PRESETS_TOURNEURS tourneur\$1;
#X obj 782 126 s \$0-PRESETS-setap-snd;
#X obj 474 225 param_f \$0 speed \$0-PRESETS NONE tourneurs-speed;
#X obj 474 247 param_f \$0 pos \$0-PRESETS NONE tourneurs-speed;
#X obj 35 164 r \$0-toMachine;
#X obj 35 217 line;
#X obj 35 189 route speed pos mode;
#X msg 56 567 posmon \$1;
#X obj 56 592 s \$0-toTeleco;
#X obj 56 541 speedlim 50;
#X obj 474 270 param_f \$0 mode \$0-PRESETS NONE tourneurs-speed;
#X obj 142 216 line;
#X obj 56 406 metro 20;
#X obj 56 431 f;
#X obj 56 456 +;
#X obj 56 481 fmod 360;
#X obj 56 513 change;
#X obj 249 416 t b f;
#X obj 126 269 * -1;
#X obj 126 294 + 1;
#X obj 216 477 +;
#X obj 249 477 t b f;
#X obj 48 268 t b f;
#X obj 159 329 -;
#X obj 56 378 tgl 20 0 empty empty empty 0 -10 0 12 #fcfcfc #000000 #000000 0 1;
#X obj 159 379 fmod 360;
#X obj 159 404 - 180;
#X obj 159 354 + 180;
#X obj 187 330 t b f;
#X obj 159 430 * 0.1;
#X obj 56 354 loadbang;
#X obj 48 294 * 0;
#X obj 249 442 * 1;
#X obj 517 368 ../tourneur/main \$1 \$2;
#X floatatom 24 330 5 0 0 0 - - - 0;
#X obj 35 242 / 45;
#X obj 668 340 r tourneurs_home;
#X obj 80 214 rotline;
#X connect 0 0 13 0;
#X connect 2 0 3 0;
#X connect 3 0 14 0;
#X connect 5 0 15 0;
#X connect 6 0 7 0;
#X connect 8 0 17 0;
#X connect 10 0 12 0;
#X connect 11 0 16 0;
#X connect 13 0 1 0;
#X connect 14 0 4 0;
#X connect 15 0 6 0;
#X connect 16 0 10 0;
#X connect 17 0 9 0;
#X connect 18 0 19 0;
#X connect 18 1 19 0;
#X connect 18 1 22 0;
#X connect 19 0 24 0;
#X connect 20 0 19 0;
#X connect 21 0 26 0;
#X connect 23 0 18 0;
#X connect 24 0 21 0;
#X connect 29 0 31 0;
#X connect 30 0 60 0;
#X connect 31 0 30 0;
#X connect 31 1 62 0;
#X connect 31 2 36 0;
#X connect 32 0 33 0;
#X connect 34 0 32 0;
#X connect 36 0 43 0;
#X connect 36 0 42 0;
#X connect 37 0 38 0;
#X connect 38 0 39 0;
#X connect 39 0 40 0;
#X connect 40 0 38 1;
#X connect 40 0 41 0;
#X connect 40 0 53 0;
#X connect 41 0 34 0;
#X connect 41 0 58 0;
#X connect 42 0 57 0;
#X connect 42 1 57 1;
#X connect 43 0 44 0;
#X connect 44 0 47 0;
#X connect 45 0 39 1;
#X connect 46 0 45 0;
#X connect 46 1 45 1;
#X connect 47 0 56 0;
#X connect 47 1 56 1;
#X connect 48 0 52 0;
#X connect 49 0 37 0;
#X connect 50 0 51 0;
#X connect 51 0 54 0;
#X connect 52 0 50 0;
#X connect 53 0 48 0;
#X connect 53 1 48 1;
#X connect 54 0 57 0;
#X connect 55 0 49 0;
#X connect 56 0 45 0;
#X connect 57 0 46 0;
#X connect 60 0 56 0;
#X connect 60 0 59 0;
#X connect 61 0 58 1;
#X connect 62 0 48 0;
