#N canvas 22 608 496 375 10;
#X declare -path abs;
#X declare -path maxlib -path moonlib -path ggee -path iemlib -lib
iemlib -lib zexy -path motex;
#N canvas 842 392 946 634 guts 0;
#X obj 112 245 * 1.8;
#X floatatom 112 267 5 0 0 0 - - -;
#X text 147 269 tr/mn;
#X obj 112 291 / 60;
#X obj 112 312 * 400;
#X floatatom 112 334 5 0 0 0 - - -;
#X text 147 333 step/s;
#X obj 145 142 nbx 5 14 -1e+37 1e+37 0 0 \$0-Frame-snd \$0-Frame-rcv
Frame 0 -8 0 10 -260097 -1 -1 0 256;
#X obj 143 177 nbx 5 14 0 255 0 0 \$0-Speed-snd \$0-Speed-rcv Speed
0 -8 0 10 -204786 -1 -1 60 256;
#X obj 144 215 nbx 5 14 1 255 0 0 \$0-Light-snd \$0-Light-rcv Light
0 -8 0 10 -257985 -1 -1 1 256;
#N canvas 709 81 731 514 tests 0;
#X floatatom 158 215 0 0 0 0 - - -;
#X floatatom 191 116 5 0 0 0 - - -;
#X obj 74 81 tgl 15 0 empty empty empty 17 7 0 10 -262144 -1 -1 0 1
;
#X obj 78 27 tgl 15 0 empty empty empty 17 7 0 10 -262144 -1 -1 0 1
;
#X msg 202 84 0;
#X obj 158 196 * 400;
#X obj 288 103 timer;
#X obj 315 80 b;
#X obj 280 82 b;
#X floatatom 292 133 0 0 0 0 - - -;
#X obj 286 50 bng 15 250 50 0 empty empty empty 17 7 0 10 -262144 -1
-1;
#X obj 74 52 metro 2000;
#X obj 121 79 random 5;
#X msg 168 35 1000;
#X msg 253 130 100;
#X obj 158 347 s \$0-StepMotor1;
#X msg 158 318 pos \$1;
#X msg 236 84 4;
#X msg 237 321 resetpos;
#X obj 158 277 speedlim 200;
#X obj 160 171 * 2;
#X text 242 204 courant max;
#X floatatom 258 227 5 0 255 0 - - -;
#X floatatom 354 224 5 0 100 0 - - -;
#X text 337 200 vitesse max;
#X msg 354 245 speed \$1;
#X msg 258 248 current \$1;
#X msg 215 158 1;
#X obj 428 90 tgl 30 0 \$0-SequenceOn-snd \$0-SequenceOn-rcv SequenceOn
-10 -12 0 12 -4034 -1 -1 0 1;
#X obj 493 181 metro 100;
#X obj 492 333 s \$0-2StepMotor;
#X obj 493 140 tgl 15 0 empty empty empty 17 7 0 10 -262144 -1 -1 0
1;
#X obj 493 264 + 1;
#X obj 559 236 random 30;
#X obj 493 210 t b b;
#X obj 573 124 bng 15 250 50 0 empty empty empty 17 7 0 10 -262144
-1 -1;
#X obj 493 284 pack f f;
#X obj 559 258 + 85;
#X msg 597 166 200;
#X floatatom 607 270 5 0 0 0 - - -;
#X msg 595 200 100;
#X msg 494 306 \$1 speed \$2 \, \$1 inc 1;
#X msg 631 78 250;
#X msg 611 130 400;
#X msg 635 154 300;
#X msg 641 182 166;
#X floatatom 637 230 5 0 0 0 - - -;
#X msg 535 93 40;
#X msg 380 306 1;
#X msg 410 306 -1;
#X obj 234 388 r \$0-StepMotor;
#X obj 234 446 route simulframe;
#X floatatom 242 488 5 0 0 0 - - -;
#X msg 412 426 100;
#X msg 374 426 95;
#X msg 444 426 105;
#X msg 486 424 135;
#X msg 610 366 -1 inc 1;
#X msg 460 374 -1 resetframe 100;
#X msg 544 412 -1 frame 102;
#X msg 614 386 -1 inc -1;
#X msg 553 439 50;
#X msg 472 452 -1 frame \$1;
#X msg 582 450 -1 frame 100;
#X obj 234 410 route 1;
#X msg 384 484 1 resetframe 100;
#X msg 376 338 2 inc \$1;
#X msg 479 239 0 \, 1 \, 2 \, 3 \, 4 \, 5;
#X connect 0 0 19 0;
#X connect 1 0 20 0;
#X connect 3 0 11 0;
#X connect 4 0 1 0;
#X connect 5 0 0 0;
#X connect 6 0 9 0;
#X connect 7 0 6 1;
#X connect 8 0 6 0;
#X connect 10 0 7 0;
#X connect 11 0 2 0;
#X connect 11 0 12 0;
#X connect 12 0 1 0;
#X connect 13 0 11 1;
#X connect 14 0 1 0;
#X connect 16 0 15 0;
#X connect 17 0 1 0;
#X connect 17 0 8 0;
#X connect 18 0 15 0;
#X connect 19 0 16 0;
#X connect 20 0 5 0;
#X connect 22 0 26 0;
#X connect 23 0 25 0;
#X connect 25 0 15 0;
#X connect 26 0 15 0;
#X connect 27 0 1 0;
#X connect 29 0 34 0;
#X connect 31 0 29 0;
#X connect 32 0 36 0;
#X connect 33 0 37 0;
#X connect 34 0 67 0;
#X connect 34 1 33 0;
#X connect 35 0 34 0;
#X connect 36 0 41 0;
#X connect 37 0 36 1;
#X connect 38 0 29 1;
#X connect 39 0 37 1;
#X connect 40 0 29 1;
#X connect 41 0 30 0;
#X connect 42 0 29 1;
#X connect 43 0 29 1;
#X connect 44 0 29 1;
#X connect 45 0 29 1;
#X connect 46 0 33 1;
#X connect 47 0 29 1;
#X connect 48 0 66 0;
#X connect 49 0 66 0;
#X connect 50 0 64 0;
#X connect 51 0 52 0;
#X connect 53 0 62 0;
#X connect 54 0 62 0;
#X connect 55 0 62 0;
#X connect 56 0 62 0;
#X connect 57 0 30 0;
#X connect 58 0 30 0;
#X connect 59 0 30 0;
#X connect 60 0 30 0;
#X connect 61 0 62 0;
#X connect 62 0 30 0;
#X connect 63 0 30 0;
#X connect 64 0 51 0;
#X connect 65 0 30 0;
#X connect 66 0 30 0;
#X connect 67 0 32 0;
#X restore 824 61 pd tests;
#X obj 207 76 hradio 15 1 0 11 empty empty empty 0 -8 0 10 -262144
-1 -1 0;
#X obj 831 324 tgl 30 0 \$0-Calage empty Calage -10 -12 0 12 -262144
-1 -1 0 1;
#X obj 211 238 hradio 15 1 0 8 \$0-Mode-snd \$0-Mode-rcv Mode 0 -8
0 12 -262144 -1 -1 0;
#X obj 126 89 del 1000;
#X msg 130 110 60;
#X obj 74 21 loadbang;
#X obj 33 46 del 5000;
#X obj 354 154 vsl 15 128 0 1 0 1 \$0-LumMaster-snd \$0-LumMaster-rcv
LumMaster 0 -9 1 10 -257985 -1 -1 12700 1;
#X msg 36 77 \; pd dsp 1;
#N canvas 1 81 508 451 Lampes 0;
#X obj 74 49 dispatch \$0-lampe 1 6;
#X obj 123 109 r \$0-lampesoff-snd;
#X msg 122 129 1 \, 2 \, 3 \, 4 \, 5 \, 6;
#X msg 123 150 \$1 0;
#X obj 123 171 s \$0-lampe-rcv;
#X obj 122 209 r \$0-lampe-snd;
#X obj 122 234 unpack f f;
#X obj 189 253 clip 0 1;
#X obj 189 274 * 255;
#X obj 124 263 + 70;
#X obj 124 285 pack f f;
#X obj 124 346 s \$0-toDMX2;
#X obj 189 294 i;
#X msg 124 314 D \$1 \$2;
#X obj 270 108 r \$0-lampe-rcv;
#X obj 270 129 route -1;
#X msg 270 149 1 \$1 \, 2 \$1 \, 3 \$1 \, 4 \$1 \, 5 \$1 \, 6 \$1;
#X obj 260 249 r \$0-LumMaster-snd;
#X obj 260 270 * 255;
#X floatatom 259 288 5 0 0 0 - - -;
#X obj 290 23 r \$0-lampeall-snd;
#X obj 290 68 s \$0-lampe-rcv;
#X msg 289 43 -1 \$1;
#X floatatom 224 330 5 0 0 0 - - -;
#X obj 238 363 / 255;
#X obj 240 383 * 100;
#X floatatom 245 410 5 0 0 0 - - -;
#X obj 236 208 r projlampe;
#X connect 1 0 2 0;
#X connect 2 0 3 0;
#X connect 3 0 4 0;
#X connect 5 0 6 0;
#X connect 6 0 9 0;
#X connect 6 1 7 0;
#X connect 7 0 8 0;
#X connect 8 0 12 0;
#X connect 9 0 10 0;
#X connect 10 0 13 0;
#X connect 12 0 10 1;
#X connect 12 0 23 0;
#X connect 13 0 11 0;
#X connect 14 0 15 0;
#X connect 15 0 16 0;
#X connect 16 0 4 0;
#X connect 17 0 18 0;
#X connect 18 0 8 1;
#X connect 18 0 19 0;
#X connect 20 0 22 0;
#X connect 22 0 21 0;
#X connect 23 0 24 0;
#X connect 24 0 25 0;
#X connect 25 0 26 0;
#X connect 27 0 6 0;
#X restore 29 275 pd Lampes;
#X obj 364 407 hsl 128 15 0 1 0 0 \$0-lampe1-snd \$0-lampe1-rcv lampe1
132 6 1 10 -262144 -1 -1 0 1;
#X obj 364 426 hsl 128 15 0 1 0 0 \$0-lampe2-snd \$0-lampe2-rcv lampe2
132 6 1 10 -262144 -1 -1 0 1;
#X obj 364 445 hsl 128 15 0 1 0 0 \$0-lampe3-snd \$0-lampe3-rcv lampe3
132 6 1 10 -262144 -1 -1 0 1;
#X obj 364 464 hsl 128 15 0 1 0 0 \$0-lampe4-snd \$0-lampe4-rcv lampe4
132 6 1 10 -262144 -1 -1 0 1;
#X obj 364 483 hsl 128 15 0 1 0 0 \$0-lampe5-snd \$0-lampe5-rcv lampe5
132 6 1 10 -262144 -1 -1 0 1;
#X obj 364 502 hsl 128 15 0 1 0 0 \$0-lampe6-snd \$0-lampe6-rcv lampe6
132 6 1 10 -262144 -1 -1 0 1;
#X obj 361 521 bng 15 250 50 0 \$0-lampesoff-snd \$0-lampesoff-rcv
lampes-off 17 7 1 10 -262144 -1 -1;
#N canvas 325 359 913 610 Calages 0;
#X obj 26 21 dispatch \$0-calage 1 6;
#X obj 22 63 r \$0-calage-snd;
#X msg 22 87 \$1 calage \$2;
#X obj 22 111 s \$0-2StepMotor;
#X obj 204 41 nimouse;
#X obj 26 40 dispatch \$0-calagef 1 6;
#X obj 169 125 s \$0-2StepMotor;
#X obj 169 70 r \$0-calagef-snd;
#X obj 295 33 r \$0-calagef12-snd;
#X obj 141 131 b;
#X obj 16 147 del 1000;
#X obj 16 211 s \$0-2StepMotor;
#X msg 16 168 0;
#X msg 16 188 -1 resetframe \$1;
#X msg 295 55 1 \, 2;
#X msg 295 109 \$1 bang;
#X obj 327 52 r \$0-calagef34-snd;
#X msg 327 74 3 \, 4;
#X obj 359 73 r \$0-calagef56-snd;
#X msg 358 95 5 \, 6;
#X obj 415 96 r \$0-calagefall-snd;
#X obj 294 132 s \$0-calagef-rcv;
#X obj 458 227 system;
#X msg 458 202 xset -display :0 r off;
#X obj 458 163 bng 15 250 50 0 empty empty empty 17 7 0 10 -262144
-1 -1;
#X obj 458 140 loadbang;
#X obj 21 260 tgl 15 0 empty empty empty 17 7 0 10 -262144 -1 -1 0
1;
#X obj 21 233 keyon F1;
#X obj 21 281 sel 1;
#X msg 644 264 1;
#X obj 173 201 keyname;
#X obj 173 237 pack f s;
#X obj 238 404 s \$0-calage1-rcv;
#X obj 260 383 s \$0-calage2-rcv;
#X obj 246 472 s \$0-calage3-rcv;
#X obj 258 496 s \$0-calage4-rcv;
#X obj 308 446 s \$0-calage5-rcv;
#X obj 336 425 s \$0-calage6-rcv;
#X obj 444 388 sel 1;
#X obj 488 388 sel 1;
#X obj 528 388 sel 1;
#X obj 575 414 sel 1;
#X obj 620 416 sel 1;
#X obj 609 382 sel 1;
#X obj 676 376 sel 1;
#X obj 720 379 sel 1;
#X obj 776 375 sel 1;
#X obj 472 456 s \$0-calagef3-rcv;
#X obj 430 477 s \$0-calagef2-rcv;
#X obj 400 498 s \$0-calagef1-rcv;
#X obj 611 399 s \$0-calagef12-rcv;
#X obj 677 426 s \$0-calagef34-rcv;
#X obj 724 448 s \$0-calagef56-rcv;
#X obj 758 399 s \$0-calagefall-rcv;
#X obj 21 333 bng 15 250 50 0 empty empty empty 17 7 0 10 -262144 -1
-1;
#N canvas 449 470 525 276 waitfor 0;
#X obj 270 63 inlet;
#X obj 322 61 inlet;
#X msg 418 140 0;
#X msg 457 148 1;
#X obj 206 217 outlet;
#X obj 311 175 sel 0 1;
#X obj 103 115 hsl 80 20 0 127 0 0 empty empty empty -2 -8 0 10 -262144
-262144 -262144 0 1;
#X msg 289 212 color 0 0 0;
#X msg 380 206 color 14 14 14;
#X obj 372 58 r \$0-stopwait;
#X msg 372 79 0;
#X obj 270 89 t f f;
#X obj 231 127 spigot;
#X obj 231 148 t a b;
#X connect 0 0 11 0;
#X connect 1 0 12 0;
#X connect 2 0 3 0;
#X connect 5 0 7 0;
#X connect 5 1 8 0;
#X connect 7 0 6 0;
#X connect 8 0 6 0;
#X connect 9 0 10 0;
#X connect 10 0 11 0;
#X connect 11 0 12 1;
#X connect 11 1 5 0;
#X connect 12 0 13 0;
#X connect 13 0 4 0;
#X connect 13 1 10 0;
#X coords 0 -1 1 1 85 35 1 100 100;
#X restore 17 398 pd waitfor;
#X msg 17 378 1;
#X obj 64 351 s \$0-Recalage;
#X obj 21 352 t b b;
#X obj 54 374 r \$0-RecalageFini;
#X obj 21 310 spigot;
#X obj 65 268 init 1;
#X obj 65 289 tgl 15 0 empty empty empty 17 7 0 10 -262144 -1 -1 1
1;
#X obj 173 281 spigot;
#X msg 17 437 1;
#X obj 173 305 route F2;
#X obj 224 282 tgl 15 0 empty empty empty 17 7 0 10 -262144 -1 -1 0
1;
#X msg 99 296 0;
#X msg 186 351 0;
#X obj 173 327 route 1;
#X msg 132 296 1;
#X obj 112 402 s \$0-scenariostart;
#X obj 256 329 route a A z Z q Q s S w W x X e E r R d D f F c C v
V t T g G b B h H;
#X obj 96 581 s \$0-lampe-rcv;
#X msg 156 554 -1 0;
#X obj 98 496 t b b;
#X obj 102 475 bng 15 250 50 0 empty empty empty 17 7 0 10 -262144
-1 -1;
#X msg 96 554 -1 0.75;
#X obj 218 382 tgl 15 0 empty empty empty 17 7 0 10 -262144 -1 -1 0
1;
#X msg 173 261 \$2 \$1;
#X obj 379 389 sel 1;
#X msg 217 169 1;
#X msg 169 101 \$1 calagef 0;
#X msg 415 118 1 \, 2 \, 3 \, 4 \, 5 \, 6;
#X obj 139 463 sel 0 1;
#X msg 163 490 stop;
#X obj 131 517 del 10000;
#X obj 508 436 s \$0-calagef4-rcv;
#X obj 620 476 s \$0-calagef6-rcv;
#X obj 574 498 s \$0-calagef5-rcv;
#X obj 194 444 tgl 15 0 empty empty empty 17 7 0 10 -262144 -1 -1 0
1;
#X obj 139 421 a2l;
#X msg 139 442 \$2;
#X connect 1 0 2 0;
#X connect 1 0 9 0;
#X connect 2 0 3 0;
#X connect 7 0 82 0;
#X connect 7 0 9 0;
#X connect 8 0 14 0;
#X connect 10 0 12 0;
#X connect 12 0 13 0;
#X connect 13 0 11 0;
#X connect 14 0 15 0;
#X connect 15 0 21 0;
#X connect 16 0 17 0;
#X connect 17 0 15 0;
#X connect 18 0 19 0;
#X connect 19 0 15 0;
#X connect 20 0 83 0;
#X connect 23 0 22 0;
#X connect 25 0 24 0;
#X connect 26 0 28 0;
#X connect 28 0 60 0;
#X connect 30 1 31 1;
#X connect 31 0 79 0;
#X connect 38 0 48 0;
#X connect 39 0 47 0;
#X connect 40 0 87 0;
#X connect 41 0 89 0;
#X connect 42 0 88 0;
#X connect 43 0 50 0;
#X connect 44 0 51 0;
#X connect 45 0 52 0;
#X connect 46 0 53 0;
#X connect 54 0 58 0;
#X connect 55 0 64 0;
#X connect 55 0 76 0;
#X connect 56 0 55 0;
#X connect 58 0 56 0;
#X connect 58 1 57 0;
#X connect 59 0 55 1;
#X connect 60 0 54 0;
#X connect 60 0 67 0;
#X connect 61 0 62 0;
#X connect 62 0 60 1;
#X connect 63 0 65 0;
#X connect 63 0 91 0;
#X connect 64 0 66 0;
#X connect 65 0 69 0;
#X connect 65 1 72 0;
#X connect 66 0 63 1;
#X connect 67 0 62 0;
#X connect 68 0 66 0;
#X connect 69 0 68 0;
#X connect 69 0 70 0;
#X connect 69 0 71 0;
#X connect 70 0 62 0;
#X connect 72 0 32 0;
#X connect 72 0 78 0;
#X connect 72 1 32 0;
#X connect 72 2 33 0;
#X connect 72 3 33 0;
#X connect 72 4 34 0;
#X connect 72 5 34 0;
#X connect 72 6 35 0;
#X connect 72 7 35 0;
#X connect 72 8 36 0;
#X connect 72 9 36 0;
#X connect 72 10 37 0;
#X connect 72 11 37 0;
#X connect 72 12 80 0;
#X connect 72 13 80 0;
#X connect 72 14 38 0;
#X connect 72 15 38 0;
#X connect 72 16 39 0;
#X connect 72 17 39 0;
#X connect 72 18 40 0;
#X connect 72 19 40 0;
#X connect 72 20 41 0;
#X connect 72 21 41 0;
#X connect 72 22 42 0;
#X connect 72 23 42 0;
#X connect 72 24 43 0;
#X connect 72 25 43 0;
#X connect 72 26 44 0;
#X connect 72 27 44 0;
#X connect 72 28 45 0;
#X connect 72 29 45 0;
#X connect 72 30 46 0;
#X connect 72 31 46 0;
#X connect 74 0 73 0;
#X connect 75 0 77 0;
#X connect 75 1 86 0;
#X connect 76 0 75 0;
#X connect 77 0 73 0;
#X connect 79 0 63 0;
#X connect 80 0 49 0;
#X connect 82 0 6 0;
#X connect 83 0 15 0;
#X connect 84 0 75 0;
#X connect 84 1 85 0;
#X connect 85 0 86 0;
#X connect 86 0 74 0;
#X connect 91 0 92 0;
#X connect 92 0 84 0;
#X connect 92 0 90 0;
#X restore 33 298 pd Calages;
#X obj 335 314 tgl 30 0 \$0-calage1-snd \$0-calage1-rcv 1 10 15 1 20
-257985 -1 -1 0 1;
#X obj 369 314 tgl 30 0 \$0-calage2-snd \$0-calage2-rcv 2 10 15 1 20
-257985 -1 -1 0 1;
#X obj 403 314 tgl 30 0 \$0-calage3-snd \$0-calage3-rcv 3 10 15 1 20
-257985 -1 -1 0 1;
#X obj 437 314 tgl 30 0 \$0-calage4-snd \$0-calage4-rcv 4 10 15 1 20
-257985 -1 -1 0 1;
#X obj 471 314 tgl 30 0 \$0-calage5-snd \$0-calage5-rcv 5 10 15 1 20
-257985 -1 -1 0 1;
#X obj 505 314 tgl 30 0 \$0-calage6-snd \$0-calage6-rcv 6 10 15 1 20
-257985 -1 -1 0 1;
#X text 398 297 calages;
#X msg 219 179 -1 speed \$1;
#X obj 219 201 s \$0-2StepMotor;
#X obj 216 154 s \$0-2StepMotor;
#X obj 830 134 l StepMotor \$0 1 1;
#X obj 830 156 l StepMotor \$0 2 9;
#X obj 831 178 l StepMotor \$0 3 17;
#X obj 830 198 l StepMotor \$0 4 25;
#X obj 830 218 l StepMotor \$0 5 33;
#X obj 830 238 l StepMotor \$0 6 41;
#N canvas 1002 184 719 305 Move 0;
#X floatatom 29 32 5 0 0 0 - - -;
#X obj 27 99 s \$0-2StepMotor;
#X obj 28 51 pack f f;
#X obj 121 36 hradio 15 1 0 6 empty empty empty 0 -8 0 10 -262144 -1
-1 0;
#X msg 27 72 \$2 frame \$1;
#X floatatom 155 95 5 0 0 0 - - -;
#X obj 364 115 r \$0-StepMotor;
#X floatatom 357 190 5 0 0 0 - - -;
#X obj 27 -1 hradio 10 1 0 50 empty empty empty 0 -8 0 10 -262144 -1
-1 0;
#X obj 121 54 + 1;
#X msg 166 58 -1;
#X msg 530 57 \$1 1;
#X obj 224 157 s \$0-2StepMotor;
#X obj 224 111 pack f f;
#X obj 277 72 hradio 15 1 0 6 empty empty empty 0 -8 0 10 -262144 -1
-1 0;
#X obj 277 90 + 1;
#X msg 224 132 \$2 inc \$1;
#X msg 224 83 1;
#X floatatom 440 189 5 0 0 0 - - -;
#X obj 356 166 route simulpos simulframe commandframe;
#X floatatom 518 193 5 0 0 0 - - -;
#X msg 297 112 -1;
#X msg 382 65 -1 resetframe;
#X msg 382 42 0;
#X obj 518 216 mod 44;
#X floatatom 505 256 5 0 0 0 - - -;
#X obj 562 193 r \$0-loopnbframes;
#X obj 363 144 route 2;
#X connect 0 0 2 0;
#X connect 2 0 4 0;
#X connect 3 0 9 0;
#X connect 4 0 1 0;
#X connect 6 0 27 0;
#X connect 8 0 0 0;
#X connect 9 0 2 1;
#X connect 9 0 5 0;
#X connect 10 0 2 1;
#X connect 10 0 5 0;
#X connect 13 0 16 0;
#X connect 14 0 15 0;
#X connect 15 0 13 1;
#X connect 16 0 12 0;
#X connect 17 0 13 0;
#X connect 19 0 7 0;
#X connect 19 1 18 0;
#X connect 19 2 20 0;
#X connect 20 0 24 0;
#X connect 21 0 13 1;
#X connect 22 0 12 0;
#X connect 23 0 22 0;
#X connect 24 0 25 0;
#X connect 26 0 24 1;
#X connect 27 0 19 0;
#X restore 33 321 pd Move;
#X obj 830 258 l StepMotor \$0 7 49;
#X obj 380 231 * 100;
#X floatatom 380 253 5 0 0 0 - - -;
#X obj 339 409 vsl 15 128 0 1 0 0 \$0-lampeall-snd \$0-lampeall-rcv
empty 0 -9 0 10 -262144 -1 -1 0 1;
#X obj 343 349 bng 15 250 50 0 \$0-calagef1-snd \$0-calagef1-rcv 1
4 7 0 10 -262144 -1 -1;
#X obj 376 348 bng 15 250 50 0 \$0-calagef2-snd \$0-calagef2-rcv 2
4 7 0 10 -262144 -1 -1;
#X obj 413 348 bng 15 250 50 0 \$0-calagef3-snd \$0-calagef3-rcv 3
4 7 0 10 -262144 -1 -1;
#X obj 446 347 bng 15 250 50 0 \$0-calagef4-snd \$0-calagef4-rcv 4
4 7 0 10 -262144 -1 -1;
#X obj 478 347 bng 15 250 50 0 \$0-calagef5-snd \$0-calagef5-rcv 5
4 7 0 10 -262144 -1 -1;
#X obj 511 346 bng 15 250 50 0 \$0-calagef6-snd \$0-calagef6-rcv 6
4 7 0 10 -262144 -1 -1;
#N canvas 873 137 977 719 Scenario 0;
#X obj 368 336 shuffle 0 43 0.5;
#X obj 351 334 bng 15 250 50 0 empty empty empty 17 7 0 10 -262144
-1 -1;
#X msg 201 73 1e+06;
#X obj 368 356 s \$0-stopatframe;
#X obj 201 93 s \$0-stopatframe;
#X obj 212 53 s \$0-clearlocks;
#X obj 135 43 t b b;
#N canvas 813 81 450 300 mode1 0;
#X obj 242 100 s \$0-randomspeed;
#X obj 222 174 s \$0-randomframe;
#X text 58 196 on period air proba;
#X text 221 187 on period air range min all;
#X text 240 116 on period air range min all;
#X obj 82 182 s \$0-randomlampe;
#X obj 118 18 inlet;
#X obj 122 59 b;
#X obj 122 40 bng 15 250 50 0 empty empty empty 17 7 0 10 -262144 -1
-1;
#X msg 242 78 1 400 0 40 40 0;
#X msg 220 152 1 400 20 0 1 0;
#X msg 228 230 1 400 2 4 1 0;
#X msg 84 162 1 200 10 25;
#X connect 6 0 8 0;
#X connect 7 0 9 0;
#X connect 7 0 10 0;
#X connect 7 0 12 0;
#X connect 8 0 7 0;
#X connect 9 0 0 0;
#X connect 10 0 1 0;
#X connect 11 0 1 0;
#X connect 12 0 5 0;
#X restore 44 203 pd mode1;
#X obj 142 24 bng 15 250 50 0 empty empty empty 17 7 0 10 -262144 -1
-1;
#X obj 353 46 s \$0-randomspeed;
#X obj 332 89 s \$0-randomframe;
#X obj 345 68 s \$0-randomlampe;
#X msg 340 15 0;
#N canvas 439 58 450 300 mode2 0;
#X obj 242 100 s \$0-randomspeed;
#X obj 222 174 s \$0-randomframe;
#X text 58 196 on period air proba;
#X text 221 187 on period air range min all;
#X text 240 116 on period air range min all;
#X obj 82 182 s \$0-randomlampe;
#X obj 118 18 inlet;
#X obj 122 59 b;
#X obj 122 40 bng 15 250 50 0 empty empty empty 17 7 0 10 -262144 -1
-1;
#X msg 228 230 1 400 2 4 1 0;
#X msg 83 162 1 200 5 40;
#X msg 242 78 1 200 6 30 60 1;
#X msg 218 152 1 200 20 0 1 0;
#X connect 6 0 8 0;
#X connect 7 0 11 0;
#X connect 7 0 12 0;
#X connect 7 0 10 0;
#X connect 8 0 7 0;
#X connect 9 0 1 0;
#X connect 10 0 5 0;
#X connect 11 0 0 0;
#X connect 12 0 1 0;
#X restore 62 306 pd mode2;
#X obj 43 307 bng 15 250 50 0 empty empty empty 17 7 0 10 -262144 -1
-1;
#X obj 22 202 bng 15 250 50 0 empty empty empty 17 7 0 10 -262144 -1
-1;
#X obj 43 406 bng 15 250 50 0 empty empty empty 17 7 0 10 -262144 -1
-1;
#N canvas 439 58 450 300 mode3 0;
#X obj 242 100 s \$0-randomspeed;
#X obj 222 174 s \$0-randomframe;
#X text 58 196 on period air proba;
#X text 221 187 on period air range min all;
#X text 240 116 on period air range min all;
#X obj 82 182 s \$0-randomlampe;
#X obj 118 18 inlet;
#X obj 122 59 b;
#X obj 122 40 bng 15 250 50 0 empty empty empty 17 7 0 10 -262144 -1
-1;
#X msg 228 230 1 400 2 4 1 0;
#X msg 242 78 1 200 6 10 50 1;
#X msg 219 152 1 100 20 0 1 0;
#X msg 83 162 1 100 5 40;
#X connect 6 0 8 0;
#X connect 7 0 10 0;
#X connect 7 0 11 0;
#X connect 7 0 12 0;
#X connect 8 0 7 0;
#X connect 9 0 1 0;
#X connect 10 0 0 0;
#X connect 11 0 1 0;
#X connect 12 0 5 0;
#X restore 62 404 pd mode3;
#X obj 41 506 bng 15 250 50 0 empty empty empty 17 7 0 10 -262144 -1
-1;
#N canvas 439 58 450 300 mode4 0;
#X obj 242 100 s \$0-randomspeed;
#X obj 222 174 s \$0-randomframe;
#X text 58 196 on period air proba;
#X text 221 187 on period air range min all;
#X text 240 116 on period air range min all;
#X obj 82 182 s \$0-randomlampe;
#X obj 118 18 inlet;
#X obj 122 59 b;
#X obj 122 40 bng 15 250 50 0 empty empty empty 17 7 0 10 -262144 -1
-1;
#X msg 228 230 1 400 2 4 1 0;
#X msg 219 152 1 100 12 0 1 0;
#X msg 83 162 1 100 4 60;
#X msg 242 78 1 100 6 10 30 1;
#X connect 6 0 8 0;
#X connect 7 0 12 0;
#X connect 7 0 10 0;
#X connect 7 0 11 0;
#X connect 8 0 7 0;
#X connect 9 0 1 0;
#X connect 10 0 1 0;
#X connect 11 0 5 0;
#X connect 12 0 0 0;
#X restore 60 504 pd mode4;
#X obj 35 606 bng 15 250 50 0 empty empty empty 17 7 0 10 -262144 -1
-1;
#N canvas 439 58 450 300 mode5 0;
#X obj 242 100 s \$0-randomspeed;
#X obj 222 174 s \$0-randomframe;
#X text 58 196 on period air proba;
#X text 221 187 on period air range min all;
#X text 240 116 on period air range min all;
#X obj 82 182 s \$0-randomlampe;
#X obj 118 18 inlet;
#X obj 122 59 b;
#X obj 122 40 bng 15 250 50 0 empty empty empty 17 7 0 10 -262144 -1
-1;
#X msg 228 230 1 400 2 4 1 0;
#X msg 219 152 1 100 12 0 1 0;
#X msg 83 162 1 100 4 60;
#X msg 241 78 1 50 3 30 30 0;
#X connect 6 0 8 0;
#X connect 7 0 12 0;
#X connect 7 0 10 0;
#X connect 7 0 11 0;
#X connect 8 0 7 0;
#X connect 9 0 1 0;
#X connect 10 0 1 0;
#X connect 11 0 5 0;
#X connect 12 0 0 0;
#X restore 55 609 pd mode5;
#X obj 204 216 bng 15 250 50 0 empty empty empty 17 7 0 10 -262144
-1 -1;
#N canvas 439 58 450 300 mode6 0;
#X obj 242 100 s \$0-randomspeed;
#X obj 222 174 s \$0-randomframe;
#X text 58 196 on period air proba;
#X text 221 187 on period air range min all;
#X text 240 116 on period air range min all;
#X obj 82 182 s \$0-randomlampe;
#X obj 118 18 inlet;
#X obj 122 59 b;
#X obj 122 40 bng 15 250 50 0 empty empty empty 17 7 0 10 -262144 -1
-1;
#X msg 228 230 1 400 2 4 1 0;
#X msg 83 162 1 100 4 60;
#X msg 241 78 1 100 2 30 30 1;
#X msg 219 152 1 100 6 0 1 -1;
#X connect 6 0 8 0;
#X connect 7 0 11 0;
#X connect 7 0 12 0;
#X connect 7 0 10 0;
#X connect 8 0 7 0;
#X connect 9 0 1 0;
#X connect 10 0 5 0;
#X connect 11 0 0 0;
#X connect 12 0 1 0;
#X restore 225 214 pd mode6;
#X obj 351 310 bng 15 250 50 0 empty empty empty 17 7 0 10 -262144
-1 -1;
#N canvas 71 81 450 300 mode7 0;
#X obj 242 100 s \$0-randomspeed;
#X obj 222 174 s \$0-randomframe;
#X text 58 196 on period air proba;
#X text 221 187 on period air range min all;
#X text 240 116 on period air range min all;
#X obj 82 182 s \$0-randomlampe;
#X obj 118 18 inlet;
#X obj 122 59 b;
#X obj 122 40 bng 15 250 50 0 empty empty empty 17 7 0 10 -262144 -1
-1;
#X msg 228 230 1 400 2 4 1 0;
#X msg 83 162 1 100 4 60;
#X msg 219 152 1 100 6 0 1 -1;
#X msg 241 79 1 100 2 40 20 0;
#X connect 6 0 8 0;
#X connect 7 0 12 0;
#X connect 7 0 11 0;
#X connect 7 0 10 0;
#X connect 8 0 7 0;
#X connect 9 0 1 0;
#X connect 10 0 5 0;
#X connect 11 0 1 0;
#X connect 12 0 0 0;
#X restore 371 315 pd mode7;
#X obj 388 28 s \$0-Gyro;
#X obj 217 27 s \$0-stopwait;
#X obj 218 9 bng 15 250 50 0 empty empty empty 17 7 0 10 -260097 -1
-1;
#N canvas 299 329 654 276 del 0;
#X obj 291 141 del;
#X obj 299 14 inlet;
#X obj 402 28 inlet;
#X msg 392 131 0;
#X msg 445 130 1;
#X obj 291 161 t b b;
#X obj 299 38 t a a;
#X obj 291 184 outlet;
#X obj 418 163 sel 0 1;
#X obj 103 115 hsl 80 20 0 127 0 0 empty empty empty -2 -8 0 10 -262144
-262144 -262144 0 1;
#X msg 396 200 color 0 0 0;
#X msg 487 194 color 14 14 14;
#X obj 458 68 r \$0-stopwait;
#X msg 458 89 stop;
#X obj 389 109 route stop;
#X obj 267 66 route stop;
#X msg 267 86 stop;
#X obj 315 89 * 1000;
#X obj 402 49 * 1000;
#X connect 0 0 5 0;
#X connect 1 0 6 0;
#X connect 2 0 18 0;
#X connect 3 0 8 0;
#X connect 4 0 8 0;
#X connect 5 0 7 0;
#X connect 5 1 3 0;
#X connect 6 0 15 0;
#X connect 6 1 14 0;
#X connect 8 0 10 0;
#X connect 8 1 11 0;
#X connect 10 0 9 0;
#X connect 11 0 9 0;
#X connect 12 0 13 0;
#X connect 13 0 6 0;
#X connect 14 0 3 0;
#X connect 14 1 4 0;
#X connect 15 0 16 0;
#X connect 15 1 17 0;
#X connect 16 0 0 0;
#X connect 17 0 0 0;
#X connect 18 0 0 1;
#X coords 0 -1 1 1 85 35 1 100 100;
#X restore 22 264 pd del;
#N canvas 449 470 525 276 waitfor 0;
#X obj 270 63 inlet;
#X obj 322 61 inlet;
#X msg 418 140 0;
#X msg 457 148 1;
#X obj 206 217 outlet;
#X obj 311 175 sel 0 1;
#X obj 103 115 hsl 80 20 0 127 0 0 empty empty empty -2 -8 0 10 -262144
-262144 -262144 0 1;
#X msg 289 212 color 0 0 0;
#X msg 380 206 color 14 14 14;
#X obj 372 58 r \$0-stopwait;
#X msg 372 79 0;
#X obj 270 89 t f f;
#X obj 231 127 spigot;
#X obj 231 148 t a b;
#X connect 0 0 11 0;
#X connect 1 0 12 0;
#X connect 2 0 3 0;
#X connect 5 0 7 0;
#X connect 5 1 8 0;
#X connect 7 0 6 0;
#X connect 8 0 6 0;
#X connect 9 0 10 0;
#X connect 10 0 11 0;
#X connect 11 0 12 1;
#X connect 11 1 5 0;
#X connect 12 0 13 0;
#X connect 13 0 4 0;
#X connect 13 1 10 0;
#X coords 0 -1 1 1 85 35 1 100 100;
#X restore 178 424 pd waitfor;
#X msg 178 402 1;
#N canvas 299 329 654 276 del 0;
#X obj 291 141 del;
#X obj 299 14 inlet;
#X obj 402 28 inlet;
#X msg 392 131 0;
#X msg 445 130 1;
#X obj 291 161 t b b;
#X obj 299 38 t a a;
#X obj 291 184 outlet;
#X obj 418 163 sel 0 1;
#X obj 103 115 hsl 80 20 0 127 0 0 empty empty empty -2 -8 0 10 -262144
-262144 -262144 0 1;
#X msg 396 200 color 0 0 0;
#X msg 487 194 color 14 14 14;
#X obj 458 68 r \$0-stopwait;
#X msg 458 89 stop;
#X obj 389 109 route stop;
#X obj 267 66 route stop;
#X msg 267 86 stop;
#X obj 315 89 * 1000;
#X obj 402 49 * 1000;
#X connect 0 0 5 0;
#X connect 1 0 6 0;
#X connect 2 0 18 0;
#X connect 3 0 8 0;
#X connect 4 0 8 0;
#X connect 5 0 7 0;
#X connect 5 1 3 0;
#X connect 6 0 15 0;
#X connect 6 1 14 0;
#X connect 8 0 10 0;
#X connect 8 1 11 0;
#X connect 10 0 9 0;
#X connect 11 0 9 0;
#X connect 12 0 13 0;
#X connect 13 0 6 0;
#X connect 14 0 3 0;
#X connect 14 1 4 0;
#X connect 15 0 16 0;
#X connect 15 1 17 0;
#X connect 16 0 0 0;
#X connect 17 0 0 0;
#X connect 18 0 0 1;
#X coords 0 -1 1 1 85 35 1 100 100;
#X restore 22 366 pd del;
#N canvas 299 329 654 276 del 0;
#X obj 291 141 del;
#X obj 299 14 inlet;
#X obj 402 28 inlet;
#X msg 392 131 0;
#X msg 445 130 1;
#X obj 291 161 t b b;
#X obj 299 38 t a a;
#X obj 291 184 outlet;
#X obj 418 163 sel 0 1;
#X obj 103 115 hsl 80 20 0 127 0 0 empty empty empty -2 -8 0 10 -262144
-262144 -262144 0 1;
#X msg 396 200 color 0 0 0;
#X msg 487 194 color 14 14 14;
#X obj 458 68 r \$0-stopwait;
#X msg 458 89 stop;
#X obj 389 109 route stop;
#X obj 267 66 route stop;
#X msg 267 86 stop;
#X obj 315 89 * 1000;
#X obj 402 49 * 1000;
#X connect 0 0 5 0;
#X connect 1 0 6 0;
#X connect 2 0 18 0;
#X connect 3 0 8 0;
#X connect 4 0 8 0;
#X connect 5 0 7 0;
#X connect 5 1 3 0;
#X connect 6 0 15 0;
#X connect 6 1 14 0;
#X connect 8 0 10 0;
#X connect 8 1 11 0;
#X connect 10 0 9 0;
#X connect 11 0 9 0;
#X connect 12 0 13 0;
#X connect 13 0 6 0;
#X connect 14 0 3 0;
#X connect 14 1 4 0;
#X connect 15 0 16 0;
#X connect 15 1 17 0;
#X connect 16 0 0 0;
#X connect 17 0 0 0;
#X connect 18 0 0 1;
#X coords 0 -1 1 1 85 35 1 100 100;
#X restore 22 465 pd del;
#N canvas 299 329 654 276 del 0;
#X obj 291 141 del;
#X obj 299 14 inlet;
#X obj 402 28 inlet;
#X msg 392 131 0;
#X msg 445 130 1;
#X obj 291 161 t b b;
#X obj 299 38 t a a;
#X obj 291 184 outlet;
#X obj 418 163 sel 0 1;
#X obj 103 115 hsl 80 20 0 127 0 0 empty empty empty -2 -8 0 10 -262144
-262144 -262144 0 1;
#X msg 396 200 color 0 0 0;
#X msg 487 194 color 14 14 14;
#X obj 458 68 r \$0-stopwait;
#X msg 458 89 stop;
#X obj 389 109 route stop;
#X obj 267 66 route stop;
#X msg 267 86 stop;
#X obj 315 89 * 1000;
#X obj 402 49 * 1000;
#X connect 0 0 5 0;
#X connect 1 0 6 0;
#X connect 2 0 18 0;
#X connect 3 0 8 0;
#X connect 4 0 8 0;
#X connect 5 0 7 0;
#X connect 5 1 3 0;
#X connect 6 0 15 0;
#X connect 6 1 14 0;
#X connect 8 0 10 0;
#X connect 8 1 11 0;
#X connect 10 0 9 0;
#X connect 11 0 9 0;
#X connect 12 0 13 0;
#X connect 13 0 6 0;
#X connect 14 0 3 0;
#X connect 14 1 4 0;
#X connect 15 0 16 0;
#X connect 15 1 17 0;
#X connect 16 0 0 0;
#X connect 17 0 0 0;
#X connect 18 0 0 1;
#X coords 0 -1 1 1 85 35 1 100 100;
#X restore 22 563 pd del;
#N canvas 299 329 654 276 del 0;
#X obj 291 141 del;
#X obj 299 14 inlet;
#X obj 402 28 inlet;
#X msg 392 131 0;
#X msg 445 130 1;
#X obj 291 161 t b b;
#X obj 299 38 t a a;
#X obj 291 184 outlet;
#X obj 418 163 sel 0 1;
#X obj 103 115 hsl 80 20 0 127 0 0 empty empty empty -2 -8 0 10 -262144
-262144 -262144 0 1;
#X msg 396 200 color 0 0 0;
#X msg 487 194 color 14 14 14;
#X obj 458 68 r \$0-stopwait;
#X msg 458 89 stop;
#X obj 389 109 route stop;
#X obj 267 66 route stop;
#X msg 267 86 stop;
#X obj 315 89 * 1000;
#X obj 402 49 * 1000;
#X connect 0 0 5 0;
#X connect 1 0 6 0;
#X connect 2 0 18 0;
#X connect 3 0 8 0;
#X connect 4 0 8 0;
#X connect 5 0 7 0;
#X connect 5 1 3 0;
#X connect 6 0 15 0;
#X connect 6 1 14 0;
#X connect 8 0 10 0;
#X connect 8 1 11 0;
#X connect 10 0 9 0;
#X connect 11 0 9 0;
#X connect 12 0 13 0;
#X connect 13 0 6 0;
#X connect 14 0 3 0;
#X connect 14 1 4 0;
#X connect 15 0 16 0;
#X connect 15 1 17 0;
#X connect 16 0 0 0;
#X connect 17 0 0 0;
#X connect 18 0 0 1;
#X coords 0 -1 1 1 85 35 1 100 100;
#X restore 178 173 pd del;
#N canvas 299 329 654 276 del 0;
#X obj 291 141 del;
#X obj 299 14 inlet;
#X obj 402 28 inlet;
#X msg 392 131 0;
#X msg 445 130 1;
#X obj 291 161 t b b;
#X obj 299 38 t a a;
#X obj 291 184 outlet;
#X obj 418 163 sel 0 1;
#X obj 103 115 hsl 80 20 0 127 0 0 empty empty empty -2 -8 0 10 -262144
-262144 -262144 0 1;
#X msg 396 200 color 0 0 0;
#X msg 487 194 color 14 14 14;
#X obj 458 68 r \$0-stopwait;
#X msg 458 89 stop;
#X obj 389 109 route stop;
#X obj 267 66 route stop;
#X msg 267 86 stop;
#X obj 315 89 * 1000;
#X obj 402 49 * 1000;
#X connect 0 0 5 0;
#X connect 1 0 6 0;
#X connect 2 0 18 0;
#X connect 3 0 8 0;
#X connect 4 0 8 0;
#X connect 5 0 7 0;
#X connect 5 1 3 0;
#X connect 6 0 15 0;
#X connect 6 1 14 0;
#X connect 8 0 10 0;
#X connect 8 1 11 0;
#X connect 10 0 9 0;
#X connect 11 0 9 0;
#X connect 12 0 13 0;
#X connect 13 0 6 0;
#X connect 14 0 3 0;
#X connect 14 1 4 0;
#X connect 15 0 16 0;
#X connect 15 1 17 0;
#X connect 16 0 0 0;
#X connect 17 0 0 0;
#X connect 18 0 0 1;
#X coords 0 -1 1 1 85 35 1 100 100;
#X restore 178 274 pd del;
#N canvas 51 101 654 276 line 0;
#X obj 234 203 del;
#X obj 266 9 inlet;
#X obj 553 11 inlet;
#X msg 422 143 0;
#X msg 456 143 1;
#X obj 234 223 t b b;
#X obj 266 67 t a a;
#X obj 234 246 outlet;
#X obj 422 164 sel 0 1;
#X obj 103 115 hsl 80 19 0 127 0 0 empty empty empty -2 -8 0 10 -262144
-262144 -262144 0 1;
#X msg 422 203 color 0 0 0;
#X msg 445 184 color 14 14 14;
#X obj 353 2 r \$0-stopwait;
#X msg 353 23 stop;
#X obj 419 121 route stop;
#X obj 234 95 route stop;
#X msg 234 115 stop;
#X obj 465 33 * 1000;
#X obj 553 32 * 1000;
#X obj 505 89 unpack f f;
#X floatatom 497 113 5 0 0 0 - - -;
#X floatatom 557 133 5 0 0 0 - - -;
#X msg 505 68 1;
#X obj 301 117 unpack f f;
#X obj 566 166 bng 15 250 50 0 empty empty empty 17 7 0 10 -262144
-1 -1;
#X obj 301 159 pack f f;
#X obj 354 138 * 1000;
#X msg 381 118 0;
#X msg 285 185 \$2;
#X obj 285 206 sel 0;
#X obj 344 228 line;
#X obj 344 250 outlet;
#X connect 0 0 5 0;
#X connect 1 0 6 0;
#X connect 2 0 18 0;
#X connect 3 0 8 0;
#X connect 4 0 8 0;
#X connect 5 0 7 0;
#X connect 5 1 3 0;
#X connect 6 0 15 0;
#X connect 6 1 14 0;
#X connect 6 1 27 0;
#X connect 8 0 10 0;
#X connect 8 1 11 0;
#X connect 10 0 9 0;
#X connect 11 0 9 0;
#X connect 12 0 13 0;
#X connect 13 0 6 0;
#X connect 14 0 3 0;
#X connect 14 1 4 0;
#X connect 15 0 16 0;
#X connect 15 1 23 0;
#X connect 16 0 0 0;
#X connect 16 0 30 0;
#X connect 19 0 20 0;
#X connect 19 1 21 0;
#X connect 21 0 24 0;
#X connect 22 0 19 0;
#X connect 23 0 25 0;
#X connect 23 1 26 0;
#X connect 25 0 30 0;
#X connect 25 0 28 0;
#X connect 26 0 25 1;
#X connect 27 0 26 0;
#X connect 28 0 29 0;
#X connect 29 1 0 0;
#X connect 30 0 31 0;
#X coords 0 -1 1 1 85 35 1 100 100;
#X restore 805 246 pd line;
#X floatatom 883 288 5 0 0 0 - - -;
#X obj 805 286 bng 15 250 50 0 empty empty empty 17 7 0 10 -262144
-1 -1;
#X msg 805 224 0 \, 1 3;
#N canvas 51 101 654 276 line 0;
#X obj 234 203 del;
#X obj 266 9 inlet;
#X obj 464 10 inlet;
#X msg 422 143 0;
#X msg 456 143 1;
#X obj 234 223 t b b;
#X obj 266 67 t a a;
#X obj 234 246 outlet;
#X obj 422 164 sel 0 1;
#X obj 103 115 hsl 80 19 0 127 0 0 empty empty empty -2 -8 0 10 -262144
-262144 -262144 0 1;
#X msg 422 203 color 0 0 0;
#X msg 445 184 color 14 14 14;
#X obj 353 2 r \$0-stopwait;
#X msg 353 23 stop;
#X obj 419 121 route stop;
#X obj 234 95 route stop;
#X msg 234 115 stop;
#X obj 505 89 unpack f f;
#X floatatom 497 113 5 0 0 0 - - -;
#X floatatom 557 133 5 0 0 0 - - -;
#X msg 505 68 1;
#X obj 301 117 unpack f f;
#X obj 566 166 bng 15 250 50 0 empty empty empty 17 7 0 10 -262144
-1 -1;
#X obj 301 159 pack f f;
#X obj 354 138 * 1000;
#X msg 381 118 0;
#X msg 285 185 \$2;
#X obj 285 206 sel 0;
#X obj 344 228 line;
#X obj 344 250 outlet;
#X connect 0 0 5 0;
#X connect 1 0 6 0;
#X connect 2 0 28 1;
#X connect 3 0 8 0;
#X connect 4 0 8 0;
#X connect 5 0 7 0;
#X connect 5 1 3 0;
#X connect 6 0 15 0;
#X connect 6 1 14 0;
#X connect 6 1 25 0;
#X connect 8 0 10 0;
#X connect 8 1 11 0;
#X connect 10 0 9 0;
#X connect 11 0 9 0;
#X connect 12 0 13 0;
#X connect 13 0 6 0;
#X connect 14 0 3 0;
#X connect 14 1 4 0;
#X connect 15 0 16 0;
#X connect 15 1 21 0;
#X connect 16 0 0 0;
#X connect 16 0 28 0;
#X connect 17 0 18 0;
#X connect 17 1 19 0;
#X connect 19 0 22 0;
#X connect 20 0 17 0;
#X connect 21 0 23 0;
#X connect 21 1 24 0;
#X connect 23 0 28 0;
#X connect 23 0 26 0;
#X connect 24 0 23 1;
#X connect 25 0 24 0;
#X connect 26 0 27 0;
#X connect 27 1 0 0;
#X connect 28 0 29 0;
#X coords 0 -1 1 1 85 35 1 100 100;
#X restore 178 653 pd line;
#X floatatom 839 289 5 0 0 0 - - -;
#X obj 492 133 bng 15 250 50 0 empty empty empty 17 7 0 10 -262144
-1 -1;
#X msg 178 629 0 \, 1 \$1;
#N canvas 542 26 450 300 mode8_immo 0;
#X obj 246 84 s \$0-randomspeed;
#X obj 222 174 s \$0-randomframe;
#X text 222 139 on period air proba;
#X text 221 187 on period air range min all;
#X text 244 100 on period air range min all;
#X obj 246 125 s \$0-randomlampe;
#X obj 118 18 inlet;
#X obj 122 40 bng 15 250 50 0 empty empty empty 17 7 0 10 -262144 -1
-1;
#X msg 154 80 0;
#X obj 122 59 t b b;
#X msg 67 220 1e+06;
#X obj 67 240 s \$0-stopatframe;
#X obj 87 200 s \$0-clearlocks;
#X obj 32 162 s \$0-2StepMotor;
#X msg 33 141 -1 speed 0;
#X connect 6 0 7 0;
#X connect 7 0 9 0;
#X connect 8 0 5 0;
#X connect 8 0 0 0;
#X connect 8 0 1 0;
#X connect 9 0 12 0;
#X connect 9 0 10 0;
#X connect 9 1 8 0;
#X connect 10 0 11 0;
#X connect 14 0 13 0;
#X restore 306 525 pd mode8_immo;
#X obj 527 76 s \$0-immolum;
#X msg 567 30 0.8;
#X obj 567 51 s \$0-coulelum;
#X obj 495 24 bng 15 250 50 0 empty empty empty 17 7 0 10 -262144 -1
-1;
#X obj 478 94 s \$0-flashlum;
#X msg 478 73 0.9;
#X obj 256 380 r \$0-TousArrives;
#X obj 237 382 tgl 15 0 empty empty empty 17 7 0 10 -262144 -1 -1 0
1;
#X obj 256 403 sel 1;
#X obj 344 138 bng 15 250 50 0 empty empty empty 17 7 0 10 -262144
-1 -1;
#N canvas 51 101 654 276 line 0;
#X obj 234 203 del;
#X obj 266 9 inlet;
#X obj 464 10 inlet;
#X msg 422 143 0;
#X msg 456 143 1;
#X obj 234 223 t b b;
#X obj 266 67 t a a;
#X obj 234 246 outlet;
#X obj 422 164 sel 0 1;
#X obj 103 115 hsl 80 19 0 127 0 0 empty empty empty -2 -8 0 10 -262144
-262144 -262144 0 1;
#X msg 422 203 color 0 0 0;
#X msg 445 184 color 14 14 14;
#X obj 353 2 r \$0-stopwait;
#X msg 353 23 stop;
#X obj 419 121 route stop;
#X obj 234 95 route stop;
#X msg 234 115 stop;
#X obj 505 89 unpack f f;
#X floatatom 497 113 5 0 0 0 - - -;
#X floatatom 557 133 5 0 0 0 - - -;
#X msg 505 68 1;
#X obj 301 117 unpack f f;
#X obj 566 166 bng 15 250 50 0 empty empty empty 17 7 0 10 -262144
-1 -1;
#X obj 301 159 pack f f;
#X obj 354 138 * 1000;
#X msg 381 118 0;
#X msg 285 185 \$2;
#X obj 285 206 sel 0;
#X obj 344 228 line;
#X obj 344 250 outlet;
#X connect 0 0 5 0;
#X connect 1 0 6 0;
#X connect 2 0 28 1;
#X connect 3 0 8 0;
#X connect 4 0 8 0;
#X connect 5 0 7 0;
#X connect 5 1 3 0;
#X connect 6 0 15 0;
#X connect 6 1 14 0;
#X connect 6 1 25 0;
#X connect 8 0 10 0;
#X connect 8 1 11 0;
#X connect 10 0 9 0;
#X connect 11 0 9 0;
#X connect 12 0 13 0;
#X connect 13 0 6 0;
#X connect 14 0 3 0;
#X connect 14 1 4 0;
#X connect 15 0 16 0;
#X connect 15 1 21 0;
#X connect 16 0 0 0;
#X connect 16 0 28 0;
#X connect 17 0 18 0;
#X connect 17 1 19 0;
#X connect 19 0 22 0;
#X connect 20 0 17 0;
#X connect 21 0 23 0;
#X connect 21 1 24 0;
#X connect 23 0 28 0;
#X connect 23 0 26 0;
#X connect 24 0 23 1;
#X connect 25 0 24 0;
#X connect 26 0 27 0;
#X connect 27 1 0 0;
#X connect 28 0 29 0;
#X coords 0 -1 1 1 85 35 1 100 100;
#X restore 410 206 pd line;
#X obj 341 548 r \$0-immolum;
#X obj 362 568 r \$0-coulelum;
#X obj 279 636 s \$0-lampe-rcv;
#X msg 279 617 -1 \$1;
#X msg 336 617 0;
#X obj 149 450 bng 15 250 50 0 empty empty empty 17 7 0 10 -262144
-1 -1;
#X msg 410 186 0 \, 1 \$1;
#X obj 559 123 random 10;
#X obj 509 227 s \$0-2StepMotor;
#N canvas 26 64 192 214 cos 0;
#X obj 65 75 cos;
#X obj 65 97 * -0.5;
#X obj 65 117 + 0.5;
#X obj 67 27 inlet;
#X obj 64 139 outlet;
#X obj 117 17 * 6.2832;
#X obj 66 51 * 3.14159;
#X connect 0 0 1 0;
#X connect 1 0 2 0;
#X connect 2 0 4 0;
#X connect 3 0 6 0;
#X connect 6 0 0 0;
#X restore 509 166 pd cos;
#X msg 509 205 -1 speed \$1;
#X obj 378 275 s \$0-2StepMotor;
#X obj 287 527 bng 15 250 50 0 empty empty empty 17 7 0 10 -262144
-1 -1;
#X floatatom 558 187 5 0 0 0 - - -;
#X obj 418 658 s \$0-2StepMotor;
#X msg 418 617 0;
#X msg 418 637 -1 resetframe \$1;
#X obj 22 244 + 40;
#X obj 20 346 + 30;
#X obj 22 445 + 20;
#X obj 22 326 random 20;
#X obj 22 543 + 20;
#X obj 22 523 random 10;
#X obj 178 133 random 10;
#X obj 178 153 + 20;
#X obj 178 234 random 5;
#X obj 178 254 + 15;
#X obj 23 425 random 5;
#N canvas 299 329 654 276 del 0;
#X obj 291 141 del;
#X obj 299 14 inlet;
#X obj 402 28 inlet;
#X msg 392 131 0;
#X msg 445 130 1;
#X obj 291 161 t b b;
#X obj 299 38 t a a;
#X obj 291 184 outlet;
#X obj 418 163 sel 0 1;
#X obj 103 115 hsl 80 20 0 127 0 0 empty empty empty -2 -8 0 10 -262144
-262144 -262144 0 1;
#X msg 396 200 color 0 0 0;
#X msg 487 194 color 14 14 14;
#X obj 458 68 r \$0-stopwait;
#X msg 458 89 stop;
#X obj 389 109 route stop;
#X obj 267 66 route stop;
#X msg 267 86 stop;
#X obj 315 89 * 1000;
#X obj 402 49 * 1000;
#X connect 0 0 5 0;
#X connect 1 0 6 0;
#X connect 2 0 18 0;
#X connect 3 0 8 0;
#X connect 4 0 8 0;
#X connect 5 0 7 0;
#X connect 5 1 3 0;
#X connect 6 0 15 0;
#X connect 6 1 14 0;
#X connect 8 0 10 0;
#X connect 8 1 11 0;
#X connect 10 0 9 0;
#X connect 11 0 9 0;
#X connect 12 0 13 0;
#X connect 13 0 6 0;
#X connect 14 0 3 0;
#X connect 14 1 4 0;
#X connect 15 0 16 0;
#X connect 15 1 17 0;
#X connect 16 0 0 0;
#X connect 17 0 0 0;
#X connect 18 0 0 1;
#X coords 0 -1 1 1 85 35 1 100 100;
#X restore 178 481 pd del;
#X obj 270 163 bng 15 250 50 0 empty empty empty 17 7 0 10 -262144
-1 -1;
#X obj 298 265 bng 15 250 50 0 empty empty empty 17 7 0 10 -262144
-1 -1;
#X obj 378 125 t b b;
#X obj 489 477 s \$0-Gyro;
#X obj 471 500 s \$0-SonAlarme;
#X obj 507 422 tgl 15 0 empty empty empty 17 7 0 10 -262144 -1 -1 0
1;
#X obj 361 451 tgl 15 0 empty empty empty 17 7 0 10 -262144 -1 -1 0
1;
#X obj 361 487 s \$0-lampe-rcv;
#X msg 361 468 -1 \$1;
#X obj 362 429 metro 200;
#X obj 389 397 tgl 15 0 empty empty empty 17 7 0 10 -262144 -1 -1 0
1;
#X obj 418 443 sel 0;
#X msg 422 467 0;
#X msg 282 463 1;
#X msg 275 492 0;
#X obj 317 503 r \$0-stopwait;
#X obj 154 114 bng 15 250 50 0 empty empty empty 17 7 0 10 -262144
-1 -1;
#N canvas 299 329 654 276 del 0;
#X obj 291 141 del;
#X obj 299 14 inlet;
#X obj 402 28 inlet;
#X msg 392 131 0;
#X msg 445 130 1;
#X obj 291 161 t b b;
#X obj 299 38 t a a;
#X obj 291 184 outlet;
#X obj 418 163 sel 0 1;
#X obj 103 115 hsl 80 20 0 127 0 0 empty empty empty -2 -8 0 10 -262144
-262144 -262144 0 1;
#X msg 396 200 color 0 0 0;
#X msg 487 194 color 14 14 14;
#X obj 458 68 r \$0-stopwait;
#X msg 458 89 stop;
#X obj 389 109 route stop;
#X obj 267 66 route stop;
#X msg 267 86 stop;
#X obj 315 89 * 1000;
#X obj 402 49 * 1000;
#X connect 0 0 5 0;
#X connect 1 0 6 0;
#X connect 2 0 18 0;
#X connect 3 0 8 0;
#X connect 4 0 8 0;
#X connect 5 0 7 0;
#X connect 5 1 3 0;
#X connect 6 0 15 0;
#X connect 6 1 14 0;
#X connect 8 0 10 0;
#X connect 8 1 11 0;
#X connect 10 0 9 0;
#X connect 11 0 9 0;
#X connect 12 0 13 0;
#X connect 13 0 6 0;
#X connect 14 0 3 0;
#X connect 14 1 4 0;
#X connect 15 0 16 0;
#X connect 15 1 17 0;
#X connect 16 0 0 0;
#X connect 17 0 0 0;
#X connect 18 0 0 1;
#X coords 0 -1 1 1 85 35 1 100 100;
#X restore 653 268 pd del;
#X obj 509 186 * 80;
#X msg 378 254 -1 inc 1 \, -1 inc 30;
#X obj 410 166 + 30;
#N canvas 39 228 450 300 mode-ligne1 0;
#X obj 242 100 s \$0-randomspeed;
#X obj 222 174 s \$0-randomframe;
#X text 58 196 on period air proba;
#X text 221 187 on period air range min all;
#X text 240 116 on period air range min all;
#X obj 82 182 s \$0-randomlampe;
#X obj 118 18 inlet;
#X obj 122 59 b;
#X obj 122 40 bng 15 250 50 0 empty empty empty 17 7 0 10 -262144 -1
-1;
#X msg 228 230 1 400 2 4 1 0;
#X msg 83 162 1 200 5 40;
#X msg 242 78 1 200 6 30 60 1;
#X msg 349 149 0;
#X msg 217 152 1 200 20 0 1 2;
#X connect 6 0 8 0;
#X connect 7 0 13 0;
#X connect 8 0 7 0;
#X connect 9 0 1 0;
#X connect 10 0 5 0;
#X connect 11 0 0 0;
#X connect 12 0 1 0;
#X connect 13 0 1 0;
#X restore 685 307 pd mode-ligne1;
#X msg 653 248 2;
#N canvas 299 329 654 276 del 0;
#X obj 291 141 del;
#X obj 299 14 inlet;
#X obj 402 28 inlet;
#X msg 392 131 0;
#X msg 445 130 1;
#X obj 291 161 t b b;
#X obj 299 38 t a a;
#X obj 291 184 outlet;
#X obj 418 163 sel 0 1;
#X obj 103 115 hsl 80 20 0 127 0 0 empty empty empty -2 -8 0 10 -262144
-262144 -262144 0 1;
#X msg 396 200 color 0 0 0;
#X msg 487 194 color 14 14 14;
#X obj 458 68 r \$0-stopwait;
#X msg 458 89 stop;
#X obj 389 109 route stop;
#X obj 267 66 route stop;
#X msg 267 86 stop;
#X obj 315 89 * 1000;
#X obj 402 49 * 1000;
#X connect 0 0 5 0;
#X connect 1 0 6 0;
#X connect 2 0 18 0;
#X connect 3 0 8 0;
#X connect 4 0 8 0;
#X connect 5 0 7 0;
#X connect 5 1 3 0;
#X connect 6 0 15 0;
#X connect 6 1 14 0;
#X connect 8 0 10 0;
#X connect 8 1 11 0;
#X connect 10 0 9 0;
#X connect 11 0 9 0;
#X connect 12 0 13 0;
#X connect 13 0 6 0;
#X connect 14 0 3 0;
#X connect 14 1 4 0;
#X connect 15 0 16 0;
#X connect 15 1 17 0;
#X connect 16 0 0 0;
#X connect 17 0 0 0;
#X connect 18 0 0 1;
#X coords 0 -1 1 1 85 35 1 100 100;
#X restore 586 403 pd del;
#X obj 666 308 bng 15 250 50 0 empty empty empty 17 7 0 10 -262144
-1 -1;
#X obj 586 383 + 10;
#X obj 691 420 s \$0-2StepMotor;
#X msg 691 399 \$1 inc 1;
#X obj 586 442 t b b;
#X obj 765 538 sel 0;
#X obj 708 468 b;
#X obj 547 340 bng 15 250 50 0 empty empty empty 17 7 0 10 -262144
-1 -1;
#N canvas 299 329 654 276 del 0;
#X obj 291 141 del;
#X obj 299 14 inlet;
#X obj 402 28 inlet;
#X msg 392 131 0;
#X msg 445 130 1;
#X obj 291 161 t b b;
#X obj 299 38 t a a;
#X obj 291 184 outlet;
#X obj 418 163 sel 0 1;
#X obj 103 115 hsl 80 20 0 127 0 0 empty empty empty -2 -8 0 10 -262144
-262144 -262144 0 1;
#X msg 396 200 color 0 0 0;
#X msg 487 194 color 14 14 14;
#X obj 458 68 r \$0-stopwait;
#X msg 458 89 stop;
#X obj 389 109 route stop;
#X obj 267 66 route stop;
#X msg 267 86 stop;
#X obj 315 89 * 1000;
#X obj 402 49 * 1000;
#X connect 0 0 5 0;
#X connect 1 0 6 0;
#X connect 2 0 18 0;
#X connect 3 0 8 0;
#X connect 4 0 8 0;
#X connect 5 0 7 0;
#X connect 5 1 3 0;
#X connect 6 0 15 0;
#X connect 6 1 14 0;
#X connect 8 0 10 0;
#X connect 8 1 11 0;
#X connect 10 0 9 0;
#X connect 11 0 9 0;
#X connect 12 0 13 0;
#X connect 13 0 6 0;
#X connect 14 0 3 0;
#X connect 14 1 4 0;
#X connect 15 0 16 0;
#X connect 15 1 17 0;
#X connect 16 0 0 0;
#X connect 17 0 0 0;
#X connect 18 0 0 1;
#X coords 0 -1 1 1 85 35 1 100 100;
#X restore 586 325 pd del;
#X msg 586 305 20;
#X obj 772 403 + 0;
#X obj 22 224 random 20;
#X msg 178 462 6;
#N canvas 299 329 654 276 del 0;
#X obj 291 141 del;
#X obj 299 14 inlet;
#X obj 402 28 inlet;
#X msg 392 131 0;
#X msg 445 130 1;
#X obj 291 161 t b b;
#X obj 299 38 t a a;
#X obj 291 184 outlet;
#X obj 418 163 sel 0 1;
#X obj 103 115 hsl 80 20 0 127 0 0 empty empty empty -2 -8 0 10 -262144
-262144 -262144 0 1;
#X msg 396 200 color 0 0 0;
#X msg 487 194 color 14 14 14;
#X obj 458 68 r \$0-stopwait;
#X msg 458 89 stop;
#X obj 389 109 route stop;
#X obj 267 66 route stop;
#X msg 267 86 stop;
#X obj 315 89 * 1000;
#X obj 402 49 * 1000;
#X connect 0 0 5 0;
#X connect 1 0 6 0;
#X connect 2 0 18 0;
#X connect 3 0 8 0;
#X connect 4 0 8 0;
#X connect 5 0 7 0;
#X connect 5 1 3 0;
#X connect 6 0 15 0;
#X connect 6 1 14 0;
#X connect 8 0 10 0;
#X connect 8 1 11 0;
#X connect 10 0 9 0;
#X connect 11 0 9 0;
#X connect 12 0 13 0;
#X connect 13 0 6 0;
#X connect 14 0 3 0;
#X connect 14 1 4 0;
#X connect 15 0 16 0;
#X connect 15 1 17 0;
#X connect 16 0 0 0;
#X connect 17 0 0 0;
#X connect 18 0 0 1;
#X coords 0 -1 1 1 85 35 1 100 100;
#X restore 178 541 pd del;
#X msg 178 522 4;
#X obj 178 608 + 5;
#X obj 178 588 random 2;
#X msg 527 55 0.65;
#X obj 586 363 random 5;
#X obj 765 514 random 11;
#X obj 691 352 random 6;
#X obj 691 373 + 1;
#X obj 146 1 inlet;
#X obj 637 518 i;
#X obj 605 517 +;
#X obj 659 572 t b b;
#X msg 713 526 0;
#X obj 599 474 bng 15 250 50 0 empty empty empty 17 7 0 10 -262144
-1 -1;
#X obj 605 572 t b;
#X obj 609 597 bng 15 250 50 0 empty empty empty 17 7 0 10 -262144
-1 -1;
#X floatatom 559 555 5 0 0 0 - - -;
#X obj 605 494 random 4;
#X obj 605 551 moses 10;
#X obj 267 7 loadbang;
#X obj 36 107 s \$0-2StepMotor;
#X msg 36 64 0;
#X msg 36 84 -1 resetframe \$1;
#N canvas 299 329 654 276 del 0;
#X obj 291 141 del;
#X obj 299 14 inlet;
#X obj 402 28 inlet;
#X msg 392 131 0;
#X msg 445 130 1;
#X obj 291 161 t b b;
#X obj 299 38 t a a;
#X obj 291 184 outlet;
#X obj 418 163 sel 0 1;
#X obj 103 115 hsl 80 20 0 127 0 0 empty empty empty -2 -8 0 10 -262144
-262144 -262144 0 1;
#X msg 396 200 color 0 0 0;
#X msg 487 194 color 14 14 14;
#X obj 458 68 r \$0-stopwait;
#X msg 458 89 stop;
#X obj 389 109 route stop;
#X obj 267 66 route stop;
#X msg 267 86 stop;
#X obj 315 89 * 1000;
#X obj 402 49 * 1000;
#X connect 0 0 5 0;
#X connect 1 0 6 0;
#X connect 2 0 18 0;
#X connect 3 0 8 0;
#X connect 4 0 8 0;
#X connect 5 0 7 0;
#X connect 5 1 3 0;
#X connect 6 0 15 0;
#X connect 6 1 14 0;
#X connect 8 0 10 0;
#X connect 8 1 11 0;
#X connect 10 0 9 0;
#X connect 11 0 9 0;
#X connect 12 0 13 0;
#X connect 13 0 6 0;
#X connect 14 0 3 0;
#X connect 14 1 4 0;
#X connect 15 0 16 0;
#X connect 15 1 17 0;
#X connect 16 0 0 0;
#X connect 17 0 0 0;
#X connect 18 0 0 1;
#X coords 0 -1 1 1 85 35 1 100 100;
#X restore 24 24 pd del;
#X msg 24 2 2;
#N canvas 299 329 654 276 del 0;
#X obj 291 141 del;
#X obj 299 14 inlet;
#X obj 402 28 inlet;
#X msg 392 131 0;
#X msg 445 130 1;
#X obj 291 161 t b b;
#X obj 299 38 t a a;
#X obj 291 184 outlet;
#X obj 418 163 sel 0 1;
#X obj 103 115 hsl 80 20 0 127 0 0 empty empty empty -2 -8 0 10 -262144
-262144 -262144 0 1;
#X msg 396 200 color 0 0 0;
#X msg 487 194 color 14 14 14;
#X obj 458 68 r \$0-stopwait;
#X msg 458 89 stop;
#X obj 389 109 route stop;
#X obj 267 66 route stop;
#X msg 267 86 stop;
#X obj 315 89 * 1000;
#X obj 402 49 * 1000;
#X connect 0 0 5 0;
#X connect 1 0 6 0;
#X connect 2 0 18 0;
#X connect 3 0 8 0;
#X connect 4 0 8 0;
#X connect 5 0 7 0;
#X connect 5 1 3 0;
#X connect 6 0 15 0;
#X connect 6 1 14 0;
#X connect 8 0 10 0;
#X connect 8 1 11 0;
#X connect 10 0 9 0;
#X connect 11 0 9 0;
#X connect 12 0 13 0;
#X connect 13 0 6 0;
#X connect 14 0 3 0;
#X connect 14 1 4 0;
#X connect 15 0 16 0;
#X connect 15 1 17 0;
#X connect 16 0 0 0;
#X connect 17 0 0 0;
#X connect 18 0 0 1;
#X coords 0 -1 1 1 85 35 1 100 100;
#X restore 24 150 pd del;
#X msg 24 128 3;
#X obj 178 320 t b b;
#X obj 270 592 maxlib/scale 0 1 0 0.9;
#X connect 0 0 3 0;
#X connect 1 0 0 0;
#X connect 2 0 4 0;
#X connect 6 0 148 0;
#X connect 6 1 5 0;
#X connect 6 1 2 0;
#X connect 6 1 12 0;
#X connect 6 1 28 0;
#X connect 6 1 49 0;
#X connect 8 0 6 0;
#X connect 12 0 9 0;
#X connect 12 0 10 0;
#X connect 12 0 11 0;
#X connect 12 0 26 0;
#X connect 14 0 13 0;
#X connect 15 0 7 0;
#X connect 15 0 121 0;
#X connect 16 0 17 0;
#X connect 18 0 19 0;
#X connect 20 0 21 0;
#X connect 22 0 23 0;
#X connect 24 0 25 0;
#X connect 24 0 1 0;
#X connect 28 0 27 0;
#X connect 29 0 14 0;
#X connect 29 0 77 0;
#X connect 30 0 99 0;
#X connect 30 0 122 0;
#X connect 31 0 30 0;
#X connect 32 0 16 0;
#X connect 32 0 84 0;
#X connect 33 0 18 0;
#X connect 33 0 79 0;
#X connect 34 0 20 0;
#X connect 34 0 80 0;
#X connect 35 0 22 0;
#X connect 35 0 82 0;
#X connect 36 0 151 0;
#X connect 37 0 39 0;
#X connect 37 1 38 0;
#X connect 40 0 37 0;
#X connect 41 0 88 0;
#X connect 41 1 152 0;
#X connect 43 0 64 0;
#X connect 44 0 41 0;
#X connect 47 0 48 0;
#X connect 49 0 127 0;
#X connect 49 0 47 0;
#X connect 49 0 51 0;
#X connect 51 0 50 0;
#X connect 52 0 53 0;
#X connect 52 0 54 0;
#X connect 54 0 30 1;
#X connect 55 0 88 0;
#X connect 56 0 108 0;
#X connect 56 1 66 0;
#X connect 58 0 152 4;
#X connect 60 0 59 0;
#X connect 61 0 60 0;
#X connect 62 0 126 0;
#X connect 63 0 56 0;
#X connect 66 0 70 0;
#X connect 66 0 104 0;
#X connect 67 0 65 0;
#X connect 69 0 45 0;
#X connect 72 0 73 0;
#X connect 73 0 71 0;
#X connect 74 0 29 0;
#X connect 75 0 32 0;
#X connect 76 0 33 0;
#X connect 77 0 75 0;
#X connect 78 0 34 0;
#X connect 79 0 78 0;
#X connect 80 0 81 0;
#X connect 81 0 35 0;
#X connect 82 0 83 0;
#X connect 83 0 36 0;
#X connect 84 0 76 0;
#X connect 85 0 69 0;
#X connect 85 0 100 0;
#X connect 85 0 124 0;
#X connect 86 0 22 0;
#X connect 86 0 82 0;
#X connect 88 0 105 0;
#X connect 88 1 106 0;
#X connect 91 0 90 0;
#X connect 91 0 89 0;
#X connect 92 0 94 0;
#X connect 94 0 93 0;
#X connect 95 0 92 0;
#X connect 96 0 95 0;
#X connect 96 0 91 0;
#X connect 96 0 97 0;
#X connect 97 0 98 0;
#X connect 98 0 92 0;
#X connect 99 0 96 0;
#X connect 100 0 96 0;
#X connect 100 0 60 0;
#X connect 101 0 100 0;
#X connect 102 0 80 0;
#X connect 103 0 110 0;
#X connect 103 0 119 0;
#X connect 104 0 67 0;
#X connect 105 0 68 0;
#X connect 106 0 63 0;
#X connect 108 0 103 0;
#X connect 109 0 114 0;
#X connect 110 0 107 0;
#X connect 111 0 109 0;
#X connect 113 0 112 0;
#X connect 114 0 137 0;
#X connect 114 1 130 0;
#X connect 116 0 128 0;
#X connect 117 0 128 0;
#X connect 118 0 128 0;
#X connect 119 0 118 0;
#X connect 121 0 74 0;
#X connect 122 0 85 0;
#X connect 123 0 126 0;
#X connect 124 0 123 0;
#X connect 125 0 44 0;
#X connect 126 0 125 0;
#X connect 127 0 46 0;
#X connect 128 0 111 0;
#X connect 129 0 115 0;
#X connect 130 0 120 0;
#X connect 130 0 131 0;
#X connect 131 0 113 0;
#X connect 132 0 8 0;
#X connect 133 0 134 1;
#X connect 134 0 133 0;
#X connect 134 0 140 0;
#X connect 134 0 142 0;
#X connect 135 0 15 0;
#X connect 135 1 136 0;
#X connect 136 0 133 0;
#X connect 137 0 141 0;
#X connect 138 0 128 0;
#X connect 141 0 134 0;
#X connect 142 0 138 0;
#X connect 142 1 135 0;
#X connect 143 0 28 0;
#X connect 145 0 146 0;
#X connect 146 0 144 0;
#X connect 147 0 145 0;
#X connect 147 0 150 0;
#X connect 148 0 147 0;
#X connect 149 0 15 0;
#X connect 150 0 149 0;
#X connect 151 0 24 0;
#X connect 151 1 31 0;
#X connect 152 0 60 0;
#X restore 186 493 pd Scenario;
#X obj 430 366 bng 15 250 50 0 \$0-calagef34-snd \$0-calagef34rcv 34
2 7 0 10 -262144 -1 -1;
#X obj 362 366 bng 15 250 50 0 \$0-calagef12-snd \$0-calagef12-rcv
12 2 7 0 10 -262144 -1 -1;
#X obj 492 367 bng 15 250 50 0 \$0-calagef56-snd \$0-calagef56-rcv
56 2 7 0 10 -262144 -1 -1;
#X obj 430 383 bng 15 250 50 0 \$0-calagefall-snd \$0-calagefall-rcv
all 1 7 0 10 -262144 -1 -1;
#X msg 215 106 80;
#X msg 247 106 0;
#X msg 310 176 0;
#X msg 216 132 -1 current \$1;
#X obj 147 371 r \$0-SerialOn;
#X obj 147 391 sel 1;
#X obj 147 411 del 20000;
#N canvas 809 532 355 303 \$0-KeyStop 0;
#N canvas 187 194 362 387 guts 0;
#X obj 14 126 r \$0-stopbut-snd;
#X obj 7 16 keyname;
#X obj 9 38 pack f s;
#X obj 10 60 route 1;
#X obj 15 102 s \$0-stopbut-rcv;
#X obj 14 81 route F5;
#X obj 14 148 t b b;
#X obj 46 173 del 1000;
#X obj 14 202 i;
#X obj 43 203 + 1;
#X obj 72 204 moses 5;
#X msg 132 203 0;
#X obj 117 236 bng 15 250 50 0 empty empty empty 17 7 0 10 -262144
-1 -1;
#X floatatom 13 226 5 0 0 0 - - -;
#X obj 134 46 tgl 15 0 empty empty empty 17 7 0 10 -262144 -1 -1 0
1;
#X msg 139 108 0 \, 1;
#X obj 140 132 showtab \$0-KeyStop;
#X obj 126 18 init 1;
#X obj 112 360 system;
#X msg 112 339 sudo halt;
#X obj 138 83 metro 20000;
#N canvas 449 470 525 276 waitfor 0;
#X obj 270 63 inlet;
#X obj 322 61 inlet;
#X msg 418 140 0;
#X msg 457 148 1;
#X obj 206 217 outlet;
#X obj 311 175 sel 0 1;
#X obj 103 115 hsl 80 20 0 127 0 0 empty empty empty -2 -8 0 10 -262144
-262144 -262144 0 1;
#X msg 289 212 color 0 0 0;
#X msg 380 206 color 14 14 14;
#X obj 372 58 r \$0-stopwait;
#X msg 372 79 0;
#X obj 270 89 t f f;
#X obj 231 127 spigot;
#X obj 231 148 t a b;
#X connect 0 0 11 0;
#X connect 1 0 12 0;
#X connect 2 0 3 0;
#X connect 5 0 7 0;
#X connect 5 1 8 0;
#X connect 7 0 6 0;
#X connect 8 0 6 0;
#X connect 9 0 10 0;
#X connect 10 0 11 0;
#X connect 11 0 12 1;
#X connect 11 1 5 0;
#X connect 12 0 13 0;
#X connect 13 0 4 0;
#X connect 13 1 10 0;
#X coords 0 -1 1 1 85 35 1 100 100;
#X restore 112 301 pd waitfor;
#X msg 112 281 1;
#X obj 148 277 s \$0-Recalage;
#X obj 116 255 t b b;
#X obj 203 300 r \$0-RecalageFini;
#X connect 0 0 6 0;
#X connect 1 0 2 0;
#X connect 1 1 2 1;
#X connect 2 0 3 0;
#X connect 3 0 5 0;
#X connect 5 0 4 0;
#X connect 6 0 8 0;
#X connect 6 1 7 0;
#X connect 7 0 11 0;
#X connect 8 0 9 0;
#X connect 8 0 13 0;
#X connect 9 0 10 0;
#X connect 10 0 8 1;
#X connect 10 1 11 0;
#X connect 10 1 12 0;
#X connect 11 0 8 1;
#X connect 12 0 24 0;
#X connect 14 0 20 0;
#X connect 15 0 16 0;
#X connect 19 0 18 0;
#X connect 20 0 15 0;
#X connect 21 0 19 0;
#X connect 22 0 21 0;
#X connect 24 0 22 0;
#X connect 24 1 23 0;
#X connect 25 0 21 1;
#X restore 16 251 pd guts;
#X obj 18 94 bng 80 250 50 0 \$0-stopbut-snd \$0-stopbut-rcv STOP 0
-12 1 30 -258113 -1 -1;
#X text 104 93 Pour arreter \, appuyer 5 fois sur;
#X text 104 109 ce bouton ou sur la touche "F5";
#X obj 15 271 namecanvas \$0-stopcan;
#X restore 42 447 pd \$0-KeyStop;
#N canvas 5 81 626 610 Routines 0;
#X obj 59 7 inlet;
#X obj 158 46 t b b;
#X obj 353 27 r \$0-Stop;
#X obj 417 109 s \$0-stopwait;
#X obj 385 81 t b b;
#X obj 398 137 s \$0-randomspeed;
#X obj 377 180 s \$0-randomframe;
#X obj 390 159 s \$0-randomlampe;
#X msg 385 106 0;
#X obj 353 59 t b b;
#X obj 374 218 s \$0-lampesoff-rcv;
#X obj 374 199 bng 15 250 50 0 empty empty empty 17 7 0 10 -262144
-1 -1;
#X obj 190 68 s \$0-Stop;
#X obj 392 267 shuffle 0 43 0.5;
#X obj 375 265 bng 15 250 50 0 empty empty empty 17 7 0 10 -262144
-1 -1;
#X obj 146 204 s \$0-stopatframe;
#X obj 374 248 bng 15 250 50 0 empty empty empty 17 7 0 10 -262144
-1 -1;
#N canvas 71 81 450 300 mode7 0;
#X obj 242 100 s \$0-randomspeed;
#X obj 222 174 s \$0-randomframe;
#X text 58 196 on period air proba;
#X text 221 187 on period air range min all;
#X text 240 116 on period air range min all;
#X obj 82 182 s \$0-randomlampe;
#X obj 118 18 inlet;
#X obj 122 59 b;
#X obj 122 40 bng 15 250 50 0 empty empty empty 17 7 0 10 -262144 -1
-1;
#X msg 228 230 1 400 2 4 1 0;
#X msg 83 162 1 100 4 60;
#X msg 219 152 1 100 6 0 1 -1;
#X msg 241 79 1 100 2 40 20 0;
#X connect 6 0 8 0;
#X connect 7 0 12 0;
#X connect 7 0 11 0;
#X connect 7 0 10 0;
#X connect 8 0 7 0;
#X connect 9 0 1 0;
#X connect 10 0 5 0;
#X connect 11 0 1 0;
#X connect 12 0 0 0;
#X restore 395 246 pd mode7;
#N canvas 449 470 525 276 waitfor 0;
#X obj 270 63 inlet;
#X obj 322 61 inlet;
#X msg 418 140 0;
#X msg 457 148 1;
#X obj 206 217 outlet;
#X obj 311 175 sel 0 1;
#X obj 103 115 hsl 80 20 0 127 0 0 empty empty empty -2 -8 0 10 -262144
-262144 -262144 0 1;
#X msg 289 212 color 0 0 0;
#X msg 380 206 color 14 14 14;
#X obj 372 58 r \$0-stopwait;
#X msg 372 79 0;
#X obj 270 89 t f f;
#X obj 231 127 spigot;
#X obj 231 148 t a b;
#X connect 0 0 11 0;
#X connect 1 0 12 0;
#X connect 2 0 3 0;
#X connect 5 0 7 0;
#X connect 5 1 8 0;
#X connect 7 0 6 0;
#X connect 8 0 6 0;
#X connect 9 0 10 0;
#X connect 10 0 11 0;
#X connect 11 0 12 1;
#X connect 11 1 5 0;
#X connect 12 0 13 0;
#X connect 13 0 4 0;
#X connect 13 1 10 0;
#X coords 0 -1 1 1 85 35 1 100 100;
#X restore 126 311 pd waitfor;
#X msg 126 289 1;
#N canvas 299 329 654 276 del 0;
#X obj 291 141 del;
#X obj 299 14 inlet;
#X obj 402 28 inlet;
#X msg 392 131 0;
#X msg 445 130 1;
#X obj 291 161 t b b;
#X obj 299 38 t a a;
#X obj 291 184 outlet;
#X obj 418 163 sel 0 1;
#X obj 103 115 hsl 80 20 0 127 0 0 empty empty empty -2 -8 0 10 -262144
-262144 -262144 0 1;
#X msg 396 200 color 0 0 0;
#X msg 487 194 color 14 14 14;
#X obj 458 68 r \$0-stopwait;
#X msg 458 89 stop;
#X obj 389 109 route stop;
#X obj 267 66 route stop;
#X msg 267 86 stop;
#X obj 315 89 * 1000;
#X obj 402 49 * 1000;
#X connect 0 0 5 0;
#X connect 1 0 6 0;
#X connect 2 0 18 0;
#X connect 3 0 8 0;
#X connect 4 0 8 0;
#X connect 5 0 7 0;
#X connect 5 1 3 0;
#X connect 6 0 15 0;
#X connect 6 1 14 0;
#X connect 8 0 10 0;
#X connect 8 1 11 0;
#X connect 10 0 9 0;
#X connect 11 0 9 0;
#X connect 12 0 13 0;
#X connect 13 0 6 0;
#X connect 14 0 3 0;
#X connect 14 1 4 0;
#X connect 15 0 16 0;
#X connect 15 1 17 0;
#X connect 16 0 0 0;
#X connect 17 0 0 0;
#X connect 18 0 0 1;
#X coords 0 -1 1 1 85 35 1 100 100;
#X restore 126 109 pd del;
#X obj 204 267 r \$0-TousArrives;
#X obj 177 288 tgl 15 0 empty empty empty 17 7 0 10 -262144 -1 -1 0
1;
#X obj 204 290 sel 1;
#X msg 395 391 0;
#X msg 395 411 -1 resetframe \$1;
#N canvas 299 329 654 276 del 0;
#X obj 291 141 del;
#X obj 299 14 inlet;
#X obj 402 28 inlet;
#X msg 392 131 0;
#X msg 445 130 1;
#X obj 291 161 t b b;
#X obj 299 38 t a a;
#X obj 291 184 outlet;
#X obj 418 163 sel 0 1;
#X obj 103 115 hsl 80 20 0 127 0 0 empty empty empty -2 -8 0 10 -262144
-262144 -262144 0 1;
#X msg 396 200 color 0 0 0;
#X msg 487 194 color 14 14 14;
#X obj 458 68 r \$0-stopwait;
#X msg 458 89 stop;
#X obj 389 109 route stop;
#X obj 267 66 route stop;
#X msg 267 86 stop;
#X obj 315 89 * 1000;
#X obj 402 49 * 1000;
#X connect 0 0 5 0;
#X connect 1 0 6 0;
#X connect 2 0 18 0;
#X connect 3 0 8 0;
#X connect 4 0 8 0;
#X connect 5 0 7 0;
#X connect 5 1 3 0;
#X connect 6 0 15 0;
#X connect 6 1 14 0;
#X connect 8 0 10 0;
#X connect 8 1 11 0;
#X connect 10 0 9 0;
#X connect 11 0 9 0;
#X connect 12 0 13 0;
#X connect 13 0 6 0;
#X connect 14 0 3 0;
#X connect 14 1 4 0;
#X connect 15 0 16 0;
#X connect 15 1 17 0;
#X connect 16 0 0 0;
#X connect 17 0 0 0;
#X connect 18 0 0 1;
#X coords 0 -1 1 1 85 35 1 100 100;
#X restore 126 368 pd del;
#X msg 126 86 4;
#X obj 75 246 s \$0-2StepMotor;
#X obj 236 135 s \$0-lampe-rcv;
#X msg 146 181 0;
#X obj 126 159 t b b b;
#X obj 158 486 s \$0-lampe-rcv;
#X msg 158 466 -1 0;
#X obj 110 25 bng 15 250 50 0 empty empty empty 17 7 0 10 -262144 -1
-1;
#X msg 235 114 -1 0.7;
#X obj 326 29 bng 15 250 50 0 empty empty empty 17 7 0 10 -262144 -1
-1;
#X msg 8 265 -1 speed 70 \, -1 inc 1;
#X msg 75 225 -1 speed 70 \, -1 inc 0 \, -1 inc 50;
#X msg 181 182 1e+06;
#X msg 126 349 4;
#X obj 126 522 s \$0-RecalageFini;
#X obj 159 22 r \$0-Recalage;
#X msg 175 424 1e+06;
#X obj 175 444 s \$0-stopatframe;
#X obj 126 407 t b b;
#X connect 1 0 27 0;
#X connect 1 0 35 0;
#X connect 1 1 12 0;
#X connect 2 0 9 0;
#X connect 4 0 8 0;
#X connect 4 1 3 0;
#X connect 8 0 5 0;
#X connect 8 0 6 0;
#X connect 8 0 7 0;
#X connect 9 0 11 0;
#X connect 9 1 4 0;
#X connect 11 0 10 0;
#X connect 14 0 13 0;
#X connect 16 0 17 0;
#X connect 16 0 14 0;
#X connect 18 0 40 0;
#X connect 19 0 18 0;
#X connect 20 0 31 0;
#X connect 21 0 22 0;
#X connect 21 0 23 0;
#X connect 23 0 18 1;
#X connect 24 0 25 0;
#X connect 26 0 45 0;
#X connect 27 0 20 0;
#X connect 30 0 15 0;
#X connect 31 0 38 0;
#X connect 31 1 30 0;
#X connect 31 2 19 0;
#X connect 33 0 32 0;
#X connect 34 0 1 0;
#X connect 35 0 29 0;
#X connect 36 0 9 0;
#X connect 37 0 28 0;
#X connect 38 0 28 0;
#X connect 39 0 15 0;
#X connect 40 0 26 0;
#X connect 42 0 1 0;
#X connect 43 0 44 0;
#X connect 45 0 41 0;
#X connect 45 1 33 0;
#X connect 45 1 43 0;
#X restore 42 398 pd Routines;
#X obj 146 437 s \$0-scenariostart;
#X obj 186 473 r \$0-scenariostart;
#X floatatom 294 103 5 0 0 0 - - -;
#X obj 289 30 hradio 15 1 0 30 empty empty empty 0 -8 0 10 -262144
-1 -1 0;
#X obj 451 159 StepMotor \$0 1 33;
#X obj 451 243 StepMotor \$0 5 9;
#X obj 451 181 StepMotor \$0 2 25;
#X obj 451 203 StepMotor \$0 3 1;
#X obj 451 223 StepMotor \$0 4 41;
#X obj 451 263 StepMotor \$0 6 17;
#X obj 567 505 loadbang;
#N canvas 886 81 522 338 Net 0;
#X obj 33 251 r \$0-toDMX2;
#X obj 33 275 route D;
#X obj 33 307 s \$0-setchannel;
#X obj 27 53 r \$0-fromserver;
#X obj 27 206 s \$0-lampe-rcv;
#X obj 84 182 s \$0-2StepMotor;
#X obj 141 152 s \$0-calage-rcv;
#X obj 198 126 s \$0-calagef-rcv;
#X obj 11 117 print;
#X obj 253 106 s \$0-Recalage;
#X obj 369 224 r \$0-RecalageFini;
#X obj 369 281 s \$0-toserver;
#X msg 369 255 RecalageFini;
#X obj 262 224 r \$0-StepMotor;
#X obj 27 80 route lampe motor calage calagef Recalage;
#X connect 0 0 1 0;
#X connect 3 0 14 0;
#X connect 10 0 12 0;
#X connect 12 0 11 0;
#X connect 14 0 4 0;
#X connect 14 1 5 0;
#X connect 14 2 6 0;
#X connect 14 3 7 0;
#X connect 14 4 9 0;
#X restore 41 507 pd Net;
#X msg 612 523 20;
#N canvas 106 239 684 532 Randomiseurs 0;
#X obj 427 325 table \$0-locktab 10;
#X obj 420 448 s \$0-locktab;
#X msg 421 372 const 0;
#X obj 348 354 r \$0-lock;
#X obj 422 353 r \$0-clearlocks;
#N canvas 267 25 450 300 lock 0;
#X obj 134 61 inlet;
#X obj 134 84 t f f;
#X obj 166 104 tabread \$0-locktab;
#X obj 134 127 demux;
#X obj 134 164 outlet;
#X obj 187 165 outlet;
#X text 102 180 not locked;
#X text 185 180 locked;
#X connect 0 0 1 0;
#X connect 1 0 3 0;
#X connect 1 1 2 0;
#X connect 2 0 3 1;
#X connect 3 0 4 0;
#X connect 3 1 5 0;
#X restore 264 349 pd lock;
#X obj 278 406 hradio 15 1 0 8 empty empty empty 0 -8 0 10 -262144
-1 -1 0;
#N canvas 508 108 274 334 randomlampe 0;
#X obj 27 93 metro 100;
#X obj 26 174 t f b;
#X obj 26 249 pack f f;
#X obj 28 275 s \$0-lampe-rcv;
#X obj 27 73 tgl 15 0 empty empty empty 17 7 0 10 -262144 -1 -1 0 1
;
#X msg 87 73 300;
#X msg 136 263 \$1 1;
#X msg 139 221 1 2 3 4 5 6;
#X obj 141 240 drip;
#X obj 27 27 r \$0-randomlampe;
#X msg 159 285 -1 \$1;
#X obj 180 245 tgl 15 0 empty empty empty 17 7 0 10 -262144 -1 -1 0
1;
#N canvas 1 108 255 271 rnd-find-unlock 0;
#X obj 92 36 inlet;
#X obj 92 123 random 7;
#X msg 92 81 10;
#X obj 92 100 until;
#X obj 92 143 moses 6;
#X obj 153 144 b;
#N canvas 267 81 450 300 lock 0;
#X obj 134 61 inlet;
#X obj 134 84 t f f;
#X obj 166 104 tabread \$0-locktab;
#X obj 134 127 demux;
#X obj 134 164 outlet;
#X obj 187 165 outlet;
#X text 102 180 not locked;
#X text 185 180 locked;
#X connect 0 0 1 0;
#X connect 1 0 3 0;
#X connect 1 1 2 0;
#X connect 2 0 3 1;
#X connect 3 0 4 0;
#X connect 3 1 5 0;
#X restore 92 191 pd lock;
#X obj 92 211 t f b;
#X floatatom 40 206 5 0 0 0 - - -;
#X obj 92 57 t b f;
#X floatatom 145 33 5 0 0 0 - - -;
#X obj 154 7 bng 15 250 50 0 empty empty empty 17 7 0 10 -262144 -1
-1;
#X obj 92 164 + 1;
#X obj 69 236 bng 15 250 50 0 empty empty empty 17 7 0 10 -262144 -1
-1;
#X obj 92 235 outlet;
#X obj 145 101 + 6;
#X connect 0 0 9 0;
#X connect 1 0 4 0;
#X connect 2 0 3 0;
#X connect 3 0 1 0;
#X connect 4 0 12 0;
#X connect 4 1 5 0;
#X connect 5 0 3 1;
#X connect 6 0 7 0;
#X connect 7 0 13 0;
#X connect 7 0 14 0;
#X connect 7 0 8 0;
#X connect 7 1 5 0;
#X connect 9 0 2 0;
#X connect 9 1 15 0;
#X connect 10 0 9 0;
#X connect 11 0 10 0;
#X connect 12 0 6 0;
#X connect 15 0 1 1;
#X restore 26 144 pd rnd-find-unlock;
#X obj 27 117 f;
#X floatatom 107 111 5 0 0 0 - - -;
#X msg 120 73 100;
#X msg 157 193 -1 \$1;
#X obj 104 170 hsl 128 15 0 1 0 0 empty empty empty -2 -8 0 10 -262144
-1 -1 0 1;
#X obj 58 200 random 100;
#X text 28 9 on period air proba;
#X obj 27 48 unwonk f f f f;
#X obj 58 220 < 50;
#X connect 0 0 13 0;
#X connect 1 0 2 0;
#X connect 1 1 18 0;
#X connect 2 0 3 0;
#X connect 4 0 0 0;
#X connect 5 0 0 1;
#X connect 6 0 3 0;
#X connect 7 0 8 0;
#X connect 8 0 6 0;
#X connect 9 0 20 0;
#X connect 10 0 3 0;
#X connect 11 0 10 0;
#X connect 12 0 1 0;
#X connect 13 0 12 0;
#X connect 14 0 13 1;
#X connect 15 0 0 1;
#X connect 16 0 3 0;
#X connect 17 0 16 0;
#X connect 18 0 21 0;
#X connect 20 0 4 0;
#X connect 20 1 0 1;
#X connect 20 2 13 1;
#X connect 20 3 21 1;
#X connect 21 0 2 1;
#X restore 30 20 pd randomlampe;
#N canvas 1 213 349 375 ramdomframe 0;
#X obj 34 274 pack f f;
#X obj 34 76 tgl 15 0 empty empty empty 17 7 0 10 -262144 -1 -1 0 1
;
#X obj 34 95 metro 763;
#X obj 34 325 s \$0-2StepMotor;
#X msg 198 54 4000;
#X msg 195 78 2000;
#X msg 274 38 500;
#N canvas 1 108 255 271 rnd-find-unlock 0;
#X obj 92 36 inlet;
#X obj 92 123 random 7;
#X msg 92 81 10;
#X obj 92 100 until;
#X obj 92 143 moses 6;
#X obj 153 144 b;
#N canvas 267 81 450 300 lock 0;
#X obj 134 61 inlet;
#X obj 134 84 t f f;
#X obj 166 104 tabread \$0-locktab;
#X obj 134 127 demux;
#X obj 134 164 outlet;
#X obj 187 165 outlet;
#X text 102 180 not locked;
#X text 185 180 locked;
#X connect 0 0 1 0;
#X connect 1 0 3 0;
#X connect 1 1 2 0;
#X connect 2 0 3 1;
#X connect 3 0 4 0;
#X connect 3 1 5 0;
#X restore 92 191 pd lock;
#X obj 92 211 t f b;
#X floatatom 172 216 5 0 0 0 - - -;
#X obj 92 57 t b f;
#X floatatom 145 33 5 0 0 0 - - -;
#X obj 154 7 bng 15 250 50 0 empty empty empty 17 7 0 10 -262144 -1
-1;
#X obj 92 164 + 1;
#X obj 69 236 bng 15 250 50 0 empty empty empty 17 7 0 10 -262144 -1
-1;
#X obj 92 235 outlet;
#X obj 145 101 + 6;
#X floatatom 30 116 5 0 0 0 - - -;
#X obj 43 80 bng 15 250 50 0 empty empty empty 17 7 0 10 -262144 -1
-1;
#X connect 0 0 9 0;
#X connect 1 0 4 0;
#X connect 1 0 16 0;
#X connect 2 0 3 0;
#X connect 3 0 1 0;
#X connect 4 0 12 0;
#X connect 4 1 5 0;
#X connect 5 0 3 1;
#X connect 6 0 7 0;
#X connect 7 0 13 0;
#X connect 7 0 14 0;
#X connect 7 1 5 0;
#X connect 9 0 2 0;
#X connect 9 1 15 0;
#X connect 10 0 9 0;
#X connect 11 0 10 0;
#X connect 12 0 6 0;
#X connect 15 0 1 1;
#X restore 34 170 pd rnd-find-unlock;
#X obj 34 146 f;
#X obj 34 32 r \$0-randomframe;
#X msg 238 84 100;
#X msg 63 144 -1;
#X obj 152 118 tgl 15 0 empty empty empty 17 7 0 10 -262144 -1 -1 0
1;
#X obj 110 250 random 5;
#X obj 110 272 + 0;
#X text 33 17 on period air range min all;
#X obj 34 53 unwonk f f f f f;
#X msg 34 304 \$1 inc \$2;
#X obj 34 118 demux 0 1 2 3 4;
#X msg 181 186 1 2;
#X obj 181 142 random 3;
#X obj 181 163 sel 0 1 2;
#X obj 34 208 t a b;
#X obj 34 241 drip;
#X msg 212 185 3 4;
#X msg 242 187 5 6;
#X obj 206 209 t a;
#X connect 0 0 17 0;
#X connect 1 0 2 0;
#X connect 2 0 18 0;
#X connect 4 0 2 1;
#X connect 5 0 2 1;
#X connect 6 0 2 1;
#X connect 7 0 22 0;
#X connect 8 0 7 0;
#X connect 9 0 16 0;
#X connect 10 0 2 1;
#X connect 11 0 22 0;
#X connect 12 0 18 1;
#X connect 13 0 14 0;
#X connect 14 0 0 1;
#X connect 16 0 1 0;
#X connect 16 1 2 1;
#X connect 16 2 8 1;
#X connect 16 2 20 1;
#X connect 16 3 13 1;
#X connect 16 4 14 1;
#X connect 16 5 12 0;
#X connect 17 0 3 0;
#X connect 18 0 8 0;
#X connect 18 1 11 0;
#X connect 18 2 20 0;
#X connect 19 0 26 0;
#X connect 20 0 21 0;
#X connect 21 0 19 0;
#X connect 21 1 24 0;
#X connect 21 2 25 0;
#X connect 22 0 23 0;
#X connect 22 1 13 0;
#X connect 23 0 0 0;
#X connect 24 0 26 0;
#X connect 25 0 26 0;
#X connect 26 0 22 0;
#X restore 31 43 pd ramdomframe;
#N canvas 512 81 411 451 randomspeed 0;
#X obj 32 240 t f b;
#X obj 32 282 pack f f;
#X obj 22 75 tgl 15 0 empty empty empty 17 7 0 10 -262144 -1 -1 0 1
;
#X obj 23 101 metro 763;
#X obj 40 339 s \$0-2StepMotor;
#X msg 146 94 4000;
#X msg 32 303 \$1 speed \$2;
#X obj 80 240 random 60;
#X obj 81 261 + 10;
#X msg 163 70 200;
#X obj 250 186 sel 0;
#X msg 236 294 -1 speed \$1;
#X obj 330 184 bng 15 250 50 0 empty empty empty 17 7 0 10 -262144
-1 -1;
#X obj 23 124 demux 0 1;
#X msg 83 181 -1;
#X obj 131 73 tgl 15 0 empty empty empty 17 7 0 10 -262144 -1 -1 0
1;
#X msg 186 94 500;
#X obj 265 218 random 60;
#X obj 265 246 + 20;
#X obj 155 241 unpack f f;
#X msg 164 214 40 3;
#X msg 202 217 60 10;
#X msg 211 79 100;
#X obj 22 29 r \$0-randomspeed;
#N canvas 82 275 255 271 rnd-find-unlock 0;
#X obj 92 23 inlet;
#X obj 92 122 random 7;
#X msg 92 81 10;
#X obj 92 100 until;
#X obj 92 143 moses 6;
#X obj 153 144 b;
#N canvas 267 25 450 300 lock 0;
#X obj 134 61 inlet;
#X obj 134 84 t f f;
#X obj 166 104 tabread \$0-locktab;
#X obj 134 127 demux;
#X obj 134 164 outlet;
#X obj 187 165 outlet;
#X text 102 180 not locked;
#X text 185 180 locked;
#X connect 0 0 1 0;
#X connect 1 0 3 0;
#X connect 1 1 2 0;
#X connect 2 0 3 1;
#X connect 3 0 4 0;
#X connect 3 1 5 0;
#X restore 92 191 pd lock;
#X obj 92 211 t f b;
#X floatatom 172 216 5 0 0 0 - - -;
#X obj 92 57 t b f;
#X floatatom 145 33 5 0 0 0 - - -;
#X obj 154 7 bng 15 250 50 0 empty empty empty 17 7 0 10 -262144 -1
-1;
#X obj 92 164 + 1;
#X obj 69 236 bng 15 250 50 0 empty empty empty 17 7 0 10 -262144 -1
-1;
#X obj 92 235 outlet;
#X obj 156 87 + 6;
#X floatatom 194 133 5 0 0 0 - - -;
#X floatatom 51 89 5 0 0 0 - - -;
#X connect 0 0 9 0;
#X connect 0 0 17 0;
#X connect 1 0 4 0;
#X connect 2 0 3 0;
#X connect 3 0 1 0;
#X connect 4 0 12 0;
#X connect 4 1 5 0;
#X connect 5 0 3 1;
#X connect 6 0 7 0;
#X connect 7 0 13 0;
#X connect 7 0 14 0;
#X connect 7 1 5 0;
#X connect 9 0 2 0;
#X connect 9 1 15 0;
#X connect 10 0 9 0;
#X connect 11 0 10 0;
#X connect 12 0 6 0;
#X connect 15 0 1 1;
#X connect 15 0 16 0;
#X restore 27 202 pd rnd-find-unlock;
#X obj 27 180 f;
#X obj 22 50 unwonk f f f f f;
#X floatatom 238 114 5 0 0 0 - - -;
#X msg 200 43;
#X msg 201 194 20 10;
#X msg 170 269 75 2;
#X text 18 10 on period air range min all;
#X floatatom 128 269 5 0 0 0 - - -;
#X floatatom 98 285 5 0 0 0 - - -;
#X obj 83 143 random 7;
#X obj 83 162 sel 0;
#X connect 0 0 1 0;
#X connect 0 1 7 0;
#X connect 1 0 6 0;
#X connect 2 0 3 0;
#X connect 3 0 13 0;
#X connect 5 0 3 1;
#X connect 6 0 4 0;
#X connect 7 0 8 0;
#X connect 8 0 1 1;
#X connect 8 0 33 0;
#X connect 9 0 3 1;
#X connect 10 0 17 0;
#X connect 11 0 4 0;
#X connect 12 0 17 0;
#X connect 13 0 25 0;
#X connect 13 1 34 0;
#X connect 14 0 0 0;
#X connect 15 0 13 1;
#X connect 16 0 3 1;
#X connect 17 0 18 0;
#X connect 18 0 11 0;
#X connect 19 0 7 1;
#X connect 19 1 8 1;
#X connect 20 0 19 0;
#X connect 21 0 19 0;
#X connect 22 0 3 1;
#X connect 23 0 26 0;
#X connect 24 0 0 0;
#X connect 25 0 24 0;
#X connect 26 0 2 0;
#X connect 26 1 3 1;
#X connect 26 2 25 1;
#X connect 26 2 27 0;
#X connect 26 2 34 1;
#X connect 26 3 7 1;
#X connect 26 4 8 1;
#X connect 26 4 32 0;
#X connect 26 5 15 0;
#X connect 29 0 19 0;
#X connect 30 0 19 0;
#X connect 34 0 35 0;
#X connect 35 0 14 0;
#X restore 33 65 pd randomspeed;
#X obj 397 238 s \$0-randomspeed;
#X obj 407 110 s \$0-randomframe;
#X msg 55 141 0;
#X text 44 183 on period air proba;
#X text 406 123 on period air range min all;
#X text 395 254 on period air range min all;
#X msg 96 93 1 200 0 20;
#X obj 68 169 s \$0-randomlampe;
#X msg 358 51 0;
#X msg 371 188 0;
#X msg 523 216 1 400 0 10 6 1 \, 0;
#X msg 398 216 1 400 0 30 10 0;
#X obj 526 375 hradio 15 1 0 8 empty empty empty 0 -8 0 10 -262144
-1 -1 4;
#X msg 414 167 1 50 4 50 10 1;
#X msg 445 188 1 50 10 80 10 0;
#X msg 83 300 0;
#X msg 114 300 20;
#X obj 73 344 s \$0-stopatframe;
#X floatatom 73 327 5 0 0 0 - - -;
#X msg 33 407 -1 maxframe \$1;
#X obj 34 429 s \$0-2StepMotor;
#X obj 33 385 r \$0-stopatframe;
#X msg 18 290 1e+06;
#X msg 401 79 1 500 10 1 1 0;
#X msg 146 304 10;
#X msg 409 33 1 3000 0 2 1 0;
#X obj 22 270 del 100;
#X obj 23 250 loadbang;
#X obj 31 505 s \$0-2StepMotor;
#X msg 30 460 0;
#X msg 30 483 -1 resetframe \$1;
#X msg 110 117 1 100 100 35;
#X msg 525 413 \$1 1;
#X msg 107 145 1 200 0 50;
#X obj 526 393 + 1;
#X msg 435 58 1 3000 0 2 1 1;
#X msg 204 297 50;
#X msg 513 274 1 80 0 20 6 0;
#X msg 525 25 1 100 2 4 1 0;
#X connect 2 0 1 0;
#X connect 4 0 2 0;
#X connect 12 0 17 0;
#X connect 16 0 17 0;
#X connect 18 0 11 0;
#X connect 19 0 10 0;
#X connect 20 0 10 0;
#X connect 21 0 10 0;
#X connect 22 0 44 0;
#X connect 23 0 10 0;
#X connect 24 0 10 0;
#X connect 25 0 28 0;
#X connect 26 0 28 0;
#X connect 28 0 27 0;
#X connect 29 0 30 0;
#X connect 31 0 29 0;
#X connect 32 0 28 0;
#X connect 33 0 11 0;
#X connect 34 0 28 0;
#X connect 35 0 11 0;
#X connect 36 0 32 0;
#X connect 37 0 36 0;
#X connect 39 0 40 0;
#X connect 40 0 38 0;
#X connect 41 0 17 0;
#X connect 42 0 1 0;
#X connect 43 0 17 0;
#X connect 44 0 42 0;
#X connect 45 0 11 0;
#X connect 46 0 28 0;
#X connect 47 0 10 0;
#X connect 48 0 11 0;
#X restore 195 312 pd Randomiseurs;
#X floatatom 161 293 5 0 0 0 - - -;
#X text 198 292 im/sec;
#X msg 651 521 44;
#X obj 39 564 declare -path abs;
#N canvas 668 491 594 485 DMX 0;
#X obj 156 63 r \$0-toDMX2;
#X obj 156 119 s toDMXfraise;
#X obj 156 91 route D;
#X obj 340 166 print;
#X obj 234 62 r toDMX;
#X connect 0 0 2 0;
#X connect 2 0 1 0;
#X connect 4 0 2 0;
#X restore 27 135 pd DMX;
#X obj 28 163 fraise;
#X obj 39 585 declare -path maxlib -path moonlib -path ggee -path iemlib
-lib iemlib -lib zexy -path motex, f 81;
#X obj 139 28 r DMXdriverOK;
#X obj 139 51 sel 1;
#X obj 561 319 hsl 128 15 0 1 0 0 Treuil1 Treuil1 Treuil1 -2 -8 0 10
-262130 -1 -1 0 1;
#X obj 562 352 hsl 128 15 0 1 0 0 Treuil2 Treuil2 Treuil2 -2 -8 0 10
-262130 -1 -1 0 1;
#X obj 702 319 tgl 15 0 treuilzero1 treuilzero1 treuilzero1 0 -7 0
10 -262130 -1 -1 1 1;
#X obj 702 353 tgl 15 0 treuilzero2 treuilzero2 treuilzero2 0 -7 0
10 -262130 -1 -1 1 1;
#X obj 615 159 tgl 15 0 empty empty empty 17 7 0 10 -262144 -1 -1 0
1;
#X obj 631 194 metro 1500;
#X obj 415 92 s \$0-2StepMotor;
#X obj 415 70 r 2StepMotor;
#X obj 513 69 r \$0-StepMotor;
#X obj 513 90 s StepMotor;
#X msg 306 289 0;
#X obj 271 265 inlet reset;
#X obj 795 25 teleco;
#X obj 568 546 s proj-loopnbframes;
#X msg 568 525 405;
#N canvas 352 81 952 675 State 0;
#X obj 54 23 r \$0-StepMotor;
#X obj 54 45 nroute commandframe 2;
#X msg 54 70 \$1 \$3;
#X obj 317 161 unpack f s f;
#X msg 135 83 \$3 \$1;
#X obj 330 140 route;
#X obj 187 164 r \$0-stopatframe;
#X obj 135 104 unpack f f;
#X obj 135 165 sel 0;
#X obj 135 186 f;
#X obj 180 231 s \$0-locktab;
#X msg 180 211 \$1 1;
#X obj 135 207 t f f;
#X obj 101 291 s \$0-lampe-rcv;
#X obj 240 201 print;
#X obj 135 131 mod 44;
#X obj 202 131 r \$0-loopnbframes;
#X obj 270 77 tabread \$0-commandframes 10;
#X floatatom 276 57 5 0 0 0 - - -;
#X floatatom 272 108 5 0 0 0 - - -;
#X obj 101 250 pack f f;
#X msg 101 270 \$1 \$2;
#X obj 170 257 r \$0-immolum;
#X obj 492 38 r \$0-StepMotor;
#X msg 492 79 \$1 \$3;
#X obj 638 164 route 1 2 3 4 5 6;
#X obj 629 317 ==;
#X obj 606 167 f;
#X obj 606 190 pack f f f f f f;
#X obj 606 142 t b a;
#X obj 606 213 t b a b;
#X obj 685 290 r \$0-stopatframe;
#X obj 668 256 r \$0-loopnbframes;
#X obj 629 337 sel 0;
#X msg 629 357 0;
#X msg 674 359 1;
#X obj 606 384 f;
#X obj 606 410 s \$0-TousArrives;
#X obj 680 394 tgl 15 0 empty empty empty 17 7 0 10 -262144 -1 -1 0
1;
#X obj 576 158 bng 15 250 50 0 empty empty empty 17 7 0 10 -262144
-1 -1;
#X obj 532 267 print;
#X floatatom 733 314 5 0 0 0 - - -;
#X obj 629 237 drip;
#X obj 629 276 mod 44;
#X floatatom 800 200 5 0 0 0 - - -;
#X floatatom 780 214 5 0 0 0 - - -;
#X floatatom 721 220 5 0 0 0 - - -;
#X floatatom 762 231 5 0 0 0 - - -;
#X floatatom 684 221 5 0 0 0 - - -;
#X floatatom 674 237 5 0 0 0 - - -;
#X obj 661 69 mod 44;
#X floatatom 664 88 5 0 0 0 - - -;
#X obj 725 30 unpack f f f f f f;
#X obj 703 70 mod 44;
#X floatatom 706 89 5 0 0 0 - - -;
#X obj 748 71 mod 44;
#X floatatom 751 90 5 0 0 0 - - -;
#X obj 795 71 mod 44;
#X floatatom 798 90 5 0 0 0 - - -;
#X obj 837 72 mod 44;
#X floatatom 840 91 5 0 0 0 - - -;
#X obj 882 73 mod 44;
#X floatatom 885 92 5 0 0 0 - - -;
#X obj 685 312 t b f;
#X obj 699 334 del 1;
#X obj 208 27 table projs-commandframe 10;
#X obj 54 338 s projs-commandframe;
#X obj 492 58 nroute simulpos 2;
#X obj 481 115 s projs-simulpos;
#X obj 489 15 table projs-simulpos 10;
#X connect 0 0 1 0;
#X connect 1 0 2 0;
#X connect 2 0 66 0;
#X connect 4 0 7 0;
#X connect 6 0 8 1;
#X connect 7 0 15 0;
#X connect 7 1 9 1;
#X connect 8 0 9 0;
#X connect 9 0 12 0;
#X connect 11 0 10 0;
#X connect 12 0 20 0;
#X connect 12 1 11 0;
#X connect 15 0 8 0;
#X connect 16 0 15 1;
#X connect 17 0 19 0;
#X connect 18 0 17 0;
#X connect 20 0 21 0;
#X connect 21 0 13 0;
#X connect 22 0 20 1;
#X connect 23 0 67 0;
#X connect 25 0 27 1;
#X connect 25 0 49 0;
#X connect 25 1 28 1;
#X connect 25 1 48 0;
#X connect 25 2 28 2;
#X connect 25 2 46 0;
#X connect 25 3 28 3;
#X connect 25 3 47 0;
#X connect 25 4 28 4;
#X connect 25 4 45 0;
#X connect 25 5 28 5;
#X connect 25 5 44 0;
#X connect 26 0 33 0;
#X connect 27 0 28 0;
#X connect 28 0 30 0;
#X connect 28 0 52 0;
#X connect 29 0 27 0;
#X connect 29 1 25 0;
#X connect 30 0 36 0;
#X connect 30 1 42 0;
#X connect 30 2 35 0;
#X connect 31 0 41 0;
#X connect 31 0 63 0;
#X connect 32 0 43 1;
#X connect 33 0 34 0;
#X connect 34 0 36 1;
#X connect 35 0 36 1;
#X connect 36 0 37 0;
#X connect 36 0 38 0;
#X connect 39 0 27 0;
#X connect 42 0 43 0;
#X connect 43 0 26 0;
#X connect 50 0 51 0;
#X connect 52 0 50 0;
#X connect 52 1 53 0;
#X connect 52 2 55 0;
#X connect 52 3 57 0;
#X connect 52 4 59 0;
#X connect 52 5 61 0;
#X connect 53 0 54 0;
#X connect 55 0 56 0;
#X connect 57 0 58 0;
#X connect 59 0 60 0;
#X connect 61 0 62 0;
#X connect 63 0 64 0;
#X connect 63 1 26 1;
#X connect 64 0 27 0;
#X connect 67 0 24 0;
#X restore 32 342 pd State;
#X connect 0 0 1 0;
#X connect 1 0 3 0;
#X connect 3 0 4 0;
#X connect 3 0 84 0;
#X connect 4 0 5 0;
#X connect 8 0 0 0;
#X connect 8 0 36 0;
#X connect 11 0 7 0;
#X connect 14 0 15 0;
#X connect 14 0 61 0;
#X connect 15 0 8 0;
#X connect 16 0 17 0;
#X connect 16 0 14 0;
#X connect 18 0 47 0;
#X connect 36 0 37 0;
#X connect 47 0 48 0;
#X connect 61 0 64 0;
#X connect 62 0 64 0;
#X connect 63 0 36 0;
#X connect 64 0 38 0;
#X connect 65 0 66 0;
#X connect 66 0 67 0;
#X connect 71 0 56 0;
#X connect 72 0 64 0;
#X connect 73 0 8 0;
#X connect 80 0 107 0;
#X connect 82 0 106 0;
#X connect 86 0 106 0;
#X connect 91 0 92 0;
#X connect 92 0 14 0;
#X connect 97 0 98 0;
#X connect 98 0 50 0;
#X connect 98 0 60 0;
#X connect 100 0 99 0;
#X connect 101 0 102 0;
#X connect 103 0 29 0;
#X connect 103 0 34 0;
#X connect 103 0 33 0;
#X connect 103 0 32 0;
#X connect 103 0 31 0;
#X connect 103 0 30 0;
#X connect 104 0 103 0;
#X connect 107 0 106 0;
#X restore 81 357 pd guts;
#X obj 226 78 bng 15 250 50 0 conduite-RESET empty RESET 17 7 0 10
-262144 -1 -1;
#X obj 27 4 loadbang;
#X obj 27 25 del 2000;
#X obj 27 57 seq/main conduite;
#X obj 26 131 seq/lampe conduite 1;
#X obj 26 164 seq/lampe conduite 2;
#X obj 26 196 seq/lampe conduite 3;
#X obj 26 229 seq/lampe conduite 4;
#X obj 208 131 seq/proj conduite 1;
#X obj 208 165 seq/proj conduite 2;
#X obj 208 198 seq/proj conduite 3;
#X obj 208 232 seq/proj conduite 4;
#X obj 208 264 seq/proj conduite 5;
#X obj 208 298 seq/proj conduite 6;
#X obj 294 16 seq/metro conduite 1;
#X obj 81 335 bng 15 250 50 0 empty empty resetPositions 17 7 0 10
-262144 -1 -1;
#X obj 26 264 seq/treuil conduite 1;
#X obj 294 50 seq/metro conduite 2;
#X obj 294 83 seq/metro conduite 3;
#X obj 26 297 seq/treuil conduite 2;
#N canvas 0 60 1029 411 tests 0;
#X obj 229 306 outlet load;
#X msg 227 237 symbol conduite-test;
#X obj 72 146 s seq-conduite-line;
#X msg 73 107 treuil1 autostop \, treuil1 speed 50;
#X msg 262 156 proj1 diapo speed random 0.2 60 90;
#X msg 241 177 proj4 diapo speed random 0.2 60 90;
#X msg 324 93 metro1 5;
#X msg 495 103 proj3 continu speed random 0.3 20 80 # mode "continu"
du \, proj3  vitesse 3 tout de suite \, proj3 mode 104 continu \,
proj3 lampe 100 1 \, proj3 lampe random 0.53 30 100 # lampe random:
speed(Hz) val_min val_max;
#X obj 586 331 s 2StepMotor;
#X msg 586 292 -1 resetframe \$1;
#X msg 587 246 75;
#X msg 627 245 104;
#X msg 664 243 135;
#X msg 254 267 symbol conduite-test2;
#X connect 1 0 0 0;
#X connect 3 0 2 0;
#X connect 4 0 2 0;
#X connect 5 0 2 0;
#X connect 6 0 2 0;
#X connect 7 0 2 0;
#X connect 9 0 8 0;
#X connect 10 0 9 0;
#X connect 11 0 9 0;
#X connect 12 0 9 0;
#X connect 13 0 0 0;
#X restore 180 24 pd tests;
#X connect 2 0 3 0;
#X connect 16 0 0 0;
#X connect 21 0 4 4;
