#N canvas 2487 121 1342 948 10;
#X declare -path mrpeach;
#X obj 121 35 loadbang;
#X obj 121 59 symbol \$1;
#X obj 412 39 declare -path mrpeach;
#X msg 121 83 read ../../0MIDI/mid/\$1.mid;
#X obj 383 637 bng 15 250 50 0 empty empty step 18 7 0 12 -4160 -257985
-1;
#X obj 37 179 openpanel;
#X obj 37 126 bng 45 250 50 0 empty empty choose 3 23 0 12 -62784 -260818
-258699;
#X obj 388 227 tgl 45 0 empty empty play -45 23 0 12 -24198 -1 -258699
0 1;
#X msg 416 588 rewind;
#X text 266 587 go to start of file;
#X floatatom 499 705 15 0 0 0 current_tick - -;
#X obj 260 411 hradio 15 1 0 16 empty empty track_number 0 -6 0 12
-62784 -241291 -1 1;
#X msg 260 432 dump \$1;
#X msg 379 551 68050;
#X msg 204 376 track \$1;
#X obj 204 336 hradio 15 1 0 16 empty empty track_number 0 -6 0 12
-62784 -241291 -1 0;
#X text 209 654 creation arguments: midi_file_name;
#X text 208 633 output only this track;
#X text 323 431 parse this track to main window;
#X msg 440 612 0;
#X text 267 551 goto tick 68050;
#X floatatom 544 761 15 0 0 0 last_tick - -;
#X msg 336 508 verbose \$1;
#X text 159 509 verbosity defaults to 1;
#X text 88 121 1: choose a MIDI file to play;
#X text 198 259 2: start playing it;
#X obj 460 534 spigot;
#X obj 499 500 tgl 25 0 empty empty loop -45 12 0 12 -4160 -257985
-258113 1 1;
#X msg 37 209 read \$1;
#X floatatom 336 484 5 0 0 0 - - -;
#X obj 336 465 hradio 15 1 0 4 empty empty verbosity 0 -6 0 12 -62784
-241291 -1 0;
#X obj 204 353 - 1;
#X msg 90 585 123;
#X msg 64 236 read I_Wanna_Be_Sedated.mid;
#X obj 90 557 bng 15 250 50 0 empty empty all_notes_off 17 7 0 10 -258113
-257985 -1;
#X obj 638 692 t b b;
#X floatatom 159 373 5 0 0 0 - - -;
#X obj 684 707 bng 15 250 50 0 empty empty end 17 7 0 10 -258113 -257985
-1;
#X text 592 651 bangs at end of file:;
#X floatatom 641 541 9 0 0 0 loop_start_tick - -;
#X text 239 353 -1 = play all tracks;
#X obj 544 739 f;
#X text 167 681 MIDI messages are output as lists;
#X obj 703 680 route bang format tracks ticks_per_quarternote;
#X obj 460 560 f 0;
#X floatatom 763 704 3 0 0 1 format - -;
#X floatatom 843 704 5 0 0 1 tracks - -;
#X floatatom 923 704 5 0 0 1 ticks_per_quarternote - -;
#X floatatom 764 777 5 0 0 3 tracks - -;
#X symbolatom 895 901 40 0 0 0 - - -;
#X obj 907 779 unpack 0 0;
#X floatatom 965 802 15 0 0 3 last_tick - -;
#X floatatom 907 805 5 0 0 3 track - -;
#X floatatom 831 807 5 0 0 3 track - -;
#X obj 831 781 unpack 0 s;
#X obj 982 838 unpack 0 0 0 0;
#X floatatom 983 861 3 0 0 1 / - -;
#X floatatom 1014 861 3 0 0 1 - - -;
#X floatatom 1040 865 5 0 0 3 clocks_per_click - -;
#X floatatom 1072 864 5 0 0 1 32nds_per_quarternote - -;
#X floatatom 1120 751 15 0 0 2 microsec_per_quarternote - -;
#X obj 901 727 /;
#X floatatom 939 725 15 0 0 1 microsec_per_tick - -;
#X obj 759 587 / 1000;
#X floatatom 759 618 15 0 0 0 millisec_per_tick - -;
#X obj 1183 798 print other_meta;
#X obj 764 754 route seq_num name end time_sig microsec_per_quarternote
;
#X obj 1097 778 route key_sig;
#X obj 1097 799 unpack 0 0 s;
#X symbolatom 1191 826 10 0 0 1 key - -;
#X floatatom 1097 828 5 0 0 3 +sharps/-flats - -;
#X obj 1140 827 tgl 15 0 empty empty minor 17 7 0 10 -262144 -1 -1
0 1;
#X obj 74 36 bng 15 250 50 0 empty empty empty 17 7 0 10 -262144 -1
-1;
#X obj 460 652 midifile;
#N canvas 180 180 546 336 note/ctl 0;
#X obj 35 16 inlet;
#X obj 35 39 list split 1, f 75;
#X obj 35 62 moses 128;
#X obj 36 87 moses 144;
#X obj 36 110 - 127;
#X obj 116 115 - 143;
#X obj 116 90 moses 176;
#X obj 199 90 moses 193;
#X obj 199 114 - 175;
#X obj 36 186 list append;
#X obj 199 183 list append;
#X obj 36 220 list prepend note;
#X obj 199 220 list prepend ctl;
#X obj 36 285 outlet all;
#X obj 36 252 list trim;
#X obj 116 188 list append;
#X msg 81 162 \$1 0;
#X connect 0 0 1 0;
#X connect 1 0 2 0;
#X connect 1 1 10 1;
#X connect 1 1 15 1;
#X connect 1 1 16 0;
#X connect 2 1 3 0;
#X connect 3 0 4 0;
#X connect 3 1 6 0;
#X connect 4 0 9 0;
#X connect 5 0 15 0;
#X connect 6 0 5 0;
#X connect 6 1 7 0;
#X connect 7 0 8 0;
#X connect 8 0 10 0;
#X connect 9 0 11 0;
#X connect 10 0 12 0;
#X connect 11 0 14 0;
#X connect 12 0 14 0;
#X connect 14 0 13 0;
#X connect 15 0 11 0;
#X connect 16 0 9 1;
#X restore 348 782 pd note/ctl;
#X obj 348 803 outlet;
#X obj 420 563 del 1;
#X obj 388 279 metro 1;
#X obj 141 443 loadbang;
#X msg 140 467 0;
#X msg 188 485 1;
#X obj 388 94 inlet;
#X obj 481 208 t b f;
#X obj 466 231 / 1;
#X obj 388 115 route play loop speed open, f 29;
#X connect 0 0 1 0;
#X connect 1 0 3 0;
#X connect 3 0 73 0;
#X connect 4 0 73 0;
#X connect 5 0 28 0;
#X connect 6 0 5 0;
#X connect 7 0 77 0;
#X connect 8 0 73 0;
#X connect 11 0 12 0;
#X connect 12 0 73 0;
#X connect 13 0 73 0;
#X connect 14 0 73 0;
#X connect 15 0 31 0;
#X connect 19 0 73 0;
#X connect 22 0 73 0;
#X connect 26 0 76 0;
#X connect 27 0 26 1;
#X connect 28 0 73 0;
#X connect 29 0 22 0;
#X connect 30 0 29 0;
#X connect 31 0 14 0;
#X connect 31 0 36 0;
#X connect 33 0 73 0;
#X connect 34 0 32 0;
#X connect 35 0 26 0;
#X connect 35 1 41 0;
#X connect 39 0 44 1;
#X connect 41 0 21 0;
#X connect 43 0 37 0;
#X connect 43 0 35 0;
#X connect 43 1 45 0;
#X connect 43 2 46 0;
#X connect 43 3 47 0;
#X connect 43 3 61 1;
#X connect 43 4 66 0;
#X connect 44 0 73 0;
#X connect 50 0 52 0;
#X connect 50 1 51 0;
#X connect 54 0 53 0;
#X connect 54 1 49 0;
#X connect 55 0 56 0;
#X connect 55 1 57 0;
#X connect 55 2 58 0;
#X connect 55 3 59 0;
#X connect 61 0 62 0;
#X connect 61 0 63 0;
#X connect 63 0 64 0;
#X connect 63 0 83 0;
#X connect 66 0 48 0;
#X connect 66 1 54 0;
#X connect 66 2 50 0;
#X connect 66 3 55 0;
#X connect 66 4 60 0;
#X connect 66 4 61 0;
#X connect 66 5 67 0;
#X connect 67 0 68 0;
#X connect 68 0 70 0;
#X connect 68 1 71 0;
#X connect 68 2 69 0;
#X connect 72 0 1 0;
#X connect 73 0 74 0;
#X connect 73 1 41 1;
#X connect 73 2 43 0;
#X connect 74 0 75 0;
#X connect 76 0 8 0;
#X connect 77 0 73 0;
#X connect 78 0 79 0;
#X connect 78 0 80 0;
#X connect 79 0 30 0;
#X connect 80 0 27 0;
#X connect 81 0 84 0;
#X connect 82 0 83 0;
#X connect 82 1 83 1;
#X connect 83 0 77 1;
#X connect 84 0 7 0;
#X connect 84 1 27 0;
#X connect 84 2 82 0;
#X connect 84 3 1 0;
#X connect 84 4 73 0;
