#N canvas 331 534 815 362 12;
#X obj 65 33 netreceive -u -b 8281;
#X obj 65 57 oscparse;
#X obj 65 258 netsend -u -b;
#X msg 80 235 connect localhost 8283;
#X obj 65 288 tgl 15 0 empty empty empty 17 7 0 10 -262144 -1 -1 1
1;
#X obj 562 52 oscformat fader_1;
#X obj 65 164 list prepend send;
#X obj 65 188 list trim;
#X obj 565 30 hsl 128 15 0 1 0 0 empty empty empty -2 -8 0 10 -262144
-1 -1 0 1;
#X obj 140 186 loadbang;
#X obj 65 81 list trim;
#X obj 666 170 hsl 128 15 0 100 0 0 empty empty empty -2 -8 0 10 -262144
-1 -1 0 1;
#X obj 673 238 s proj-control;
#X msg 673 213 1 lampe \$1;
#X obj 65 105 s \$0-fromOSC;
#X obj 65 137 r \$0-toOSC;
#N canvas 1 82 655 262 frame 0;
#X obj 46 65 route prevprev prev next nextnext;
#X msg 46 117 -20;
#X msg 103 117 -1;
#X msg 160 116 1;
#X msg 217 116 20;
#X obj 46 151 +, f 11;
#X obj 46 175 mod 405;
#X obj 46 199 s \$0-framenum;
#X obj 46 91 sel 1;
#X obj 103 91 sel 1;
#X obj 160 90 sel 1;
#X obj 217 89 sel 1;
#X obj 46 42 r \$0-fromOSC;
#X obj 323 131 oscformat image_1;
#X msg 323 105 symbol img/\$1.jpg;
#X obj 323 51 hradio 15 1 0 8 empty empty empty 0 -8 0 10 -262144 -1
-1 0;
#X obj 458 133 oscformat frame;
#X obj 503 39 r \$0-framenum;
#X obj 503 63 change;
#X obj 323 175 s \$0-toOSC;
#X connect 0 0 8 0;
#X connect 0 1 9 0;
#X connect 0 2 10 0;
#X connect 0 3 11 0;
#X connect 1 0 5 0;
#X connect 2 0 5 0;
#X connect 3 0 5 0;
#X connect 4 0 5 0;
#X connect 5 0 6 0;
#X connect 6 0 5 1;
#X connect 6 0 7 0;
#X connect 8 0 1 0;
#X connect 9 0 2 0;
#X connect 10 0 3 0;
#X connect 11 0 4 0;
#X connect 12 0 0 0;
#X connect 13 0 19 0;
#X connect 14 0 13 0;
#X connect 15 0 14 0;
#X connect 15 0 16 0;
#X connect 16 0 19 0;
#X connect 17 0 18 0;
#X connect 18 0 16 0;
#X connect 18 0 14 0;
#X restore 335 63 pd frame;
#N canvas 965 107 755 300 proj 0;
#X obj 24 17 r \$0-fromOSC;
#X obj 24 41 route projector;
#X obj 24 65 s \$0-projnum;
#X floatatom 75 108 5 0 0 0 - - -;
#X obj 205 18 r StepMotor;
#X obj 205 42 route 1;
#X obj 205 66 route simulpos;
#X msg 540 101 \$1 \$3;
#X obj 540 80 nroute simulpos 2;
#X obj 537 29 table \$0-projs-simulpos 10;
#X obj 540 124 s \$0-projs-simulpos;
#X obj 540 52 r StepMotor;
#X obj 316 16 r \$0-projnum;
#X obj 316 40 tabread \$0-projs-simulpos;
#X obj 205 189 s \$0-toOSC;
#X obj 205 165 oscformat pframe;
#X obj 205 90 / 400;
#X symbolatom 378 219 10 0 0 0 - - -;
#X floatatom 371 98 5 0 0 0 - - -;
#X msg 397 130 12.123;
#X obj 205 127 makefilename F:%06.02f;
#X obj 137 228 s \$0-simulframe;
#X connect 0 0 1 0;
#X connect 1 0 2 0;
#X connect 1 0 3 0;
#X connect 4 0 5 0;
#X connect 5 0 6 0;
#X connect 6 0 16 0;
#X connect 7 0 10 0;
#X connect 8 0 7 0;
#X connect 11 0 8 0;
#X connect 12 0 5 1;
#X connect 12 0 13 0;
#X connect 13 0 16 0;
#X connect 15 0 14 0;
#X connect 16 0 20 0;
#X connect 16 0 21 0;
#X connect 18 0 20 0;
#X connect 19 0 18 0;
#X connect 20 0 15 0;
#X restore 335 39 pd proj;
#N canvas 71 196 450 300 lampe 0;
#X obj 214 58 r \$0-projnum;
#X obj 82 32 r \$0-fromOSC;
#X obj 82 56 route proj_light;
#X obj 82 171 pack f 1;
#X obj 82 88 * 100;
#X obj 82 228 s proj-control;
#X msg 82 203 \$2 lampe \$1;
#X obj 214 108 tabread projs-lampestab;
#X obj 214 84 t f f;
#X obj 214 190 s \$0-toOSC;
#X obj 214 164 oscformat proj_light;
#X obj 214 139 / 100;
#X connect 0 0 8 0;
#X connect 1 0 2 0;
#X connect 2 0 4 0;
#X connect 3 0 6 0;
#X connect 4 0 3 0;
#X connect 6 0 5 0;
#X connect 7 0 11 0;
#X connect 8 0 7 0;
#X connect 8 1 3 1;
#X connect 10 0 9 0;
#X connect 11 0 10 0;
#X restore 335 88 pd lampe;
#N canvas 694 441 661 292 adjust_frame 0;
#X obj 46 42 r \$0-fromOSC;
#X obj 46 65 route fine skipframe setframe;
#X obj 264 196 r \$0-projnum;
#X obj 169 222 list prepend 1;
#X obj 41 205 tgl 15 0 empty empty empty 17 7 0 10 -262144 -1 -1 0
1;
#X msg 67 154 fine \$1;
#X obj 169 246 s proj-control;
#X obj 132 114 sel 1;
#X msg 142 154 skipframe;
#X obj 277 114 r \$0-framenum;
#X obj 242 142 f;
#X obj 208 112 sel 1;
#X msg 242 166 setframe \$1;
#X connect 0 0 1 0;
#X connect 1 0 5 0;
#X connect 1 0 4 0;
#X connect 1 1 7 0;
#X connect 1 2 11 0;
#X connect 2 0 3 1;
#X connect 3 0 6 0;
#X connect 5 0 3 0;
#X connect 7 0 8 0;
#X connect 8 0 3 0;
#X connect 9 0 10 1;
#X connect 10 0 12 0;
#X connect 11 0 10 0;
#X connect 12 0 3 0;
#X restore 336 114 pd adjust_frame;
#N canvas 292 661 363 384 return_zero 0;
#X obj 154 27 r proj-loopnbframes;
#X obj 154 51 * 400;
#X obj 97 257 f;
#X obj 24 17 r \$0-fromOSC;
#X obj 24 65 sel 1;
#X obj 24 41 route return_zero;
#X obj 97 309 list prepend 1;
#X obj 234 279 r \$0-projnum;
#X obj 97 336 s 2StepMotor;
#X obj 42 93 r \$0-simulframe;
#X obj 24 146 f;
#X obj 42 122 i;
#X floatatom 90 160 5 0 0 0 - - -;
#X msg 15 260 resetpos 0;
#X obj 24 170 sel 405;
#X obj 70 197 sel 0;
#X obj 97 231 b;
#X msg 97 283 speed 100 \, pos \$1;
#X connect 0 0 1 0;
#X connect 0 0 14 1;
#X connect 1 0 2 1;
#X connect 2 0 17 0;
#X connect 3 0 5 0;
#X connect 4 0 10 0;
#X connect 5 0 4 0;
#X connect 6 0 8 0;
#X connect 7 0 6 1;
#X connect 9 0 11 0;
#X connect 10 0 14 0;
#X connect 11 0 10 1;
#X connect 13 0 6 0;
#X connect 14 0 13 0;
#X connect 14 1 15 0;
#X connect 15 1 16 0;
#X connect 16 0 2 0;
#X connect 17 0 6 0;
#X restore 337 148 pd return_zero;
#N canvas 1 82 819 296 seq 0;
#X obj 82 18 r \$0-fromOSC;
#X obj 82 248 s conduite-STOP;
#X obj 144 129 t b b b;
#X obj 190 154 s conduite-RELOAD;
#X obj 167 179 s conduite-RESET;
#X obj 144 205 s conduite-GO;
#X obj 82 42 route seqstop seqgo seqskip;
#X obj 206 75 s conduite-SKIP;
#X obj 375 187 s \$0-toOSC;
#X obj 375 143 oscformat seqline;
#X obj 547 58 unpack f f, f 19;
#X obj 547 159 oscformat seqtime;
#X floatatom 443 119 5 0 0 0 - - -;
#X obj 547 32 r seq-conduite-time;
#X obj 375 72 r seq-conduite-getline;
#X obj 547 83 makefilename %02d;
#X obj 677 82 makefilename %02d;
#X obj 547 107 pack s s, f 19;
#X msg 547 131 symbol \$1mn_\$2s;
#X connect 0 0 6 0;
#X connect 2 0 5 0;
#X connect 2 1 4 0;
#X connect 2 2 3 0;
#X connect 6 0 1 0;
#X connect 6 1 2 0;
#X connect 6 2 7 0;
#X connect 9 0 8 0;
#X connect 10 0 15 0;
#X connect 10 1 16 0;
#X connect 11 0 8 0;
#X connect 13 0 10 0;
#X connect 14 0 9 0;
#X connect 14 0 12 0;
#X connect 15 0 17 0;
#X connect 16 0 17 1;
#X connect 17 0 18 0;
#X connect 18 0 11 0;
#X restore 337 182 pd seq;
#N canvas 610 131 450 300 lampes/treuils 0;
#X obj 82 32 r \$0-fromOSC;
#X obj 82 56 route lampes treuils, f 38;
#X obj 82 137 unpack f f;
#X obj 82 185 pack f f, f 10;
#X obj 149 162 * 100;
#X obj 82 212 s lampe-control;
#X obj 82 161 + 1;
#X obj 82 83 fudiformat -u;
#X obj 82 109 fudiparse;
#X obj 213 136 unpack f f;
#X obj 213 184 pack f f, f 10;
#X obj 213 160 + 1;
#X obj 213 82 fudiformat -u;
#X obj 213 108 fudiparse;
#X obj 213 211 s treuil-control;
#X obj 280 161 * 1;
#X connect 0 0 1 0;
#X connect 1 0 7 0;
#X connect 1 1 12 0;
#X connect 2 0 6 0;
#X connect 2 1 4 0;
#X connect 3 0 5 0;
#X connect 4 0 3 1;
#X connect 6 0 3 0;
#X connect 7 0 8 0;
#X connect 8 0 2 0;
#X connect 9 0 11 0;
#X connect 9 1 15 0;
#X connect 10 0 14 0;
#X connect 11 0 10 0;
#X connect 12 0 13 0;
#X connect 13 0 9 0;
#X connect 15 0 10 1;
#X restore 339 212 pd lampes/treuils;
#X obj 140 210 del 3000;
#N canvas 1318 197 445 551 midifile 0;
#X obj 78 445 s \$0-toOSC;
#X obj 45 19 r \$0-fromOSC;
#X obj 45 74 list split 1;
#X obj 45 98 f;
#X obj 70 148 r midifiles;
#X obj 45 173 list;
#X obj 45 197 list split;
#X obj 78 222 list split 1;
#X obj 45 123 t b f;
#X obj 78 259 list fromsymbol;
#X obj 78 359 list split;
#X obj 78 282 t a a;
#X obj 110 305 list length;
#X obj 110 329 - 4;
#X obj 78 389 list tosymbol;
#X obj 78 421 oscformat midisongname;
#X obj 257 146 s refresh-midifiles;
#X obj 45 46 route midisongs midiplay;
#X obj 301 325 s midifile-play;
#X obj 180 91 tgl 15 0 empty empty empty 17 7 0 10 -262144 -1 -1 0
1;
#X obj 100 125 s midifile-choice;
#X connect 1 0 17 0;
#X connect 2 0 3 0;
#X connect 3 0 8 0;
#X connect 3 0 20 0;
#X connect 4 0 5 1;
#X connect 5 0 6 0;
#X connect 6 1 7 0;
#X connect 7 0 9 0;
#X connect 8 0 5 0;
#X connect 8 1 6 1;
#X connect 9 0 11 0;
#X connect 10 0 14 0;
#X connect 11 0 10 0;
#X connect 11 1 12 0;
#X connect 12 0 13 0;
#X connect 13 0 10 1;
#X connect 14 0 15 0;
#X connect 15 0 0 0;
#X connect 17 0 2 0;
#X connect 17 1 19 0;
#X connect 19 0 18 0;
#X restore 338 263 pd midifile;
#N canvas 32 217 1083 526 transition 1;
#X obj 60 95 s conduite-LOAD;
#X msg 60 62 transitions/test1;
#X obj 76 19 text define -k trans1;
#A set projall continu speed 3 0 # mode "continu" du proj3 à vitesse
3 tout de suite \; projall continu speed 45 48 # mode "continu" du
proj3 à vitesse 3 \; projall mode 74 continu \; projall lampe 100
1 \; projall lampe random 0.5 30 100 # lampe random: speed(Hz) val_min
val_max \;;
#X msg 476 183 projall continu speed 3 0 # mode "continu" du proj3
à vitesse 3 tout de suite \, projall continu speed 45 48 # mode "continu"
du proj3 à vitesse 3 \, projall mode \$1 continu \, projall lampe
100 1 \, projall lampe random 0.5 30 100 # lampe random: speed(Hz)
val_min val_max \,, f 82;
#X obj 476 264 s seq-conduite-line;
#X obj 78 181 s conduite-STOP;
#X obj 83 144 bng 15 250 50 0 empty empty empty 17 7 0 10 -262144 -1
-1;
#X obj 620 303 r conduite-STOP;
#X obj 316 32 r \$0-fromOSC;
#X msg 476 156 405;
#X obj 197 118 sel 1;
#X obj 476 126 sel 1;
#X obj 493 477 s seq-conduite-line;
#X msg 595 394 projall lampe flash 30 10 100;
#X msg 500 431 projall mode 405 continu \, projall continu speed random
2 0 70 \, projall lampe flash 30 10 100;
#N canvas 1 81 1033 485 sirene 0;
#X obj 66 79 route trans_sirene;
#X obj 66 44 r \$0-fromOSC;
#X obj 66 103 sel 1;
#X msg 66 128 1;
#X msg 136 125 0;
#X obj 66 152 change;
#X msg 191 213 405;
#X obj 66 176 sel 1 0;
#X obj 37 228 metro 2000;
#X obj 37 294 random 6;
#X obj 37 318 + 1;
#X obj 37 261 t b b, f 12;
#X obj 118 290 random 70;
#X obj 37 348 pack f f;
#X msg 37 378 proj\$1 continu speed \$2 4;
#X obj 91 414 s seq-conduite-line;
#X msg 286 317 projall lampe 100 1 \, projall lampe random 10 0 100
# lampe random: speed(Hz) val_min val_max, f 100;
#X msg 191 240 projall continu speed 3 0 # mode "continu" du proj3
à vitesse 3 tout de suite \, projall mode \$1 continu \, projall lampe
100 1 \, projall lampe random 5 0 100 # lampe random: speed(Hz) val_min
val_max, f 82;
#X connect 0 0 2 0;
#X connect 0 1 4 0;
#X connect 1 0 0 0;
#X connect 2 0 3 0;
#X connect 3 0 5 0;
#X connect 4 0 5 0;
#X connect 5 0 7 0;
#X connect 5 0 8 0;
#X connect 6 0 17 0;
#X connect 7 0 6 0;
#X connect 8 0 11 0;
#X connect 9 0 10 0;
#X connect 10 0 13 0;
#X connect 11 0 9 0;
#X connect 11 1 12 0;
#X connect 12 0 13 1;
#X connect 13 0 14 0;
#X connect 14 0 15 0;
#X connect 16 0 15 0;
#X connect 17 0 15 0;
#X restore 118 260 pd sirene;
#N canvas 1 81 1595 735 image 0;
#X obj 63 25 r \$0-fromOSC;
#X obj 63 84 sel 1;
#X msg 39 260 1;
#X msg 233 92 0;
#X obj 39 284 change;
#X obj 38 374 random 6;
#X obj 38 398 + 1;
#X obj 38 341 t b b, f 12;
#X obj 38 428 pack f f;
#X obj 92 494 s seq-conduite-line;
#X msg 360 487 projall lampe 100 1 \, projall lampe random 10 0 100
# lampe random: speed(Hz) val_min val_max, f 100;
#X msg 479 292 1 30 0 \, 2 42 0 \, 3 10 30 \, 4 15 30 \, 5 50 60 \,
6 60 60;
#X msg 38 458 proj\$1 diapo \$2 10 10 40 10;
#X msg 869 283 1 30 1;
#X obj 119 370 random 50;
#X obj 119 394 + 20;
#X obj 284 645 mtof;
#X obj 283 668 * 0.7;
#X floatatom 283 692 5 0 0 0 - - -;
#X obj 283 621 + 24;
#X obj 349 559 t f f, f 28;
#X obj 349 583 mod 5;
#X obj 349 607 sel 0 1 2 3 4, f 18;
#X msg 348 633 0;
#X msg 379 632 2;
#X msg 440 632 5;
#X obj 541 589 div 5;
#X obj 541 613 * 12;
#X obj 398 669 +, f 19;
#X floatatom 398 693 5 0 0 0 - - -;
#X obj 190 397 random 10;
#X obj 38 308 metro 1000;
#X msg 481 336 proj\$1 diapo \$2 10 10 40 10 # diapo: vitesse défilement
film / temps avant allumage / temps d'allumage / temps avant extinction
/ temps d'extinction (les temps sont en % du temps du métro) \, proj\$1
diapo steps 3 \, proj\$1 mode 405 diapo 1 \$3 # mode diapo metro1 phase
0 (->frame change au top du métro), f 151;
#X obj 63 60 route trans_image trans_image2;
#X obj 166 88 sel 1;
#X msg 558 211 1 30 0 \, 2 42 0 \, 3 10 30 \, 4 15 30 \, 5 50 60 \,
6 60 60;
#X msg 558 234 proj\$1 diapo \$2 10 10 40 10 # diapo: vitesse défilement
film / temps avant allumage / temps d'allumage / temps avant extinction
/ temps d'extinction (les temps sont en % du temps du métro) \, proj\$1
diapo steps 1 \, proj\$1 mode 405 diapo 1 \$3 # mode diapo metro1 phase
0 (->frame change au top du métro), f 151;
#X msg 407 633 4;
#X msg 471 632 7;
#X msg 467 408 reset;
#X obj 64 112 t b b;
#X obj 166 112 t b b;
#X obj 718 594 s proj-control;
#X msg 718 548 1 \, 2 \, 3 \, 4 \, 5 \, 6;
#X msg 718 570 \$1 resetinc \, \$1 gotonext;
#X msg 177 237 metro1 7 \, projall lampe 100 1;
#X msg 141 289 metro1 5 \, projall lampe 100 1;
#X connect 0 0 33 0;
#X connect 1 0 40 0;
#X connect 2 0 4 0;
#X connect 3 0 4 0;
#X connect 4 0 31 0;
#X connect 5 0 6 0;
#X connect 6 0 8 0;
#X connect 7 0 5 0;
#X connect 7 1 14 0;
#X connect 7 1 30 0;
#X connect 8 0 12 0;
#X connect 10 0 9 0;
#X connect 11 0 32 0;
#X connect 12 0 9 0;
#X connect 13 0 32 0;
#X connect 14 0 15 0;
#X connect 16 0 17 0;
#X connect 17 0 18 0;
#X connect 17 0 8 1;
#X connect 19 0 16 0;
#X connect 20 0 21 0;
#X connect 20 1 26 0;
#X connect 21 0 22 0;
#X connect 22 0 23 0;
#X connect 22 1 24 0;
#X connect 22 2 37 0;
#X connect 22 3 25 0;
#X connect 22 4 38 0;
#X connect 23 0 28 0;
#X connect 24 0 28 0;
#X connect 25 0 28 0;
#X connect 26 0 27 0;
#X connect 27 0 28 1;
#X connect 28 0 29 0;
#X connect 29 0 19 0;
#X connect 30 0 20 0;
#X connect 31 0 7 0;
#X connect 32 0 9 0;
#X connect 33 0 1 0;
#X connect 33 1 34 0;
#X connect 33 2 3 0;
#X connect 34 0 41 0;
#X connect 35 0 36 0;
#X connect 36 0 9 0;
#X connect 37 0 28 0;
#X connect 38 0 28 0;
#X connect 39 0 9 0;
#X connect 40 0 2 0;
#X connect 40 0 11 0;
#X connect 40 1 46 0;
#X connect 40 1 43 0;
#X connect 41 0 2 0;
#X connect 41 0 35 0;
#X connect 41 1 45 0;
#X connect 41 1 43 0;
#X connect 43 0 44 0;
#X connect 44 0 42 0;
#X connect 45 0 9 0;
#X connect 46 0 9 0;
#X restore 115 293 pd image;
#X msg 620 329 reset \, projall continu speed 0 0 \, projall mode 405
continu \, projall lampe 0;
#N canvas 569 167 856 724 constant 1;
#X obj 220 485 mtof;
#X obj 219 508 * 0.7;
#X obj 219 461 + 24;
#X obj 170 301 t f f, f 28;
#X obj 170 325 mod 5;
#X obj 170 349 sel 0 1 2 3 4, f 18;
#X msg 169 375 0;
#X obj 362 331 div 5;
#X obj 362 355 * 12;
#X obj 219 411 +, f 19;
#X floatatom 219 435 5 0 0 0 - - -;
#X msg 137 223 1 \, 2 \, 3 \, 4 \, 5 \, 6;
#X obj 137 630 s seq-conduite-line;
#X obj 137 247 t f b;
#X obj 137 537 pack f f, f 12;
#X msg 137 566 proj\$1 continu speed \$2 0 # mode "continu" du proj3
à vitesse 3 \, proj\$1 mode 405 continu \, proj\$1 lampe 100 1 \,
proj\$1 lampe random 0.25 30 100 # lampe random: speed(Hz) val_min
val_max \,, f 81;
#X obj 170 274 random 10;
#X msg 200 374 4;
#X msg 228 375 5;
#X msg 261 374 7;
#X msg 293 374 9;
#X obj 33 25 r \$0-fromOSC;
#X obj 33 84 sel 1;
#X msg 35 138 1;
#X obj 35 162 change;
#X obj 34 112 t b b;
#X obj 33 60 route trans_constant;
#X msg 65 138 0;
#X obj 34 186 metro 4000;
#X connect 0 0 1 0;
#X connect 1 0 14 1;
#X connect 2 0 0 0;
#X connect 3 0 4 0;
#X connect 3 1 7 0;
#X connect 4 0 5 0;
#X connect 5 0 6 0;
#X connect 5 1 17 0;
#X connect 5 2 18 0;
#X connect 5 3 19 0;
#X connect 5 4 20 0;
#X connect 6 0 9 0;
#X connect 7 0 8 0;
#X connect 8 0 9 1;
#X connect 9 0 10 0;
#X connect 10 0 2 0;
#X connect 11 0 13 0;
#X connect 13 0 14 0;
#X connect 13 1 16 0;
#X connect 14 0 15 0;
#X connect 15 0 12 0;
#X connect 16 0 3 0;
#X connect 17 0 9 0;
#X connect 18 0 9 0;
#X connect 19 0 9 0;
#X connect 20 0 9 0;
#X connect 21 0 26 0;
#X connect 22 0 25 0;
#X connect 23 0 24 0;
#X connect 24 0 28 0;
#X connect 25 0 23 0;
#X connect 25 1 11 0;
#X connect 26 0 22 0;
#X connect 26 1 27 0;
#X connect 27 0 24 0;
#X connect 28 0 11 0;
#X restore 802 110 pd constant;
#X obj 316 56 route trans_stop trans_sirene trans_montée trans_random
trans_image trans_constant, f 85;
#X obj 805 84 sel 1;
#X connect 1 0 0 0;
#X connect 3 0 4 0;
#X connect 6 0 5 0;
#X connect 7 0 17 0;
#X connect 8 0 19 0;
#X connect 9 0 3 0;
#X connect 10 0 5 0;
#X connect 11 0 9 0;
#X connect 13 0 12 0;
#X connect 14 0 12 0;
#X connect 17 0 4 0;
#X connect 19 0 10 0;
#X connect 19 2 11 0;
#X connect 19 3 14 0;
#X connect 19 5 20 0;
#X restore 338 287 pd transition;
#X connect 0 0 1 0;
#X connect 1 0 10 0;
#X connect 2 0 4 0;
#X connect 3 0 2 0;
#X connect 6 0 7 0;
#X connect 7 0 2 0;
#X connect 8 0 5 0;
#X connect 9 0 23 0;
#X connect 10 0 14 0;
#X connect 11 0 13 0;
#X connect 13 0 12 0;
#X connect 15 0 6 0;
#X connect 23 0 3 0;
