#N canvas 236 352 815 362 12;
#X obj 65 33 netreceive -u -b 8281;
#X obj 65 57 oscparse;
#X obj 65 258 netsend -u -b;
#X msg 80 235 connect localhost 8283;
#X obj 65 288 tgl 15 0 empty empty empty 17 7 0 10 #fcfcfc #000000
#000000 0 1;
#X obj 562 52 oscformat fader_1;
#X obj 65 164 list prepend send;
#X obj 65 188 list trim;
#X obj 565 30 hsl 128 15 0 1 0 0 empty empty empty -2 -8 0 10 #fcfcfc
#000000 #000000 0 1;
#X obj 140 186 loadbang;
#X obj 65 81 list trim;
#X obj 666 170 hsl 128 15 0 100 0 0 empty empty empty -2 -8 0 10 #fcfcfc
#000000 #000000 0 1;
#X obj 673 238 s proj-control;
#X msg 673 213 1 lampe \$1;
#X obj 65 105 s \$0-fromOSC;
#X obj 65 137 r \$0-toOSC;
#N canvas 1 82 655 262 frame 0;
#X obj 46 65 route prevprev prev next nextnext;
#X msg 46 117 -20;
#X msg 103 117 -1;
#X msg 160 116 1;
#X msg 217 116 20;
#X obj 46 151 +, f 11;
#X obj 46 175 mod 405;
#X obj 46 199 s \$0-framenum;
#X obj 46 91 sel 1;
#X obj 103 91 sel 1;
#X obj 160 90 sel 1;
#X obj 217 89 sel 1;
#X obj 46 42 r \$0-fromOSC;
#X obj 323 131 oscformat image_1;
#X msg 323 105 symbol img/\$1.jpg;
#X obj 323 51 hradio 15 1 0 8 empty empty empty 0 -8 0 10 #fcfcfc #000000
#000000 0;
#X obj 458 133 oscformat frame;
#X obj 503 39 r \$0-framenum;
#X obj 503 63 change;
#X obj 323 175 s \$0-toOSC;
#X connect 0 0 8 0;
#X connect 0 1 9 0;
#X connect 0 2 10 0;
#X connect 0 3 11 0;
#X connect 1 0 5 0;
#X connect 2 0 5 0;
#X connect 3 0 5 0;
#X connect 4 0 5 0;
#X connect 5 0 6 0;
#X connect 6 0 5 1;
#X connect 6 0 7 0;
#X connect 8 0 1 0;
#X connect 9 0 2 0;
#X connect 10 0 3 0;
#X connect 11 0 4 0;
#X connect 12 0 0 0;
#X connect 13 0 19 0;
#X connect 14 0 13 0;
#X connect 15 0 14 0;
#X connect 15 0 16 0;
#X connect 16 0 19 0;
#X connect 17 0 18 0;
#X connect 18 0 16 0;
#X connect 18 0 14 0;
#X restore 335 63 pd frame;
#N canvas 965 107 755 300 proj 0;
#X obj 24 17 r \$0-fromOSC;
#X obj 24 41 route projector;
#X obj 24 65 s \$0-projnum;
#X floatatom 75 108 5 0 0 0 - - - 0;
#X obj 205 18 r StepMotor;
#X obj 205 42 route 1;
#X obj 205 66 route simulpos;
#X msg 540 101 \$1 \$3;
#X obj 540 80 nroute simulpos 2;
#X obj 537 29 table \$0-projs-simulpos 10;
#X obj 540 124 s \$0-projs-simulpos;
#X obj 540 52 r StepMotor;
#X obj 316 16 r \$0-projnum;
#X obj 316 40 tabread \$0-projs-simulpos;
#X obj 205 189 s \$0-toOSC;
#X obj 205 165 oscformat pframe;
#X obj 205 90 / 400;
#X symbolatom 378 219 10 0 0 0 - - - 0;
#X floatatom 371 98 5 0 0 0 - - - 0;
#X msg 397 130 12.123;
#X obj 205 127 makefilename F:%06.02f;
#X obj 137 228 s \$0-simulframe;
#X connect 0 0 1 0;
#X connect 1 0 2 0;
#X connect 1 0 3 0;
#X connect 4 0 5 0;
#X connect 5 0 6 0;
#X connect 6 0 16 0;
#X connect 7 0 10 0;
#X connect 8 0 7 0;
#X connect 11 0 8 0;
#X connect 12 0 5 1;
#X connect 12 0 13 0;
#X connect 13 0 16 0;
#X connect 15 0 14 0;
#X connect 16 0 20 0;
#X connect 16 0 21 0;
#X connect 18 0 20 0;
#X connect 19 0 18 0;
#X connect 20 0 15 0;
#X restore 335 39 pd proj;
#N canvas 71 196 450 300 lampe 0;
#X obj 214 58 r \$0-projnum;
#X obj 82 32 r \$0-fromOSC;
#X obj 82 56 route proj_light;
#X obj 82 171 pack f 1;
#X obj 82 88 * 100;
#X obj 82 228 s proj-control;
#X msg 82 203 \$2 lampe \$1;
#X obj 214 108 tabread projs-lampestab;
#X obj 214 84 t f f;
#X obj 214 190 s \$0-toOSC;
#X obj 214 164 oscformat proj_light;
#X obj 214 139 / 100;
#X connect 0 0 8 0;
#X connect 1 0 2 0;
#X connect 2 0 4 0;
#X connect 3 0 6 0;
#X connect 4 0 3 0;
#X connect 6 0 5 0;
#X connect 7 0 11 0;
#X connect 8 0 7 0;
#X connect 8 1 3 1;
#X connect 10 0 9 0;
#X connect 11 0 10 0;
#X restore 335 88 pd lampe;
#N canvas 694 441 661 292 adjust_frame 0;
#X obj 46 42 r \$0-fromOSC;
#X obj 46 65 route fine skipframe setframe;
#X obj 264 196 r \$0-projnum;
#X obj 169 222 list prepend 1;
#X obj 41 205 tgl 15 0 empty empty empty 17 7 0 10 #fcfcfc #000000
#000000 0 1;
#X msg 67 154 fine \$1;
#X obj 169 246 s proj-control;
#X obj 132 114 sel 1;
#X msg 142 154 skipframe;
#X obj 277 114 r \$0-framenum;
#X obj 242 142 f;
#X obj 208 112 sel 1;
#X msg 242 166 setframe \$1;
#X connect 0 0 1 0;
#X connect 1 0 5 0;
#X connect 1 0 4 0;
#X connect 1 1 7 0;
#X connect 1 2 11 0;
#X connect 2 0 3 1;
#X connect 3 0 6 0;
#X connect 5 0 3 0;
#X connect 7 0 8 0;
#X connect 8 0 3 0;
#X connect 9 0 10 1;
#X connect 10 0 12 0;
#X connect 11 0 10 0;
#X connect 12 0 3 0;
#X restore 336 114 pd adjust_frame;
#N canvas 302 671 363 384 return_zero 0;
#X obj 154 27 r proj-loopnbframes;
#X obj 154 51 * 400;
#X obj 97 257 f;
#X obj 24 17 r \$0-fromOSC;
#X obj 24 65 sel 1;
#X obj 24 41 route return_zero;
#X obj 97 309 list prepend 1;
#X obj 234 279 r \$0-projnum;
#X obj 97 336 s 2StepMotor;
#X obj 42 93 r \$0-simulframe;
#X obj 24 146 f;
#X obj 42 122 i;
#X floatatom 90 160 5 0 0 0 - - - 0;
#X msg 15 260 resetpos 0;
#X obj 24 170 sel 405;
#X obj 70 197 sel 0;
#X obj 97 231 b;
#X msg 97 283 speed 100 \, pos \$1;
#X connect 0 0 1 0;
#X connect 0 0 14 1;
#X connect 1 0 2 1;
#X connect 2 0 17 0;
#X connect 3 0 5 0;
#X connect 4 0 10 0;
#X connect 5 0 4 0;
#X connect 6 0 8 0;
#X connect 7 0 6 1;
#X connect 9 0 11 0;
#X connect 10 0 14 0;
#X connect 11 0 10 1;
#X connect 13 0 6 0;
#X connect 14 0 13 0;
#X connect 14 1 15 0;
#X connect 15 1 16 0;
#X connect 16 0 2 0;
#X connect 17 0 6 0;
#X restore 337 148 pd return_zero;
#N canvas 1 82 819 296 seq 0;
#X obj 82 18 r \$0-fromOSC;
#X obj 82 248 s conduite-STOP;
#X obj 144 129 t b b b;
#X obj 190 154 s conduite-RELOAD;
#X obj 167 179 s conduite-RESET;
#X obj 144 205 s conduite-GO;
#X obj 82 42 route seqstop seqgo seqskip;
#X obj 206 75 s conduite-SKIP;
#X obj 375 187 s \$0-toOSC;
#X obj 375 143 oscformat seqline;
#X obj 547 58 unpack f f, f 19;
#X obj 547 159 oscformat seqtime;
#X floatatom 443 119 5 0 0 0 - - - 0;
#X obj 547 32 r seq-conduite-time;
#X obj 375 72 r seq-conduite-getline;
#X obj 547 83 makefilename %02d;
#X obj 677 82 makefilename %02d;
#X obj 547 107 pack s s, f 19;
#X msg 547 131 symbol \$1mn_\$2s;
#X connect 0 0 6 0;
#X connect 2 0 5 0;
#X connect 2 1 4 0;
#X connect 2 2 3 0;
#X connect 6 0 1 0;
#X connect 6 1 2 0;
#X connect 6 2 7 0;
#X connect 9 0 8 0;
#X connect 10 0 15 0;
#X connect 10 1 16 0;
#X connect 11 0 8 0;
#X connect 13 0 10 0;
#X connect 14 0 9 0;
#X connect 14 0 12 0;
#X connect 15 0 17 0;
#X connect 16 0 17 1;
#X connect 17 0 18 0;
#X connect 18 0 11 0;
#X restore 337 182 pd seq;
#N canvas 610 131 450 300 lampes/treuils 0;
#X obj 82 32 r \$0-fromOSC;
#X obj 82 56 route lampes treuils, f 38;
#X obj 82 137 unpack f f;
#X obj 82 185 pack f f, f 10;
#X obj 149 162 * 100;
#X obj 82 212 s lampe-control;
#X obj 82 161 + 1;
#X obj 82 83 fudiformat -u;
#X obj 82 109 fudiparse;
#X obj 213 136 unpack f f;
#X obj 213 184 pack f f, f 10;
#X obj 213 160 + 1;
#X obj 213 82 fudiformat -u;
#X obj 213 108 fudiparse;
#X obj 213 211 s treuil-control;
#X obj 280 161 * 1;
#X connect 0 0 1 0;
#X connect 1 0 7 0;
#X connect 1 1 12 0;
#X connect 2 0 6 0;
#X connect 2 1 4 0;
#X connect 3 0 5 0;
#X connect 4 0 3 1;
#X connect 6 0 3 0;
#X connect 7 0 8 0;
#X connect 8 0 2 0;
#X connect 9 0 11 0;
#X connect 9 1 15 0;
#X connect 10 0 14 0;
#X connect 11 0 10 0;
#X connect 12 0 13 0;
#X connect 13 0 9 0;
#X connect 15 0 10 1;
#X restore 339 212 pd lampes/treuils;
#X obj 140 210 del 3000;
#N canvas 1328 207 445 551 midifile 1;
#X obj 78 445 s \$0-toOSC;
#X obj 45 19 r \$0-fromOSC;
#X obj 45 74 list split 1;
#X obj 45 98 f;
#X obj 70 148 r midifiles;
#X obj 45 173 list;
#X obj 45 197 list split;
#X obj 78 222 list split 1;
#X obj 45 123 t b f;
#X obj 78 259 list fromsymbol;
#X obj 78 359 list split;
#X obj 78 282 t a a;
#X obj 110 305 list length;
#X obj 110 329 - 4;
#X obj 78 389 list tosymbol;
#X obj 78 421 oscformat midisongname;
#X obj 257 146 s refresh-midifiles;
#X obj 45 46 route midisongs midiplay;
#X obj 301 325 s midifile-play;
#X obj 180 91 tgl 15 0 empty empty empty 17 7 0 10 #fcfcfc #000000
#000000 0 1;
#X obj 100 125 s midifile-choice;
#X connect 1 0 17 0;
#X connect 2 0 3 0;
#X connect 3 0 8 0;
#X connect 3 0 20 0;
#X connect 4 0 5 1;
#X connect 5 0 6 0;
#X connect 6 1 7 0;
#X connect 7 0 9 0;
#X connect 8 0 5 0;
#X connect 8 1 6 1;
#X connect 9 0 11 0;
#X connect 10 0 14 0;
#X connect 11 0 10 0;
#X connect 11 1 12 0;
#X connect 12 0 13 0;
#X connect 13 0 10 1;
#X connect 14 0 15 0;
#X connect 15 0 0 0;
#X connect 17 0 2 0;
#X connect 17 1 19 0;
#X connect 19 0 18 0;
#X restore 338 263 pd midifile;
#X connect 0 0 1 0;
#X connect 1 0 10 0;
#X connect 2 0 4 0;
#X connect 3 0 2 0;
#X connect 6 0 7 0;
#X connect 7 0 2 0;
#X connect 8 0 5 0;
#X connect 9 0 23 0;
#X connect 10 0 14 0;
#X connect 11 0 13 0;
#X connect 13 0 12 0;
#X connect 15 0 6 0;
#X connect 23 0 3 0;
