#N canvas 1036 244 833 801 12;
#X declare -path hcs -path ggee -path moonlib;
#X obj 71 11 notein, f 10;
#X obj 71 36 pack f f f;
#X obj 21 76 bng 15 250 50 0 empty empty empty 17 7 0 10 -262144 -1
-1;
#X msg 71 65 \$2 \$3 \$1;
#X obj 71 90 route 0;
#X obj 132 122 list split 1;
#X obj 171 174 route 1 2 3 4 5 6;
#X obj 174 211 hradio 15 1 0 8 empty empty empty 0 -8 0 10 -262144
-1 -1 0;
#X obj 176 232 * 12;
#X msg 151 284 1 \$1;
#X obj 228 237 hradio 15 1 0 8 empty empty empty 0 -8 0 10 -262144
-1 -1 0;
#X obj 230 258 * 12;
#X obj 282 269 hradio 15 1 0 8 empty empty empty 0 -8 0 10 -262144
-1 -1 0;
#X obj 284 290 * 12;
#X obj 336 295 hradio 15 1 0 8 empty empty empty 0 -8 0 10 -262144
-1 -1 0;
#X obj 338 316 * 12;
#X obj 388 334 hradio 15 1 0 8 empty empty empty 0 -8 0 10 -262144
-1 -1 0;
#X obj 390 355 * 12;
#X obj 442 360 hradio 15 1 0 8 empty empty empty 0 -8 0 10 -262144
-1 -1 0;
#X obj 444 381 * 12;
#X msg 205 310 2 \$1;
#X msg 259 342 3 \$1;
#X msg 313 368 4 \$1;
#X msg 365 407 5 \$1;
#X msg 419 433 6 \$1;
#X obj 151 344 t a;
#X obj 151 369 unpack f f;
#X obj 220 416 mtof;
#X obj 219 439 * 0.7;
#X obj 152 468 pack f f;
#X obj 219 392 - 48;
#X obj 151 259 + 12;
#X obj 205 285 + 12;
#X obj 259 317 + 12;
#X obj 313 343 + 12;
#X obj 365 382 + 12;
#X obj 419 408 + 12;
#X msg 19 195 M \$1 speed 0 \, L \$1 0;
#X msg 151 492 M \$1 speed \$2 \, M \$1 pos 1e+06 \, L \$1 1;
#X floatatom 304 432 5 0 0 0 - - -;
#X obj 323 96 midiplay;
#N canvas 1 81 460 603 list-midifiles 0;
#X obj 138 181 folder_list;
#X obj 212 131 getdir;
#X obj 280 106 bng 15 250 50 0 empty empty empty 17 7 0 10 -262144
-1 -1;
#X msg 212 155 symbol \$1/midifiles/*.mid;
#X obj 180 63 loadbang;
#X obj 97 19 declare -path hcs -path ggee -path moonlib;
#X obj 138 205 basedir;
#X obj 138 229 list split 1;
#X obj 238 255 t a;
#X obj 115 151 t b b b;
#X msg 238 231 list;
#X obj 115 288 list, f 16;
#X obj 115 108 bng 15 250 50 0 empty empty empty 17 7 0 10 -262144
-1 -1;
#X obj 138 255 list prepend;
#X obj 115 322 s midifiles;
#X obj 180 99 t b b;
#X obj 179 449 r midifiles;
#X obj 154 474 list;
#X obj 154 498 list split;
#X obj 187 523 list split 1;
#X obj 154 424 t b f;
#X obj 154 396 hradio 15 1 0 8 empty empty empty 0 -8 0 10 -262144
-1 -1 0;
#X symbolatom 185 566 0 0 0 0 - - -;
#X obj 38 62 r refresh-midifiles;
#X connect 0 0 6 0;
#X connect 1 0 3 0;
#X connect 2 0 1 0;
#X connect 3 0 0 1;
#X connect 4 0 15 0;
#X connect 6 0 7 0;
#X connect 7 0 13 0;
#X connect 8 0 11 1;
#X connect 8 0 13 1;
#X connect 9 0 11 0;
#X connect 9 1 0 0;
#X connect 9 2 10 0;
#X connect 10 0 8 0;
#X connect 11 0 14 0;
#X connect 12 0 9 0;
#X connect 13 0 8 0;
#X connect 15 0 9 0;
#X connect 15 1 1 0;
#X connect 16 0 17 1;
#X connect 17 0 18 0;
#X connect 18 1 19 0;
#X connect 19 0 22 0;
#X connect 20 0 17 0;
#X connect 20 1 18 1;
#X connect 21 0 20 0;
#X connect 23 0 12 0;
#X restore 320 27 pd list-midifiles;
#N canvas 407 343 671 467 midifile-choice 0;
#X obj 170 123 r midifiles;
#X obj 145 148 list;
#X obj 145 172 list split;
#X obj 178 197 list split 1;
#X obj 145 98 t b f;
#X obj 162 65 hradio 15 1 0 8 empty empty empty 0 -8 0 10 -262144 -1
-1 0;
#X symbolatom 57 312 0 0 0 0 - - -;
#X obj 145 29 r midifile-choice;
#X obj 254 258 symbol;
#X obj 396 16 r midifile-play;
#X msg 491 150 play 0;
#X obj 396 68 sel 1 0;
#X obj 459 108 t b b;
#X obj 275 390 outlet;
#X obj 459 397 outlet reset;
#X obj 396 42 change;
#X msg 254 282 open midifiles/\$1 \, play 1;
#X obj 492 286 s conduite-STOP;
#X obj 325 163 t b b;
#X msg 519 340 \; pd dsp 0 \; pd dsp 1;
#X connect 0 0 1 1;
#X connect 1 0 2 0;
#X connect 2 1 3 0;
#X connect 3 0 6 0;
#X connect 3 0 8 1;
#X connect 4 0 1 0;
#X connect 4 1 2 1;
#X connect 5 0 4 0;
#X connect 7 0 4 0;
#X connect 8 0 16 0;
#X connect 9 0 15 0;
#X connect 10 0 13 0;
#X connect 11 0 18 0;
#X connect 11 1 12 0;
#X connect 12 0 14 0;
#X connect 12 1 10 0;
#X connect 15 0 11 0;
#X connect 16 0 13 0;
#X connect 18 0 8 0;
#X connect 18 1 17 0;
#X connect 18 1 19 0;
#X restore 323 62 pd midifile-choice;
#X obj 323 121 route note;
#X msg 323 145 \$2 \$3 \$1;
#X obj 116 638 s \$1-2StepMotor;
#X obj 116 559 route M L, f 28;
#X obj 234 638 s projlampe;
#X obj 116 534 t a;
#X obj 289 704 print;
#X msg 499 139 1 \, 2 \, 3 \, 4 \, 5 \, 6;
#X msg 499 162 L \$1 0;
#X msg 446 114 M -1 speed 0 \, L -1 0;
#X connect 0 0 1 0;
#X connect 0 1 1 1;
#X connect 0 2 1 2;
#X connect 1 0 3 0;
#X connect 3 0 4 0;
#X connect 4 0 37 0;
#X connect 4 1 5 0;
#X connect 5 1 6 0;
#X connect 6 0 31 0;
#X connect 6 1 32 0;
#X connect 6 2 33 0;
#X connect 6 3 34 0;
#X connect 6 4 35 0;
#X connect 6 5 36 0;
#X connect 7 0 8 0;
#X connect 8 0 31 1;
#X connect 9 0 25 0;
#X connect 10 0 11 0;
#X connect 11 0 32 1;
#X connect 12 0 13 0;
#X connect 13 0 33 1;
#X connect 14 0 15 0;
#X connect 15 0 34 1;
#X connect 16 0 17 0;
#X connect 17 0 35 1;
#X connect 18 0 19 0;
#X connect 19 0 36 1;
#X connect 20 0 25 0;
#X connect 21 0 25 0;
#X connect 22 0 25 0;
#X connect 23 0 25 0;
#X connect 24 0 25 0;
#X connect 25 0 26 0;
#X connect 26 0 29 0;
#X connect 26 1 30 0;
#X connect 27 0 28 0;
#X connect 28 0 29 1;
#X connect 29 0 38 0;
#X connect 30 0 27 0;
#X connect 31 0 9 0;
#X connect 32 0 20 0;
#X connect 33 0 21 0;
#X connect 34 0 22 0;
#X connect 34 0 39 0;
#X connect 35 0 23 0;
#X connect 36 0 24 0;
#X connect 37 0 48 0;
#X connect 38 0 48 0;
#X connect 40 0 43 0;
#X connect 42 0 40 0;
#X connect 42 1 52 0;
#X connect 42 1 50 0;
#X connect 43 0 44 0;
#X connect 44 0 3 0;
#X connect 46 0 45 0;
#X connect 46 1 47 0;
#X connect 48 0 46 0;
#X connect 50 0 51 0;
#X connect 51 0 48 0;
#X connect 52 0 48 0;
