#N canvas 1 107 450 300 10;
#X obj 96 28 r seq-\$1-line;
#X obj 96 66 route \$2;
#X obj 96 92 list prepend \$3;
#X obj 96 139 s seq-\$1-line;
#X obj 96 117 list trim;
#X connect 0 0 1 0;
#X connect 1 0 2 0;
#X connect 2 0 4 0;
#X connect 4 0 3 0;
