#N canvas 166 192 361 475 10;
#X obj 52 45 r seq-\$1-line;
#X obj 55 267 hsl 150 10 0 100 0 0 empty empty empty -2 -8 0 10 -257985
-1 -1 7000 1;
#X obj 52 65 route lampe\$2;
#X obj 52 312 clip 0 1;
#X obj 52 333 * 255;
#X obj 52 353 i;
#X obj 52 289 / 100;
#X obj 52 440 s toDMX;
#X obj 52 374 change;
#X obj 52 395 pack f 80;
#X obj 103 332 loadbang;
#X obj 103 374 + 79;
#X msg 52 417 D \$2 \$1;
#X obj 52 196 rampe \$1;
#X obj 103 353 f \$2;
#X obj 194 66 route \$2;
#X obj 194 45 r lampe-control;
#X connect 0 0 2 0;
#X connect 1 0 6 0;
#X connect 2 0 13 0;
#X connect 3 0 4 0;
#X connect 4 0 5 0;
#X connect 5 0 8 0;
#X connect 6 0 3 0;
#X connect 8 0 9 0;
#X connect 9 0 12 0;
#X connect 10 0 14 0;
#X connect 11 0 9 1;
#X connect 12 0 7 0;
#X connect 13 0 1 0;
#X connect 14 0 11 0;
#X connect 15 0 1 0;
#X connect 16 0 15 0;
#X coords 0 -1 1 1 160 30 1 50 250;
