#N canvas 32 82 911 684 10;
#X obj 30 130 text define \$1;
#X obj 30 72 symbol \$1;
#X obj 30 44 bng 15 250 50 0 empty empty empty 17 7 0 10 -262144 -1
-1;
#X obj 30 11 loadbang;
#X msg 30 98 read -c ../\$1.txt;
#X text 397 132 24 images/sec;
#X obj 103 243 text get \$1;
#X obj 103 352 list split 3;
#X obj 172 399 / 24;
#X obj 137 400 +;
#X obj 103 401 * 60;
#X obj 103 377 unpack f f f;
#X obj 103 422 +;
#X obj 135 473 -;
#X obj 103 450 t f f;
#X obj 103 494 s seq-\$1-lasttime;
#X obj 153 451 r seq-\$1-lasttime;
#X obj 135 517 spigot 1;
#X obj 135 540 * 1000;
#X obj 135 563 del;
#X obj 135 633 +;
#X msg 135 611 1;
#X obj 178 241 sel 0;
#X msg 178 263 0;
#X obj 178 285 s seq-\$1-lasttime;
#X obj 292 557 list;
#X obj 165 633 r seq-\$1-getline;
#X obj 135 658 s seq-\$1-getline;
#X obj 103 152 r seq-\$1-getline;
#X obj 292 606 s seq-\$1-line;
#X obj 310 218 s seq-\$1-getline;
#X msg 310 183 0;
#X obj 316 641 r seq-\$1-line;
#X obj 316 668 print SEQ;
#X obj 610 368 metro;
#X obj 665 343 /;
#X obj 665 295 loadbang;
#X obj 610 397 i;
#X obj 641 397 + 1;
#X msg 610 339 1;
#X obj 610 311 t b b;
#X obj 726 507 mod 24;
#X obj 610 451 div 24;
#X obj 610 424 t f f;
#X obj 610 476 t f f;
#X obj 610 504 div 60;
#X obj 664 502 mod 60;
#X floatatom 348 54 5 0 0 1 mn - -, f 5;
#X floatatom 404 54 5 0 0 1 sec - -, f 5;
#X floatatom 461 54 5 0 0 1 frame - -, f 5;
#X msg 665 317 1000 24;
#X msg 351 291 stop;
#X obj 289 515 bng 15 250 50 0 empty empty empty 17 7 0 10 -262144
-1 -1;
#X obj 292 580 list trim;
#X obj 305 97 inlet go;
#X obj 447 169 inlet stop;
#X obj 610 583 outlet mn;
#X obj 704 586 outlet sec;
#X obj 797 586 outlet frame;
#X obj 549 86 inlet skip;
#X obj 456 568 r seq-\$1-getline;
#X obj 457 593 outlet line-num;
#X msg 549 181 0;
#X floatatom 438 630 5 0 0 0 - - -, f 5;
#X obj 375 568 * 24;
#X obj 135 587 t b b b;
#X obj 390 524 r seq-\$1-lasttime;
#X obj 375 547 f;
#X obj 657 157 inlet reload;
#X obj 341 183 s \$1-RESET;
#X obj 657 179 s \$1-RELOAD;
#X obj 63 42 r \$1-RELOAD;
#X obj 421 326 b;
#X obj 447 199 s \$1-STOP;
#X obj 454 332 r seq-\$1-lasttime;
#X obj 436 355 f;
#X obj 421 383 s \$1-playAt;
#X obj 438 31 bng 15 250 50 0 \$1-RELOAD empty RELOAD 17 7 0 10 -260097
-1 -1;
#X obj 306 31 bng 15 250 50 0 \$1-GO empty GO 17 7 0 10 -4034 -1 -1
;
#X obj 310 139 r \$1-GO;
#X obj 306 116 s \$1-GO;
#X obj 345 31 bng 15 250 50 0 \$1-STOP empty STOP 17 7 0 10 -258113
-1 -1;
#X obj 392 31 bng 15 250 50 0 \$1-SKIP empty SKIP 17 7 0 10 -257985
-1 -1;
#X obj 563 129 r \$1-SKIP;
#X obj 501 25 cnv 15 25 25 empty \$0-partcanvas B 10 15 0 14 -4032
-66577 0;
#X msg 763 299 label \$1;
#X obj 280 376 symbol;
#X obj 763 321 s \$0-partcanvas;
#X msg 560 422 0;
#X floatatom 303 53 3 0 0 1 L - -, f 3;
#X obj 351 269 r \$1-STOP;
#X obj 253 402 b;
#X obj 103 264 list trim;
#X obj 253 424 del 0;
#X obj 103 287 route list;
#X obj 253 332 t b a;
#X obj 280 354 route PART;
#X obj 310 159 t b b b;
#X obj 364 157 s \$1-RELOAD;
#X floatatom 80 583 5 0 0 0 - - -, f 5;
#X obj 149 331 s \$1-STOP;
#X obj 758 231 route pause;
#X obj 758 202 r seq-\$1-line;
#X obj 280 397 s \$1-PART;
#X obj 160 308 route pause loop;
#X obj 763 277 r \$1-PART;
#X obj 211 328 t b b;
#X obj 221 354 s \$1-STOP;
#X obj 200 373 s \$1-GO;
#X obj 148 197 text size \$1;
#X obj 103 174 t f b;
#X obj 103 219 t f f f;
#X obj 252 245 s seq-\$1-getline;
#X obj 103 198 moses;
#X obj 253 182 b;
#X obj 253 204 del 100;
#X msg 328 474 list;
#X connect 1 0 4 0;
#X connect 2 0 1 0;
#X connect 3 0 2 0;
#X connect 4 0 0 0;
#X connect 6 0 92 0;
#X connect 7 0 11 0;
#X connect 7 1 25 1;
#X connect 8 0 9 1;
#X connect 9 0 12 1;
#X connect 10 0 12 0;
#X connect 11 0 10 0;
#X connect 11 1 9 0;
#X connect 11 2 8 0;
#X connect 12 0 14 0;
#X connect 13 0 17 0;
#X connect 14 0 15 0;
#X connect 14 1 13 0;
#X connect 16 0 13 1;
#X connect 17 0 18 0;
#X connect 18 0 19 0;
#X connect 18 0 99 0;
#X connect 19 0 65 0;
#X connect 20 0 27 0;
#X connect 21 0 20 0;
#X connect 22 0 23 0;
#X connect 23 0 24 0;
#X connect 25 0 53 0;
#X connect 26 0 20 1;
#X connect 28 0 89 0;
#X connect 28 0 110 0;
#X connect 31 0 30 0;
#X connect 31 0 40 0;
#X connect 32 0 33 0;
#X connect 34 0 37 0;
#X connect 35 0 34 1;
#X connect 36 0 50 0;
#X connect 37 0 38 0;
#X connect 37 0 43 0;
#X connect 38 0 37 1;
#X connect 39 0 34 0;
#X connect 40 0 39 0;
#X connect 41 0 49 0;
#X connect 41 0 58 0;
#X connect 42 0 44 0;
#X connect 43 0 42 0;
#X connect 43 1 41 0;
#X connect 44 0 45 0;
#X connect 44 1 46 0;
#X connect 45 0 47 0;
#X connect 45 0 56 0;
#X connect 46 0 48 0;
#X connect 46 0 57 0;
#X connect 50 0 35 0;
#X connect 51 0 19 0;
#X connect 51 0 34 0;
#X connect 52 0 25 0;
#X connect 53 0 29 0;
#X connect 54 0 80 0;
#X connect 55 0 73 0;
#X connect 59 0 62 0;
#X connect 60 0 61 0;
#X connect 60 0 63 0;
#X connect 62 0 19 0;
#X connect 62 0 39 0;
#X connect 62 0 72 0;
#X connect 64 0 37 1;
#X connect 65 0 21 0;
#X connect 65 1 25 0;
#X connect 65 2 67 0;
#X connect 66 0 67 1;
#X connect 67 0 64 0;
#X connect 68 0 70 0;
#X connect 71 0 2 0;
#X connect 72 0 75 0;
#X connect 74 0 75 1;
#X connect 75 0 76 0;
#X connect 79 0 97 0;
#X connect 83 0 62 0;
#X connect 85 0 87 0;
#X connect 86 0 103 0;
#X connect 88 0 37 1;
#X connect 90 0 51 0;
#X connect 91 0 93 0;
#X connect 92 0 94 0;
#X connect 93 0 21 0;
#X connect 94 0 7 0;
#X connect 94 1 104 0;
#X connect 94 1 116 0;
#X connect 95 0 91 0;
#X connect 95 1 96 0;
#X connect 96 0 86 0;
#X connect 96 0 88 0;
#X connect 97 0 31 0;
#X connect 97 1 69 0;
#X connect 97 2 98 0;
#X connect 104 0 100 0;
#X connect 104 1 106 0;
#X connect 104 2 95 0;
#X connect 105 0 85 0;
#X connect 106 0 108 0;
#X connect 106 1 107 0;
#X connect 109 0 113 1;
#X connect 110 0 113 0;
#X connect 110 1 109 0;
#X connect 111 0 6 0;
#X connect 111 1 22 0;
#X connect 113 0 111 0;
#X connect 113 1 114 0;
#X connect 114 0 115 0;
#X connect 115 0 106 0;
#X connect 116 0 25 1;
#X coords 0 -1 1 1 230 60 1 300 10;
