#N canvas 286 81 911 662 10;
#X obj 30 130 text define \$1;
#X obj 30 72 symbol \$1;
#X obj 30 44 bng 15 250 50 0 empty empty empty 17 7 0 10 -262144 -1
-1;
#X obj 30 11 loadbang;
#X msg 30 98 read -c ../\$1.txt;
#X text 397 132 24 images/sec;
#X obj 103 243 text get \$1;
#X obj 135 540 * 1000;
#X obj 135 563 del;
#X obj 135 633 +;
#X msg 135 611 1;
#X obj 178 241 sel 0;
#X msg 178 263 0;
#X obj 178 285 s seq-\$1-lasttime;
#X obj 165 633 r seq-\$1-getline;
#X obj 135 658 s seq-\$1-getline;
#X obj 103 152 r seq-\$1-getline;
#X obj 292 606 s seq-\$1-line;
#X obj 310 218 s seq-\$1-getline;
#X msg 310 183 0;
#X obj 316 641 r seq-\$1-line;
#X obj 316 668 print SEQ;
#X obj 683 431 metro;
#X obj 738 406 /;
#X obj 738 358 loadbang;
#X obj 683 460 i;
#X obj 714 460 + 1;
#X msg 683 402 1;
#X obj 683 374 t b b;
#X obj 793 565 mod 24;
#X obj 683 514 div 24;
#X obj 683 487 t f f;
#X obj 683 539 t f f;
#X obj 683 567 div 60;
#X obj 737 565 mod 60;
#X floatatom 348 52 5 0 0 1 mn - -;
#X floatatom 404 52 5 0 0 1 sec - -;
#X floatatom 461 52 5 0 0 1 frame - -;
#X msg 738 380 1000 24;
#X msg 351 291 stop;
#X obj 305 97 inlet go;
#X obj 447 169 inlet stop;
#X obj 549 86 inlet skip;
#X obj 456 568 r seq-\$1-getline;
#X obj 457 593 outlet line-num;
#X msg 549 181 0;
#X floatatom 438 630 5 0 0 0 - - -;
#X obj 135 587 t b b b;
#X obj 657 157 inlet reload;
#X obj 341 183 s \$1-RESET;
#X obj 657 179 s \$1-RELOAD;
#X obj 63 42 r \$1-RELOAD;
#X obj 421 326 b;
#X obj 447 199 s \$1-STOP;
#X obj 454 332 r seq-\$1-lasttime;
#X obj 436 355 f;
#X obj 421 383 s \$1-playAt;
#X obj 438 31 bng 15 250 50 0 \$1-RELOAD \$1-RELOAD RELOAD 17 7 0 10
-260097 -1 -1;
#X obj 306 31 bng 15 250 50 0 \$1-GO \$1-GO GO 17 7 0 10 -4034 -1 -1
;
#X obj 310 139 r \$1-GO;
#X obj 306 116 s \$1-GO;
#X obj 345 31 bng 15 250 50 0 \$1-STOP \$1-STOP STOP 17 7 0 10 -258113
-1 -1;
#X obj 392 31 bng 15 250 50 0 \$1-SKIP \$1-SKIP SKIP 17 7 0 10 -257985
-1 -1;
#X obj 563 129 r \$1-SKIP;
#X obj 802 252 cnv 15 25 25 empty \$0-partcanvas A 10 15 0 14 -4032
-66577 0;
#X msg 763 299 label \$1;
#X obj 763 321 s \$0-partcanvas;
#X floatatom 303 53 3 0 0 1 L - -;
#X obj 351 269 r \$1-STOP;
#X obj 103 264 list trim;
#X obj 310 159 t b b b;
#X obj 375 158 s \$1-RELOAD;
#X obj 32 361 s \$1-STOP;
#X obj 763 277 r \$1-PART;
#X obj 95 434 t b b;
#X obj 122 457 s \$1-STOP;
#X obj 148 197 text size \$1;
#X obj 103 174 t f b;
#X obj 103 219 t f f f;
#X obj 103 198 moses;
#X obj 253 182 b;
#X obj 103 286 t a a;
#X obj 56 328 route pause loop sleep wait;
#X msg 215 362 0;
#X obj 683 588 pack f f f, f 19;
#X obj 683 613 s seq-\$1-time;
#X obj 772 16 inlet load;
#X obj 95 404 spigot 1;
#X obj 158 403 r \$1-ALLOWLOOP;
#X obj 325 438 r \$1-GO_IF_FINISHED;
#X obj 325 486 spigot 1;
#X obj 325 507 t b b;
#X msg 388 485 0;
#X obj 325 532 s \$1-GO;
#X msg 370 464 1;
#X obj 95 353 t b b;
#X obj 49 499 s \$1-GO_IF_FINISHED;
#X obj 370 410 r \$1-STOP;
#X obj 16 456 bng 15 250 50 0 empty empty empty 17 7 0 10 -262144 -1
-1;
#X obj 282 217 bng 15 250 50 0 empty empty empty 17 7 0 10 -262144
-1 -1;
#X obj 54 397 bng 15 250 50 0 empty empty empty 17 7 0 10 -262144 -1
-1;
#X obj 48 474 del 1;
#X obj 150 43 r \$1-LOAD;
#X connect 1 0 4 0;
#X connect 2 0 1 0;
#X connect 3 0 2 0;
#X connect 4 0 0 0;
#X connect 6 0 69 0;
#X connect 7 0 8 0;
#X connect 8 0 47 0;
#X connect 9 0 15 0;
#X connect 10 0 9 0;
#X connect 11 0 12 0;
#X connect 12 0 13 0;
#X connect 12 0 25 0;
#X connect 14 0 9 1;
#X connect 16 0 67 0;
#X connect 16 0 77 0;
#X connect 19 0 18 0;
#X connect 19 0 28 0;
#X connect 19 0 99 0;
#X connect 20 0 21 0;
#X connect 22 0 25 0;
#X connect 23 0 22 1;
#X connect 24 0 38 0;
#X connect 25 0 26 0;
#X connect 25 0 31 0;
#X connect 26 0 25 1;
#X connect 27 0 22 0;
#X connect 28 0 27 0;
#X connect 29 0 37 0;
#X connect 29 0 84 2;
#X connect 30 0 32 0;
#X connect 31 0 30 0;
#X connect 31 1 29 0;
#X connect 32 0 33 0;
#X connect 32 1 34 0;
#X connect 33 0 35 0;
#X connect 33 0 84 0;
#X connect 34 0 36 0;
#X connect 34 0 84 1;
#X connect 38 0 23 0;
#X connect 39 0 8 0;
#X connect 39 0 22 0;
#X connect 40 0 60 0;
#X connect 41 0 53 0;
#X connect 42 0 45 0;
#X connect 43 0 44 0;
#X connect 43 0 46 0;
#X connect 45 0 8 0;
#X connect 45 0 52 0;
#X connect 45 0 27 0;
#X connect 47 0 10 0;
#X connect 48 0 50 0;
#X connect 51 0 2 0;
#X connect 52 0 55 0;
#X connect 54 0 55 1;
#X connect 55 0 56 0;
#X connect 59 0 70 0;
#X connect 63 0 45 0;
#X connect 65 0 66 0;
#X connect 68 0 39 0;
#X connect 69 0 81 0;
#X connect 70 0 19 0;
#X connect 70 1 49 0;
#X connect 73 0 65 0;
#X connect 74 0 101 0;
#X connect 74 1 75 0;
#X connect 76 0 79 1;
#X connect 77 0 79 0;
#X connect 77 1 76 0;
#X connect 78 0 6 0;
#X connect 78 1 11 0;
#X connect 79 0 78 0;
#X connect 79 1 80 0;
#X connect 81 0 82 0;
#X connect 81 1 17 0;
#X connect 82 0 72 0;
#X connect 82 1 95 0;
#X connect 82 2 7 0;
#X connect 82 4 83 0;
#X connect 83 0 7 0;
#X connect 84 0 85 0;
#X connect 86 0 4 0;
#X connect 87 0 74 0;
#X connect 88 0 87 1;
#X connect 89 0 90 0;
#X connect 90 0 91 0;
#X connect 91 0 93 0;
#X connect 91 1 92 0;
#X connect 92 0 90 1;
#X connect 94 0 90 1;
#X connect 95 0 87 0;
#X connect 95 1 94 0;
#X connect 97 0 94 0;
#X connect 98 0 96 0;
#X connect 100 0 74 0;
#X connect 101 0 96 0;
#X connect 102 0 4 0;
#X coords 0 -1 1 1 230 60 1 300 10;
