#N canvas 404 337 361 475 10;
#X obj 52 3 r seq-\$1-line;
#X obj 55 267 hsl 120 10 0 100 0 0 empty empty empty -2 -8 0 10 -4032
-1 -1 5474 1;
#X obj 52 23 route metro\$2;
#X obj 121 103 t b f, f 11;
#X obj 184 123 * 10;
#X msg 121 125 1;
#X obj 121 146 metro 100, f 11;
#X obj 121 167 i;
#X obj 155 168 + 1;
#X obj 155 189 mod 100;
#X obj 52 353 s seq-metro;
#X obj 52 296 pack f \$2;
#X msg 52 317 \$2 \$1;
#X msg 291 110 5;
#X obj 52 54 route random;
#N canvas 0 60 450 300 random 0;
#X obj 98 24 inlet bang;
#X obj 184 23 inlet on;
#X obj 250 22 inlet off;
#X msg 185 110 1;
#X obj 185 54 t b a;
#X msg 248 112 0;
#X obj 169 150 spigot;
#X obj 169 173 random 10000;
#X obj 169 196 / 10000;
#X obj 277 167 unpack f f;
#X text 351 168 min max;
#X obj 277 190 * -1;
#X obj 277 213 +;
#X obj 169 219 * 1;
#X obj 169 242 +;
#X obj 169 265 outlet time;
#X connect 0 0 6 0;
#X connect 1 0 4 0;
#X connect 2 0 5 0;
#X connect 3 0 6 1;
#X connect 4 0 3 0;
#X connect 4 1 9 0;
#X connect 5 0 6 1;
#X connect 6 0 7 0;
#X connect 7 0 8 0;
#X connect 8 0 13 0;
#X connect 9 0 11 0;
#X connect 9 0 14 1;
#X connect 9 1 12 1;
#X connect 11 0 12 0;
#X connect 12 0 13 1;
#X connect 13 0 14 0;
#X connect 14 0 15 0;
#X restore 35 157 pd random;
#X obj 34 123 sel 0;
#X msg 172 23 5;
#X msg 210 26 random 1 3;
#X connect 0 0 2 0;
#X connect 1 0 11 0;
#X connect 2 0 14 0;
#X connect 3 0 5 0;
#X connect 3 0 15 2;
#X connect 3 1 4 0;
#X connect 4 0 6 1;
#X connect 5 0 6 0;
#X connect 6 0 7 0;
#X connect 7 0 8 0;
#X connect 7 0 1 0;
#X connect 7 0 16 0;
#X connect 8 0 9 0;
#X connect 9 0 7 1;
#X connect 11 0 12 0;
#X connect 12 0 10 0;
#X connect 13 0 3 0;
#X connect 14 0 15 1;
#X connect 14 1 3 0;
#X connect 15 0 4 0;
#X connect 16 0 15 0;
#X connect 17 0 14 0;
#X connect 18 0 14 0;
#X coords 0 -1 1 1 130 30 1 50 250;
