#N canvas 521 373 361 475 10;
#X obj 52 45 r seq-\$1-line;
#X obj 55 267 hsl 120 10 0 100 0 0 empty empty empty -2 -8 0 10 -4032
-1 -1 5712 1;
#X obj 52 65 route metro\$2;
#X obj 52 86 t b f, f 11;
#X obj 115 106 * 10;
#X msg 52 108 1;
#X obj 52 129 metro 100, f 11;
#X obj 52 150 i;
#X obj 86 151 + 1;
#X obj 86 172 mod 100;
#X obj 52 353 s seq-metro;
#X obj 52 296 pack f \$2;
#X msg 52 317 \$2 \$1;
#X msg 222 93 5;
#X connect 0 0 2 0;
#X connect 1 0 11 0;
#X connect 2 0 3 0;
#X connect 3 0 5 0;
#X connect 3 1 4 0;
#X connect 4 0 6 1;
#X connect 5 0 6 0;
#X connect 6 0 7 0;
#X connect 7 0 8 0;
#X connect 7 0 1 0;
#X connect 8 0 9 0;
#X connect 9 0 7 1;
#X connect 11 0 12 0;
#X connect 12 0 10 0;
#X connect 13 0 3 0;
#X coords 0 -1 1 1 130 30 1 50 250;
