#N canvas 69 390 450 300 10;
#X obj 96 28 r seq-\$1-line;
#X obj 96 66 route \$2;
#X obj 96 93 list split 1;
#X obj 96 146 * 1000;
#X obj 96 121 t f b;
#X obj 96 170 del;
#X msg 96 192 0;
#X msg 127 193 1;
#X obj 96 223 s moment-\$2;
#X obj 258 50 r \$1-RESET;
#X msg 256 73 0;
#X connect 0 0 1 0;
#X connect 1 0 2 0;
#X connect 2 0 4 0;
#X connect 3 0 5 0;
#X connect 4 0 3 0;
#X connect 4 1 7 0;
#X connect 5 0 6 0;
#X connect 6 0 8 0;
#X connect 7 0 8 0;
#X connect 9 0 10 0;
#X connect 10 0 5 0;
