#N canvas 982 84 927 662 10;
#X obj 52 11 r seq-\$1-line;
#X obj 55 416 hsl 150 10 0 100 0 0 empty empty empty -2 -8 0 10 -257985
-1 -1 14900 1;
#X obj 212 413 nbx 5 14 -1e+37 1e+37 0 0 empty empty empty 0 -8 0 10
-262144 -1 -1 103 256;
#X obj 52 181 r \$0-lampe;
#X obj 52 458 clip 0 1;
#X obj 52 479 * 255;
#X obj 52 499 i;
#X obj 52 435 / 100;
#X obj 52 586 s toDMX;
#X obj 52 520 change;
#X obj 103 478 loadbang;
#X msg 52 563 D \$2 \$1;
#X obj 278 353 / 400;
#X msg 278 374 set \$1;
#X obj 395 32 route \$2;
#X obj 507 31 list prepend \$2;
#X obj 418 274 s \$0-2StepMotor;
#X obj 278 311 r \$0-StepMotor;
#X obj 395 12 r StepMotor;
#X obj 395 54 s \$0-StepMotor;
#X obj 507 10 r \$0-2StepMotor;
#X obj 507 52 s 2StepMotor;
#X msg 427 221 pos 400;
#X msg 321 248 speed 3;
#X msg 486 223 resetpos 0;
#X obj 33 134 s \$0-lampe;
#X obj 52 56 s \$0-seqline;
#X obj 33 89 r \$0-seqline;
#X obj 33 110 route lampe;
#X obj 380 481 r \$0-seqline;
#X obj 585 312 r \$0-seqline;
#X obj 585 424 s \$0-2StepMotor;
#X msg 585 396 inc 1;
#X msg 625 396 speed \$1;
#X obj 585 354 t b f b;
#X obj 632 375 s \$0-stop;
#X obj 585 333 route nextframe stop;
#N canvas 950 275 609 453 continu 0;
#X obj 44 20 inlet;
#X obj 191 21 r \$0-mode;
#X obj 44 41 route speed;
#X obj 94 185 f;
#X msg 191 82 1;
#X msg 266 63 0;
#X obj 292 21 r \$0-stop;
#X obj 360 163 r \$0-simulframe;
#X obj 360 185 i;
#X obj 360 250 spigot;
#X obj 191 147 sel 1 0, f 8;
#X obj 360 209 change;
#X obj 360 229 i;
#X obj 360 271 <, f 14;
#X obj 441 248 r \$0-stopframe;
#X obj 215 372 s \$0-2StepMotor;
#X obj 94 260 s \$0-2StepMotor;
#X msg 94 237 speed \$1;
#X msg 360 336 inc 1;
#X obj 191 104 f;
#X floatatom 466 277 5 0 0 0 - - -;
#X floatatom 320 275 5 0 0 0 - - -;
#X obj 360 314 del 1;
#X obj 44 93 rampe \$1;
#X obj 191 125 t f f, f 28;
#X obj 94 211 spigot;
#X obj 97 375 s \$0-lampemult;
#X floatatom 49 248 5 0 0 0 - - -;
#X obj 191 42 route continu;
#X obj 419 103 print;
#X obj 224 104 tgl 15 0 empty empty empty 17 7 0 10 -262144 -1 -1 0
1;
#X msg 93 67 stop;
#X obj 428 368 s \$0-stop;
#X obj 360 293 sel 1 0, f 14;
#X obj 391 383 bng 15 250 50 0 empty empty empty 17 7 0 10 -262144
-1 -1;
#X obj 248 213 r \$0-stopframe;
#X obj 233 238 f;
#X obj 276 275 -;
#X msg 276 325 inc \$1;
#X obj 276 300 max 0;
#X msg 97 353 100;
#X floatatom 321 330 5 0 0 0 - - -;
#X floatatom 278 256 5 0 0 0 - - -;
#X floatatom 322 356 5 0 0 0 - - -;
#X floatatom 186 286 5 0 0 0 - - -;
#X msg 215 344 frame \$1;
#X floatatom 25 137 5 0 0 0 - - -;
#X connect 0 0 2 0;
#X connect 1 0 28 0;
#X connect 2 0 23 0;
#X connect 2 0 46 0;
#X connect 3 0 25 0;
#X connect 4 0 19 0;
#X connect 5 0 19 0;
#X connect 5 0 31 0;
#X connect 6 0 5 0;
#X connect 6 0 31 0;
#X connect 7 0 8 0;
#X connect 8 0 11 0;
#X connect 8 0 37 1;
#X connect 9 0 13 0;
#X connect 9 0 21 0;
#X connect 10 0 3 0;
#X connect 10 0 40 0;
#X connect 10 0 36 0;
#X connect 11 0 12 0;
#X connect 12 0 9 0;
#X connect 13 0 33 0;
#X connect 14 0 13 1;
#X connect 14 0 20 0;
#X connect 17 0 16 0;
#X connect 18 0 34 0;
#X connect 19 0 24 0;
#X connect 19 0 30 0;
#X connect 22 0 18 0;
#X connect 23 0 3 0;
#X connect 24 0 10 0;
#X connect 24 1 9 1;
#X connect 24 1 25 1;
#X connect 25 0 17 0;
#X connect 25 0 27 0;
#X connect 28 0 4 0;
#X connect 28 1 5 0;
#X connect 31 0 23 0;
#X connect 33 0 22 0;
#X connect 35 0 36 1;
#X connect 35 0 42 0;
#X connect 36 0 44 0;
#X connect 36 0 45 0;
#X connect 37 0 39 0;
#X connect 37 0 41 0;
#X connect 39 0 38 0;
#X connect 39 0 43 0;
#X connect 40 0 26 0;
#X connect 45 0 15 0;
#X restore 491 529 pd continu;
#X obj 380 502 route mode diapo continu;
#X obj 414 626 s \$0-mode;
#X obj 693 353 r \$0-stop;
#X msg 714 389 0;
#X msg 471 247 speed 2;
#X obj 328 375 s \$0-simulframe;
#X obj 328 355 s \$0-simulpos;
#X obj 380 574 list split 1;
#X obj 233 589 s \$0-seqline;
#X msg 279 564 stop;
#X msg 253 514 continu speed 10;
#X msg 258 535 continu speed 100 20;
#X msg 186 492 mode 20 continu;
#X obj 52 234 rampe \$1;
#X obj 52 347 *;
#X obj 67 324 t b f;
#X obj 67 275 r \$0-lampemult;
#X obj 103 499 f \$2;
#X obj 52 541 pack f 70;
#X obj 103 520 + 70;
#X obj 122 132 print proj\$2-seqline;
#X obj 705 297 r \$1-STOP;
#N canvas 554 179 665 725 diapo 1;
#X obj 44 20 inlet;
#X obj 329 11 r \$0-mode;
#X obj 44 185 f;
#X msg 329 53 1;
#X msg 404 53 0;
#X obj 415 29 r \$0-stop;
#X obj 244 353 i;
#X obj 329 137 sel 1 0, f 8;
#X obj 244 376 <, f 14;
#X obj 325 353 r \$0-stopframe;
#X obj 244 503 s \$0-2StepMotor;
#X obj 44 260 s \$0-2StepMotor;
#X msg 44 237 speed \$1;
#X obj 329 81 f;
#X floatatom 350 382 5 0 0 0 - - -;
#X obj 244 419 del 1;
#X obj 44 162 rampe \$1;
#X obj 329 109 t f f, f 13;
#X obj 44 211 spigot;
#X obj 90 584 s \$0-lampemult;
#X obj 205 243 r seq-metro;
#X obj 205 264 route -1;
#X obj 44 84 unpack f f f f f;
#X msg 354 250 -1;
#X obj 329 32 route diapo;
#X obj 377 91 tgl 15 0 empty empty empty 17 7 0 10 -262144 -1 -1 1
1;
#X obj 250 194 unpack f f;
#X obj 205 285 +, f 11;
#X obj 250 173 t a b, f 13;
#X msg 313 242 0;
#X obj 205 306 mod 100;
#X obj 205 327 sel 0;
#X obj 259 329 r \$0-commandframe;
#X obj 73 380 -;
#X obj 73 401 moses, f 10;
#X obj 73 444 /;
#X obj 88 423 max 1;
#X obj 130 425 -;
#X obj 130 474 /;
#X obj 145 451 max 1;
#X obj 73 465 * 100;
#X obj 73 486 min 100;
#X obj 130 495 * -100;
#X obj 130 516 + 100;
#X obj 90 558 clip 0 100;
#X floatatom 353 409 5 0 0 0 - - -;
#X obj 244 397 sel 1 0, f 14;
#X obj 395 478 s \$0-stop;
#X floatatom 10 312 5 0 0 0 - - -;
#X obj 44 41 route list speed steps;
#X obj 244 450 f 1;
#X msg 187 401 1;
#X msg 244 481 inc \$1;
#X floatatom 225 589 5 0 0 0 - - -;
#X floatatom 194 519 5 0 0 0 - - -;
#X floatatom 182 88 5 0 0 0 - - -;
#X connect 0 0 49 0;
#X connect 1 0 24 0;
#X connect 2 0 18 0;
#X connect 2 0 48 0;
#X connect 3 0 13 0;
#X connect 4 0 13 0;
#X connect 4 0 23 0;
#X connect 5 0 4 0;
#X connect 6 0 8 0;
#X connect 7 0 2 0;
#X connect 8 0 46 0;
#X connect 9 0 8 1;
#X connect 9 0 14 0;
#X connect 12 0 11 0;
#X connect 13 0 17 0;
#X connect 13 0 25 0;
#X connect 15 0 50 0;
#X connect 16 0 2 0;
#X connect 17 0 7 0;
#X connect 17 1 18 1;
#X connect 18 0 12 0;
#X connect 20 0 21 0;
#X connect 21 0 27 0;
#X connect 22 0 16 0;
#X connect 22 1 33 1;
#X connect 22 2 36 0;
#X connect 22 3 34 1;
#X connect 22 3 37 1;
#X connect 22 4 39 0;
#X connect 23 0 21 1;
#X connect 24 0 3 0;
#X connect 24 0 28 0;
#X connect 24 1 4 0;
#X connect 26 0 21 1;
#X connect 26 1 27 1;
#X connect 27 0 30 0;
#X connect 28 0 26 0;
#X connect 28 1 29 0;
#X connect 29 0 27 1;
#X connect 30 0 31 0;
#X connect 30 0 33 0;
#X connect 31 0 6 0;
#X connect 32 0 6 1;
#X connect 32 0 45 0;
#X connect 33 0 34 0;
#X connect 34 0 35 0;
#X connect 34 1 37 0;
#X connect 35 0 40 0;
#X connect 36 0 35 1;
#X connect 37 0 38 0;
#X connect 38 0 42 0;
#X connect 39 0 38 1;
#X connect 40 0 41 0;
#X connect 41 0 44 0;
#X connect 42 0 43 0;
#X connect 43 0 44 0;
#X connect 44 0 19 0;
#X connect 44 0 53 0;
#X connect 46 0 15 0;
#X connect 46 1 47 0;
#X connect 49 0 22 0;
#X connect 49 0 51 0;
#X connect 49 1 16 0;
#X connect 49 2 50 1;
#X connect 49 2 55 0;
#X connect 50 0 52 0;
#X connect 50 0 54 0;
#X connect 52 0 10 0;
#X restore 427 529 pd diapo;
#X msg 67 642 diapo 80 20 0 50 0;
#X obj 414 600 list trim;
#X obj 278 332 route simulpos commandpos, f 48;
#X obj 420 356 / 400;
#X obj 427 376 s \$0-commandframe;
#X obj 463 356 s \$0-commandpos;
#X floatatom 484 440 5 0 0 0 - - -;
#X msg 103 700 mode 10 diapo 1 0;
#X obj 170 57 route proj\$2;
#X obj 170 34 route wait, f 15;
#X msg 239 83 0;
#N canvas 1 81 450 300 wait 0;
#X obj 80 33 inlet;
#X obj 161 182 s \$1-SKIP;
#X obj 161 116 r \$0-simulframe;
#X obj 161 137 i;
#X obj 80 54 sel 0;
#X obj 126 77 t b f;
#X msg 80 77 -1000;
#X obj 161 157 sel -1000;
#X connect 0 0 4 0;
#X connect 2 0 3 0;
#X connect 3 0 7 0;
#X connect 4 0 6 0;
#X connect 4 1 5 0;
#X connect 5 0 3 0;
#X connect 5 1 7 1;
#X connect 6 0 7 1;
#X connect 7 0 1 0;
#X restore 170 103 pd wait;
#X obj 170 82 unpack f;
#X obj 509 577 list split 1;
#X obj 509 624 s \$0-stopframe;
#X floatatom 531 602 5 0 0 0 - - -;
#X obj 380 549 t a a, f 22;
#X obj 109 345 s \$0-lampemult;
#X msg 396 689 lampe random 0.5 30 100;
#X floatatom 449 434 5 0 0 0 - - -;
#X msg 569 224 resetframe \$1;
#X msg 594 171 120;
#X msg 629 172 0;
#X msg 660 171 5;
#X msg 254 728 mode 405 continu 0;
#X msg 259 752 mode 5 continu 0;
#X msg 272 699 mode 406 continu 0;
#X msg 691 172 6;
#X msg 256 659 continu speed 120 0;
#X msg 404 767 mode 42 continu 0;
#X msg 521 766 mode 64 continu 0;
#X msg 218 459 lampe 0 \, lampe 100 1;
#X msg 724 173 133;
#X obj 407 78 r proj-control;
#X obj 407 99 route \$2;
#X obj 602 90 print;
#X msg 390 172 calage \$1;
#X msg 465 174 speed 100 \, inc 1;
#X obj 676 74 r \$0-seqline;
#X obj 52 34 route proj\$2;
#X obj 676 95 route reset_all_pos;
#X obj 67 298 / 100;
#X floatatom 88 365 5 0 0 0 - - -;
#X floatatom 17 302 5 0 0 0 - - -;
#X obj 152 210 pack f \$2;
#X obj 152 231 unpack f f, f 24;
#X obj 152 252 tabwrite projs-lampestab;
#X obj 10 437 print;
#X msg 109 324 100;
#X obj 728 215 r \$0-simulframe;
#X obj 713 236 f;
#X obj 756 176 bng 15 250 50 0 empty empty empty 17 7 0 10 -262144
-1 -1;
#X floatatom 720 267 5 0 0 0 - - -;
#X obj 407 120 route lampe fine skipframe setframe resetinc gotonext
;
#X obj 834 104 r \$0-simulframe;
#X obj 801 129 i;
#X obj 801 150 + 1;
#X msg 802 194 inc \$1;
#X obj 795 63 bng 15 250 50 0 empty empty empty 17 7 0 10 -262144 -1
-1;
#X floatatom 863 204 5 0 0 0 - - -;
#X msg 373 244 speed 70;
#X msg 812 279 inc 1;
#X obj 801 171 -;
#X connect 0 0 70 0;
#X connect 0 0 100 0;
#X connect 1 0 7 0;
#X connect 1 0 105 0;
#X connect 3 0 51 0;
#X connect 4 0 5 0;
#X connect 5 0 6 0;
#X connect 6 0 9 0;
#X connect 7 0 4 0;
#X connect 9 0 56 0;
#X connect 10 0 55 0;
#X connect 11 0 8 0;
#X connect 12 0 13 0;
#X connect 12 0 43 0;
#X connect 13 0 2 0;
#X connect 14 0 19 0;
#X connect 15 0 21 0;
#X connect 17 0 63 0;
#X connect 18 0 14 0;
#X connect 20 0 15 0;
#X connect 22 0 16 0;
#X connect 23 0 16 0;
#X connect 24 0 16 0;
#X connect 27 0 28 0;
#X connect 28 0 25 0;
#X connect 29 0 38 0;
#X connect 30 0 36 0;
#X connect 32 0 31 0;
#X connect 33 0 31 0;
#X connect 34 0 32 0;
#X connect 34 1 33 0;
#X connect 34 2 35 0;
#X connect 36 0 34 0;
#X connect 36 1 35 0;
#X connect 38 0 77 0;
#X connect 38 1 60 0;
#X connect 38 2 37 0;
#X connect 40 0 41 0;
#X connect 42 0 16 0;
#X connect 45 1 62 0;
#X connect 47 0 46 0;
#X connect 48 0 46 0;
#X connect 49 0 46 0;
#X connect 50 0 46 0;
#X connect 51 0 52 0;
#X connect 52 0 1 0;
#X connect 53 0 52 0;
#X connect 53 1 52 1;
#X connect 54 0 102 0;
#X connect 54 0 103 0;
#X connect 55 0 57 0;
#X connect 56 0 11 0;
#X connect 57 0 56 1;
#X connect 59 0 35 0;
#X connect 61 0 46 0;
#X connect 62 0 39 0;
#X connect 63 0 12 0;
#X connect 63 0 44 0;
#X connect 63 1 64 0;
#X connect 63 1 66 0;
#X connect 63 1 67 0;
#X connect 64 0 65 0;
#X connect 68 0 46 0;
#X connect 69 0 73 0;
#X connect 69 1 71 0;
#X connect 70 0 69 0;
#X connect 70 1 71 0;
#X connect 71 0 72 0;
#X connect 73 0 72 0;
#X connect 74 0 75 0;
#X connect 74 0 76 0;
#X connect 77 0 45 0;
#X connect 77 1 74 0;
#X connect 79 0 46 0;
#X connect 81 0 16 0;
#X connect 82 0 81 0;
#X connect 83 0 81 0;
#X connect 84 0 81 0;
#X connect 85 0 46 0;
#X connect 86 0 46 0;
#X connect 87 0 46 0;
#X connect 88 0 81 0;
#X connect 89 0 46 0;
#X connect 90 0 46 0;
#X connect 91 0 46 0;
#X connect 92 0 46 0;
#X connect 93 0 81 0;
#X connect 94 0 95 0;
#X connect 95 0 114 0;
#X connect 97 0 16 0;
#X connect 98 0 16 0;
#X connect 99 0 101 0;
#X connect 100 0 26 0;
#X connect 100 1 26 0;
#X connect 101 0 24 0;
#X connect 102 0 53 0;
#X connect 105 0 106 0;
#X connect 106 0 107 0;
#X connect 106 1 107 1;
#X connect 109 0 78 0;
#X connect 110 0 111 1;
#X connect 111 0 81 0;
#X connect 111 0 113 0;
#X connect 112 0 111 0;
#X connect 114 0 1 0;
#X connect 114 1 97 0;
#X connect 114 2 98 0;
#X connect 114 3 81 0;
#X connect 114 4 111 0;
#X connect 114 5 116 0;
#X connect 115 0 116 1;
#X connect 115 0 123 1;
#X connect 116 0 117 0;
#X connect 117 0 123 0;
#X connect 118 0 16 0;
#X connect 119 0 116 0;
#X connect 121 0 16 0;
#X connect 122 0 16 0;
#X connect 123 0 118 0;
#X connect 123 0 120 0;
#X coords 0 -1 1 1 220 30 1 50 400;
