#N canvas 1 81 450 300 12;
#X obj 76 100 t a b;
#X obj 76 122 list split 1;
#X obj 116 144 list split 1;
#X obj 76 204 pack f f;
#X msg 211 145 0;
#X obj 116 166 * 1000;
#X obj 262 92 r \$1-RESET;
#X msg 262 114 0;
#X obj 76 232 line 0 50;
#X obj 261 145 r \$1-STOP;
#X msg 261 166 stop;
#X obj 76 73 inlet;
#X obj 76 256 outlet;
#X connect 0 0 1 0;
#X connect 0 1 4 0;
#X connect 1 0 3 0;
#X connect 1 1 2 0;
#X connect 2 0 5 0;
#X connect 3 0 8 0;
#X connect 4 0 3 1;
#X connect 5 0 3 1;
#X connect 6 0 7 0;
#X connect 7 0 8 0;
#X connect 8 0 12 0;
#X connect 9 0 10 0;
#X connect 10 0 8 0;
#X connect 11 0 0 0;
