#N canvas 165 230 548 435 12;
#X obj 186 156 t a b;
#X obj 186 178 list split 1;
#X obj 226 200 list split 1;
#X obj 186 260 pack f f;
#X msg 321 201 0;
#X obj 226 222 * 1000;
#X obj 372 148 r \$1-RESET;
#X msg 372 170 0;
#X obj 186 288 line 0 50;
#X obj 122 29 r \$1-STOP;
#X msg 37 175 stop;
#X obj 55 35 inlet;
#X obj 186 312 outlet;
#X obj 55 67 route stop random;
#N canvas 103 571 450 472 random 0;
#X obj 252 25 inlet stop;
#X obj 68 25 inlet start speed min max;
#X obj 68 314 outlet;
#X msg 128 102 1000 \$1;
#X obj 128 126 /;
#X obj 68 53 t b a, f 9;
#X obj 68 151 metro 500;
#X msg 68 126 1;
#X msg 252 49 0;
#X obj 38 198 bng 15 250 50 0 empty empty empty 17 7 0 10 -262144 -1
-1;
#X obj 128 78 unpack f f f, f 22;
#X obj 68 175 random 10000;
#X obj 68 199 / 10000;
#X obj 68 223 * 1;
#X obj 68 247 + 1;
#X obj 203 105 * -1;
#X obj 203 129 +;
#X obj 68 271 pack f f, f 11;
#X connect 0 0 8 0;
#X connect 1 0 5 0;
#X connect 3 0 4 0;
#X connect 4 0 6 1;
#X connect 4 0 17 1;
#X connect 5 0 7 0;
#X connect 5 1 10 0;
#X connect 6 0 9 0;
#X connect 6 0 11 0;
#X connect 7 0 6 0;
#X connect 8 0 6 0;
#X connect 10 0 3 0;
#X connect 10 1 15 0;
#X connect 10 1 14 1;
#X connect 10 2 16 1;
#X connect 11 0 12 0;
#X connect 12 0 13 0;
#X connect 13 0 14 0;
#X connect 14 0 17 0;
#X connect 15 0 16 0;
#X connect 16 0 13 1;
#X connect 17 0 2 0;
#X restore 101 116 pd random;
#X connect 0 0 1 0;
#X connect 0 1 4 0;
#X connect 1 0 3 0;
#X connect 1 1 2 0;
#X connect 2 0 5 0;
#X connect 3 0 8 0;
#X connect 4 0 3 1;
#X connect 5 0 3 1;
#X connect 6 0 7 0;
#X connect 7 0 8 0;
#X connect 8 0 12 0;
#X connect 9 0 10 0;
#X connect 9 0 14 1;
#X connect 10 0 8 0;
#X connect 11 0 13 0;
#X connect 13 0 10 0;
#X connect 13 0 14 1;
#X connect 13 1 14 0;
#X connect 13 2 0 0;
#X connect 13 2 14 1;
#X connect 14 0 8 0;
