#N canvas 563 249 533 341 10;
#X obj 52 45 r seq-\$1-line;
#X obj 55 267 hsl 120 10 0 1 0 0 Treuil\$2 Treuil\$2 empty -2 -8 0
10 -261682 -1 -1 0 1;
#X obj 52 122 rampe \$1;
#X obj 191 262 tgl 15 0 treuilzero\$2 treuilzero\$2 zero -5 -7 0 10
-260097 -4034 -1 0 1;
#X obj 52 168 s Treuil\$2;
#X obj 52 65 route treuil\$2;
#X obj 52 143 / 100;
#X obj 52 93 route speed autostop, f 30;
#X obj 269 93 r treuilzero\$2;
#X obj 132 164 spigot;
#X obj 132 186 sel 1;
#X msg 132 226 0;
#X msg 140 113 1;
#X msg 185 164 0;
#X obj 198 139 r \$1-RESET;
#X obj 295 113 tgl 15 0 empty empty empty 17 7 0 10 -262144 -1 -1 0
1;
#X obj 266 265 bng 15 250 50 0 empty empty empty 17 7 0 10 -262144
-1 -1;
#X msg 15 111 80;
#X msg 188 41 autostop \, speed 50;
#X obj 369 56 route \$2;
#X obj 369 35 r treuil-control;
#X obj 398 184 route wait, f 15;
#N canvas 68 227 432 373 wait 0;
#X obj 68 39 inlet;
#X obj 99 317 s \$1-SKIP;
#X obj 99 96 r treuilzero\$2;
#X obj 293 50 inlet cancel;
#X obj 99 196 sel 1;
#X obj 99 174 f;
#X obj 99 219 spigot;
#X msg 185 192 0;
#X msg 144 192 1;
#X obj 99 138 ||;
#X obj 129 138 t b f;
#X obj 68 60 t b b, f 19;
#X obj 129 118 r \$0-autostopReached;
#X obj 99 290 t b b, f 23;
#X msg 185 225 stop;
#X obj 144 251 del 30000;
#X obj 144 228 b;
#X connect 0 0 11 0;
#X connect 2 0 9 0;
#X connect 3 0 7 0;
#X connect 4 0 6 0;
#X connect 5 0 4 0;
#X connect 6 0 13 0;
#X connect 7 0 6 1;
#X connect 7 0 14 0;
#X connect 8 0 6 1;
#X connect 8 0 16 0;
#X connect 9 0 5 0;
#X connect 10 0 9 0;
#X connect 10 1 9 1;
#X connect 11 0 5 0;
#X connect 11 1 8 0;
#X connect 12 0 10 0;
#X connect 13 0 1 0;
#X connect 13 1 7 0;
#X connect 14 0 15 0;
#X connect 15 0 13 0;
#X connect 16 0 15 0;
#X restore 398 253 pd wait;
#X f 15;
#X obj 398 207 route treuil\$2;
#X obj 398 232 b;
#X msg 485 230 bang;
#X msg 243 212 1;
#X msg 272 211 0;
#X obj 243 232 s \$0-autostopReached;
#X obj 132 206 del 500;
#X obj 46 212 del 120000;
#X obj 46 191 b;
#X msg 46 233 1;
#X msg 75 191 stop;
#X connect 0 0 5 0;
#X connect 0 0 21 0;
#X connect 2 0 6 0;
#X connect 5 0 7 0;
#X connect 6 0 4 0;
#X connect 7 0 2 0;
#X connect 7 1 12 0;
#X connect 8 0 15 0;
#X connect 8 0 9 0;
#X connect 9 0 10 0;
#X connect 10 0 16 0;
#X connect 10 0 13 0;
#X connect 10 0 26 0;
#X connect 10 0 29 0;
#X connect 10 0 33 0;
#X connect 11 0 2 0;
#X connect 12 0 9 1;
#X connect 12 0 27 0;
#X connect 12 0 31 0;
#X connect 13 0 9 1;
#X connect 14 0 13 0;
#X connect 14 0 33 0;
#X connect 18 0 7 0;
#X connect 19 0 4 0;
#X connect 20 0 19 0;
#X connect 21 0 23 0;
#X connect 21 1 25 0;
#X connect 23 0 24 0;
#X connect 23 1 25 0;
#X connect 24 0 22 0;
#X connect 25 0 22 1;
#X connect 26 0 28 0;
#X connect 27 0 28 0;
#X connect 29 0 11 0;
#X connect 30 0 32 0;
#X connect 30 0 11 0;
#X connect 31 0 30 0;
#X connect 32 0 10 0;
#X connect 33 0 30 0;
#X coords 0 -1 1 1 160 30 1 50 250;
