#N canvas 1342 93 451 354 10;
#X obj 245 43 list;
#X obj 32 258 bng 15 250 50 0 empty empty empty 17 7 0 10 #00fc04 #000000 #000000;
#X obj 281 255 bng 15 250 50 0 empty empty empty 17 7 0 10 #fc0400 #000000 #000000;
#X obj 33 237 loadbang;
#X obj 104 236 r RELOAD_PRESETS;
#X obj 43 45 route settings_onoff;
#X obj 245 71 oscformat settings_onoff;
#X obj 281 178 r SETTINGS-save;
#X obj 281 202 b;
#X obj 281 229 del 1000;
#X obj 33 209 apmaster SETTINGS;
#X obj 43 20 r fromOSC;
#X obj 43 70 s fromOSC-settings_onoff;
#X obj 245 12 r toOSC-settings_onoff;
#X obj 245 98 s toOSC;
#X obj 32 278 settings_file SETTINGS presets/settings.txt;
#X connect 0 0 6 0;
#X connect 1 0 15 0;
#X connect 2 0 15 1;
#X connect 3 0 1 0;
#X connect 4 0 1 0;
#X connect 5 0 12 0;
#X connect 6 0 14 0;
#X connect 7 0 8 0;
#X connect 8 0 9 0;
#X connect 9 0 2 0;
#X connect 11 0 5 0;
#X connect 13 0 0 0;
