#N canvas 760 45 524 326 12;
#X obj 43 70 route \$1;
#X obj 43 95 tgl 20 0 empty empty empty 0 -10 0 12 #fcfcfc #000000 #000000 0 1;
#X obj 43 199 list prepend \$1;
#X obj 43 168 tgl 20 0 empty empty empty 0 -10 0 12 #fcfcfc #000000 #000000 0 1;
#X obj 13 137 f;
#X obj 43 136 apf SETTINGS onoff_\$1 _ 2;
#X obj 116 93 s SETTINGS-save;
#X obj 116 69 b;
#X obj 263 252 s settings_onoff;
#X obj 258 106 pdcontrol;
#X msg 258 81 args;
#X obj 258 131 list split 1;
#X obj 258 56 loadbang;
#X obj 298 160 route bang;
#X obj 263 201 list prepend \$1;
#X obj 263 227 list trim;
#X obj 43 20 r fromOSC-settings_onoff;
#X obj 43 225 s toOSC-settings_onoff;
#X obj 18 257 outlet;
#X connect 0 0 1 0;
#X connect 1 0 5 0;
#X connect 1 0 7 0;
#X connect 1 0 14 0;
#X connect 1 0 18 0;
#X connect 2 0 17 0;
#X connect 3 0 2 0;
#X connect 3 0 14 0;
#X connect 3 0 18 0;
#X connect 4 0 5 0;
#X connect 5 0 4 0;
#X connect 5 0 3 0;
#X connect 7 0 6 0;
#X connect 9 0 11 0;
#X connect 10 0 9 0;
#X connect 11 1 13 0;
#X connect 12 0 10 0;
#X connect 13 1 14 1;
#X connect 14 0 15 0;
#X connect 15 0 8 0;
#X connect 16 0 0 0;
