#N canvas 715 470 919 414 10;
#X declare -path AutoPreset;
#X obj 153 92 list;
#X obj 309 110 list trim;
#X obj 309 150 s CONTROL;
#X obj 636 67 r PLAYED_CONTROL;
#X obj 468 111 list trim;
#X obj 468 134 s REC_CONTROL;
#X obj 568 178 route loaded saved;
#X obj 568 204 b;
#X obj 707 177 loadbang;
#X msg 568 255 _all_ _nbpattern_ \$1;
#X obj 673 221 bng 18 250 50 0 empty empty empty 0 -9 0 10 -262144
-1 -1;
#X obj 568 229 f 32;
#X obj 25 66 r fromOSC;
#X obj 153 138 s toOSC;
#X obj 100 21 declare -path AutoPreset;
#X obj 25 89 route \$2;
#X obj 153 115 oscformat \$2;
#X obj 309 87 list prepend \$2;
#X obj 468 88 list prepend \$2;
#X obj 636 92 route \$2;
#X obj 568 155 r \$3-apmaster-snd;
#X obj 25 112 s \$1-fromOSC;
#X obj 153 67 r \$1-toOSC;
#X obj 309 64 r \$1-toMachine;
#X obj 468 65 r \$1-toRecord;
#X obj 636 117 s \$1-PLAYED_CONTROL;
#X obj 568 279 s \$1-PRESETS-setap-snd;
#X text 300 19 module_interface local(\$0) name preset1 preset2;
#X obj 568 303 apsubmaster \$1-PRESETS \$3 \$2;
#X obj 568 329 apsubmaster \$1-PRESETS2 \$4 \$2;
#X obj 31 225 r \$1-fromOSC;
#X obj 31 248 route mute;
#X obj 31 271 s \$1-mute;
#X connect 0 0 16 0;
#X connect 3 0 19 0;
#X connect 4 0 5 0;
#X connect 6 0 7 0;
#X connect 6 1 7 0;
#X connect 6 1 10 0;
#X connect 7 0 11 0;
#X connect 8 0 7 0;
#X connect 9 0 26 0;
#X connect 11 0 9 0;
#X connect 12 0 15 0;
#X connect 15 0 21 0;
#X connect 16 0 13 0;
#X connect 17 0 1 0;
#X connect 18 0 4 0;
#X connect 19 0 25 0;
#X connect 20 0 6 0;
#X connect 22 0 0 0;
#X connect 23 0 17 0;
#X connect 24 0 18 0;
#X connect 30 0 31 0;
#X connect 31 0 32 0;
