#N canvas 1182 187 667 773 12;
#X obj 46 477 s \$1-toMachine;
#X obj 46 73 route \$2;
#X obj 46 303 list prepend \$2;
#X obj 432 408 list prepend \$2;
#X obj 46 448 list trim;
#X obj 432 92 r \$1-PLAYED_CONTROL;
#X obj 432 120 route \$2;
#X obj 48 512 r REPEAT_CONTROL;
#X obj 48 652 list trim;
#X obj 48 602 list append 0;
#X obj 136 551 r \$1-toMachine;
#X obj 136 576 route \$2;
#X obj 48 627 list prepend \$2;
#X obj 48 677 s \$1-toMachine;
#X obj 432 211 spigot 1;
#X obj 135 116 outlet to_apf;
#X obj 135 154 inlet from_apf;
#X obj 46 257 t a b;
#X obj 485 146 t b b;
#X msg 485 172 0;
#X obj 519 172 del 1500;
#X msg 519 197 1;
#X obj 432 302 list split \$3;
#X obj 134 203 r \$4;
#X text 82 15 args: \$0 param_name nb_f [linetime_rcv];
#X obj 432 327 t b a, f 8;
#X obj 432 352 del 5;
#X obj 432 377 list, f 8;
#X obj 46 371 t b a, f 8;
#X obj 46 396 del 5;
#X obj 46 421 list, f 8;
#X obj 153 476 s \$1-toRecord;
#X obj 157 676 s \$1-toRecord;
#X obj 46 44 r \$1-fromOSC;
#X obj 432 442 s \$1-toOSC;
#X obj 432 247 spigot 1;
#X obj 542 230 r \$1-mute;
#X obj 542 255 == 0;
#X obj 162 304 list prepend \$2;
#X obj 277 304 list prepend \$2;
#X obj 273 94 r sequence-deletemute;
#X obj 277 273 spigot 1;
#X obj 329 122 r \$1-mute;
#X obj 273 150 &&;
#X obj 284 123 t b f;
#X obj 273 175 == 0;
#X obj 330 234 ||;
#X obj 335 203 t b f;
#X obj 335 154 r sequence-in_init;
#X obj 46 231 list append 0;
#X obj 297 383 tgl 20 0 empty empty empty 0 -10 0 12 #fcfcfc #000000 #000000 0 1;
#X obj 271 206 loadbang;
#X msg 271 231 1;
#X connect 1 0 15 0;
#X connect 1 0 49 0;
#X connect 2 0 28 0;
#X connect 2 0 31 0;
#X connect 3 0 34 0;
#X connect 4 0 0 0;
#X connect 5 0 6 0;
#X connect 6 0 14 0;
#X connect 7 0 9 0;
#X connect 8 0 13 0;
#X connect 8 0 32 0;
#X connect 9 0 12 0;
#X connect 10 0 11 0;
#X connect 11 0 9 1;
#X connect 12 0 8 0;
#X connect 14 0 35 0;
#X connect 14 0 41 0;
#X connect 16 0 3 0;
#X connect 16 0 49 0;
#X connect 17 0 2 0;
#X connect 17 1 18 0;
#X connect 18 0 19 0;
#X connect 18 1 20 0;
#X connect 19 0 14 1;
#X connect 20 0 21 0;
#X connect 21 0 14 1;
#X connect 22 0 25 0;
#X connect 23 0 49 1;
#X connect 25 0 26 0;
#X connect 25 1 27 1;
#X connect 26 0 27 0;
#X connect 27 0 3 0;
#X connect 28 0 29 0;
#X connect 28 1 30 1;
#X connect 29 0 30 0;
#X connect 30 0 4 0;
#X connect 33 0 1 0;
#X connect 35 0 22 0;
#X connect 35 0 38 0;
#X connect 36 0 37 0;
#X connect 37 0 35 1;
#X connect 38 0 28 0;
#X connect 39 0 31 0;
#X connect 40 0 43 0;
#X connect 41 0 39 0;
#X connect 42 0 44 0;
#X connect 43 0 45 0;
#X connect 44 0 43 0;
#X connect 44 1 43 1;
#X connect 45 0 46 0;
#X connect 46 0 41 1;
#X connect 46 0 50 0;
#X connect 47 0 46 0;
#X connect 47 1 46 1;
#X connect 48 0 47 0;
#X connect 48 0 21 0;
#X connect 49 0 17 0;
#X connect 51 0 52 0;
#X connect 52 0 46 0;
