#N canvas 869 233 711 410 12;
#X obj 280 161 t b f, f 7;
#X obj 280 271 f, f 7;
#X obj 280 246 del 1;
#X obj 410 162 t b f;
#X obj 280 136 apfx2c \$3 \$4 \$2_1;
#X obj 410 136 apfx2c \$3 \$4 \$2_2;
#X text 42 24 args: \$0 param_name preset1 preset2 [linetime_rcv];
#X obj 69 190 param_common \$1 \$2 3 \$5;
#X obj 280 107 unpack f f, f 19;
#X obj 280 296 pack f f, f 23;
#X connect 0 0 2 0;
#X connect 0 1 1 1;
#X connect 1 0 9 0;
#X connect 2 0 1 0;
#X connect 3 0 2 0;
#X connect 3 1 9 1;
#X connect 4 0 0 0;
#X connect 5 0 3 0;
#X connect 7 0 8 0;
#X connect 8 0 4 0;
#X connect 8 1 5 0;
#X connect 9 0 7 0;
