#N canvas 448 204 416 289 10;
#X obj 158 23 keyname;
#X msg 235 70 0;
#X msg 202 70 1;
#X msg 213 146 1;
#X msg 142 169 0;
#X obj 202 46 sel \$1;
#X obj 171 225 outlet;
#X obj 148 146 delay 50;
#X obj 167 119 select 0 1;
#X obj 170 196 change;
#X obj 167 97 spigot;
#X connect 0 0 10 0;
#X connect 0 1 5 0;
#X connect 1 0 10 1;
#X connect 2 0 10 1;
#X connect 3 0 9 0;
#X connect 4 0 9 0;
#X connect 5 0 2 0;
#X connect 5 1 1 0;
#X connect 7 0 4 0;
#X connect 8 0 7 0;
#X connect 8 1 3 0;
#X connect 9 0 6 0;
#X connect 10 0 8 0;
