#N canvas 66 185 548 435 12;
#X obj 248 146 t a b;
#X obj 248 168 list split 1;
#X obj 288 190 list split 1;
#X obj 248 250 pack f f;
#X msg 383 191 0;
#X obj 288 212 * 1000;
#X obj 434 138 r \$1-RESET;
#X msg 434 160 0;
#X obj 248 278 line 0 50;
#X obj 122 29 r \$1-STOP;
#X msg 37 175 stop;
#X obj 55 35 inlet;
#X obj 248 302 outlet;
#N canvas -35 274 677 499 random 0;
#X obj 252 25 inlet stop;
#X obj 68 25 inlet start speed min max;
#X obj 68 435 outlet;
#X msg 128 172 1000 \$1;
#X obj 128 196 /;
#X obj 68 244 metro 500;
#X msg 68 196 1;
#X msg 252 49 0;
#X obj 22 279 bng 15 250 50 0 empty empty empty 17 7 0 10 -262144 -1
-1;
#X obj 128 148 unpack f f f, f 22;
#X obj 68 296 random 10000;
#X obj 68 320 / 10000;
#X obj 68 344 * 1;
#X obj 68 368 + 1;
#X obj 203 175 * -1;
#X obj 203 199 +;
#X obj 68 392 pack f f, f 11;
#X obj 68 58 route list var1;
#X obj 68 109 t b a b, f 17;
#X obj 128 219 f;
#X text 258 90 transition_time_div random_speed_min random_speed_max
;
#X obj 340 141 unpack f f f;
#X obj 339 117 t a b;
#X obj 142 358 / 1;
#X msg 182 301 1;
#X obj 156 335 t b f;
#X obj 68 270 t b b, f 25;
#X obj 240 296 spigot;
#X msg 266 270 0;
#X msg 298 268 1;
#X obj 240 320 random 10000;
#X obj 240 344 / 10000;
#X obj 380 169 * -1;
#X obj 380 193 +;
#X obj 240 368 * 1;
#X obj 240 392 + 1;
#X connect 0 0 7 0;
#X connect 1 0 17 0;
#X connect 3 0 4 0;
#X connect 4 0 19 0;
#X connect 5 0 8 0;
#X connect 5 0 26 0;
#X connect 6 0 5 0;
#X connect 7 0 5 0;
#X connect 9 0 3 0;
#X connect 9 1 14 0;
#X connect 9 1 13 1;
#X connect 9 2 15 1;
#X connect 10 0 11 0;
#X connect 11 0 12 0;
#X connect 12 0 13 0;
#X connect 13 0 16 0;
#X connect 14 0 15 0;
#X connect 15 0 12 1;
#X connect 16 0 2 0;
#X connect 17 0 18 0;
#X connect 17 1 22 0;
#X connect 18 0 6 0;
#X connect 18 1 9 0;
#X connect 18 2 24 0;
#X connect 18 2 28 0;
#X connect 19 0 5 1;
#X connect 19 0 23 0;
#X connect 21 0 25 0;
#X connect 21 1 32 0;
#X connect 21 1 35 1;
#X connect 21 2 33 1;
#X connect 22 0 21 0;
#X connect 22 1 29 0;
#X connect 23 0 16 1;
#X connect 24 0 25 0;
#X connect 25 0 23 0;
#X connect 25 1 23 1;
#X connect 26 0 10 0;
#X connect 26 1 27 0;
#X connect 27 0 30 0;
#X connect 28 0 27 1;
#X connect 29 0 27 1;
#X connect 30 0 31 0;
#X connect 31 0 34 0;
#X connect 32 0 33 0;
#X connect 33 0 34 1;
#X connect 34 0 35 0;
#X connect 35 0 3 0;
#X restore 87 122 pd random;
#X obj 55 67 route stop random flash;
#N canvas 83 137 677 526 flash 0;
#X obj 286 28 inlet stop;
#X obj 68 456 outlet;
#X msg 128 172 1000 \$1;
#X obj 128 196 /;
#X obj 68 244 metro 500;
#X msg 68 196 1;
#X msg 286 52 0;
#X obj 22 279 bng 15 250 50 0 empty empty empty 17 7 0 10 -262144 -1
-1;
#X obj 128 148 unpack f f f, f 22;
#X obj 68 296 random 10000;
#X obj 68 92 t b a b, f 17;
#X obj 128 219 f;
#X obj 68 270 t b b, f 25;
#X obj 68 58 route list;
#X obj 68 25 inlet speed proba(0-100) val;
#X obj 203 174 * 100;
#X obj 68 320 < 1, f 5;
#X obj 68 360 *;
#X floatatom 149 414 5 0 0 0 - - -;
#X obj 68 384 change;
#X obj 152 448 bng 15 250 50 0 empty empty empty 17 7 0 10 -262144
-1 -1;
#X obj 194 443 print;
#X msg 319 111 10 40 100;
#X connect 0 0 6 0;
#X connect 2 0 3 0;
#X connect 3 0 11 0;
#X connect 4 0 12 0;
#X connect 5 0 4 0;
#X connect 6 0 4 0;
#X connect 8 0 2 0;
#X connect 8 1 15 0;
#X connect 8 2 17 1;
#X connect 9 0 16 0;
#X connect 10 0 5 0;
#X connect 10 1 8 0;
#X connect 11 0 4 1;
#X connect 12 0 9 0;
#X connect 13 0 10 0;
#X connect 14 0 13 0;
#X connect 15 0 16 1;
#X connect 16 0 17 0;
#X connect 17 0 19 0;
#X connect 18 0 20 0;
#X connect 19 0 1 0;
#X connect 22 0 13 0;
#X restore 165 121 pd flash;
#X connect 0 0 1 0;
#X connect 0 1 4 0;
#X connect 1 0 3 0;
#X connect 1 1 2 0;
#X connect 2 0 5 0;
#X connect 3 0 8 0;
#X connect 4 0 3 1;
#X connect 5 0 3 1;
#X connect 6 0 7 0;
#X connect 7 0 8 0;
#X connect 8 0 12 0;
#X connect 9 0 10 0;
#X connect 9 0 13 1;
#X connect 9 0 15 1;
#X connect 10 0 8 0;
#X connect 11 0 14 0;
#X connect 13 0 8 0;
#X connect 14 0 10 0;
#X connect 14 0 13 1;
#X connect 14 0 15 1;
#X connect 14 1 13 0;
#X connect 14 2 15 0;
#X connect 14 3 0 0;
#X connect 14 3 13 1;
#X connect 14 3 15 1;
#X connect 15 0 8 0;
