#N canvas 729 98 1161 629 10;
#X declare -path ggee;
#X obj 946 19 text define \$0-seq;
#X obj 101 248 t a b;
#X obj 128 270 t b b;
#X obj 128 311 timer;
#X obj 101 368 list prepend;
#X obj 101 127 spigot;
#X obj 220 162 t b b b;
#X msg 259 191 clear;
#X msg 158 131 1;
#X obj 220 62 bng 15 250 50 0 empty empty rec 17 7 0 10 -258113 -1
-1;
#X obj 283 62 bng 15 250 50 0 empty empty stop 17 7 0 10 -1 -262144
-1;
#X msg 394 186 stop, f 5;
#X msg 189 131 0;
#X obj 750 205 bng 15 250 50 0 empty empty save 17 7 0 10 -260097 -1
-1;
#X obj 334 63 bng 15 250 50 0 empty empty replay 17 7 0 10 -257985
-1 -1;
#X obj 528 -24 t f f, f 8;
#X obj 572 0 fmod 60;
#X obj 528 0 div 60;
#X obj 544 59 nbx 5 14 -1e+37 1e+37 0 0 empty empty seconds 0 -8 0
10 -262144 -1 -1 22.7 256;
#X obj 483 59 nbx 5 14 -1e+37 1e+37 0 0 empty empty minutes 0 -8 0
10 -262144 -1 -1 0 256;
#X obj 689 206 bng 15 250 50 0 empty empty reload 17 7 0 10 -4032 -1
-1;
#X obj 165 243 bng 15 250 50 0 empty empty empty 17 7 0 10 -262144
-1 -1;
#X obj 643 -16 bng 15 250 50 0 empty empty load 17 7 0 10 -4034 -1
-1;
#X symbolatom 475 97 20 0 0 0 - - -;
#X obj 774 -17 bng 15 250 50 0 empty empty saveas 17 7 0 10 -260097
-1 -1;
#X obj 712 151 symbol;
#X msg 736 254 write \$1;
#X msg 670 255 read \$1;
#X obj 689 226 symbol;
#X obj 751 228 symbol;
#X obj 643 84 openpanel;
#X obj 643 111 symbol;
#X obj 775 86 savepanel;
#X obj 775 116 symbol;
#X obj 23 -24 declare -path ggee;
#X obj 658 152 stripdir;
#X obj 101 89 inlet;
#X obj 643 33 list append \$1;
#X obj 775 31 list append \$1;
#X msg 643 58 symbol \$1/recs_\$2;
#X msg 775 56 symbol \$1/recs_\$2;
#X obj 925 148 list append \$1;
#X obj 925 100 loadbang;
#X obj 855 215 symbol;
#X obj 140 162 change;
#X obj 855 186 del 1;
#X obj 220 0 r CONTROLrec_\$1-rcv;
#X obj 1008 88 bng 15 250 50 0 empty empty empty 17 7 0 10 -262144
-1 -1;
#X symbolatom 832 266 0 0 0 0 - - -;
#X obj 914 238 bng 15 250 50 0 empty empty empty 17 7 0 10 -262144
-1 -1;
#X msg 925 173 symbol \$1/recs_tmp/\$2.txt;
#X obj 643 189 t b s;
#X obj 249 91 tgl 15 0 empty empty loop 17 7 0 10 -262144 -1 -1 1 1
;
#X msg 154 98 stop;
#X obj 945 49 text define \$0-recseq;
#X obj 364 371 bng 15 250 50 0 empty empty empty 17 7 0 10 -262144
-1 -1;
#X obj 796 480 text size \$0-recseq;
#X obj 691 457 bng 15 250 50 0 empty empty empty 17 7 0 10 -262144
-1 -1;
#X floatatom 796 503 5 0 0 0 - - -;
#X obj 347 394 text tolist \$0-recseq;
#X obj 347 419 text fromlist \$0-seq;
#X obj 934 304 bng 15 250 50 0 empty empty empty 17 7 0 10 -262144
-1 -1;
#X obj 935 333 text tolist \$0-seq;
#X obj 935 358 text fromlist \$0-recseq;
#X obj 987 459 s \$0-recseq;
#X msg 990 429 clear;
#X obj 670 282 s \$0-seq;
#X obj 843 138 r \$0-savetmp;
#X obj 643 307 s \$0-savetmp;
#X obj 849 162 b;
#X obj 320 442 s \$0-savetmp;
#X obj 259 214 s \$0-recseq;
#X obj 101 390 text set \$0-recseq 1e+06;
#X obj 412 158 s \$0-doplay;
#X obj 528 -49 r \$0-time;
#X obj 220 240 s \$0-doplay;
#X msg 928 -21 clear;
#X obj 422 244 bng 15 250 50 0 empty empty empty 17 7 0 10 -262144
-1 -1;
#N canvas 407 513 649 411 duration 1;
#X obj 65 67 r \$0-seq;
#X obj 427 78 r CONTROLrec_\$1-duration;
#X msg 454 125 0 \$1;
#X obj 65 90 route read write, f 51;
#X msg 92 205 read \$1.duration;
#X obj 65 115 t b a;
#X obj 428 40 table \$0-durationtab 1;
#X obj 454 151 s \$0-durationtab;
#X obj 92 227 s \$0-durationtab;
#X msg 65 252 0;
#X obj 65 275 tabread \$0-durationtab;
#X obj 65 299 s CONTROLrec_\$1-duration;
#X msg 216 201 write \$1.duration;
#X obj 418 205 r \$0-duration_mn-snd;
#X obj 418 228 * 60;
#X obj 418 254 s CONTROLrec_\$1-duration;
#X obj 419 297 r CONTROLrec_\$1-duration;
#X obj 419 320 / 60;
#X msg 419 343 set \$1;
#X obj 419 371 s \$0-duration_mn-rcv;
#X obj 92 138 symbol;
#X obj 216 123 symbol;
#X obj 427 102 t b f;
#X obj 168 172 symbol;
#X connect 0 0 3 0;
#X connect 1 0 22 0;
#X connect 2 0 7 0;
#X connect 3 0 5 0;
#X connect 3 1 21 0;
#X connect 4 0 8 0;
#X connect 5 0 9 0;
#X connect 5 1 20 0;
#X connect 9 0 10 0;
#X connect 10 0 11 0;
#X connect 12 0 8 0;
#X connect 13 0 14 0;
#X connect 14 0 15 0;
#X connect 16 0 17 0;
#X connect 17 0 18 0;
#X connect 18 0 19 0;
#X connect 20 0 4 0;
#X connect 20 0 23 1;
#X connect 21 0 12 0;
#X connect 21 0 23 1;
#X connect 22 0 23 0;
#X connect 22 1 2 0;
#X connect 23 0 12 0;
#X restore 124 511 pd duration;
#X obj 404 59 nbx 5 14 0 150 0 0 \$0-duration_mn-snd \$0-duration_mn-rcv
duration(mn) 0 -8 0 10 -204786 -1 -1 0.666667 256;
#X obj 320 297 f;
#X obj 320 320 sel 1;
#X obj 320 343 t b b;
#X msg 360 342 0;
#X obj 321 270 b;
#X msg 361 289 1;
#X obj 342 157 t b b b;
#X obj 412 127 t b b;
#X obj 320 369 t b b;
#N canvas 617 330 706 448 old_count_total_time 0;
#X msg 203 109 line 0;
#X obj 148 121 until;
#X obj 148 147 text sequence \$0-seq;
#X obj 148 170 unpack f;
#X obj 148 193 +;
#X obj 148 216 f;
#X msg 212 171 0;
#X obj 129 93 t b b b;
#X obj 129 239 f;
#X floatatom 129 262 8 0 0 0 - - -;
#X obj 133 52 bng 18 250 50 0 empty empty empty 0 -9 0 10 -262144 -1
-1;
#X connect 0 0 2 0;
#X connect 1 0 2 0;
#X connect 2 0 3 0;
#X connect 2 1 1 1;
#X connect 3 0 4 0;
#X connect 4 0 5 0;
#X connect 5 0 4 1;
#X connect 5 0 8 1;
#X connect 6 0 5 0;
#X connect 7 0 8 0;
#X connect 7 1 1 0;
#X connect 7 2 0 0;
#X connect 7 2 6 0;
#X connect 8 0 9 0;
#X connect 10 0 7 0;
#X restore 283 510 pd old_count_total_time;
#X obj 437 220 s \$0-dostop;
#X obj 346 222 s \$0-finish;
#X obj 412 105 r \$0-play;
#X obj 334 87 s \$0-play;
#X obj 18 321 r \$0-torecseq;
#N canvas 1926 30 772 881 player 0;
#X msg 271 365 end;
#X obj 246 229 s REPEAT_CONTROL;
#X obj 260 810 outlet;
#X obj 107 32 r \$0-doplay;
#X obj 392 308 until;
#X obj 70 369 list prepend 0;
#X msg 444 308 1;
#X msg 246 109 0;
#X obj 218 160 text size \$0-seq;
#X obj 218 183 sel 0;
#X obj 165 281 r \$0-dostop;
#X obj 392 260 r \$0-finish;
#X obj 187 511 s \$0-torecseq;
#X obj 271 422 s CONTROLrec_\$1-snd;
#X obj 70 457 route 0 1 2, f 40;
#X obj 279 775 s \$0-torecseq;
#X obj 279 519 t a a;
#X obj 307 544 list split 1;
#X obj 70 281 r \$0-toplayer;
#X obj 151 345 r \$0-playmode;
#X obj 246 134 s \$0-playmode;
#X obj 107 107 s \$0-toplayer;
#X obj 444 331 s \$0-playmode;
#X obj 392 354 s \$0-toplayer;
#X obj 554 575 until;
#X obj 653 584 s \$0-playmode;
#X obj 554 631 s \$0-toplayer;
#X obj 554 470 r \$0-goto;
#X msg 653 561 2;
#X obj 554 517 t b b f, f 18;
#X obj 307 632 sel 1;
#X floatatom 388 670 8 0 0 0 - - -;
#X msg 597 574 line 0;
#X msg 624 164 4000;
#X msg 587 156 1000;
#X obj 166 756 list trim;
#X msg 551 152 0;
#X obj 107 56 t b b b, f 52;
#X obj 416 81 f;
#X obj 416 104 sel 0;
#X obj 443 129 s \$0-goto;
#X obj 431 57 r \$0-goto;
#X obj 416 181 s \$0-toplayer;
#X msg 416 157 line 0;
#X obj 579 213 s \$0-goto;
#X msg 380 180 0;
#X obj 380 204 s \$0-inittime;
#X obj 339 697 s \$0-inittime;
#X obj 307 585 t f f;
#X obj 339 669 f;
#X msg 662 171 8000;
#X obj 70 310 text sequence \$0-seq, f 34;
#X obj 70 542 list split 1, f 22;
#X obj 70 618 -;
#X obj 85 593 r \$0-inittime;
#X obj 70 649 del;
#X obj 70 680 t b b;
#X obj 70 569 t f f, f 6;
#X obj 114 671 f;
#X obj 148 710 list;
#X obj 70 743 s \$0-toplayer;
#X obj 238 378 bng 18 250 50 0 empty empty empty 0 -9 0 10 -262144
-1 -1;
#X msg 107 82 step;
#X msg 70 717 step;
#X msg 554 598 step;
#X msg 392 331 step;
#X obj 205 629 list;
#X obj 70 507 t a a, f 15;
#X msg 232 605 list;
#X msg 166 624 stop;
#X obj 205 652 route bang;
#X obj 392 286 t b b b, f 18;
#X obj 210 566 t b b;
#X floatatom 632 473 5 0 0 0 - - -;
#X msg 618 128 2000;
#X obj 554 714 bng 18 250 50 0 empty empty empty 0 -9 0 10 -262144
-1 -1;
#X msg 554 737 666;
#X floatatom 554 760 5 0 0 0 - - -;
#X msg 518 734 0;
#X obj 271 394 spigot;
#X obj 329 375 r \$0-playmode;
#X obj 329 398 == 0;
#X obj 272 337 t b b b;
#X obj 413 511 spigot;
#X obj 446 463 r \$0-playmode;
#X obj 446 486 == 2;
#X obj 218 88 t b b;
#X obj 218 204 t b b;
#X obj 307 609 >, f 11;
#X obj 385 640 r \$0-inittime;
#X obj 166 785 route ENDINIT;
#X msg 218 254 0.0001 ENDINIT;
#X msg 166 808 0.0001 ENDINIT;
#X connect 3 0 37 0;
#X connect 4 0 65 0;
#X connect 5 0 14 0;
#X connect 6 0 22 0;
#X connect 7 0 20 0;
#X connect 8 0 9 0;
#X connect 9 0 87 0;
#X connect 10 0 51 0;
#X connect 11 0 71 0;
#X connect 14 0 67 0;
#X connect 14 1 12 0;
#X connect 14 2 16 0;
#X connect 16 0 15 0;
#X connect 16 1 17 0;
#X connect 17 0 48 0;
#X connect 17 1 35 0;
#X connect 18 0 51 0;
#X connect 19 0 5 1;
#X connect 24 0 64 0;
#X connect 27 0 29 0;
#X connect 27 0 73 0;
#X connect 28 0 25 0;
#X connect 29 0 24 0;
#X connect 29 1 28 0;
#X connect 29 1 32 0;
#X connect 29 2 88 1;
#X connect 30 0 24 1;
#X connect 30 0 49 0;
#X connect 32 0 26 0;
#X connect 33 0 44 0;
#X connect 34 0 44 0;
#X connect 35 0 90 0;
#X connect 36 0 44 0;
#X connect 37 0 62 0;
#X connect 37 1 86 0;
#X connect 37 2 38 0;
#X connect 38 0 39 0;
#X connect 39 0 43 0;
#X connect 39 0 45 0;
#X connect 39 1 40 0;
#X connect 41 0 38 1;
#X connect 43 0 42 0;
#X connect 45 0 46 0;
#X connect 48 0 88 0;
#X connect 48 1 49 1;
#X connect 49 0 47 0;
#X connect 49 0 31 0;
#X connect 50 0 44 0;
#X connect 51 0 5 0;
#X connect 51 1 61 0;
#X connect 51 1 82 0;
#X connect 52 0 57 0;
#X connect 52 1 59 1;
#X connect 53 0 55 0;
#X connect 54 0 53 1;
#X connect 55 0 56 0;
#X connect 56 0 63 0;
#X connect 56 1 58 0;
#X connect 56 1 59 0;
#X connect 56 1 68 0;
#X connect 57 0 53 0;
#X connect 57 1 58 1;
#X connect 58 0 53 1;
#X connect 59 0 35 0;
#X connect 62 0 21 0;
#X connect 63 0 60 0;
#X connect 64 0 26 0;
#X connect 65 0 23 0;
#X connect 66 0 70 0;
#X connect 67 0 52 0;
#X connect 67 1 66 1;
#X connect 68 0 66 1;
#X connect 69 0 55 0;
#X connect 70 1 15 0;
#X connect 71 0 4 0;
#X connect 71 1 6 0;
#X connect 71 2 72 0;
#X connect 72 0 68 0;
#X connect 72 1 66 0;
#X connect 72 1 69 0;
#X connect 74 0 44 0;
#X connect 75 0 76 0;
#X connect 76 0 77 0;
#X connect 78 0 77 0;
#X connect 79 0 13 0;
#X connect 79 0 75 0;
#X connect 80 0 81 0;
#X connect 81 0 79 1;
#X connect 82 0 0 0;
#X connect 82 1 4 1;
#X connect 82 1 24 1;
#X connect 82 2 83 0;
#X connect 83 0 49 0;
#X connect 84 0 85 0;
#X connect 85 0 83 1;
#X connect 86 0 8 0;
#X connect 86 1 7 0;
#X connect 87 0 91 0;
#X connect 87 1 1 0;
#X connect 88 0 30 0;
#X connect 89 0 49 1;
#X connect 90 0 92 0;
#X connect 90 1 2 0;
#X connect 91 0 15 0;
#X connect 92 0 15 0;
#X restore 50 513 pd player;
#N canvas 140 126 810 667 time 0;
#X obj 157 327 line 0 100;
#X msg 95 382 time \$1;
#X obj 157 422 /, f 10;
#X obj 200 454 hsl 128 15 0 1 0 0 empty empty empty -2 -8 0 10 -262144
-1 -1 9610 1;
#X msg 96 451 progress \$1;
#X obj 72 479 s CONTROLrec_\$1-snd;
#X obj 389 157 r \$0-doplay;
#X obj 170 355 s \$0-time;
#X obj 249 47 r CONTROLrec_\$1-duration;
#X obj 184 232 * 1000;
#X obj 157 176 t f f;
#X obj 158 400 * 1000;
#X obj 73 39 r \$0-dostop;
#X obj 232 112 r \$0-inittime;
#X obj 158 64 b;
#X obj 304 192 pack f f;
#X obj 232 138 / 1000;
#X obj 184 204 -;
#X obj 236 397 r CONTROLrec_\$1-duration;
#X obj 236 420 * 1000;
#X obj 157 256 pack f f f;
#X msg 157 284 \$3 \, \$1 \$2;
#X obj 158 18 r \$0-playmode;
#X obj 158 41 route 0;
#X floatatom 300 136 5 0 0 0 - - -;
#X obj 181 133 bng 18 250 50 0 empty empty empty 0 -9 0 10 -262144
-1 -1;
#X floatatom 243 336 5 0 0 0 - - -;
#X obj 466 156 r \$0-dostop;
#X msg 389 180 1;
#X msg 466 179 0;
#X obj 389 203 change;
#X obj 389 226 tgl 18 0 empty empty empty 0 -9 0 10 -262144 -1 -1 0
1;
#X msg 389 249 playing \$1;
#X obj 158 91 f 36000;
#X obj 581 495 spigot, f 14;
#X obj 581 519 del 50;
#X obj 581 542 s \$0-play;
#X obj 581 472 spigot 1, f 11;
#X obj 644 448 == 0;
#X obj 644 425 r \$0-recording;
#X floatatom 197 474 5 0 0 0 - - -;
#X obj 614 311 r \$0-playmode;
#X obj 614 334 route 0;
#X obj 621 378 r \$0-dostop;
#X msg 614 357 1;
#X msg 621 401 0;
#X obj 662 469 r \$0-loop;
#X obj 581 444 spigot;
#X obj 518 243 r \$0-time;
#X obj 540 267 r CONTROLrec_\$1-duration;
#X obj 518 291 moses 1e+06;
#X obj 581 315 b;
#X connect 0 0 1 0;
#X connect 0 0 7 0;
#X connect 0 0 11 0;
#X connect 0 0 26 0;
#X connect 1 0 5 0;
#X connect 2 0 3 0;
#X connect 2 0 4 0;
#X connect 3 0 40 0;
#X connect 4 0 5 0;
#X connect 6 0 28 0;
#X connect 9 0 20 1;
#X connect 10 0 20 0;
#X connect 10 1 17 0;
#X connect 11 0 2 0;
#X connect 12 0 0 0;
#X connect 12 0 5 0;
#X connect 13 0 16 0;
#X connect 14 0 33 0;
#X connect 16 0 17 1;
#X connect 16 0 20 2;
#X connect 16 0 0 0;
#X connect 16 0 24 0;
#X connect 17 0 9 0;
#X connect 18 0 19 0;
#X connect 19 0 2 1;
#X connect 20 0 21 0;
#X connect 21 0 0 0;
#X connect 22 0 23 0;
#X connect 23 0 14 0;
#X connect 25 0 16 0;
#X connect 27 0 29 0;
#X connect 28 0 30 0;
#X connect 29 0 30 0;
#X connect 30 0 31 0;
#X connect 31 0 32 0;
#X connect 32 0 5 0;
#X connect 33 0 10 0;
#X connect 34 0 35 0;
#X connect 35 0 36 0;
#X connect 37 0 34 0;
#X connect 38 0 37 1;
#X connect 39 0 38 0;
#X connect 41 0 42 0;
#X connect 42 0 44 0;
#X connect 43 0 45 0;
#X connect 44 0 47 1;
#X connect 45 0 47 1;
#X connect 46 0 34 1;
#X connect 47 0 37 0;
#X connect 48 0 50 0;
#X connect 49 0 50 1;
#X connect 50 1 51 0;
#X connect 51 0 47 0;
#X restore 205 510 pd time;
#X obj 50 536 outlet;
#X obj 18 346 spigot;
#X floatatom 691 506 5 0 0 0 - - -;
#X obj 691 483 text size \$0-seq;
#X obj 149 340 +;
#X obj 171 309 r \$0-inittime;
#X obj 101 212 spigot;
#X obj 148 190 r \$0-playmode;
#X obj 148 213 == 0;
#X obj 590 401 *;
#X obj 606 376 r CONTROLrec_\$1-duration;
#X obj 590 424 * 1000;
#X obj 590 447 s \$0-goto;
#X obj 219 22 route start stop save replay reload saveas load loop
goto clear, f 63;
#X obj 458 461 s \$0-doplay;
#X obj 483 523 s \$0-dostop;
#X floatatom 202 351 5 0 0 0 - - -;
#X obj 249 124 s \$0-loop;
#X obj 6 216 s \$0-recording;
#X symbolatom 712 534 0 0 0 0 - - -;
#X obj 925 123 getdir 2;
#X obj 643 8 getdir 2;
#X obj 775 6 getdir 2;
#X connect 1 0 4 0;
#X connect 1 1 2 0;
#X connect 2 1 3 1;
#X connect 3 0 101 0;
#X connect 4 0 72 0;
#X connect 5 0 103 0;
#X connect 6 0 75 0;
#X connect 6 1 8 0;
#X connect 6 1 21 0;
#X connect 6 2 7 0;
#X connect 6 2 85 0;
#X connect 7 0 71 0;
#X connect 8 0 44 0;
#X connect 9 0 6 0;
#X connect 10 0 86 0;
#X connect 11 0 77 0;
#X connect 11 0 90 0;
#X connect 12 0 44 0;
#X connect 13 0 29 0;
#X connect 14 0 93 0;
#X connect 15 0 17 0;
#X connect 15 1 16 0;
#X connect 16 0 18 0;
#X connect 17 0 19 0;
#X connect 20 0 28 0;
#X connect 21 0 3 0;
#X connect 22 0 118 0;
#X connect 24 0 119 0;
#X connect 25 0 28 1;
#X connect 25 0 29 1;
#X connect 25 0 35 0;
#X connect 26 0 66 0;
#X connect 27 0 66 0;
#X connect 28 0 27 0;
#X connect 29 0 26 0;
#X connect 30 0 31 0;
#X connect 31 0 25 0;
#X connect 31 0 51 0;
#X connect 32 0 33 0;
#X connect 33 0 26 0;
#X connect 33 0 25 0;
#X connect 35 0 23 0;
#X connect 36 0 5 0;
#X connect 37 0 39 0;
#X connect 38 0 40 0;
#X connect 39 0 30 0;
#X connect 40 0 32 0;
#X connect 41 0 50 0;
#X connect 42 0 117 0;
#X connect 43 0 26 0;
#X connect 43 0 48 0;
#X connect 44 0 98 1;
#X connect 44 0 5 1;
#X connect 44 0 115 0;
#X connect 45 0 43 0;
#X connect 46 0 110 0;
#X connect 47 0 117 0;
#X connect 49 0 43 0;
#X connect 50 0 27 0;
#X connect 50 0 43 1;
#X connect 50 0 116 0;
#X connect 51 0 68 0;
#X connect 51 1 27 0;
#X connect 52 0 114 0;
#X connect 53 0 5 0;
#X connect 55 0 59 0;
#X connect 56 0 58 0;
#X connect 57 0 56 0;
#X connect 57 0 100 0;
#X connect 59 0 60 0;
#X connect 61 0 62 0;
#X connect 62 0 63 0;
#X connect 65 0 64 0;
#X connect 67 0 69 0;
#X connect 69 0 45 0;
#X connect 74 0 15 0;
#X connect 76 0 0 0;
#X connect 76 0 54 0;
#X connect 80 0 81 0;
#X connect 81 0 82 0;
#X connect 82 0 88 0;
#X connect 82 1 83 0;
#X connect 83 0 80 1;
#X connect 84 0 80 0;
#X connect 85 0 80 1;
#X connect 86 0 84 0;
#X connect 86 0 12 0;
#X connect 86 1 91 0;
#X connect 86 2 11 0;
#X connect 87 0 73 0;
#X connect 87 1 11 0;
#X connect 87 1 83 0;
#X connect 88 0 70 0;
#X connect 88 1 59 0;
#X connect 92 0 87 0;
#X connect 94 0 98 0;
#X connect 95 0 97 0;
#X connect 98 0 72 0;
#X connect 100 0 99 0;
#X connect 101 0 4 1;
#X connect 102 0 101 1;
#X connect 102 0 113 0;
#X connect 103 0 1 0;
#X connect 104 0 105 0;
#X connect 105 0 103 1;
#X connect 106 0 108 0;
#X connect 107 0 106 1;
#X connect 108 0 109 0;
#X connect 110 0 9 0;
#X connect 110 1 10 0;
#X connect 110 2 13 0;
#X connect 110 3 14 0;
#X connect 110 4 20 0;
#X connect 110 5 33 0;
#X connect 110 6 31 0;
#X connect 110 7 52 0;
#X connect 110 8 106 0;
#X connect 110 9 76 0;
#X connect 117 0 41 0;
#X connect 118 0 37 0;
#X connect 119 0 38 0;
#X coords 0 -1 1 1 400 80 1 200 40;
