#N canvas 1439 89 451 706 10;
#X obj 55 47 sys/module_interface \$0 \$1 \$4 \$5;
#X text 47 9 transport/transport name;
#X obj 27 229 s PLAYED_CONTROL;
#X obj 27 121 r REC_CONTROL;
#N canvas 217 164 1349 835 OSC_interface 1;
#X obj 121 206 sel 1 0;
#X msg 121 257 replay;
#X obj 304 200 sel 0 1;
#X msg 323 231 start;
#X msg 260 473 time \$1;
#X obj 319 466 t f f, f 9;
#X obj 371 488 div 60;
#X obj 319 526 -;
#X obj 334 504 * 60;
#X msg 319 642 time_text \$2:\$1;
#X obj 319 552 makefilename %.1f;
#X obj 319 619 pack s f;
#X msg 368 231 load \$1;
#X msg 419 229 save;
#X msg 555 283 saveas \$1;
#X obj 555 138 symbol;
#X obj 555 162 t b s, f 8;
#X obj 555 208 pack s s;
#X msg 437 379 save 0;
#X obj 375 211 symbol;
#X obj 121 152 route 0 1, f 17;
#X obj 303 122 list prepend 0;
#X obj 303 148 route 0 1, f 16;
#X obj 121 126 list prepend 0;
#X msg 177 259 stop;
#X msg 82 477 stop;
#X obj 555 231 list append \$1;
#X msg 348 171 record 0;
#X msg 138 476 play 0 \, record 0;
#X msg 204 182 play 0;
#X msg 489 380 file 0;
#X obj 189 415 r CONTROLrec_\$1-snd;
#X obj 283 381 s CONTROLrec_\$1-rcv;
#X msg 558 107 loop \$1;
#X obj 248 725 list;
#X obj 76 206 tgl 18 0 empty empty empty 0 -9 0 10 -262144 -1 -1 1
1;
#X obj 121 176 f;
#X msg 237 252 0;
#X obj 304 170 f;
#X obj 725 459 s CONTROLrec_\$1-duration;
#X msg 471 636 duration_modal 0;
#X msg 717 201 goto \$1;
#X floatatom 677 176 5 0 0 0 - - -;
#X obj 109 540 bng 18 250 50 0 empty empty empty 0 -9 0 10 -262144
-1 -1;
#X msg 109 563 666;
#X floatatom 109 586 5 0 0 0 - - -;
#X msg 73 560 0;
#X obj 764 112 bng 18 250 50 0 empty empty empty 0 -9 0 10 -262144
-1 -1;
#X obj 717 177 f;
#X obj 728 108 b;
#X msg 830 275 clear;
#X obj 14 175 ||;
#X obj 52 176 t b f;
#X obj 189 438 route end progress time playing, f 45;
#X obj 442 472 tgl 18 0 empty empty empty 0 -9 0 10 -262144 -1 -1 0
1;
#X obj 442 495 == 0;
#X obj 374 336 spigot 1;
#X floatatom 772 234 5 0 0 0 - - -;
#X obj 725 328 route duration_mn duration_sec;
#X floatatom 676 369 5 0 0 0 - - -;
#X floatatom 809 366 5 0 0 0 - - -;
#X obj 725 379 * 60;
#X obj 725 402 +;
#X obj 756 403 t b f;
#X floatatom 692 430 5 0 0 0 - - -;
#X obj 727 486 r CONTROLrec_\$1-duration;
#X obj 727 509 f;
#X obj 727 555 t f f, f 8;
#X obj 727 580 div 60;
#X obj 772 581 mod 60;
#X msg 772 604 duration_sec \$1;
#X msg 727 628 duration_mn \$1;
#X msg 674 486 set \$1;
#X obj 119 24 r \$0-fromOSC;
#X obj 248 751 s \$0-toOSC;
#X msg 555 255 symbol \$1/recs_\$3/\$2;
#X obj 89 119 bng 15 250 50 0 empty empty empty 17 7 0 10 -262144 -1
-1;
#X msg 861 392 60;
#X obj 120 77 route play stop pause record recall save_ok saveas_name
loop ----- goto rewind clear_seq, f 122;
#X obj 555 185 getdir 2;
#X obj 929 328 route file;
#X obj 929 351 sel 1;
#X obj 929 379 getdir 2;
#X obj 929 402 list append \$1;
#X obj 1044 347 bng 15 250 50 0 empty empty empty 17 7 0 10 -262144
-1 -1;
#X obj 929 474 s toOSC;
#X msg 929 427 symbol \$1/recs_\$2;
#X obj 929 451 oscformat \$1 dir;
#X floatatom 807 537 5 0 0 0 - - -;
#X obj 727 532 f;
#X connect 0 0 1 0;
#X connect 0 1 24 0;
#X connect 1 0 32 0;
#X connect 2 0 24 0;
#X connect 2 1 3 0;
#X connect 3 0 32 0;
#X connect 4 0 34 0;
#X connect 5 0 7 0;
#X connect 5 1 6 0;
#X connect 6 0 8 0;
#X connect 6 0 11 1;
#X connect 7 0 10 0;
#X connect 8 0 7 1;
#X connect 9 0 34 0;
#X connect 10 0 11 0;
#X connect 11 0 9 0;
#X connect 12 0 56 0;
#X connect 13 0 56 0;
#X connect 14 0 56 0;
#X connect 15 0 16 0;
#X connect 16 0 79 0;
#X connect 16 1 17 1;
#X connect 17 0 26 0;
#X connect 18 0 34 0;
#X connect 19 0 12 0;
#X connect 20 0 36 0;
#X connect 20 1 29 0;
#X connect 21 0 22 0;
#X connect 22 0 38 0;
#X connect 22 1 27 0;
#X connect 23 0 20 0;
#X connect 24 0 25 0;
#X connect 24 0 28 0;
#X connect 24 0 32 0;
#X connect 24 0 37 0;
#X connect 26 0 75 0;
#X connect 27 0 34 0;
#X connect 28 0 34 0;
#X connect 29 0 34 0;
#X connect 30 0 34 0;
#X connect 31 0 53 0;
#X connect 33 0 32 0;
#X connect 34 0 74 0;
#X connect 36 0 0 0;
#X connect 36 0 35 0;
#X connect 37 0 23 1;
#X connect 37 0 21 1;
#X connect 38 0 2 0;
#X connect 40 0 34 0;
#X connect 41 0 56 0;
#X connect 43 0 44 0;
#X connect 44 0 45 0;
#X connect 46 0 45 0;
#X connect 48 0 41 0;
#X connect 48 0 57 0;
#X connect 49 0 48 0;
#X connect 50 0 56 0;
#X connect 52 0 51 0;
#X connect 52 1 51 1;
#X connect 53 0 28 0;
#X connect 53 0 43 0;
#X connect 53 1 4 0;
#X connect 53 2 5 0;
#X connect 53 3 54 0;
#X connect 54 0 55 0;
#X connect 55 0 56 1;
#X connect 56 0 32 0;
#X connect 58 0 59 0;
#X connect 58 0 61 0;
#X connect 58 1 60 0;
#X connect 58 1 63 0;
#X connect 58 2 80 0;
#X connect 61 0 62 0;
#X connect 62 0 64 0;
#X connect 62 0 39 0;
#X connect 62 0 72 0;
#X connect 63 0 62 0;
#X connect 63 1 62 1;
#X connect 65 0 66 0;
#X connect 66 0 89 0;
#X connect 67 0 68 0;
#X connect 67 1 69 0;
#X connect 68 0 71 0;
#X connect 69 0 70 0;
#X connect 70 0 34 0;
#X connect 71 0 34 0;
#X connect 72 0 89 0;
#X connect 73 0 78 0;
#X connect 75 0 14 0;
#X connect 77 0 39 0;
#X connect 77 0 72 0;
#X connect 78 0 21 1;
#X connect 78 0 23 0;
#X connect 78 0 76 0;
#X connect 78 1 24 0;
#X connect 78 3 21 0;
#X connect 78 3 23 1;
#X connect 78 4 19 0;
#X connect 78 4 30 0;
#X connect 78 5 13 0;
#X connect 78 5 18 0;
#X connect 78 6 30 0;
#X connect 78 6 15 0;
#X connect 78 7 33 0;
#X connect 78 9 42 0;
#X connect 78 9 48 0;
#X connect 78 10 47 0;
#X connect 78 10 49 0;
#X connect 78 11 50 0;
#X connect 78 12 58 0;
#X connect 79 0 17 0;
#X connect 80 0 81 0;
#X connect 81 0 82 0;
#X connect 82 0 83 0;
#X connect 83 0 86 0;
#X connect 84 0 82 0;
#X connect 86 0 87 0;
#X connect 87 0 85 0;
#X connect 89 0 67 0;
#X restore 56 331 pd OSC_interface;
#X obj 27 143 recorder \$1;
#X connect 3 0 5 0;
#X connect 5 0 2 0;
