#N canvas 212 364 1448 456 12;
#X obj 58 199 netsend -u -b;
#X floatatom 58 226 5 0 0 0 - - - 0;
#X obj 58 165 list trim;
#X obj 58 131 list prepend send;
#X obj 58 101 oscformat fw;
#X obj 58 73 list;
#X obj 328 28 r fromTeleco;
#X obj 61 263 presets_teleco lyreV PRESETS_LYREV 32;
#X obj 61 288 presets_teleco lyreV_xy PRESETS_LYREV_XY 16;
#X obj 61 313 presets_teleco lyreV_quad PRESETS_LYREV_QUAD 16;
#X obj 62 336 presets_teleco lyreV_shader PRESETS_LYREV_SHADER 16;
#X obj 328 78 s \$0-fromTeleco;
#X obj 58 43 r \$0-toMachine;
#X obj 469 24 r \$0-toTeleco;
#X obj 328 53 route \$1;
#X obj 469 83 oscformat \$1;
#X obj 469 55 list;
#X obj 469 110 s toTelecoDirect;
#X obj 1033 85 r \$0-fromTeleco;
#X msg 1033 135 home;
#X obj 1033 160 s \$0-toMachine;
#X msg 1076 138 crossfade \$1;
#X obj 1034 192 r \$0-toMachineRecOut;
#X msg 1034 242 crossfade \$1;
#X obj 1035 284 s \$0-toTeleco;
#X obj 1034 217 route crossfade line, f 28;
#X msg 1131 241 line \$1;
#X obj 207 89 r Lyre1_ip;
#X msg 207 157 disconnect \, connect \$1 20123;
#X obj 207 123 symbol;
#X obj 1264 161 s \$1-line;
#X obj 483 388 param_f \$0 master PRESETS_LYREV PRESETS_LYREV_SHADER \$1-line;
#X obj 600 23 r \$0-toMachine;
#X obj 600 79 list trim;
#X obj 600 107 s CONTROL;
#X obj 863 25 r PLAYED_CONTROL;
#X obj 863 75 s \$0-PLAYED_CONTROL;
#X obj 600 52 list prepend \$1;
#X obj 863 50 route \$1;
#X obj 1154 162 s \$1-crossfade;
#X obj 484 278 param_f \$0 film PRESETS_LYREV \$0-NOPRESET \$1-crossfade;
#X obj 483 412 param_f \$0 cache PRESETS_LYREV PRESETS_LYREV_SHADER \$1-line;
#X obj 483 345 param_3f \$0 rgb_1 PRESETS_LYREV PRESETS_LYREV_SHADER \$1-line;
#X obj 486 185 param_8f \$0 quad PRESETS_LYREV PRESETS_LYREV_QUAD \$1-line;
#X obj 486 158 param_2f \$0 pan_tilt PRESETS_LYREV PRESETS_LYREV_XY \$1-line;
#X obj 483 305 param_f \$0 bank PRESETS_LYREV \$0-NOPRESET;
#X obj 171 85 bng 20 250 50 0 empty empty empty 0 -10 0 12 #fcfcfc #000000 #000000;
#N canvas 755 213 1153 624 film_files 1;
#X obj 44 14 inlet;
#X obj 101 197 netsend, f 10;
#X obj 101 227 tgl 20 0 empty empty empty 0 -10 0 12 #fcfcfc #000000 #000000 0 1;
#X msg 101 165 disconnect \, connect \$1 20124;
#X obj 168 226 route filmfiles;
#X obj 168 283 list;
#X obj 187 581 s \$0-toTeleco;
#X obj 137 222 bng 20 250 50 0 empty empty empty 0 -10 0 12 #fcfcfc #000000 #000000;
#X obj 49 390 list split 1;
#X obj 187 391 list split 1;
#X obj 168 308 t a b, f 16;
#X obj 187 516 pack s f;
#X obj 297 390 i;
#X obj 330 390 + 1;
#X obj 164 354 t a a b;
#X msg 277 347 1;
#X msg 187 554 film\$2_text \$1;
#X obj 168 255 t b a;
#X obj 352 229 metro 10000;
#X obj 444 230 == 0;
#X obj 101 138 symbol;
#X obj 44 43 t b s;
#X obj 352 202 tgl 20 0 empty empty empty 0 -10 0 12 #fcfcfc #000000 #000000 0 1;
#X obj 187 423 list fromsymbol;
#X listbox 21 282 20 0 0 0 - - - 0;
#X obj 187 448 list split 2;
#X obj 227 476 list tosymbol;
#X obj 509 16 r \$0-fromTeleco;
#X obj 509 42 unpack s f;
#X obj 509 93 list fromsymbol;
#X obj 509 187 list split 4, f 28;
#X obj 509 212 list tosymbol;
#X obj 509 237 sel film;
#X obj 610 213 fudiparse;
#X obj 509 262 b;
#X obj 509 287 f;
#X msg 604 336 film \$1;
#X obj 604 361 s \$0-fromTeleco;
#X obj 509 312 t b f, f 14;
#X msg 509 387 1 \, 2 \, 3 \, 4 \, 5 \, 6 \, 7 \, 8 \, 9 \, 10 \, 11 \, 12;
#X obj 509 412 t f f;
#X obj 541 438 ==;
#X obj 509 468 pack f f;
#X msg 509 493 film\$1 \$2;
#X obj 509 518 s \$0-toTeleco;
#X obj 352 254 spigot 1, f 14;
#X obj 753 95 route bank;
#X msg 753 120 bank_popup 0;
#X obj 447 44 print;
#X msg 635 306 2;
#X obj 509 120 t a a;
#X obj 509 154 spigot;
#X obj 564 119 list length;
#X obj 564 144 > 4;
#X obj 860 7 r \$0-toTeleco;
#X obj 860 58 route film;
#X msg 834 390 1 \, 2 \, 3 \, 4 \, 5 \, 6 \, 7 \, 8 \, 9 \, 10 \, 11 \, 12;
#X obj 834 415 t f f;
#X obj 866 441 ==;
#X obj 834 471 pack f f;
#X msg 834 496 film\$1 \$2;
#X obj 834 521 s \$0-toTeleco;
#X obj 860 83 t b f;
#X floatatom 961 129 5 0 0 0 - - - 0;
#X obj 987 82 print;
#X obj 860 33 list trim;
#X obj 610 238 route float;
#X obj 352 172 f 1;
#X obj 304 45 r settings_onoff;
#X obj 304 70 route \$1;
#X obj 304 95 tgl 20 0 empty empty empty 0 -10 0 12 #fcfcfc #000000 #000000 0 1;
#X connect 0 0 21 0;
#X connect 1 0 2 0;
#X connect 1 1 4 0;
#X connect 2 0 19 0;
#X connect 3 0 1 0;
#X connect 4 0 17 0;
#X connect 5 0 10 0;
#X connect 7 0 5 0;
#X connect 8 1 14 0;
#X connect 9 0 23 0;
#X connect 10 0 14 0;
#X connect 10 1 15 0;
#X connect 11 0 16 0;
#X connect 12 0 13 0;
#X connect 12 0 11 1;
#X connect 13 0 12 1;
#X connect 14 0 8 0;
#X connect 14 1 9 0;
#X connect 14 2 12 0;
#X connect 15 0 12 1;
#X connect 16 0 6 0;
#X connect 17 0 5 0;
#X connect 17 1 5 1;
#X connect 18 0 45 0;
#X connect 19 0 45 1;
#X connect 20 0 3 0;
#X connect 20 0 24 0;
#X connect 21 0 67 0;
#X connect 21 1 20 1;
#X connect 22 0 18 0;
#X connect 23 0 25 0;
#X connect 25 1 26 0;
#X connect 26 0 11 0;
#X connect 27 0 28 0;
#X connect 27 0 46 0;
#X connect 28 0 29 0;
#X connect 29 0 50 0;
#X connect 30 0 31 0;
#X connect 30 1 33 0;
#X connect 31 0 32 0;
#X connect 32 0 34 0;
#X connect 33 0 66 0;
#X connect 34 0 35 0;
#X connect 35 0 38 0;
#X connect 36 0 37 0;
#X connect 38 0 39 0;
#X connect 38 1 36 0;
#X connect 38 1 41 1;
#X connect 39 0 40 0;
#X connect 40 0 42 0;
#X connect 40 1 41 0;
#X connect 41 0 42 1;
#X connect 42 0 43 0;
#X connect 43 0 44 0;
#X connect 45 0 20 0;
#X connect 46 0 47 0;
#X connect 47 0 44 0;
#X connect 49 0 36 0;
#X connect 50 0 51 0;
#X connect 50 1 52 0;
#X connect 51 0 30 0;
#X connect 52 0 53 0;
#X connect 53 0 51 1;
#X connect 54 0 65 0;
#X connect 55 0 62 0;
#X connect 55 0 63 0;
#X connect 56 0 57 0;
#X connect 57 0 59 0;
#X connect 57 1 58 0;
#X connect 58 0 59 1;
#X connect 59 0 60 0;
#X connect 60 0 61 0;
#X connect 62 0 56 0;
#X connect 62 1 58 1;
#X connect 65 0 55 0;
#X connect 66 0 35 1;
#X connect 67 0 22 0;
#X connect 68 0 69 0;
#X connect 69 0 70 0;
#X connect 70 0 67 0;
#X restore 238 190 pd film_files;
#X obj 721 80 list trim;
#X obj 721 53 list prepend \$1;
#X obj 721 24 r \$0-toRecord;
#X obj 721 108 s REC_CONTROL;
#X obj 1033 110 route home crossfade line bank, f 34;
#X msg 1208 137 bank \$1;
#X connect 0 0 1 0;
#X connect 2 0 0 0;
#X connect 3 0 2 0;
#X connect 4 0 3 0;
#X connect 5 0 4 0;
#X connect 6 0 14 0;
#X connect 12 0 5 0;
#X connect 13 0 16 0;
#X connect 14 0 11 0;
#X connect 15 0 17 0;
#X connect 16 0 15 0;
#X connect 18 0 52 0;
#X connect 19 0 20 0;
#X connect 21 0 20 0;
#X connect 22 0 25 0;
#X connect 25 0 23 0;
#X connect 25 1 26 0;
#X connect 27 0 29 0;
#X connect 28 0 0 0;
#X connect 29 0 28 0;
#X connect 29 0 47 0;
#X connect 32 0 37 0;
#X connect 33 0 34 0;
#X connect 35 0 38 0;
#X connect 37 0 33 0;
#X connect 38 0 36 0;
#X connect 46 0 29 0;
#X connect 48 0 51 0;
#X connect 49 0 48 0;
#X connect 50 0 49 0;
#X connect 52 0 19 0;
#X connect 52 1 39 0;
#X connect 52 2 30 0;
#X connect 52 3 53 0;
#X connect 53 0 20 0;
