#N canvas 961 384 985 600 12;
#X declare -path Fraise -path Fraise/pic;
#X msg 172 211 WRITE;
#X msg 166 507 WRITE;
#X obj 80 535 fruit/send2 motorZ;
#N canvas 947 210 1201 774 test-X 1;
#X msg 39 101 c 120 c 4 i \$1;
#X obj 42 69 hsl 128 15 -1023 1023 0 0 empty empty empty -2 -8 0 10 #fcfcfc #000000 #000000 0 1;
#X msg 39 34 0;
#X obj 244 28 analog/parse;
#X obj 244 53 route 0;
#X floatatom 244 147 5 0 0 0 - - - 0;
#X obj 244 84 - 4096;
#X obj 244 115 - 50;
#X obj 272 171 mavg 30;
#X floatatom 244 199 5 0 0 0 - - - 0;
#X text 311 97 136 mV/A à 5 Vcc;
#X text 313 113 5V=8192: 0.61mV/step;
#X text 316 131 136/0.61 =223 step/A;
#X obj 244 248 * 1000;
#X floatatom 244 273 5 0 0 0 mA - - 0;
#X obj 244 223 / 223;
#X obj 488 81 route 10;
#X obj 488 106 list split 2;
#X obj 488 131 unpack f f;
#X obj 488 156 * 256;
#X obj 488 181 +;
#X floatatom 488 237 8 0 0 3 pos - - 0;
#X obj 581 179 tgl 15 0 empty empty zeroSw 0 23 0 10 #fcfcfc #000000 #000000 0 1;
#X obj 677 105 list split 2;
#X obj 677 130 unpack f f;
#X obj 677 155 * 256;
#X obj 677 180 +;
#X floatatom 677 244 5 0 0 3 pwm - - 0;
#X obj 771 105 list split 2;
#X obj 771 130 unpack f f;
#X obj 771 155 * 256;
#X obj 771 180 +;
#X floatatom 771 211 5 0 0 3 ramp - - 0;
#X obj 864 104 list split 1;
#X obj 864 133 tgl 15 0 empty empty homed 0 23 0 10 #fcfcfc #000000 #000000 0 1;
#N canvas 908 392 450 300 (subpatch) 0;
#X obj 37 37 inlet;
#X obj 37 62 moses 32768;
#X obj 111 141 outlet;
#X obj 111 116 - 65536;
#X obj 111 91 * 1;
#X connect 0 0 1 0;
#X connect 1 0 2 0;
#X connect 1 1 4 0;
#X connect 3 0 2 0;
#X connect 4 0 3 0;
#X restore 677 205 pd;
#N canvas 856 392 450 300 (subpatch) 0;
#X obj 37 37 inlet;
#X obj 37 86 moses 32768;
#X obj 111 165 outlet;
#X obj 111 140 - 65536;
#X obj 111 115 * 1;
#X obj 37 61 change;
#X connect 0 0 5 0;
#X connect 1 0 2 0;
#X connect 1 1 4 0;
#X connect 3 0 2 0;
#X connect 4 0 3 0;
#X connect 5 0 1 0;
#X restore 488 209 pd;
#X msg 380 344 dest \$1;
#X msg 296 318 0;
#X msg 497 314 10000;
#X msg 418 314 5000;
#X msg 369 317 2000;
#X obj 245 317 print;
#X obj 614 286 hsl 128 15 -1023 1023 0 0 empty empty empty -2 -8 0 10 #fcfcfc #000000 #000000 0 1;
#X msg 336 317 800;
#X text 696 360 800 steps/tour;
#X obj 629 357 / 800;
#X obj 629 382 * 3.14159;
#X obj 629 407 * 100;
#X text 678 409 wheel diameter in mm;
#X floatatom 629 432 5 0 0 1 mm - - 0;
#X obj 637 462 i;
#X obj 637 508 / 1000;
#X floatatom 637 533 8 0 0 0 - - - 0;
#X obj 329 467 / 100;
#X obj 329 492 / 3.14159;
#X obj 329 517 * 800;
#X msg 328 436 0;
#X msg 412 433 1000;
#X text 193 437 destination in mm:;
#X msg 370 431 100;
#X obj 18 583 hsl 900 15 0 2 0 0 empty empty empty -2 -8 0 10 #fcfcfc #000000 #000000 0 1;
#X obj 637 485 change;
#X obj 477 502 timer;
#X obj 459 458 b;
#X obj 509 477 bng 15 250 50 0 empty empty empty 17 7 0 10 #fcfcfc #000000 #000000;
#X floatatom 477 527 7 0 0 0 - - - 0;
#X obj 18 562 hsl 900 15 0 2 0 0 empty empty empty -2 -8 0 10 #fcfcfc #000000 #000000 0 0;
#X obj 61 517 * 1000;
#X msg 639 324 1;
#X text 699 434 theoric precision 0.4mm;
#X msg 459 433 2;
#X obj 904 130 list split 1;
#X floatatom 904 155 5 0 0 0 - - - 0;
#X obj 37 491 bng 15 250 50 0 empty empty empty 17 7 0 10 #fcfcfc #000000 #000000;
#X obj 835 308 r axisGoto\$1;
#X text 911 444 destination in mm:;
#X floatatom 952 464 5 0 0 0 - - - 0;
#X obj 952 488 s axisGotoX;
#X obj 51 669 hsl 900 15 0 2000 0 0 empty axisRampPosX empty -2 -8 0 10 #fcfcfc #000000 #000000 0 1;
#X obj 51 648 hsl 900 15 0 2000 0 0 axisGotoX empty empty -2 -8 0 10 #fcfcfc #000000 #000000 0 1;
#X obj 51 688 hsl 900 15 0 2000 0 0 empty axisPosX empty -2 -8 0 10 #fcfcfc #000000 #000000 0 1;
#X msg 89 199 c 130 c 0;
#X text 90 179 stop;
#X obj 931 261 -;
#X obj 940 237 t b f;
#X obj 931 286 / 800;
#X obj 931 311 * 3.14159;
#X floatatom 931 361 5 0 0 0 error(mm) - - 0;
#X obj 931 336 * 100;
#X obj 581 105 list split 1;
#X obj 244 3 fruit/receive motorXY;
#X obj 39 135 fruit/send2 motorXY;
#X obj 380 368 s motorXY-motX-ramp-params;
#X obj 872 457 i;
#X obj 872 503 / 1000;
#X obj 872 480 change;
#X obj 18 602 hsl 900 15 0 2 0 0 empty empty empty -2 -8 0 10 #fcfcfc #000000 #000000 0 1;
#X obj 872 382 / 800;
#X obj 872 407 * 3.14159;
#X obj 872 432 * 100;
#X floatatom 996 277 5 0 0 0 - - - 0;
#X msg 189 381 length 5100;
#X obj 61 275 r 3moteurs_goto_X;
#X obj 61 300 / 360;
#X obj 61 325 * 5100;
#X connect 0 0 92 0;
#X connect 1 0 0 0;
#X connect 2 0 1 0;
#X connect 3 0 4 0;
#X connect 4 0 6 0;
#X connect 5 0 9 0;
#X connect 6 0 7 0;
#X connect 7 0 5 0;
#X connect 9 0 15 0;
#X connect 13 0 14 0;
#X connect 15 0 13 0;
#X connect 16 0 17 0;
#X connect 17 0 18 0;
#X connect 17 1 90 0;
#X connect 18 0 19 0;
#X connect 18 1 20 1;
#X connect 19 0 20 0;
#X connect 20 0 36 0;
#X connect 21 0 84 0;
#X connect 21 0 98 0;
#X connect 23 0 24 0;
#X connect 23 1 28 0;
#X connect 24 0 25 0;
#X connect 24 1 26 1;
#X connect 25 0 26 0;
#X connect 26 0 35 0;
#X connect 27 0 43 0;
#X connect 28 0 29 0;
#X connect 28 1 33 0;
#X connect 29 0 30 0;
#X connect 29 1 31 1;
#X connect 30 0 31 0;
#X connect 31 0 32 0;
#X connect 32 0 46 0;
#X connect 32 0 85 0;
#X connect 33 0 34 0;
#X connect 33 1 72 0;
#X connect 35 0 27 0;
#X connect 36 0 21 0;
#X connect 37 0 93 0;
#X connect 38 0 37 0;
#X connect 39 0 37 0;
#X connect 40 0 37 0;
#X connect 41 0 37 0;
#X connect 44 0 37 0;
#X connect 46 0 47 0;
#X connect 47 0 48 0;
#X connect 48 0 50 0;
#X connect 50 0 51 0;
#X connect 51 0 62 0;
#X connect 52 0 53 0;
#X connect 53 0 61 0;
#X connect 54 0 55 0;
#X connect 55 0 56 0;
#X connect 56 0 37 0;
#X connect 57 0 54 0;
#X connect 58 0 54 0;
#X connect 60 0 54 0;
#X connect 62 0 52 0;
#X connect 63 0 66 0;
#X connect 64 0 63 0;
#X connect 65 0 63 1;
#X connect 67 0 68 0;
#X connect 68 0 54 0;
#X connect 69 0 46 0;
#X connect 71 0 64 0;
#X connect 71 0 67 0;
#X connect 72 0 73 0;
#X connect 74 0 67 0;
#X connect 77 0 78 0;
#X connect 82 0 92 0;
#X connect 84 0 86 0;
#X connect 84 0 101 0;
#X connect 85 0 84 0;
#X connect 85 1 84 1;
#X connect 86 0 87 0;
#X connect 87 0 89 0;
#X connect 89 0 88 0;
#X connect 90 0 22 0;
#X connect 90 1 23 0;
#X connect 91 0 3 0;
#X connect 91 0 16 0;
#X connect 94 0 96 0;
#X connect 95 0 97 0;
#X connect 96 0 95 0;
#X connect 98 0 99 0;
#X connect 99 0 100 0;
#X connect 100 0 94 0;
#X connect 102 0 93 0;
#X connect 103 0 104 0;
#X connect 104 0 105 0;
#X connect 105 0 37 0;
#X restore 16 154 pd test-X;
#X text 177 477 5200;
#N canvas 361 282 1076 624 test-Z 0;
#X msg 39 97 c 120 c 4 i \$1;
#X obj 42 65 hsl 128 15 -1023 1023 0 0 empty empty empty -2 -8 0 10 #fcfcfc #000000 #000000 0 1;
#X msg 39 30 0;
#X obj 244 28 analog/parse;
#X obj 244 53 route 0;
#X floatatom 244 147 5 0 0 0 - - - 0;
#X obj 244 84 - 4096;
#X obj 244 115 - 50;
#X obj 272 171 mavg 30;
#X floatatom 244 199 5 0 0 0 - - - 0;
#X text 311 97 136 mV/A à 5 Vcc;
#X text 313 113 5V=8192: 0.61mV/step;
#X text 316 131 136/0.61 =223 step/A;
#X obj 244 248 * 1000;
#X floatatom 244 273 5 0 0 0 mA - - 0;
#X obj 244 223 / 223;
#X obj 488 81 route 10;
#X obj 488 106 list split 2;
#X obj 488 131 unpack f f;
#X obj 488 156 * 256;
#X obj 488 181 +;
#X floatatom 488 237 8 0 0 3 pos - - 0;
#X obj 558 195 tgl 15 0 empty empty zeroSw 0 23 0 10 #fcfcfc #000000 #000000 0 1;
#X obj 677 105 list split 2;
#X obj 677 130 unpack f f;
#X obj 677 155 * 256;
#X obj 677 180 +;
#X floatatom 677 244 5 0 0 3 pwm - - 0;
#X obj 771 105 list split 2;
#X obj 771 130 unpack f f;
#X obj 771 155 * 256;
#X obj 771 180 +;
#X floatatom 771 226 5 0 0 3 ramp - - 0;
#X obj 864 104 list split 1;
#X obj 864 133 tgl 15 0 empty empty homed 0 23 0 10 #fcfcfc #000000 #000000 0 1;
#N canvas 856 392 450 300 (subpatch) 0;
#X obj 37 11 inlet;
#X obj 37 62 moses 32768;
#X obj 111 141 outlet;
#X obj 111 116 - 65536;
#X obj 111 91 * 1;
#X obj 37 36 change;
#X connect 0 0 5 0;
#X connect 1 0 2 0;
#X connect 1 1 4 0;
#X connect 3 0 2 0;
#X connect 4 0 3 0;
#X connect 5 0 1 0;
#X restore 677 205 pd;
#N canvas 804 392 450 300 (subpatch) 0;
#X obj 37 37 inlet;
#X obj 37 86 moses 32768;
#X obj 111 165 outlet;
#X obj 111 140 - 65536;
#X obj 111 115 * 1;
#X obj 37 61 change;
#X connect 0 0 5 0;
#X connect 1 0 2 0;
#X connect 1 1 4 0;
#X connect 3 0 2 0;
#X connect 4 0 3 0;
#X connect 5 0 1 0;
#X restore 488 209 pd;
#X msg 380 344 dest \$1;
#X msg 296 318 0;
#X msg 497 314 10000;
#X msg 418 314 5000;
#X msg 369 317 2000;
#X obj 245 317 print;
#X obj 614 286 hsl 128 15 -1023 1023 0 0 empty empty empty -2 -8 0 10 #fcfcfc #000000 #000000 0 1;
#X msg 336 317 800;
#X obj 629 382 * 3.14159;
#X text 678 409 wheel diameter in mm;
#X floatatom 629 432 5 0 0 1 mm - - 0;
#X obj 637 462 i;
#X obj 637 508 / 1000;
#X floatatom 637 533 8 0 0 0 - - - 0;
#X obj 329 492 / 3.14159;
#X msg 328 436 0;
#X msg 412 433 1000;
#X text 193 437 destination in mm:;
#X msg 370 431 100;
#X obj 18 583 hsl 900 15 0 0.8 0 0 empty empty empty -2 -8 0 10 #fcfcfc #000000 #000000 0 1;
#X obj 637 485 change;
#X obj 477 502 timer;
#X obj 459 458 b;
#X obj 509 477 bng 15 250 50 0 empty empty empty 17 7 0 10 #fcfcfc #000000 #000000;
#X floatatom 477 527 7 0 0 0 - - - 0;
#X obj 18 562 hsl 900 15 0 0.8 0 0 empty empty empty -2 -8 0 10 #fcfcfc #000000 #000000 0 0;
#X obj 61 517 * 1000;
#X msg 639 324 1;
#X obj 904 130 list split 1;
#X floatatom 904 155 5 0 0 0 - - - 0;
#X obj 422 247 / 4;
#X floatatom 422 272 5 0 0 0 - - - 0;
#X obj 759 272 * 4;
#X floatatom 759 297 10 0 0 0 - - - 0;
#X obj 771 203 change;
#X floatatom 379 216 5 0 0 0 - - - 0;
#X text 699 434 theoric precision 0.04mm/step, f 32;
#X text 702 448 window = +-10steps -> +- 0.4mm, f 35;
#X msg 459 433 0.8;
#X obj 932 229 -;
#X obj 941 205 t b f;
#X obj 932 279 * 3.14159;
#X floatatom 932 329 5 0 0 0 error(mm) - - 0;
#X obj 39 135 fruit/send2 motorZ;
#X obj 244 3 fruit/receive motorZ;
#X obj 380 368 s motorZ-motor-ramp-params;
#X obj 629 357 / 560;
#X obj 629 407 * 20;
#X obj 329 467 / 20;
#X obj 330 518 * 560;
#X obj 932 254 / 560;
#X obj 932 304 * 20;
#X msg 158 90 c 140 c \$1;
#X obj 158 63 tgl 15 0 empty empty empty 17 7 0 10 #fcfcfc #000000 #000000 0 1;
#X text 674 355 560 steps/tour (32steps*reduct70/4);
#X obj 158 34 r Zcoil;
#X msg 96 175 c 130 c 0;
#X text 97 155 stop;
#X obj 581 105 list split 1;
#X floatatom 316 364 5 0 0 0 - - - 0;
#X msg 14 403 speed 3700 \, accel 1500 \, decel 1500 \, length 7130;
#X msg 164 341 length 5100;
#X obj 36 260 / 360;
#X obj 36 285 * 5100;
#X obj 36 235 r 3moteurs_goto_Z;
#X connect 0 0 80 0;
#X connect 1 0 0 0;
#X connect 2 0 1 0;
#X connect 3 0 4 0;
#X connect 4 0 6 0;
#X connect 5 0 9 0;
#X connect 6 0 7 0;
#X connect 7 0 5 0;
#X connect 9 0 15 0;
#X connect 13 0 14 0;
#X connect 15 0 13 0;
#X connect 16 0 17 0;
#X connect 17 0 18 0;
#X connect 17 1 95 0;
#X connect 18 0 19 0;
#X connect 18 1 20 1;
#X connect 19 0 20 0;
#X connect 20 0 36 0;
#X connect 20 0 72 0;
#X connect 21 0 67 0;
#X connect 23 0 24 0;
#X connect 23 1 28 0;
#X connect 24 0 25 0;
#X connect 24 1 26 1;
#X connect 25 0 26 0;
#X connect 26 0 35 0;
#X connect 27 0 43 0;
#X connect 28 0 29 0;
#X connect 28 1 33 0;
#X connect 29 0 30 0;
#X connect 29 1 31 1;
#X connect 30 0 31 0;
#X connect 31 0 71 0;
#X connect 32 0 69 0;
#X connect 32 0 77 0;
#X connect 32 0 83 0;
#X connect 33 0 34 0;
#X connect 33 1 65 0;
#X connect 35 0 27 0;
#X connect 36 0 21 0;
#X connect 37 0 82 0;
#X connect 38 0 37 0;
#X connect 39 0 37 0;
#X connect 40 0 37 0;
#X connect 41 0 37 0;
#X connect 44 0 37 0;
#X connect 45 0 84 0;
#X connect 47 0 48 0;
#X connect 48 0 57 0;
#X connect 49 0 50 0;
#X connect 50 0 56 0;
#X connect 51 0 86 0;
#X connect 52 0 85 0;
#X connect 53 0 85 0;
#X connect 55 0 85 0;
#X connect 57 0 49 0;
#X connect 58 0 61 0;
#X connect 59 0 58 0;
#X connect 60 0 58 1;
#X connect 62 0 63 0;
#X connect 63 0 85 0;
#X connect 64 0 83 0;
#X connect 65 0 66 0;
#X connect 67 0 68 0;
#X connect 67 0 76 0;
#X connect 69 0 70 0;
#X connect 71 0 32 0;
#X connect 75 0 59 0;
#X connect 75 0 62 0;
#X connect 76 0 87 0;
#X connect 77 0 76 0;
#X connect 77 1 76 1;
#X connect 78 0 88 0;
#X connect 81 0 3 0;
#X connect 81 0 16 0;
#X connect 83 0 45 0;
#X connect 84 0 47 0;
#X connect 85 0 51 0;
#X connect 86 0 37 0;
#X connect 87 0 78 0;
#X connect 88 0 79 0;
#X connect 89 0 80 0;
#X connect 90 0 89 0;
#X connect 92 0 90 0;
#X connect 93 0 80 0;
#X connect 95 0 22 0;
#X connect 95 1 23 0;
#X connect 96 0 37 0;
#X connect 97 0 82 0;
#X connect 98 0 82 0;
#X connect 99 0 100 0;
#X connect 100 0 37 0;
#X connect 101 0 99 0;
#X restore 10 455 pd test-Z;
#X obj 793 80 loadbang;
#X obj 791 118 del 8000;
#X msg 791 144 homed 0;
#X obj 16 178 motorState X 1 800 100 1;
#X obj 11 479 motorState Z 4 560 20 0;
#X obj 7 4 declare -path Fraise -path Fraise/pic;
#N canvas 330 181 1063 661 test-Y 0;
#X obj 42 69 hsl 128 15 -1023 1023 0 0 empty empty empty -2 -8 0 10 #fcfcfc #000000 #000000 0 1;
#X msg 39 34 0;
#X obj 244 28 analog/parse;
#X obj 244 53 route 0;
#X floatatom 244 147 5 0 0 0 - - - 0;
#X obj 244 84 - 4096;
#X obj 244 115 - 50;
#X obj 272 171 mavg 30;
#X floatatom 244 199 5 0 0 0 - - - 0;
#X text 311 97 136 mV/A à 5 Vcc;
#X text 313 113 5V=8192: 0.61mV/step;
#X text 316 131 136/0.61 =223 step/A;
#X obj 244 248 * 1000;
#X floatatom 244 273 5 0 0 0 mA - - 0;
#X obj 244 223 / 223;
#X obj 488 106 list split 2;
#X obj 488 131 unpack f f;
#X obj 488 156 * 256;
#X obj 488 181 +;
#X floatatom 488 237 8 0 0 3 pos - - 0;
#X obj 581 179 tgl 15 0 empty empty zeroSw 0 23 0 10 #fcfcfc #000000 #000000 0 1;
#X obj 677 105 list split 2;
#X obj 677 130 unpack f f;
#X obj 677 155 * 256;
#X obj 677 180 +;
#X floatatom 677 244 5 0 0 3 pwm - - 0;
#X obj 771 105 list split 2;
#X obj 771 130 unpack f f;
#X obj 771 155 * 256;
#X obj 771 180 +;
#X floatatom 771 211 5 0 0 3 ramp - - 0;
#X obj 864 104 list split 1;
#X obj 864 133 tgl 15 0 empty empty homed 0 23 0 10 #fcfcfc #000000 #000000 0 1;
#N canvas 908 392 450 300 (subpatch) 0;
#X obj 37 37 inlet;
#X obj 37 62 moses 32768;
#X obj 111 141 outlet;
#X obj 111 116 - 65536;
#X obj 111 91 * 1;
#X connect 0 0 1 0;
#X connect 1 0 2 0;
#X connect 1 1 4 0;
#X connect 3 0 2 0;
#X connect 4 0 3 0;
#X restore 677 205 pd;
#N canvas 856 392 450 300 (subpatch) 0;
#X obj 37 37 inlet;
#X obj 37 86 moses 32768;
#X obj 111 165 outlet;
#X obj 111 140 - 65536;
#X obj 111 115 * 1;
#X obj 37 61 change;
#X connect 0 0 5 0;
#X connect 1 0 2 0;
#X connect 1 1 4 0;
#X connect 3 0 2 0;
#X connect 4 0 3 0;
#X connect 5 0 1 0;
#X restore 488 209 pd;
#X msg 380 344 dest \$1;
#X msg 296 318 0;
#X msg 497 314 10000;
#X msg 418 314 5000;
#X msg 369 317 2000;
#X obj 245 317 print;
#X obj 614 286 hsl 128 15 -1023 1023 0 0 empty empty empty -2 -8 0 10 #fcfcfc #000000 #000000 0 1;
#X msg 336 317 800;
#X text 696 360 800 steps/tour;
#X obj 629 357 / 800;
#X obj 629 382 * 3.14159;
#X obj 629 407 * 100;
#X text 678 409 wheel diameter in mm;
#X floatatom 629 432 5 0 0 1 mm - - 0;
#X obj 637 462 i;
#X obj 637 508 / 1000;
#X floatatom 637 533 8 0 0 0 - - - 0;
#X obj 329 467 / 100;
#X obj 329 492 / 3.14159;
#X obj 329 517 * 800;
#X msg 328 436 0;
#X msg 412 433 1000;
#X text 193 437 destination in mm:;
#X msg 370 431 100;
#X obj 18 583 hsl 900 15 0 2 0 0 empty empty empty -2 -8 0 10 #fcfcfc #000000 #000000 0 1;
#X obj 637 485 change;
#X obj 477 502 timer;
#X obj 459 458 b;
#X obj 509 477 bng 15 250 50 0 empty empty empty 17 7 0 10 #fcfcfc #000000 #000000;
#X floatatom 477 527 7 0 0 0 - - - 0;
#X obj 18 562 hsl 900 15 0 2 0 0 empty empty empty -2 -8 0 10 #fcfcfc #000000 #000000 0 0;
#X obj 61 517 * 1000;
#X msg 639 324 1;
#X text 699 434 theoric precision 0.4mm;
#X msg 459 433 2;
#X obj 904 130 list split 1;
#X floatatom 904 155 5 0 0 0 - - - 0;
#X obj 37 491 bng 15 250 50 0 empty empty empty 17 7 0 10 #fcfcfc #000000 #000000;
#X text 911 444 destination in mm:;
#X floatatom 952 464 5 0 0 0 - - - 0;
#X obj 952 488 s axisGotoX;
#X obj 51 669 hsl 900 15 0 2000 0 0 empty axisRampPosX empty -2 -8 0 10 #fcfcfc #000000 #000000 0 1;
#X obj 51 648 hsl 900 15 0 2000 0 0 axisGotoX empty empty -2 -8 0 10 #fcfcfc #000000 #000000 0 1;
#X obj 51 688 hsl 900 15 0 2000 0 0 empty axisPosX empty -2 -8 0 10 #fcfcfc #000000 #000000 0 1;
#X msg 89 199 c 130 c 0;
#X text 90 179 stop;
#X obj 931 261 -;
#X obj 940 237 t b f;
#X obj 931 286 / 800;
#X obj 931 311 * 3.14159;
#X floatatom 931 361 5 0 0 0 error(mm) - - 0;
#X obj 931 336 * 100;
#X obj 581 105 list split 1;
#X obj 244 3 fruit/receive motorXY;
#X obj 39 135 fruit/send2 motorXY;
#X msg 39 101 c 121 c 4 i \$1;
#X obj 488 81 route 11;
#X obj 380 369 s motorXY-motY-ramp-params;
#X obj 61 300 / 360;
#X obj 61 325 * 5100;
#X msg 159 389 length 5100;
#X obj 61 275 r 3moteurs_goto_Y;
#X connect 0 0 90 0;
#X connect 1 0 0 0;
#X connect 2 0 3 0;
#X connect 3 0 5 0;
#X connect 4 0 8 0;
#X connect 5 0 6 0;
#X connect 6 0 4 0;
#X connect 8 0 14 0;
#X connect 12 0 13 0;
#X connect 14 0 12 0;
#X connect 15 0 16 0;
#X connect 15 1 87 0;
#X connect 16 0 17 0;
#X connect 16 1 18 1;
#X connect 17 0 18 0;
#X connect 18 0 34 0;
#X connect 19 0 81 0;
#X connect 21 0 22 0;
#X connect 21 1 26 0;
#X connect 22 0 23 0;
#X connect 22 1 24 1;
#X connect 23 0 24 0;
#X connect 24 0 33 0;
#X connect 25 0 41 0;
#X connect 26 0 27 0;
#X connect 26 1 31 0;
#X connect 27 0 28 0;
#X connect 27 1 29 1;
#X connect 28 0 29 0;
#X connect 29 0 30 0;
#X connect 30 0 44 0;
#X connect 30 0 82 0;
#X connect 31 0 32 0;
#X connect 31 1 70 0;
#X connect 33 0 25 0;
#X connect 34 0 19 0;
#X connect 35 0 92 0;
#X connect 36 0 35 0;
#X connect 37 0 35 0;
#X connect 38 0 35 0;
#X connect 39 0 35 0;
#X connect 42 0 35 0;
#X connect 44 0 45 0;
#X connect 45 0 46 0;
#X connect 46 0 48 0;
#X connect 48 0 49 0;
#X connect 49 0 60 0;
#X connect 50 0 51 0;
#X connect 51 0 59 0;
#X connect 52 0 53 0;
#X connect 53 0 54 0;
#X connect 54 0 35 0;
#X connect 55 0 52 0;
#X connect 56 0 52 0;
#X connect 58 0 52 0;
#X connect 60 0 50 0;
#X connect 61 0 64 0;
#X connect 62 0 61 0;
#X connect 63 0 61 1;
#X connect 65 0 66 0;
#X connect 66 0 52 0;
#X connect 67 0 44 0;
#X connect 69 0 62 0;
#X connect 69 0 65 0;
#X connect 70 0 71 0;
#X connect 72 0 65 0;
#X connect 74 0 75 0;
#X connect 79 0 89 0;
#X connect 81 0 83 0;
#X connect 82 0 81 0;
#X connect 82 1 81 1;
#X connect 83 0 84 0;
#X connect 84 0 86 0;
#X connect 86 0 85 0;
#X connect 87 0 20 0;
#X connect 87 1 21 0;
#X connect 88 0 2 0;
#X connect 88 0 91 0;
#X connect 90 0 89 0;
#X connect 91 0 15 0;
#X connect 93 0 94 0;
#X connect 94 0 35 0;
#X connect 95 0 92 0;
#X connect 96 0 93 0;
#X restore 17 274 pd test-Y;
#X obj 84 235 fruit/send2 motorXY;
#X obj 791 168 s motorXY-motor-params;
#X obj 237 48 dcmotor motorXY 120 motX;
#X obj 238 224 dcmotor motorXY 121 motY;
#X obj 239 403 dcmotor motorZ 120 motor;
#X obj 16 105 fruit/fruit 1 motorXY \$1 2motors_fw;
#X obj 8 403 fruit/fruit 1 motorZ \$2 2motors_fw;
#X obj 16 81 settings/onoff 3motorsXY;
#X obj 8 380 settings/onoff 3motorsZ;
#X obj 16 31 fruit/receive motorXY;
#X obj 16 56 route present;
#X obj 8 356 route present;
#X obj 8 331 fruit/receive motorZ;
#X connect 0 0 13 1;
#X connect 1 0 2 1;
#X connect 7 0 8 0;
#X connect 8 0 14 0;
#X connect 20 0 18 0;
#X connect 21 0 19 0;
#X connect 22 0 23 0;
#X connect 23 0 20 0;
#X connect 24 0 21 0;
#X connect 25 0 24 0;
