#N canvas 1224 36 526 436 12;
#X obj 19 13 fraise_interface \$1 \$2;
#X obj 38 59 preset/preset 3moteurs_preset 16;
#X obj 85 260 r fromOSC;
#X obj 85 314 route line home ALL, f 55;
#X obj 85 343 * 1000;
#X obj 212 339 s 3moteurs_home;
#X obj 85 371 s 3moteurs-speed;
#X obj 243 404 bng 20 250 50 0 empty empty empty 0 -10 0 12 #fcfcfc #000000 #000000;
#X obj 85 287 route 3moteurs_master;
#X obj 50 108 moteur 1 X 500 1;
#X obj 50 131 moteur 2 Y 170 1;
#X obj 49 154 moteur 3 Z 170 0;
#X connect 2 0 8 0;
#X connect 3 0 4 0;
#X connect 3 1 5 0;
#X connect 3 1 7 0;
#X connect 4 0 6 0;
#X connect 8 0 3 0;
