#N canvas 1041 194 813 496 12;
#X obj 44 22 r \$0-toMachine;
#X obj 44 75 line;
#X msg 65 425 posmon \$1;
#X obj 65 399 speedlim 50;
#X obj 159 96 line;
#X obj 65 264 metro 20;
#X obj 65 289 f;
#X obj 65 314 +;
#X obj 65 339 fmod 360;
#X obj 65 371 change;
#X obj 258 274 t b f;
#X obj 135 127 * -1;
#X obj 135 152 + 1;
#X obj 225 335 +;
#X obj 258 335 t b f;
#X obj 57 126 t b f;
#X obj 168 187 -;
#X obj 65 236 tgl 20 0 empty empty empty 0 -10 0 12 #fcfcfc #000000 #000000 0 1;
#X obj 168 237 fmod 360;
#X obj 168 262 - 180;
#X obj 168 212 + 180;
#X obj 196 188 t b f;
#X obj 168 288 * 0.1;
#X obj 65 212 loadbang;
#X obj 57 152 * 0;
#X obj 258 300 * 1;
#X floatatom 33 188 5 0 0 0 - - - 0;
#X obj 89 72 rotline;
#X floatatom 180 434 5 0 0 0 - - - 0;
#X obj 65 450 s \$0-toOSC;
#X floatatom 206 393 12 0 0 0 - - - 0;
#X floatatom 323 305 5 0 0 0 - - - 0;
#X floatatom 369 210 5 0 0 0 - - - 0;
#X obj 193 12 tgl 20 0 empty empty empty 0 -10 0 12 #fcfcfc #000000 #000000 0 1;
#X obj 44 47 route speed position mode;
#X obj 354 20 sys/module_interface \$0 3moteurs_\$1 3moteurs_preset _none_, f 63;
#X obj 353 46 param_f \$0 speed \$0-PRESETS NONE 3moteurs-speed;
#X obj 353 68 param_f \$0 position \$0-PRESETS NONE 3moteurs-speed;
#X obj 353 91 param_f \$0 mode \$0-PRESETS NONE 3moteurs-speed;
#X obj 266 444 s 3moteurs_goto_\$2;
#X floatatom 1 104 5 0 0 0 - - - 0;
#X obj 44 100 / \$3;
#X obj 158 72 || \$3;
#X obj 466 141 r \$0-fromOSC;
#X obj 466 183 route pwm zero;
#X obj 466 237 s 3moteurs_pwm_\$2;
#X obj 513 210 s 3moteurs_zero_\$2;
#X connect 0 0 34 0;
#X connect 1 0 40 0;
#X connect 1 0 41 0;
#X connect 2 0 29 0;
#X connect 3 0 2 0;
#X connect 4 0 11 0;
#X connect 4 0 10 0;
#X connect 4 0 32 0;
#X connect 5 0 6 0;
#X connect 6 0 7 0;
#X connect 7 0 8 0;
#X connect 8 0 6 1;
#X connect 8 0 9 0;
#X connect 8 0 21 0;
#X connect 9 0 3 0;
#X connect 9 0 28 0;
#X connect 9 0 39 0;
#X connect 10 0 25 0;
#X connect 10 1 25 1;
#X connect 11 0 12 0;
#X connect 12 0 15 0;
#X connect 13 0 7 1;
#X connect 13 0 30 0;
#X connect 14 0 13 0;
#X connect 14 1 13 1;
#X connect 15 0 24 0;
#X connect 15 1 24 1;
#X connect 16 0 20 0;
#X connect 17 0 5 0;
#X connect 18 0 19 0;
#X connect 19 0 22 0;
#X connect 20 0 18 0;
#X connect 21 0 16 0;
#X connect 21 1 16 1;
#X connect 22 0 25 0;
#X connect 23 0 17 0;
#X connect 24 0 13 0;
#X connect 25 0 14 0;
#X connect 27 0 16 0;
#X connect 33 0 4 0;
#X connect 34 0 1 0;
#X connect 34 1 27 0;
#X connect 34 2 42 0;
#X connect 41 0 24 0;
#X connect 41 0 26 0;
#X connect 42 0 4 0;
#X connect 43 0 44 0;
#X connect 44 0 45 0;
#X connect 44 1 46 0;
