#N canvas 1016 347 320 330 10;
#X declare -lib libdir -lib ggee -stdpath ggee;
#X obj 25 158 s \$1-apmaster-rcv;
#X obj 25 103 list append \$2;
#X msg 25 132 loadfile \$1/\$2;
#X obj 25 58 inlet load;
#X obj 157 158 s \$1-apmaster-rcv;
#X obj 157 103 list append \$2;
#X obj 157 58 inlet save;
#X msg 157 132 savefile \$1/\$2;
#X text 16 2 usage : apmasterfile Ref filename;
#X text 16 24 File utility for apmaster.;
#X obj 5 192 declare -lib libdir -lib ggee -stdpath ggee;
#X obj 25 79 getdir 1e+06;
#X obj 157 79 getdir 1e+06;
#X connect 1 0 2 0;
#X connect 2 0 0 0;
#X connect 3 0 11 0;
#X connect 5 0 7 0;
#X connect 6 0 12 0;
#X connect 7 0 4 0;
#X connect 11 0 1 0;
#X connect 12 0 5 0;
