#N canvas 785 87 528 943 10;
#X msg 49 165 \$2 \$1;
#X obj 49 117 f;
#X obj 49 140 pack f f, f 12;
#X obj 49 188 route 1 0, f 51;
#X obj 96 548 s toTeleco;
#X obj 49 345 sel 1;
#X obj 49 455 route 0 1, f 29;
#X obj 49 432 list prepend 0, f 21;
#X obj 80 706 bng 15 250 50 0 empty empty empty 17 7 0 10 -4034 -1
-1;
#X obj 275 704 bng 15 250 50 0 empty empty empty 17 7 0 10 -258113
-1 -1;
#X obj 81 684 loadbang;
#X obj 286 520 del 50;
#X msg 73 605 _all_ load \$1;
#X msg 169 605 _all_ store \$1;
#X obj 169 489 t f b, f 10;
#X obj 200 242 spigot;
#X obj 49 212 t b f f, f 22;
#X obj 249 247 bng 15 250 50 0 empty empty empty 17 7 0 10 -262144
-1 -1;
#X obj 81 781 route loaded saved;
#X obj 81 807 b;
#X obj 200 780 loadbang;
#X obj 49 261 t f b;
#X obj 49 284 until;
#X obj 49 307 i;
#X obj 86 307 + 1;
#X obj 333 382 symbol \$1;
#X msg 81 858 _all_ _nbpattern_ \$1;
#X floatatom 11 157 5 0 0 0 - - -;
#X obj 152 684 r RELOAD_PRESETS;
#X obj 24 6 r fromOSC;
#X obj 24 30 route \$1;
#X obj 315 600 oscformat \$1;
#X obj 315 637 s toOSC;
#X obj 24 54 route store, f 12;
#X obj 49 94 unpack s s f;
#X msg 226 521 store 0;
#X obj 315 579 list;
#X symbolatom 317 441 10 0 0 0 - - -;
#X obj 406 600 oscformat \$1 8;
#X msg 300 332 4;
#X obj 234 381 list prepend \$1;
#X msg 235 405 set \$1 \$2 \, list preset 1;
#X msg 76 404 set \$1 \$2 \, list preset 0;
#X msg 111 349 4;
#X obj 76 378 list prepend \$1;
#X obj 49 238 f \$2;
#X obj 81 657 apmaster \$1;
#X obj 72 630 s \$1-pattern-snd;
#X obj 286 546 s \$1-save;
#X obj 81 758 r \$1-apmaster-snd;
#X obj 81 832 f \$2;
#X obj 81 882 s \$1-setap-snd;
#X obj 275 678 r \$1-save;
#X msg 94 282 0;
#X obj 73 580 - 0;
#X obj 169 582 - 0;
#X obj 80 726 file \$1 presets/\$1.txt, f 33;
#X msg 194 520 0;
#X obj 24 86 f;
#X connect 0 0 3 0;
#X connect 1 0 2 0;
#X connect 1 0 27 0;
#X connect 2 0 0 0;
#X connect 3 0 16 0;
#X connect 3 1 15 0;
#X connect 3 1 16 0;
#X connect 5 1 44 0;
#X connect 6 0 54 0;
#X connect 6 1 14 0;
#X connect 7 0 6 0;
#X connect 8 0 56 0;
#X connect 9 0 56 1;
#X connect 10 0 8 0;
#X connect 11 0 48 0;
#X connect 12 0 47 0;
#X connect 13 0 47 0;
#X connect 14 0 55 0;
#X connect 14 1 11 0;
#X connect 14 1 35 0;
#X connect 14 1 57 0;
#X connect 15 0 17 0;
#X connect 15 0 40 0;
#X connect 16 0 45 0;
#X connect 16 1 7 0;
#X connect 16 2 5 1;
#X connect 18 0 19 0;
#X connect 18 1 19 0;
#X connect 19 0 50 0;
#X connect 20 0 19 0;
#X connect 21 0 22 0;
#X connect 21 1 53 0;
#X connect 22 0 23 0;
#X connect 23 0 24 0;
#X connect 23 0 5 0;
#X connect 24 0 23 1;
#X connect 26 0 51 0;
#X connect 28 0 8 0;
#X connect 29 0 30 0;
#X connect 30 0 33 0;
#X connect 31 0 32 0;
#X connect 33 0 58 0;
#X connect 33 1 34 0;
#X connect 34 0 1 0;
#X connect 34 2 2 1;
#X connect 35 0 36 0;
#X connect 36 0 31 0;
#X connect 38 0 32 0;
#X connect 39 0 40 0;
#X connect 40 0 41 0;
#X connect 41 0 38 0;
#X connect 42 0 38 0;
#X connect 43 0 44 0;
#X connect 44 0 42 0;
#X connect 45 0 21 0;
#X connect 49 0 18 0;
#X connect 50 0 26 0;
#X connect 52 0 9 0;
#X connect 53 0 23 1;
#X connect 54 0 12 0;
#X connect 55 0 13 0;
#X connect 57 0 58 0;
#X connect 58 0 15 1;
#X connect 58 0 7 1;
