#N canvas 2233 570 687 605 12;
#X obj 297 231 + 0.1;
#X obj 297 206 * 1000;
#X obj 297 184 pow 10;
#X obj 229 362 + 0.5;
#X obj 229 385 *;
#X obj 229 408 * -1;
#X obj 229 465 + 1;
#X obj 297 162 r Gmode2-val;
#X obj 228 246 sin;
#X obj 228 269 * 1;
#X obj 228 292 atan;
#X obj 228 315 /;
#X obj 265 292 atan 1;
#X obj 265 269 f;
#X obj 228 180 fmod 1;
#X obj 228 202 * 3.14159;
#X obj 228 339 * 0.5;
#X obj 228 224 * 2;
#X obj 228 109 inlet;
#X obj 285 358 pow 2;
#X obj 285 331 r Gmode3-val;
#X obj 140 534 s \$1L3-mult;
#X obj 229 513 outlet;
#X obj 228 155 + 0;
#X obj 356 49 r Gmode-dephase;
#X obj 481 48 loadbang;
#X obj 481 73 f \$1;
#X obj 481 98 - 1;
#X obj 356 74 * 0;
#X obj 229 490 list prepend \$1;
#X obj 229 437 change;
#X connect 0 0 13 0;
#X connect 1 0 0 0;
#X connect 2 0 1 0;
#X connect 3 0 4 0;
#X connect 4 0 5 0;
#X connect 5 0 30 0;
#X connect 6 0 21 0;
#X connect 6 0 29 0;
#X connect 7 0 2 0;
#X connect 8 0 9 0;
#X connect 9 0 10 0;
#X connect 10 0 11 0;
#X connect 11 0 16 0;
#X connect 12 0 11 1;
#X connect 13 0 12 0;
#X connect 13 0 9 1;
#X connect 14 0 15 0;
#X connect 15 0 17 0;
#X connect 16 0 3 0;
#X connect 17 0 8 0;
#X connect 18 0 23 0;
#X connect 19 0 4 1;
#X connect 20 0 19 0;
#X connect 23 0 14 0;
#X connect 24 0 28 0;
#X connect 25 0 26 0;
#X connect 26 0 27 0;
#X connect 27 0 28 1;
#X connect 28 0 23 1;
#X connect 29 0 22 0;
#X connect 30 0 6 0;
