#N canvas 3002 543 711 453 10;
#X obj 68 203 pack f f;
#X obj 68 161 t a b;
#X obj 68 226 unpack f f;
#X obj 68 275 pack f f;
#X obj 68 297 line;
#X obj 135 253 * 1000;
#X obj 68 80 r CONTROL;
#X obj 14 28 hsl 128 15 0 100 0 0 \$3-val \$3-val empty 5 8 0 10 #f8fc00 #000000 #000000 0 1;
#X obj 333 81 / 100;
#X obj 68 253 clip 0 100;
#X obj 105 12 nbx 5 14 0 100 0 0 \$3-val \$3-val empty 0 -8 0 10 #fcfcfc #000000 #000000 0 256;
#X msg 181 273 stop;
#X obj 212 392 s MONITOR;
#X obj 212 345 f;
#X obj 306 37 r reSend;
#X obj 333 102 clip 0 1;
#X obj 333 184 pow 3;
#X msg 100 181 0;
#X msg 333 298 c \$2 i \$1;
#X obj 333 205 * 1023;
#X obj 413 230 loadbang;
#X obj 333 227 i;
#X obj 333 249 change;
#X obj 333 275 pack f f;
#X obj 413 252 f \$2;
#X obj 68 317 s \$3-val;
#X obj 333 58 r \$3-val;
#X obj 212 370 list prepend \$3;
#X obj 490 91 r \$3-val;
#X obj 490 132 OSClink \$3;
#X obj 490 175 s \$3-val;
#X floatatom 455 280 5 0 0 0 - - - 0;
#X obj 413 274 + 50;
#X obj 396 231 bng 15 250 50 0 empty empty empty 17 7 0 10 #fcfcfc #000000 #000000;
#X obj 333 320 fruit/send2 fruit\$1;
#X obj 490 113 / 10;
#X obj 490 154 * 10;
#X obj 599 120 r STOPLAMPS;
#X msg 599 142 0;
#X obj 599 164 s \$3-val;
#X obj 333 130 * 1;
#X obj 394 102 r \$3-mult;
#X obj 360 129 t b f;
#X obj 205 134 spigot, f 11;
#X obj 206 13 loadbang;
#X obj 263 77 < 3;
#X obj 333 158 * 1;
#X obj 360 157 t b f;
#X obj 182 57 bng 15 250 50 0 empty empty empty 17 7 0 10 #fcfcfc #000000 #000000;
#X obj 178 219 tgl 15 0 empty empty empty 17 7 0 10 #fcfcfc #000000 #000000 0 1;
#X obj 206 36 f \$2;
#X obj 183 195 == 0;
#X obj 67 131 route lumiere\$2;
#X obj 267 241 * 100;
#X obj 267 266 i;
#X obj 267 291 change;
#X obj 68 102 route projo_pantilt_\$1 stop \$1Mute;
#X connect 0 0 2 0;
#X connect 1 0 0 0;
#X connect 1 1 17 0;
#X connect 2 0 9 0;
#X connect 2 1 5 0;
#X connect 3 0 4 0;
#X connect 4 0 25 0;
#X connect 5 0 3 1;
#X connect 6 0 56 0;
#X connect 8 0 15 0;
#X connect 9 0 3 0;
#X connect 11 0 4 0;
#X connect 13 0 27 0;
#X connect 14 0 13 0;
#X connect 15 0 40 0;
#X connect 16 0 19 0;
#X connect 17 0 0 1;
#X connect 18 0 34 0;
#X connect 19 0 21 0;
#X connect 20 0 24 0;
#X connect 21 0 22 0;
#X connect 22 0 23 0;
#X connect 23 0 18 0;
#X connect 24 0 32 0;
#X connect 26 0 8 0;
#X connect 27 0 12 0;
#X connect 28 0 35 0;
#X connect 29 0 36 0;
#X connect 32 0 23 1;
#X connect 32 0 31 0;
#X connect 33 0 24 0;
#X connect 35 0 29 0;
#X connect 36 0 30 0;
#X connect 37 0 38 0;
#X connect 38 0 39 0;
#X connect 40 0 46 0;
#X connect 41 0 42 0;
#X connect 42 0 40 0;
#X connect 42 1 40 1;
#X connect 43 0 49 0;
#X connect 43 0 51 0;
#X connect 43 0 1 0;
#X connect 44 0 50 0;
#X connect 45 0 43 1;
#X connect 46 0 16 0;
#X connect 46 0 53 0;
#X connect 47 0 46 0;
#X connect 47 1 46 1;
#X connect 48 0 50 0;
#X connect 50 0 45 0;
#X connect 51 0 47 0;
#X connect 52 0 1 0;
#X connect 53 0 54 0;
#X connect 54 0 55 0;
#X connect 55 0 13 0;
#X connect 56 0 52 0;
#X connect 56 1 11 0;
#X connect 56 2 43 0;
#X coords 0 -1 1 1 150 34 1 10 10;
