#N canvas 1120 98 634 560 10;
#X declare -path Fraise -stdpath Fraise;
#X obj 21 16 declare -path Fraise -stdpath Fraise;
#X msg 492 105 vis 0 \, vis 1;
#X text 274 16 lyre [num_fruit] steps/turn;
#X obj 302 56 nbx 5 14 -150 150 0 0 MOT\$1-position MOT\$1-position rotation 55 7 0 10 #00f8fc #000000 #000000 0 256;
#X obj 21 128 fruit/fruit 1 fruit\$1 \$1 lyreFW;
#N canvas 90 205 1220 646 \$1ROT-guts 0;
#X msg 40 582 dest \$1;
#X msg 1066 442 homed \$1;
#X obj 1066 420 tgl 15 0 empty empty empty 17 7 0 10 #fcfcfc #000000 #000000 0 1;
#X floatatom 0 548 5 0 0 0 - - - 0;
#X msg 1066 396 1;
#X obj 1034 371 t b b;
#X obj 710 432 loadbang;
#X msg 710 454 1;
#X obj 710 479 tgl 15 0 empty empty empty 17 7 0 10 #fcfcfc #000000 #000000 0 1;
#X msg 710 525 W 0;
#X obj 710 502 metro 500;
#X text 648 432 watchdog:;
#X obj 1034 350 r MOT\$1-SETZERO;
#X floatatom 105 220 8 0 0 0 pos - - 0;
#X floatatom 353 224 8 0 0 0 ramp_pos - - 0;
#X floatatom 159 264 8 0 0 0 pwm - - 0;
#X obj 169 221 tgl 15 0 empty empty homed 17 7 0 10 #fcfcfc #000000 #000000 0 1;
#X obj 159 284 abs;
#X obj 205 469 s MOT\$1-stopped;
#X obj 40 436 spigot;
#X obj 79 415 r MOT\$1-status-ok;
#N canvas 1105 318 611 796 RESET_ZERO 0;
#X msg 83 96 0;
#X obj 52 482 r MOT\$1-stopped;
#X obj 52 217 del 1000;
#X msg 123 76 stop;
#X obj 294 251 s MOT\$1-status-ok;
#X obj 52 239 t b b;
#X obj 79 262 s MOT\$1-SETZERO;
#X obj 123 97 s \$0-stop-reset;
#X obj 60 196 r \$0-stop-reset;
#X obj 151 481 r \$0-stop-reset;
#X obj 52 503 spigot;
#X msg 151 503 0;
#X obj 66 286 r \$0-stop-reset;
#X obj 52 313 del 100;
#X obj 79 377 s \$0-position;
#X msg 79 357 0;
#X obj 52 335 t b b;
#X obj 60 401 r \$0-stop-reset;
#X obj 52 422 del 2000;
#X msg 52 444 1;
#X obj 52 546 t b b;
#X obj 52 525 sel 1;
#X obj 278 497 r MOT\$1-stopped;
#X obj 393 498 r \$0-stop-reset;
#X obj 278 518 spigot;
#X msg 393 520 0;
#X obj 270 349 s \$0-position;
#X obj 243 307 t b b;
#X obj 251 373 r \$0-stop-reset;
#X obj 243 394 del 2000;
#X msg 311 470 1;
#X obj 278 561 t b b;
#X obj 278 540 sel 1;
#X msg 270 329 -330;
#X obj 278 637 t b b;
#X obj 425 603 s MOT\$1-SETZERO;
#X obj 83 119 s MOT\$1-homed;
#X obj 294 182 r MOT\$1-homed;
#X obj 278 711 s MOT\$1-homed;
#X msg 278 688 1;
#X obj 52 27 inlet;
#X obj 229 567 bng 15 250 50 0 empty empty empty 17 7 0 10 #fcfcfc #000000 #000000;
#X obj 109 25 bng 15 250 50 0 empty empty empty 17 7 0 10 #fcfcfc #000000 #000000;
#X obj 164 736 s \$0-position;
#X msg 164 693 0;
#X obj 164 672 del 100;
#X obj 134 646 r \$0-stop-reset;
#X obj 52 49 t b b b b b;
#X obj 168 74 s MOT\$1-acceleration;
#X msg 168 53 100;
#X obj 291 584 r \$0-stop-reset;
#X obj 278 607 del 2000;
#X obj 166 21 r STOPMOTORS;
#X obj 67 166 s MOT\$1-PWM;
#X obj 319 428 r \$0-stop-reset;
#X obj 311 449 del 200;
#X msg 426 638 homed 1;
#X msg 196 124 homed 0;
#X msg 380 693 stop;
#X obj 380 714 s \$0-stop-reset;
#X obj 291 772 fruit/send2 fruit\$1;
#X msg 89 699 -120;
#X msg 291 750 c 120 c 7 c 0;
#X obj 196 146 s pfruit\$1-motor-params;
#X obj 426 658 s pfruit\$1-motor-params;
#X obj 255 213 tgl 15 0 empty empty empty 17 7 0 10 #fcfcfc #000000 #000000 0 1;
#X msg 67 143 -500;
#X connect 0 0 36 0;
#X connect 1 0 10 0;
#X connect 2 0 5 0;
#X connect 3 0 7 0;
#X connect 5 0 13 0;
#X connect 5 1 6 0;
#X connect 8 0 2 0;
#X connect 9 0 11 0;
#X connect 10 0 21 0;
#X connect 11 0 10 1;
#X connect 12 0 13 0;
#X connect 13 0 16 0;
#X connect 15 0 14 0;
#X connect 16 0 18 0;
#X connect 16 1 15 0;
#X connect 17 0 18 0;
#X connect 18 0 19 0;
#X connect 19 0 10 1;
#X connect 20 0 27 0;
#X connect 20 1 11 0;
#X connect 21 0 20 0;
#X connect 22 0 24 0;
#X connect 23 0 25 0;
#X connect 24 0 32 0;
#X connect 25 0 24 1;
#X connect 27 0 29 0;
#X connect 27 1 33 0;
#X connect 28 0 29 0;
#X connect 30 0 24 1;
#X connect 31 0 51 0;
#X connect 31 1 25 0;
#X connect 32 0 31 0;
#X connect 33 0 26 0;
#X connect 34 0 39 0;
#X connect 34 0 45 0;
#X connect 34 1 58 0;
#X connect 34 1 62 0;
#X connect 37 0 4 0;
#X connect 37 0 65 0;
#X connect 39 0 38 0;
#X connect 40 0 47 0;
#X connect 41 0 34 0;
#X connect 42 0 47 0;
#X connect 45 0 44 0;
#X connect 46 0 45 0;
#X connect 47 0 55 0;
#X connect 47 1 66 0;
#X connect 47 2 0 0;
#X connect 47 2 57 0;
#X connect 47 3 3 0;
#X connect 47 4 49 0;
#X connect 49 0 48 0;
#X connect 50 0 51 0;
#X connect 51 0 34 0;
#X connect 52 0 3 0;
#X connect 54 0 55 0;
#X connect 55 0 30 0;
#X connect 56 0 64 0;
#X connect 57 0 63 0;
#X connect 58 0 59 0;
#X connect 61 0 43 0;
#X connect 62 0 60 0;
#X connect 66 0 53 0;
#X restore 1035 308 pd RESET_ZERO;
#X obj 53 459 r \$0-position;
#X obj 333 498 sel 0 1;
#X obj 333 474 r MOT\$1-status-ok;
#X obj 333 561 s MOT\$1-status-can;
#X obj 310 449 loadbang;
#X msg 333 520 label status:_not_ok \, color 10 10 21;
#X msg 352 540 label status:_ok \, color 16 15 22;
#X obj 1035 197 r MOT\$1-RESET_ZERO;
#X obj 245 433 tgl 15 0 empty empty empty 17 7 0 10 #fcfcfc #000000 #000000 0 1;
#X obj 528 257 pack f f;
#X obj 528 215 t a b;
#X msg 560 235 0;
#X obj 528 280 unpack f f;
#X obj 528 329 pack f f;
#X obj 528 351 line;
#X obj 630 308 * 1000;
#X obj 528 371 s MOT\$1-position;
#X obj 528 142 r CONTROL;
#X msg 605 259 stop;
#X obj 719 144 r MOT\$1-position;
#X obj 719 211 s MONITOR;
#X obj 719 166 f;
#X obj 750 166 r reSend;
#X msg 744 525 SAVE;
#X msg 599 520 c 120 c 4 i \$1;
#X floatatom 431 424 5 0 0 0 - - - 0;
#X obj 434 402 hsl 128 15 0 1023 0 0 empty empty empty -2 -8 0 10 #fcfcfc #000000 #000000 0 1;
#X obj 1142 308 bng 15 250 50 0 empty empty empty 17 7 0 10 #fcfcfc #000000 #000000;
#X msg 296 382 0;
#X obj 299 402 hsl 128 15 -1023 0 0 0 empty empty empty -2 -8 0 10 #fcfcfc #000000 #000000 0 1;
#X obj 1006 336 bng 15 250 50 0 empty empty empty 17 7 0 10 #fcfcfc #000000 #000000;
#X msg 11 100 0;
#X obj 11 123 s MOT\$1-homed;
#X obj 21 360 s MOT\$1-realPos;
#X floatatom 134 373 5 0 0 0 - - - 0;
#X obj 1039 559 r MOT\$1-acceleration;
#N canvas 0 79 450 300 waitstop 0;
#X obj 110 27 inlet;
#X obj 110 113 spigot;
#X obj 178 21 r MOT\$1-stopped;
#X obj 110 92 f 1200;
#X obj 178 43 t f f;
#X obj 153 67 sel 1;
#X obj 110 157 outlet;
#X obj 110 135 change -1;
#X connect 0 0 3 0;
#X connect 1 0 7 0;
#X connect 2 0 4 0;
#X connect 3 0 1 0;
#X connect 4 0 5 0;
#X connect 4 1 1 1;
#X connect 5 0 3 0;
#X connect 7 0 6 0;
#X restore 1039 649 pd waitstop;
#X obj 1039 603 / 100;
#X msg 1039 670 accel \$1 \, decel \$1;
#X obj 1059 504 hsl 128 15 0 100 0 0 empty empty empty -2 -8 0 10 #fcfcfc #000000 #000000 0 1;
#X obj 638 236 s MOT\$1-acceleration;
#X obj 859 208 s MONITOR;
#X obj 901 165 r reSend;
#X obj 859 141 r MOT\$1-acceleration;
#X obj 1056 532 s MOT\$1-acceleration;
#X obj 1039 581 clip 10 100;
#N canvas 204 108 456 361 isStopped 0;
#X obj 189 14 inlet;
#X obj 171 231 outlet;
#X obj 103 16 loadbang;
#X obj 103 58 metro 100;
#X obj 103 38 tgl 15 0 empty empty empty 17 7 0 10 #fcfcfc #000000 #000000 0 1;
#X msg 189 167 1;
#X msg 221 167 0;
#X obj 189 38 change -1;
#X obj 189 123 del 1000;
#X obj 171 204 f;
#X obj 189 73 t b f;
#X connect 0 0 7 0;
#X connect 2 0 4 0;
#X connect 2 0 8 0;
#X connect 3 0 9 0;
#X connect 4 0 3 0;
#X connect 5 0 9 1;
#X connect 6 0 9 1;
#X connect 7 0 10 0;
#X connect 8 0 5 0;
#X connect 9 0 1 0;
#X connect 10 0 8 0;
#X connect 10 1 6 0;
#X restore 228 313 pd isStopped;
#X obj 859 165 f 100;
#X msg 782 526 FORCE\$1;
#X obj 782 503 tgl 15 0 empty empty empty 17 7 0 10 #fcfcfc #000000 #000000 0 1;
#X obj 1039 627 * 2400;
#X obj 296 361 r STOPMOTORS;
#X obj 106 153 fruit/receive fruit\$1;
#X obj 40 395 r MOT\$1-position;
#X obj 81 50 nbx 5 14 -150 150 0 0 MOT\$1-position MOT\$1-position position 0 -5 0 10 #fcfcfc #000000 #000000 0 256;
#X obj 80 109 nbx 5 14 10 100 0 0 MOT\$1-acceleration MOT\$1-acceleration acceleration 0 -5 0 10 #fcfcfc #000000 #000000 0 256;
#X obj 291 67 s MOT\$1-status-ok;
#X msg 291 43 1;
#X obj 599 547 fruit/send2 fruit\$1;
#X obj 599 498 r MOT\$1-PWM;
#X obj 431 442 s MOT\$1-PWM;
#X obj 317 300 s MOT\$1-homed;
#X obj 859 186 list prepend \$1ACCEL;
#X obj 719 188 list prepend \$1R;
#X obj 971 299 tgl 15 0 empty empty empty 17 7 0 10 #fcfcfc #000000 #000000 0 1;
#X floatatom 956 319 5 0 0 0 - - - 0;
#X obj 816 344 toDeg;
#X obj 816 365 s MOT\$1-position;
#X obj 816 302 toRad;
#X obj 816 281 r MOT\$1-position;
#X obj 816 322 OSClink \$1R;
#X obj 768 469 r \$0-SAVE;
#X floatatom 472 350 5 0 0 0 - - - 0;
#X msg 449 229 50 30;
#X msg 449 251 0 30;
#X floatatom 158 579 5 0 0 0 - - - 0;
#X obj 21 312 maxlib/scale 0 \$2 180 -180;
#X obj 40 549 maxlib/scale 180 -180 0 \$2;
#X floatatom 79 338 5 0 0 0 - - - 0;
#X obj 261 218 tgl 15 0 empty empty end 17 7 0 10 #fcfcfc #000000 #000000 0 1;
#X obj 105 198 unpack f f f f;
#X obj 1074 227 fruit/receive fruit\$1;
#X obj 1074 249 route present;
#X obj 1035 270 spigot;
#X obj 40 605 s pfruit\$1-motor-ramp-params;
#X obj 1039 692 s pfruit\$1-motor-ramp-params;
#X obj 1051 466 s pfruit\$1-motor-params;
#X obj 106 175 route M present;
#X obj 345 155 sel 0;
#X msg 345 176 0;
#X obj 345 199 s MOT\$1-homed;
#X obj 21 334 - 15;
#X floatatom 659 122 5 0 0 0 - - - 0;
#X obj 94 437 tgl 15 0 empty empty empty 17 7 0 10 #fcfcfc #000000 #000000 0 1;
#X floatatom 10 456 5 0 0 0 - - - 0;
#X obj 261 238 change;
#X obj 261 261 sel 1;
#X msg 261 284 1;
#X msg 159 491 -160;
#X msg 165 474 160;
#X obj 528 307 clip -150 150;
#X obj 528 194 route rotation;
#X obj 528 165 route proj\$1 stop;
#X obj 40 490 clip -140 140;
#X obj 40 519 + 20;
#X msg 984 260 666;
#X connect 0 0 106 0;
#X connect 1 0 108 0;
#X connect 2 0 1 0;
#X connect 3 0 0 0;
#X connect 5 1 4 0;
#X connect 6 0 7 0;
#X connect 7 0 8 0;
#X connect 8 0 10 0;
#X connect 9 0 80 1;
#X connect 10 0 9 0;
#X connect 13 0 68 0;
#X connect 13 0 98 0;
#X connect 15 0 17 0;
#X connect 19 0 125 0;
#X connect 20 0 19 1;
#X connect 20 0 115 0;
#X connect 22 0 125 0;
#X connect 23 0 27 0;
#X connect 23 1 28 0;
#X connect 24 0 23 0;
#X connect 26 0 27 0;
#X connect 27 0 25 0;
#X connect 28 0 25 0;
#X connect 29 0 105 0;
#X connect 31 0 34 0;
#X connect 32 0 31 0;
#X connect 32 1 33 0;
#X connect 33 0 31 1;
#X connect 34 0 122 0;
#X connect 34 1 37 0;
#X connect 35 0 36 0;
#X connect 36 0 38 0;
#X connect 36 0 94 0;
#X connect 37 0 35 1;
#X connect 39 0 124 0;
#X connect 40 0 36 0;
#X connect 41 0 43 0;
#X connect 43 0 85 0;
#X connect 44 0 43 0;
#X connect 45 0 80 1;
#X connect 46 0 80 0;
#X connect 47 0 82 0;
#X connect 48 0 47 0;
#X connect 49 0 21 0;
#X connect 50 0 51 0;
#X connect 51 0 47 0;
#X connect 52 0 5 0;
#X connect 53 0 54 0;
#X connect 57 0 67 0;
#X connect 58 0 60 0;
#X connect 59 0 72 0;
#X connect 61 0 66 0;
#X connect 64 0 69 0;
#X connect 65 0 69 0;
#X connect 67 0 59 0;
#X connect 68 0 18 0;
#X connect 68 0 30 0;
#X connect 69 0 84 0;
#X connect 70 0 80 1;
#X connect 71 0 70 0;
#X connect 72 0 58 0;
#X connect 73 0 50 0;
#X connect 74 0 109 0;
#X connect 75 0 19 0;
#X connect 75 0 116 0;
#X connect 79 0 78 0;
#X connect 81 0 46 0;
#X connect 84 0 63 0;
#X connect 85 0 42 0;
#X connect 88 0 89 0;
#X connect 90 0 92 0;
#X connect 91 0 90 0;
#X connect 92 0 88 0;
#X connect 93 0 45 0;
#X connect 95 0 32 0;
#X connect 96 0 32 0;
#X connect 98 0 113 0;
#X connect 99 0 0 0;
#X connect 99 0 97 0;
#X connect 101 0 117 0;
#X connect 102 0 13 0;
#X connect 102 1 16 0;
#X connect 102 2 101 0;
#X connect 102 3 14 0;
#X connect 103 0 104 0;
#X connect 104 0 105 1;
#X connect 105 0 21 0;
#X connect 105 0 127 0;
#X connect 109 0 102 0;
#X connect 109 1 110 0;
#X connect 110 0 111 0;
#X connect 111 0 112 0;
#X connect 113 0 55 0;
#X connect 113 0 100 0;
#X connect 117 0 118 0;
#X connect 118 0 119 0;
#X connect 119 0 83 0;
#X connect 120 0 126 0;
#X connect 121 0 126 0;
#X connect 122 0 35 0;
#X connect 123 0 32 0;
#X connect 124 0 123 0;
#X connect 124 1 40 0;
#X connect 125 0 126 0;
#X connect 126 0 99 0;
#X connect 127 0 87 0;
#X restore 529 57 pd \$1ROT-guts;
#X obj 507 198 bng 50 250 50 0 \$0-SAVE \$0-SAVE SAVE-EE 2 25 0 12 #fc0400 #000000 #000000;
#N canvas 75 657 450 375 initEE 0;
#X msg 78 74 speed 7000 \, accel 10000 \, decel 10000;
#X msg 87 313 gainP 5 \, gainI 0 \, gainD 0 \, max 191;
#X obj 352 144 bng 15 250 50 0 empty empty empty 17 7 0 10 #fcfcfc #000000 #000000;
#X msg 76 249 gainP 120 \, gainI 1 \, gainD 0 \, max 1023;
#X obj 89 107 s pfruit\$1-servo1-params;
#X obj 87 135 s pfruit\$1-servo2-params;
#X obj 84 212 s pfruit\$1-motor-ramp-params;
#X obj 84 279 s pfruit\$1-motor-posPid-params;
#X obj 95 343 s pfruit\$1-motor-speedPid-params;
#X msg 76 182 speed 100 \, accel 10 \, decel 10;
#X connect 0 0 4 0;
#X connect 0 0 5 0;
#X connect 1 0 8 0;
#X connect 2 0 0 0;
#X connect 2 0 9 0;
#X connect 2 0 3 0;
#X connect 2 0 1 0;
#X connect 3 0 7 0;
#X connect 9 0 6 0;
#X restore 529 19 pd initEE;
#X obj 432 51 cnv 20 20 20 empty \$0-activecan empty 20 12 0 14 #a0a0a0 #404040 0;
#N canvas 790 452 357 177 present 0;
#X obj 108 30 fruit/receive fruit\$1;
#X obj 108 74 sel 0 1;
#X obj 108 118 s \$0-activecan;
#X msg 169 95 color 15;
#X msg 108 96 color 1;
#X obj 108 52 route present;
#X connect 0 0 5 0;
#X connect 1 0 4 0;
#X connect 1 1 3 0;
#X connect 3 0 2 0;
#X connect 4 0 2 0;
#X connect 5 0 1 0;
#X restore 462 38 pd present;
#X obj 302 73 servo \$1 1 \$1X;
#X obj 302 147 lamp \$1 1 \$1L1;
#X obj 302 183 lamp \$1 2 \$1L2;
#X obj 302 219 lamp \$1 3 \$1L3;
#N canvas 73 610 411 299 pfruit 0;
#X text 31 13 "protected" fruit interface (send only if present);
#X obj 60 95 r Fraise-fruit\$1-snd;
#X obj 60 121 s Fraise-pfruit\$1-snd;
#X obj 59 149 r Fraise-pfruit\$1-rcv;
#X obj 59 213 spigot;
#X obj 59 235 s Fraise-fruit\$1-rcv;
#X obj 98 171 fruit/receive fruit\$1;
#X obj 98 193 route present;
#X connect 1 0 2 0;
#X connect 3 0 4 0;
#X connect 4 0 5 0;
#X connect 6 0 7 0;
#X connect 7 0 4 1;
#X restore 467 162 pd pfruit;
#X obj 21 178 ramp/ramp pfruit\$1 101 servo1;
#X obj 21 271 ramp/ramp pfruit\$1 102 servo2;
#X obj 27 392 dcmotor/motor pfruit\$1 120 motor;
#X obj 302 109 servo \$1 2 \$1Y;
#X obj 417 52 bng 15 250 50 0 empty empty empty 17 7 0 10 #fcfcfc #000000 #000000;
#X obj 492 134 s pd-\$1ROT-guts;
#N canvas 3029 115 607 695 modes 0;
#X obj 203 128 tgl 15 0 empty empty empty 17 7 0 10 #fcfcfc #000000 #000000 0 1;
#X obj 30 670 s \$1L1-mult;
#X obj 122 669 s \$1L2-mult;
#X text 98 3 mode1:vitesse-sym-gauche=alterné \, droite=ensemble;
#X text 99 30 mode3: amplitude;
#X obj 30 61 r \$1mode1-val;
#X obj 30 84 * 2;
#X obj 30 107 - 1;
#X obj 30 130 abs;
#X obj 69 150 change;
#X obj 267 49 r \$1mode3-val;
#X obj 203 91 change;
#X obj 30 204 / 100;
#X obj 203 289 + 0;
#X obj 203 312 fmod 1;
#X obj 275 610 hsl 128 15 0 1 0 0 empty empty empty -2 -8 0 10 #fcfcfc #000000 #000000 0 1;
#X obj 203 266 f;
#X obj 203 375 * 3.14159;
#X obj 203 420 sin;
#X obj 203 443 * 1;
#X obj 203 466 atan;
#X obj 203 489 /;
#X obj 240 466 atan 1;
#X obj 240 443 f;
#X obj 300 120 r \$1mode2-val;
#X obj 203 397 * 2;
#X obj 269 310 + 0.1;
#X obj 269 285 * 1000;
#X obj 269 263 pow 10;
#X obj 203 535 + 0.5;
#X obj 203 558 *;
#X obj 203 581 * -1;
#X obj 203 604 + 1;
#X obj 107 541 + 0.5;
#X obj 107 564 *;
#X obj 107 587 * -1;
#X obj 107 610 + 1;
#X obj 242 656 hsl 128 15 0 1 0 0 empty empty empty -2 -8 0 10 #fcfcfc #000000 #000000 0 1;
#X obj 203 513 * 0.5;
#X obj 107 518 * 0.5;
#X obj 69 173 - 0.5;
#X obj 30 155 pow 3;
#X text 97 16 mode2: smooth \, si à ZÉRO=rnd;
#X obj 30 181 * 30;
#X obj 266 82 pow 2;
#X floatatom 348 78 5 0 0 0 - - - 0;
#X obj 203 173 f 0;
#X obj 203 198 sel 0 1, f 42;
#X obj 327 260 / 1e+06;
#X obj 327 331 * 0.05;
#X obj 371 354 * 0.95;
#X obj 300 143 < 0.01;
#X obj 368 422 * 0.95;
#X obj 327 400 * 0.05;
#X obj 327 237 random 2e+06;
#X obj 327 283 - 1;
#X obj 327 470 + 1;
#X obj 327 493 / 2;
#X obj 327 354 + 0;
#X obj 327 377 clip -1 1;
#X obj 327 423 + 0;
#X obj 327 447 clip -1 1;
#X obj 402 308 * -1;
#X obj 402 331 + 1;
#X obj 406 377 * -1;
#X obj 406 400 + 1;
#X obj 421 279 f;
#X floatatom 508 214 5 0 0 0 - - - 0;
#X obj 508 236 / 100;
#X obj 327 307 * 3;
#X obj 485 185 * 1;
#X obj 486 159 pow 3;
#X obj 69 127 > 0;
#X obj 203 67 > 0.01;
#X obj 127 90 loadbang;
#X obj 203 149 metro 20;
#X connect 0 0 75 0;
#X connect 5 0 6 0;
#X connect 6 0 7 0;
#X connect 7 0 8 0;
#X connect 7 0 72 0;
#X connect 8 0 41 0;
#X connect 8 0 71 0;
#X connect 9 0 40 0;
#X connect 10 0 44 0;
#X connect 10 0 45 0;
#X connect 10 0 73 0;
#X connect 12 0 13 1;
#X connect 13 0 14 0;
#X connect 14 0 16 1;
#X connect 14 0 17 0;
#X connect 16 0 13 0;
#X connect 17 0 25 0;
#X connect 18 0 19 0;
#X connect 19 0 20 0;
#X connect 20 0 21 0;
#X connect 21 0 38 0;
#X connect 21 0 39 0;
#X connect 22 0 21 1;
#X connect 23 0 22 0;
#X connect 23 0 19 1;
#X connect 24 0 28 0;
#X connect 24 0 51 0;
#X connect 25 0 18 0;
#X connect 26 0 23 0;
#X connect 27 0 26 0;
#X connect 28 0 27 0;
#X connect 29 0 30 0;
#X connect 30 0 31 0;
#X connect 31 0 32 0;
#X connect 32 0 2 0;
#X connect 33 0 34 0;
#X connect 34 0 35 0;
#X connect 35 0 36 0;
#X connect 36 0 1 0;
#X connect 38 0 29 0;
#X connect 39 0 33 0;
#X connect 40 0 39 1;
#X connect 41 0 43 0;
#X connect 43 0 12 0;
#X connect 44 0 30 1;
#X connect 44 0 34 1;
#X connect 46 0 47 0;
#X connect 47 0 16 0;
#X connect 47 1 54 0;
#X connect 48 0 55 0;
#X connect 49 0 58 0;
#X connect 50 0 58 1;
#X connect 51 0 46 1;
#X connect 52 0 60 1;
#X connect 53 0 60 0;
#X connect 54 0 48 0;
#X connect 55 0 69 0;
#X connect 56 0 57 0;
#X connect 57 0 17 0;
#X connect 58 0 59 0;
#X connect 59 0 50 0;
#X connect 59 0 53 0;
#X connect 60 0 61 0;
#X connect 61 0 52 0;
#X connect 61 0 56 0;
#X connect 62 0 63 0;
#X connect 63 0 50 1;
#X connect 64 0 65 0;
#X connect 65 0 52 1;
#X connect 66 0 49 1;
#X connect 66 0 62 0;
#X connect 66 0 64 0;
#X connect 66 0 53 1;
#X connect 67 0 68 0;
#X connect 68 0 66 0;
#X connect 69 0 49 0;
#X connect 70 0 66 0;
#X connect 71 0 70 0;
#X connect 72 0 9 0;
#X connect 73 0 11 0;
#X connect 74 0 0 0;
#X connect 75 0 46 0;
#X restore 497 310 pd modes;
#X obj 302 255 mode proj\$1 1 \$1mode1;
#X obj 302 290 mode proj\$1 2 \$1mode2;
#X obj 302 323 mode proj\$1 3 \$1mode3;
#X obj 21 37 r settings_onoff;
#X obj 21 82 route \$1;
#X obj 21 105 tgl 20 0 empty empty empty 0 -10 0 12 #fcfcfc #000000 #000000 0 1;
#X obj 21 59 route proj;
#X connect 1 0 20 0;
#X connect 19 0 1 0;
#X connect 25 0 28 0;
#X connect 26 0 27 0;
#X connect 27 0 4 0;
#X connect 28 0 26 0;
#X coords 0 -1 1 1 155 320 1 300 40;
