#N canvas 2139 648 711 453 10;
#X obj 68 197 pack f f;
#X obj 68 155 t a b;
#X obj 68 220 unpack f f;
#X obj 68 269 pack f f;
#X obj 68 291 line;
#X obj 135 247 * 1000;
#X obj 14 28 hsl 100 15 0 1 0 0 \$3-val \$3-val empty 5 8 0 10 #fcc4c4 #000000 #000000 0 1;
#X obj 68 247 clip 0 100;
#X obj 122 29 nbx 3 14 0 100 0 0 \$3-val \$3-val empty 0 -8 0 10 #fcfcfc #000000 #000000 0 256;
#X msg 181 267 stop;
#X obj 286 349 s MONITOR;
#X obj 286 302 f;
#X obj 260 69 r reSend;
#X msg 100 175 0;
#X obj 68 311 s \$3-val;
#X obj 313 94 r \$3-val;
#X obj 286 327 list prepend \$3;
#X obj 490 91 r \$3-val;
#X obj 490 132 OSClink \$3;
#X obj 490 175 s \$3-val;
#X obj 490 113 / 10;
#X obj 490 154 * 10;
#X obj 599 120 r STOPLAMPS;
#X msg 599 142 0;
#X obj 599 164 s \$3-val;
#X obj 68 80 r CONTROL;
#X obj 68 128 route mode\$2;
#X obj 68 102 route \$1 stop;
#X connect 0 0 2 0;
#X connect 1 0 0 0;
#X connect 1 1 13 0;
#X connect 2 0 7 0;
#X connect 2 1 5 0;
#X connect 3 0 4 0;
#X connect 4 0 14 0;
#X connect 5 0 3 1;
#X connect 7 0 3 0;
#X connect 9 0 4 0;
#X connect 11 0 16 0;
#X connect 12 0 11 0;
#X connect 13 0 0 1;
#X connect 15 0 11 0;
#X connect 16 0 10 0;
#X connect 17 0 20 0;
#X connect 18 0 21 0;
#X connect 20 0 18 0;
#X connect 21 0 19 0;
#X connect 22 0 23 0;
#X connect 23 0 24 0;
#X connect 25 0 27 0;
#X connect 26 0 1 0;
#X connect 27 0 26 0;
#X connect 27 1 9 0;
#X coords 0 -1 1 1 150 34 1 10 10;
