#N canvas 95 162 450 300 10;
#X obj 60 111 s 1Y-offset;
#X floatatom 382 69 5 0 0 0 - - - 0;
#X obj 157 111 s 2Y-offset;
#X msg 157 79 57;
#X msg 60 80 48;
#X obj 246 115 s 3Y-offset;
#X msg 246 89 57;
#X obj 342 116 s 4Y-offset;
#X msg 342 90 40;
#X obj 60 9 loadbang;
#X obj 60 37 b;
#X obj 39 13 bng 15 250 50 0 empty empty empty 17 7 0 10 #fcfcfc #000000 #000000;
#X connect 1 0 7 0;
#X connect 3 0 2 0;
#X connect 4 0 0 0;
#X connect 6 0 5 0;
#X connect 8 0 7 0;
#X connect 9 0 10 0;
#X connect 10 0 4 0;
#X connect 10 0 3 0;
#X connect 10 0 6 0;
#X connect 10 0 8 0;
#X connect 11 0 10 0;
