#N canvas 0 0 769 798 10;
#X obj 203 128 tgl 15 0 empty empty empty 17 7 0 10 #fcfcfc #000000 #000000 0 1;
#X text 98 3 mode1:vitesse-sym-gauche=alterné \, droite=ensemble;
#X text 99 30 mode3: amplitude;
#X obj 30 84 * 2;
#X obj 30 107 - 1;
#X obj 30 130 abs;
#X obj 30 204 / 100;
#X obj 203 289 + 0;
#X obj 203 312 fmod 1;
#X obj 104 767 hsl 128 15 0 1 0 0 empty empty empty -2 -8 0 10 #fcfcfc #000000 #000000 0 1;
#X obj 203 266 f;
#X obj 105 748 hsl 128 15 0 1 0 0 empty empty empty -2 -8 0 10 #fcfcfc #000000 #000000 0 1;
#X obj 30 155 pow 3;
#X text 97 16 mode2: smooth \, si à ZÉRO=rnd;
#X obj 30 181 * 30;
#X obj 266 82 pow 2;
#X floatatom 348 78 5 0 0 0 - - - 0;
#X obj 203 198 sel 0 1, f 42;
#X obj 327 260 / 1e+06;
#X obj 327 331 * 0.05;
#X obj 371 354 * 0.95;
#X obj 300 143 < 0.01;
#X obj 368 422 * 0.95;
#X obj 327 400 * 0.05;
#X obj 327 237 random 2e+06;
#X obj 327 283 - 1;
#X obj 327 471 + 1;
#X obj 327 494 / 2;
#X obj 327 354 + 0;
#X obj 327 377 clip -1 1;
#X obj 327 423 + 0;
#X obj 327 447 clip -1 1;
#X obj 402 308 * -1;
#X obj 402 331 + 1;
#X obj 406 377 * -1;
#X obj 406 400 + 1;
#X obj 421 279 f;
#X floatatom 508 214 5 0 0 0 - - - 0;
#X obj 508 236 / 100;
#X obj 327 307 * 3;
#X obj 485 185 * 1;
#X obj 486 159 pow 3;
#X obj 201 65 > 0.01;
#X obj 30 61 r Gmode1-val;
#X obj 267 49 r Gmode3-val;
#X obj 300 113 r Gmode2-val;
#X obj 104 808 hsl 128 15 0 1 0 0 empty empty empty -2 -8 0 10 #fcfcfc #000000 #000000 0 1;
#X obj 104 787 hsl 128 15 0 1 0 0 empty empty empty -2 -8 0 10 #fcfcfc #000000 #000000 0 1;
#X obj 163 679 spigot;
#X obj 163 702 route 1 2 3 4, f 70;
#X obj 214 680 tgl 15 0 empty empty empty 17 7 0 10 #fcfcfc #000000 #000000 0 1;
#X obj 44 317 s Gmode-dephase;
#X obj 160 558 gmode_chan 2;
#X obj 76 558 gmode_chan 1;
#X obj 241 559 gmode_chan 3;
#X obj 326 559 gmode_chan 4;
#X obj 203 105 loadbang;
#X obj 44 289 r Gmode4-val;
#X floatatom 561 289 5 0 0 0 - - - 0;
#X obj 203 173 f 1;
#X obj 203 149 metro 20;
#X connect 0 0 60 0;
#X connect 3 0 4 0;
#X connect 4 0 5 0;
#X connect 5 0 12 0;
#X connect 5 0 41 0;
#X connect 6 0 7 1;
#X connect 7 0 8 0;
#X connect 8 0 10 1;
#X connect 8 0 53 0;
#X connect 8 0 52 0;
#X connect 8 0 55 0;
#X connect 8 0 54 0;
#X connect 10 0 7 0;
#X connect 12 0 14 0;
#X connect 14 0 6 0;
#X connect 17 0 10 0;
#X connect 17 1 24 0;
#X connect 18 0 25 0;
#X connect 19 0 28 0;
#X connect 20 0 28 1;
#X connect 21 0 59 1;
#X connect 22 0 30 1;
#X connect 23 0 30 0;
#X connect 24 0 18 0;
#X connect 25 0 39 0;
#X connect 26 0 27 0;
#X connect 27 0 8 0;
#X connect 28 0 29 0;
#X connect 29 0 20 0;
#X connect 29 0 23 0;
#X connect 30 0 31 0;
#X connect 31 0 22 0;
#X connect 31 0 26 0;
#X connect 32 0 33 0;
#X connect 33 0 20 1;
#X connect 34 0 35 0;
#X connect 35 0 22 1;
#X connect 36 0 19 1;
#X connect 36 0 32 0;
#X connect 36 0 34 0;
#X connect 36 0 23 1;
#X connect 37 0 38 0;
#X connect 38 0 36 0;
#X connect 39 0 19 0;
#X connect 40 0 36 0;
#X connect 40 0 58 0;
#X connect 41 0 40 0;
#X connect 43 0 3 0;
#X connect 44 0 15 0;
#X connect 44 0 16 0;
#X connect 44 0 42 0;
#X connect 45 0 21 0;
#X connect 48 0 49 0;
#X connect 49 0 11 0;
#X connect 49 1 9 0;
#X connect 49 2 47 0;
#X connect 49 3 46 0;
#X connect 50 0 48 1;
#X connect 52 0 48 0;
#X connect 53 0 48 0;
#X connect 54 0 48 0;
#X connect 55 0 48 0;
#X connect 56 0 0 0;
#X connect 57 0 51 0;
#X connect 59 0 17 0;
#X connect 60 0 59 0;
