#N canvas 6 75 471 256 10;
#X obj 299 8 r fromOSC;
#X obj 33 70 t f b;
#X msg 148 117 0;
#X obj 121 97 t b b;
#X obj 121 137 del 250;
#X msg 121 158 1;
#X obj 121 179 f;
#X msg 390 123 0;
#X obj 363 103 t b b;
#X obj 363 143 del 250;
#X msg 363 164 1;
#X obj 363 185 f;
#X obj 299 79 t f b;
#X obj 299 58 spigot 1;
#X obj 33 48 spigot 1;
#X obj 33 24 inlet;
#X obj 33 115 oscformat \$1;
#X obj 299 30 route \$1;
#X obj 299 128 outlet;
#X obj 33 138 s toOSC;
#X obj 211 9 r fromOSCrec;
#X obj 211 30 route \$1;
#X connect 0 0 17 0;
#X connect 1 0 16 0;
#X connect 1 1 3 0;
#X connect 2 0 6 0;
#X connect 3 0 4 0;
#X connect 3 1 2 0;
#X connect 4 0 5 0;
#X connect 5 0 6 0;
#X connect 6 0 13 1;
#X connect 7 0 11 0;
#X connect 8 0 9 0;
#X connect 8 1 7 0;
#X connect 9 0 10 0;
#X connect 10 0 11 0;
#X connect 11 0 14 1;
#X connect 12 0 18 0;
#X connect 12 1 8 0;
#X connect 13 0 12 0;
#X connect 14 0 1 0;
#X connect 15 0 14 0;
#X connect 16 0 19 0;
#X connect 17 0 13 0;
#X connect 20 0 21 0;
#X connect 21 0 18 0;
