#N canvas 558 161 949 656 12;
#X obj 26 288 r MONITOR;
#X obj 26 321 list trim;
#X obj 26 452 pack f f;
#X obj 26 374 t b f;
#X obj 26 399 del 5;
#X obj 26 424 f;
#X obj 73 373 t b f;
#X obj 252 296 r MONITOR;
#X obj 252 324 list trim;
#X obj 252 352 route \$1L1 \$1L2 \$1L3, f 77;
#X obj 25 539 r MOT\$1-realPos;
#X obj 25 592 list prepend \$1Rreal;
#X obj 25 617 s MONITOR;
#X obj 26 349 route \$1X \$1Y \$1Rreal;
#X obj 25 565 change;
#X obj 25 481 list prepend pantilt_vu;
#X obj 122 450 list prepend rotation_vu;
#X obj 252 409 s \$0-toTeleco;
#X obj 252 377 list prepend lumiere1_vu;
#X obj 430 378 list prepend lumiere2_vu;
#X obj 609 378 list prepend lumiere3_vu;
#X obj 715 14 lyre \$2 \$3;
#X obj 12 14 sys/module_interface \$0 projo_pantilt_\$1 projo_pantilt_preset _none_, f 68;
#X obj 11 42 param_2f \$0 pantilt \$0-PRESETS_MOT projo_pantilt_preset projo_pantilt-line, f 75;
#X obj 11 66 param_f \$0 rotation \$0-PRESETS_MOT projo_pantilt_preset projo_pantilt-line, f 76;
#X obj 230 99 param_f \$0 lumiere1 \$0-PRESETS_LUM projo_pantilt_preset \$0-Vlum, f 66;
#X obj 230 123 param_f \$0 lumiere2 \$0-PRESETS_LUM projo_pantilt_preset \$0-Vlum, f 66;
#X obj 231 149 param_f \$0 lumiere3 \$0-PRESETS_LUM projo_pantilt_preset \$0-Vlum, f 64;
#X obj 231 195 param_f \$0 mode1 \$0-PRESETS_LUM projo_pantilt_preset \$0-Vlum;
#X obj 231 219 param_f \$0 mode2 \$0-PRESETS_LUM projo_pantilt_preset \$0-Vlum;
#X obj 231 245 param_f \$0 mode3 \$0-PRESETS_LUM projo_pantilt_preset \$0-Vlum;
#X obj 25 508 s \$0-toOSC;
#X connect 0 0 1 0;
#X connect 1 0 13 0;
#X connect 2 0 15 0;
#X connect 3 0 4 0;
#X connect 3 1 5 1;
#X connect 4 0 5 0;
#X connect 5 0 2 0;
#X connect 6 0 4 0;
#X connect 6 1 2 1;
#X connect 7 0 8 0;
#X connect 8 0 9 0;
#X connect 9 0 18 0;
#X connect 9 1 19 0;
#X connect 9 2 20 0;
#X connect 10 0 14 0;
#X connect 11 0 12 0;
#X connect 13 0 3 0;
#X connect 13 1 6 0;
#X connect 13 2 16 0;
#X connect 14 0 11 0;
#X connect 15 0 31 0;
#X connect 16 0 31 0;
#X connect 18 0 17 0;
#X connect 19 0 17 0;
#X connect 20 0 17 0;
