#N canvas 774 525 800 453 10;
#X obj 68 165 pack f f;
#X obj 68 123 t a b;
#X obj 68 188 unpack f f;
#X obj 68 237 pack f f;
#X obj 68 259 line;
#X obj 135 215 * 1000;
#X obj 68 65 r CONTROL;
#X obj 14 28 hsl 128 15 -100 100 0 0 \$3-val \$3-val empty 5 8 0 10 #fc8000 #000000 #000000 0 1;
#X obj 105 12 nbx 5 14 -100 100 0 0 \$3-val \$3-val empty 0 -8 0 10 #fcfcfc #000000 #000000 0 256;
#X msg 181 235 stop;
#X obj 286 384 s MONITOR;
#X obj 286 337 f;
#X obj 286 22 r reSend;
#X msg 100 143 0;
#X obj 351 261 i;
#X obj 351 283 change;
#X msg 351 305 dest \$1;
#X obj 68 279 s \$3-val;
#X obj 313 47 r \$3-val;
#X obj 286 362 list prepend \$3;
#X obj 68 93 route \$3 stop;
#X obj 499 11 loadbang;
#X obj 499 55 sel 1 2;
#X obj 68 215 clip 0 360;
#X obj 156 300 r \$3-val;
#X obj 156 405 s \$3-val;
#X obj 156 383 toDeg;
#X obj 156 341 toRad;
#X obj 156 362 OSClink \$3;
#X obj 351 185 / 90;
#X obj 351 207 * 7122;
#X msg 698 39 13362 6240;
#X obj 698 61 -;
#X floatatom 698 83 5 0 0 0 pas/90° - - 0;
#X floatatom 422 250 7 0 0 0 - - - 0;
#X obj 351 229 + 4200;
#X obj 351 161 clip 0 200;
#X obj 351 124 + 60;
#X obj 385 103 r \$3-offset;
#X obj 385 124 t b f;
#X obj 313 71 route float;
#X obj 156 321 route float;
#X msg 499 101 range -100 100;
#X obj 499 123 s \$3-val;
#X msg 518 78 range -60 140;
#X msg 439 167 100;
#X msg 468 167 60;
#X obj 158 137 r \$3-val;
#X obj 158 159 route range;
#X obj 158 181 unpack f f;
#X obj 479 10 bng 15 250 50 0 empty empty empty 17 7 0 10 #fcfcfc #000000 #000000;
#X obj 499 33 f \$2;
#X obj 351 327 s pfruit\$1-servo\$2-params;
#X obj 333 100 * 1;
#X msg 410 56 -1;
#X msg 447 56 1;
#X obj 608 230 r CONTROL;
#X obj 608 276 route pantilt stop;
#X obj 608 330 list split 0;
#X obj 724 173 loadbang;
#X obj 724 196 f \$2;
#X obj 724 219 - 1;
#X obj 642 353 list split 1;
#X obj 608 303 list split 2, f 29;
#X obj 642 376 list append, f 15;
#X obj 608 253 route projo_pantilt_\$1 stop;
#X floatatom 388 404 5 0 0 0 - - - 0;
#X connect 0 0 2 0;
#X connect 1 0 0 0;
#X connect 1 1 13 0;
#X connect 2 0 23 0;
#X connect 2 1 5 0;
#X connect 3 0 4 0;
#X connect 4 0 17 0;
#X connect 5 0 3 1;
#X connect 9 0 4 0;
#X connect 11 0 19 0;
#X connect 12 0 11 0;
#X connect 13 0 0 1;
#X connect 14 0 15 0;
#X connect 15 0 16 0;
#X connect 16 0 52 0;
#X connect 18 0 40 0;
#X connect 19 0 10 0;
#X connect 20 0 1 0;
#X connect 20 1 9 0;
#X connect 21 0 51 0;
#X connect 22 0 42 0;
#X connect 22 0 45 0;
#X connect 22 0 54 0;
#X connect 22 1 44 0;
#X connect 22 1 46 0;
#X connect 22 1 55 0;
#X connect 23 0 3 0;
#X connect 24 0 41 0;
#X connect 26 0 25 0;
#X connect 27 0 28 0;
#X connect 28 0 26 0;
#X connect 29 0 30 0;
#X connect 30 0 35 0;
#X connect 31 0 32 0;
#X connect 32 0 33 0;
#X connect 35 0 14 0;
#X connect 36 0 29 0;
#X connect 37 0 36 0;
#X connect 38 0 39 0;
#X connect 39 0 37 0;
#X connect 39 1 37 1;
#X connect 40 0 11 0;
#X connect 40 0 53 0;
#X connect 41 0 27 0;
#X connect 42 0 43 0;
#X connect 44 0 43 0;
#X connect 45 0 37 1;
#X connect 46 0 37 1;
#X connect 47 0 48 0;
#X connect 48 0 49 0;
#X connect 49 0 23 1;
#X connect 49 1 23 2;
#X connect 50 0 51 0;
#X connect 51 0 22 0;
#X connect 53 0 37 0;
#X connect 54 0 53 1;
#X connect 55 0 53 1;
#X connect 56 0 65 0;
#X connect 57 0 63 0;
#X connect 57 1 9 0;
#X connect 58 1 62 0;
#X connect 59 0 60 0;
#X connect 60 0 61 0;
#X connect 61 0 58 1;
#X connect 62 0 64 0;
#X connect 63 0 58 0;
#X connect 63 1 64 1;
#X connect 64 0 1 0;
#X connect 65 0 57 0;
#X connect 65 1 9 0;
#X coords 0 -1 1 1 150 34 1 10 10;
