#N canvas 231 72 808 333 10;
#X declare -path Fraise;
#X declare -lib iemlib;
#X declare -path ../tools -path ../tools/sys -path .;
#X declare -path abs -path main -path ../tools/AutoPreset;
#X obj 21 38 pied/pied 0 41424;
#N canvas 34 480 562 422 SET_ZEROS 0;
#X obj 57 15 r MOT1-status-ok;
#X obj 70 36 r MOT2-status-ok;
#X obj 83 59 r MOT3-status-ok;
#X obj 57 216 &&;
#X obj 70 192 t b f;
#X obj 70 170 &&;
#X obj 83 146 t b f;
#X obj 230 133 t b b;
#X obj 57 238 sel 1;
#X obj 57 267 spigot;
#X msg 230 158 1;
#X obj 57 310 outlet;
#X obj 230 26 inlet;
#X obj 257 286 s MOT1-RESET_ZERO;
#X obj 276 262 s MOT2-RESET_ZERO;
#X obj 288 238 s MOT3-RESET_ZERO;
#X obj 257 158 b;
#X msg 114 287 0;
#X obj 57 289 t b b;
#X obj 230 48 del 1000;
#X obj 301 214 s MOT4-RESET_ZERO;
#X obj 83 126 &&;
#X obj 96 102 t b f;
#X obj 96 81 r MOT4-status-ok;
#X obj 297 162 bng 15 250 50 0 empty empty empty 17 7 0 10 #fcfcfc #000000 #000000;
#X obj 324 164 bng 15 250 50 0 empty empty empty 17 7 0 10 #fcfcfc #000000 #000000;
#X obj 354 163 bng 15 250 50 0 empty empty empty 17 7 0 10 #fcfcfc #000000 #000000;
#X obj 375 163 bng 15 250 50 0 empty empty empty 17 7 0 10 #fcfcfc #000000 #000000;
#X obj 263 353 change;
#X obj 263 375 outlet status-ok;
#X floatatom 156 137 5 0 0 0 - - - 0;
#X msg 408 312 666;
#X floatatom 408 335 5 0 0 0 - - - 0;
#X msg 449 310 0;
#X obj 230 91 spigot 1;
#X msg 312 88 0;
#X obj 377 29 inlet;
#X connect 0 0 3 0;
#X connect 1 0 5 0;
#X connect 2 0 21 0;
#X connect 2 0 30 0;
#X connect 3 0 8 0;
#X connect 3 0 28 0;
#X connect 4 0 3 0;
#X connect 4 1 3 1;
#X connect 5 0 4 0;
#X connect 6 0 5 0;
#X connect 6 1 5 1;
#X connect 7 0 10 0;
#X connect 7 1 16 0;
#X connect 7 1 35 0;
#X connect 8 0 9 0;
#X connect 9 0 18 0;
#X connect 10 0 9 1;
#X connect 12 0 19 0;
#X connect 16 0 13 0;
#X connect 16 0 14 0;
#X connect 16 0 15 0;
#X connect 16 0 20 0;
#X connect 16 0 31 0;
#X connect 17 0 9 1;
#X connect 18 0 11 0;
#X connect 18 1 17 0;
#X connect 19 0 34 0;
#X connect 21 0 6 0;
#X connect 22 0 21 0;
#X connect 22 1 21 1;
#X connect 23 0 22 0;
#X connect 24 0 13 0;
#X connect 25 0 14 0;
#X connect 26 0 15 0;
#X connect 27 0 20 0;
#X connect 28 0 29 0;
#X connect 31 0 32 0;
#X connect 33 0 32 0;
#X connect 34 0 7 0;
#X connect 35 0 34 1;
#X connect 36 0 7 0;
#X restore 21 143 pd SET_ZEROS;
#N canvas 327 386 708 282 audioPlayer 0;
#X obj 70 234 *~;
#X obj 116 235 *~;
#X msg 186 184 \$1 10;
#X obj 186 206 line~;
#X obj 70 256 dac~;
#X obj 70 198 readsf~ 2 1e+06;
#X msg 70 93 1;
#X obj 103 8 r OSCrec-rcv;
#X obj 102 44 route stop replay;
#X msg 30 92 0;
#X obj 370 129 hsl 128 15 0 1 0 1 empty empty empty -2 -8 0 10 #fcfcfc #000000 #000000 12200 1;
#X obj 186 162 pow 2;
#X obj 254 26 r OSCrec-snd;
#X obj 254 48 route stop;
#X msg 70 119 open /home/pi/Datas/Chimere/\$1.wav \, 1;
#X floatatom 383 183 5 0 0 0 - - - 0;
#X connect 0 0 4 0;
#X connect 1 0 4 1;
#X connect 2 0 3 0;
#X connect 3 0 1 1;
#X connect 3 0 0 1;
#X connect 5 0 0 0;
#X connect 5 1 1 0;
#X connect 6 0 14 0;
#X connect 8 0 9 0;
#X connect 8 1 6 0;
#X connect 9 0 5 0;
#X connect 10 0 11 0;
#X connect 11 0 2 0;
#X connect 11 0 15 0;
#X connect 12 0 13 0;
#X connect 13 0 9 0;
#X connect 14 0 5 0;
#X restore 21 181 pd audioPlayer;
#X obj 724 15 loadbang;
#X msg 724 37 \; pd dsp 1;
#N canvas 315 94 450 414 startButton 0;
#X obj 100 193 shell;
#X msg 71 104 gpio mode 0 up;
#X msg 113 164 gpio read 0;
#X floatatom 56 248 5 0 0 0 - - - 0;
#X obj 71 33 loadbang;
#X obj 197 82 del 1000;
#X obj 197 105 tgl 15 0 empty empty empty 17 7 0 10 #fcfcfc #000000 #000000 0 1;
#X obj 126 295 outlet;
#X msg 282 91 50;
#X obj 197 125 metro 100;
#X obj 126 245 == 1;
#X obj 126 223 change 0;
#X connect 0 0 3 0;
#X connect 0 0 11 0;
#X connect 1 0 0 0;
#X connect 2 0 0 0;
#X connect 4 0 1 0;
#X connect 4 0 5 0;
#X connect 6 0 9 0;
#X connect 8 0 9 1;
#X connect 9 0 2 0;
#X connect 10 0 7 0;
#X connect 11 0 10 0;
#X restore 201 94 pd startButton;
#X obj 201 121 tgl 15 0 empty empty empty 17 7 0 10 #fcfcfc #000000 #000000 0 1;
#X obj 90 122 bng 15 250 50 0 empty RESET_ALL_ZEROS RESET_ALL_ZEROS 17 7 0 10 #fcfcfc #000000 #000000;
#X obj 25 280 s STOPLAMPS;
#X obj 25 258 bng 15 250 50 0 empty empty empty 17 7 0 10 #fcfcfc #000000 #000000;
#X obj 21 115 sel 1;
#X obj 201 142 start;
#X obj 23 223 1TELECO_OSC/TelecoMaster;
#X obj 226 118 loadbang;
#X obj 21 16 declare -path Fraise;
#X obj 542 15 declare -lib iemlib;
#X obj 373 92 oscnet 8080 18080;
#X obj 209 38 declare -path ../tools -path ../tools/sys -path .;
#X obj 569 92 transport/transport sequence;
#X obj 587 135 s sequence-deletemute;
#X obj 587 112 tgl 15 0 empty empty empty 17 7 0 10 #fcfcfc #000000 #000000 0 1;
#X obj 209 16 declare -path abs -path main -path ../tools/AutoPreset;
#X obj 121 287 s RELOAD_PRESETS;
#X obj 121 260 bng 18 250 50 0 empty empty empty 0 -9 0 10 #fcfcfc #000000 #000000;
#X obj 374 145 DMXout 10;
#X obj 374 168 Leds 100;
#X obj 374 189 3motors/main 20 21;
#X obj 374 211 Tourneurs 40 41 42 43 44 45;
#X obj 483 92 settings/main;
#X obj 375 234 automatic/automatic 1 1;
#X obj 376 260 Pixels;
#X connect 0 0 10 0;
#X connect 3 0 4 0;
#X connect 6 0 11 0;
#X connect 7 0 1 1;
#X connect 9 0 8 0;
#X connect 10 0 1 0;
#X connect 11 0 1 0;
#X connect 13 0 6 0;
#X connect 20 0 19 0;
#X connect 23 0 22 0;
