#N canvas 27 169 1045 830 10;
#X declare -path Fraise;
#X declare -lib iemlib;
#X declare -path abs -path main -path AutoPreset;
#X declare -path ../tools -path ../tools/sys -path .;
#X obj 21 38 pied/pied 0 41424;
#N canvas 521 86 905 566 NETWORK/SEQUENCE 0;
#X obj 147 260 s reSend;
#X obj 121 96 f;
#X obj 150 96 r reSend;
#X obj 63 401 s piedOn;
#X obj 121 11 PdServeur NET 424242;
#X obj 63 330 r NET-fromclients;
#X obj 63 352 route CLIENT;
#X obj 98 503 s NET-toclients;
#X obj 121 138 s NET-toclients;
#X obj 98 481 list prepend CLIENT Echo;
#N canvas 6 75 450 300 test_connected 0;
#X obj 130 50 inlet;
#X obj 130 79 route test;
#X obj 130 99 t b b;
#X obj 130 121 del 1000;
#X msg 130 143 0;
#X msg 169 144 1;
#X obj 130 169 change;
#X obj 130 194 tgl 15 0 \$0-CONNECTED empty CONNECTED 17 7 0 10 -262144
-1 -1 0 1;
#X obj 109 218 outlet;
#X connect 0 0 1 0;
#X connect 1 0 2 0;
#X connect 2 0 3 0;
#X connect 2 1 5 0;
#X connect 3 0 4 0;
#X connect 4 0 6 0;
#X connect 5 0 6 0;
#X connect 6 0 7 0;
#X connect 6 0 8 0;
#X restore 79 525 pd test_connected;
#X obj 79 546 tgl 15 0 empty empty empty 17 7 0 10 -262144 -1 -1 0
1;
#X obj 120 169 r NET-nbclients;
#X obj 120 194 sel 0;
#X obj 147 218 b;
#X obj 147 239 del 200;
#X obj 278 42 r toClient;
#X obj 278 61 list prepend CLIENT;
#X obj 278 81 s NET-toclients;
#X obj 131 453 ggee/shell;
#N canvas 427 304 591 317 test-rw 0;
#X msg 90 127 mount | grep /dev/mmcblk0p2 | cut -d' ' -f 6 | cut -c
2-3;
#X obj 90 181 route ro rw;
#X msg 90 202 ro;
#X msg 127 201 rw;
#X obj 90 227 outlet;
#X obj 90 98 metro 2000;
#X obj 90 54 loadbang;
#X obj 90 76 tgl 15 0 empty empty empty 17 7 0 10 -262144 -1 -1 0 1
;
#X obj 90 154 ggee/shell;
#X connect 0 0 8 0;
#X connect 1 0 2 0;
#X connect 1 1 3 0;
#X connect 2 0 4 0;
#X connect 3 0 4 0;
#X connect 5 0 0 0;
#X connect 7 0 5 0;
#X connect 8 0 1 0;
#X restore 483 206 pd test-rw;
#X obj 483 229 list prepend rorw;
#X obj 307 464 list trim;
#X obj 307 492 s CONTROL;
#X obj 467 320 s toClient;
#X obj 480 128 r seq-conduite-line;
#X obj 468 45 r toSeq;
#X obj 468 68 s seq-conduite-rcv;
#X obj 467 104 r seq-conduite-snd;
#X obj 467 174 list prepend seq;
#X obj 480 150 list prepend line;
#X obj 252 421 s toSeq;
#X obj 307 433 r seq-conduite-line;
#X obj 502 256 r MONITOR;
#X obj 502 278 list prepend monitor;
#X obj 648 256 r seq-conduite-dump;
#X msg 583 33 dump seq-conduite-dump;
#X obj 231 259 r NET-nbclients;
#X obj 231 281 > 0;
#N canvas 628 147 450 300 fruits_present 0;
#X obj 48 64 route present;
#X obj 48 44 fruit/receive Mot1;
#X obj 165 64 route present;
#X obj 283 63 route present;
#X obj 48 174 &&;
#X obj 59 151 t b f;
#X obj 165 116 &&;
#X obj 176 93 t b f;
#X obj 285 202 &&;
#X obj 296 179 t b f;
#X obj 296 156 route present;
#X obj 296 136 fruit/receive Lampes;
#X obj 165 44 fruit/receive Mot2;
#X obj 283 43 fruit/receive Mot3;
#X obj 48 196 change;
#X obj 48 218 outlet;
#X connect 0 0 4 0;
#X connect 1 0 0 0;
#X connect 2 0 6 0;
#X connect 3 0 7 0;
#X connect 4 0 14 0;
#X connect 5 0 4 0;
#X connect 5 1 4 1;
#X connect 6 0 5 0;
#X connect 7 0 6 0;
#X connect 7 1 6 1;
#X connect 9 0 8 0;
#X connect 9 1 8 1;
#X connect 10 0 9 0;
#X connect 11 0 10 0;
#X connect 12 0 2 0;
#X connect 13 0 3 0;
#X connect 14 0 15 0;
#X restore 121 56 pd fruits_present;
#X obj 231 303 change;
#X obj 231 325 sel 1 0;
#X obj 121 76 tgl 15 0 empty empty empty 17 7 0 10 -262144 -1 -1 0
1;
#X obj 121 116 list prepend CLIENT fruitsOK;
#X obj 648 278 list prepend seq;
#X obj 470 498 s MOT1-RESET_ZERO;
#X obj 485 478 s MOT2-RESET_ZERO;
#X obj 501 458 s MOT3-RESET_ZERO;
#X obj 290 401 s STOPMOTORS;
#X msg 131 410 /home/pi/bin/rw;
#X msg 143 431 /home/pi/bin/ro;
#X obj 470 411 sel 1 2 3 4;
#X obj 517 436 s MOT4-RESET_ZERO;
#X obj 655 205 r OSCrec-snd;
#X obj 655 226 list prepend OSCrec;
#X obj 375 409 s OSCrec-rcv;
#X obj 63 377 route piedOn Echo rw ro seq RESET STOPMOTORS OSCrec;
#X obj 658 356 print;
#X connect 1 0 43 0;
#X connect 2 0 1 0;
#X connect 5 0 6 0;
#X connect 6 0 56 0;
#X connect 9 0 7 0;
#X connect 10 0 11 0;
#X connect 12 0 13 0;
#X connect 13 1 14 0;
#X connect 14 0 15 0;
#X connect 15 0 0 0;
#X connect 16 0 17 0;
#X connect 17 0 18 0;
#X connect 20 0 21 0;
#X connect 21 0 24 0;
#X connect 22 0 23 0;
#X connect 25 0 30 0;
#X connect 26 0 27 0;
#X connect 28 0 29 0;
#X connect 29 0 24 0;
#X connect 30 0 29 0;
#X connect 32 0 22 0;
#X connect 33 0 34 0;
#X connect 34 0 24 0;
#X connect 35 0 44 0;
#X connect 36 0 27 0;
#X connect 37 0 38 0;
#X connect 38 0 40 0;
#X connect 39 0 42 0;
#X connect 40 0 41 0;
#X connect 41 0 49 0;
#X connect 41 1 50 0;
#X connect 42 0 1 0;
#X connect 43 0 8 0;
#X connect 44 0 24 0;
#X connect 49 0 19 0;
#X connect 50 0 19 0;
#X connect 51 0 45 0;
#X connect 51 1 46 0;
#X connect 51 2 47 0;
#X connect 51 3 52 0;
#X connect 53 0 54 0;
#X connect 54 0 24 0;
#X connect 56 0 3 0;
#X connect 56 1 10 0;
#X connect 56 1 9 0;
#X connect 56 2 49 0;
#X connect 56 3 50 0;
#X connect 56 4 31 0;
#X connect 56 5 51 0;
#X connect 56 6 48 0;
#X connect 56 7 55 0;
#X connect 56 8 22 0;
#X restore 26 523 pd NETWORK/SEQUENCE;
#X obj 29 352 loadbang;
#N canvas 34 480 562 422 SET_ZEROS 0;
#X obj 57 15 r MOT1-status-ok;
#X obj 70 36 r MOT2-status-ok;
#X obj 83 59 r MOT3-status-ok;
#X obj 57 216 &&;
#X obj 70 192 t b f;
#X obj 70 170 &&;
#X obj 83 146 t b f;
#X obj 230 133 t b b;
#X obj 57 238 sel 1;
#X obj 57 267 spigot;
#X msg 230 158 1;
#X obj 57 310 outlet;
#X obj 230 26 inlet;
#X obj 257 286 s MOT1-RESET_ZERO;
#X obj 276 262 s MOT2-RESET_ZERO;
#X obj 288 238 s MOT3-RESET_ZERO;
#X obj 257 158 b;
#X msg 114 287 0;
#X obj 57 289 t b b;
#X obj 230 48 del 1000;
#X obj 301 214 s MOT4-RESET_ZERO;
#X obj 83 126 &&;
#X obj 96 102 t b f;
#X obj 96 81 r MOT4-status-ok;
#X obj 297 162 bng 15 250 50 0 empty empty empty 17 7 0 10 -262144
-1 -1;
#X obj 324 164 bng 15 250 50 0 empty empty empty 17 7 0 10 -262144
-1 -1;
#X obj 354 163 bng 15 250 50 0 empty empty empty 17 7 0 10 -262144
-1 -1;
#X obj 375 163 bng 15 250 50 0 empty empty empty 17 7 0 10 -262144
-1 -1;
#X obj 263 353 change;
#X obj 263 375 outlet status-ok;
#X floatatom 156 137 5 0 0 0 - - -;
#X msg 408 312 666;
#X floatatom 408 335 5 0 0 0 - - -;
#X msg 449 310 0;
#X obj 230 91 spigot 1;
#X msg 312 88 0;
#X obj 377 29 inlet;
#X connect 0 0 3 0;
#X connect 1 0 5 0;
#X connect 2 0 21 0;
#X connect 2 0 30 0;
#X connect 3 0 8 0;
#X connect 3 0 28 0;
#X connect 4 0 3 0;
#X connect 4 1 3 1;
#X connect 5 0 4 0;
#X connect 6 0 5 0;
#X connect 6 1 5 1;
#X connect 7 0 10 0;
#X connect 7 1 16 0;
#X connect 7 1 35 0;
#X connect 8 0 9 0;
#X connect 9 0 18 0;
#X connect 10 0 9 1;
#X connect 12 0 19 0;
#X connect 16 0 13 0;
#X connect 16 0 14 0;
#X connect 16 0 15 0;
#X connect 16 0 20 0;
#X connect 16 0 31 0;
#X connect 17 0 9 1;
#X connect 18 0 11 0;
#X connect 18 1 17 0;
#X connect 19 0 34 0;
#X connect 21 0 6 0;
#X connect 22 0 21 0;
#X connect 22 1 21 1;
#X connect 23 0 22 0;
#X connect 24 0 13 0;
#X connect 25 0 14 0;
#X connect 26 0 15 0;
#X connect 27 0 20 0;
#X connect 28 0 29 0;
#X connect 31 0 32 0;
#X connect 33 0 32 0;
#X connect 34 0 7 0;
#X connect 35 0 34 1;
#X connect 36 0 7 0;
#X restore 22 436 pd SET_ZEROS;
#N canvas 453 631 681 319 OSC 0;
#X obj 58 143 netsend -u -b;
#X floatatom 58 165 5 0 0 0 - - -;
#X msg 226 156 connect 192.168.1.29 9001;
#X obj 226 131 loadbang;
#X msg 298 129 disconnect;
#X obj 58 22 r toOSC;
#X obj 58 44 list prepend send;
#X obj 58 66 list trim;
#X obj 435 114 netreceive -u -b 9002;
#X obj 435 136 oscparse;
#X obj 435 178 s fromOSC;
#X obj 435 158 list trim;
#X msg 120 187 connect localhost 9001;
#X msg 87 219 connect jmarc.local 9001;
#X msg 91 250 connect 0.0.0.0 9001;
#X msg 84 281 connect 255.255.255.0 9001;
#X obj 195 9 r NET-fromclients;
#X obj 195 52 route remoteHOSTNAME;
#X msg 195 93 disconnect \, connect \$1.local 9001;
#X obj 200 115 bng 15 250 50 0 empty empty empty 17 7 0 10 -262144
-1 -1;
#X obj 195 31 route CLIENT;
#X obj 195 74 list;
#X obj 494 237 print OSC;
#X obj 372 58 print;
#X obj 351 27 bng 15 250 50 0 empty empty empty 17 7 0 10 -262144 -1
-1;
#X obj 457 53 sel 0;
#X obj 457 31 r NET-nbclients;
#X floatatom 519 63 5 0 0 0 - - -;
#X connect 0 0 1 0;
#X connect 2 0 0 0;
#X connect 4 0 0 0;
#X connect 5 0 6 0;
#X connect 6 0 7 0;
#X connect 7 0 0 0;
#X connect 8 0 9 0;
#X connect 9 0 11 0;
#X connect 11 0 10 0;
#X connect 12 0 0 0;
#X connect 13 0 0 0;
#X connect 14 0 0 0;
#X connect 15 0 0 0;
#X connect 16 0 20 0;
#X connect 17 0 21 0;
#X connect 18 0 19 0;
#X connect 18 0 0 0;
#X connect 18 0 23 0;
#X connect 20 0 17 0;
#X connect 21 0 18 0;
#X connect 24 0 21 0;
#X connect 25 0 4 0;
#X connect 26 0 25 0;
#X connect 26 0 27 0;
#X restore 794 589 pd OSC;
#X obj 794 610 OSCrecorder;
#N canvas 150 175 450 300 test 0;
#X obj 118 111 s CONTROL;
#X obj 118 54 hsl 128 15 0 100 0 0 empty empty empty -2 -8 0 10 -262144
-1 -1 0 1;
#X msg 118 89 1L2 \$1 0.1;
#X obj 235 175 s CONTROL;
#X obj 275 81 hsl 128 15 -150 150 0 0 empty empty empty -2 -8 0 10
-262144 -1 -1 0 1;
#X obj 295 121 hsl 128 15 -150 150 0 0 empty empty empty -2 -8 0 10
-262144 -1 -1 0 1;
#X msg 370 148 set \$1;
#X msg 321 148 3R \$1;
#X msg 235 153 3R \$1 60;
#X connect 1 0 2 0;
#X connect 2 0 0 0;
#X connect 4 0 8 0;
#X connect 5 0 7 0;
#X connect 5 0 6 0;
#X connect 6 0 4 0;
#X connect 7 0 3 0;
#X connect 8 0 3 0;
#X restore 140 563 pd test;
#N canvas 327 386 708 282 audioPlayer 0;
#X obj 70 234 *~;
#X obj 116 235 *~;
#X msg 186 184 \$1 10;
#X obj 186 206 line~;
#X obj 70 256 dac~;
#X obj 70 198 readsf~ 2 1e+06;
#X msg 70 93 1;
#X obj 103 8 r OSCrec-rcv;
#X obj 102 44 route stop replay;
#X msg 30 92 0;
#X obj 370 129 hsl 128 15 0 1 0 1 empty empty empty -2 -8 0 10 -262144
-1 -1 12200 1;
#X obj 186 162 pow 2;
#X obj 254 26 r OSCrec-snd;
#X obj 254 48 route stop;
#X msg 70 119 open /home/pi/Datas/Chimere/\$1.wav \, 1;
#X floatatom 383 183 5 0 0 0 - - -;
#X connect 0 0 4 0;
#X connect 1 0 4 1;
#X connect 2 0 3 0;
#X connect 3 0 1 1;
#X connect 3 0 0 1;
#X connect 5 0 0 0;
#X connect 5 1 1 0;
#X connect 6 0 14 0;
#X connect 8 0 9 0;
#X connect 8 1 6 0;
#X connect 9 0 5 0;
#X connect 10 0 11 0;
#X connect 11 0 2 0;
#X connect 11 0 15 0;
#X connect 12 0 13 0;
#X connect 13 0 9 0;
#X connect 14 0 5 0;
#X restore 25 502 pd audioPlayer;
#X obj 577 15 loadbang;
#X msg 577 37 \; pd dsp 1;
#N canvas 315 94 450 414 startButton 0;
#X obj 100 193 shell;
#X msg 71 104 gpio mode 0 up;
#X msg 113 164 gpio read 0;
#X floatatom 56 248 5 0 0 0 - - -;
#X obj 71 33 loadbang;
#X obj 197 82 del 1000;
#X obj 197 105 tgl 15 0 empty empty empty 17 7 0 10 -262144 -1 -1 0
1;
#X obj 126 295 outlet;
#X msg 282 91 50;
#X obj 197 125 metro 100;
#X obj 126 245 == 1;
#X obj 126 223 change 0;
#X connect 0 0 3 0;
#X connect 0 0 11 0;
#X connect 1 0 0 0;
#X connect 2 0 0 0;
#X connect 4 0 1 0;
#X connect 4 0 5 0;
#X connect 6 0 9 0;
#X connect 8 0 9 1;
#X connect 9 0 2 0;
#X connect 10 0 7 0;
#X connect 11 0 10 0;
#X restore 208 408 pd startButton;
#X obj 208 435 tgl 15 0 empty empty empty 17 7 0 10 -262144 -1 -1 1
1;
#X obj 91 415 bng 15 250 50 0 empty RESET_ALL_ZEROS RESET_ALL_ZEROS
17 7 0 10 -262144 -1 -1;
#N canvas 56 545 450 300 OFFSETS 0;
#X obj 60 111 s 1Y-offset;
#X floatatom 382 69 5 0 0 0 - - -;
#X obj 157 111 s 2Y-offset;
#X msg 157 79 57;
#X msg 60 80 48;
#X obj 246 115 s 3Y-offset;
#X msg 246 89 57;
#X obj 342 116 s 4Y-offset;
#X msg 342 90 40;
#X obj 60 9 loadbang;
#X obj 60 37 b;
#X obj 39 13 bng 15 250 50 0 empty empty empty 17 7 0 10 -262144 -1
-1;
#X connect 1 0 7 0;
#X connect 3 0 2 0;
#X connect 4 0 0 0;
#X connect 6 0 5 0;
#X connect 8 0 7 0;
#X connect 9 0 10 0;
#X connect 10 0 4 0;
#X connect 10 0 3 0;
#X connect 10 0 6 0;
#X connect 10 0 8 0;
#X connect 11 0 10 0;
#X restore 25 546 pd OFFSETS;
#X obj 823 478 s STOPLAMPS;
#X obj 823 456 bng 15 250 50 0 empty empty empty 17 7 0 10 -262144
-1 -1;
#X obj 21 378 sel 1;
#X obj 514 76 lyre 3 2460;
#X obj 355 76 lyre 2 2460;
#X obj 197 76 lyre 1 2460;
#X obj 526 207 lyre 4 2460;
#X obj 208 456 start;
#X obj 37 610 1TELECO_OSC/TelecoMaster;
#X obj 247 645 r CONTROL_LUM;
#X obj 218 620 r CONTROL_MOT;
#X obj 237 714 s CONTROL;
#X obj 312 482 CONTROLrecorder final;
#N canvas 966 69 771 842 G-mode 0;
#X obj 203 128 tgl 15 0 empty empty empty 17 7 0 10 -262144 -1 -1 1
1;
#X text 98 3 mode1:vitesse-sym-gauche=alterné \, droite=ensemble;
#X text 99 30 mode3: amplitude;
#X obj 30 84 * 2;
#X obj 30 107 - 1;
#X obj 30 130 abs;
#X obj 30 204 / 100;
#X obj 203 289 + 0;
#X obj 203 312 fmod 1;
#X obj 104 767 hsl 128 15 0 1 0 0 empty empty empty -2 -8 0 10 -262144
-1 -1 0 1;
#X obj 203 266 f;
#X obj 105 748 hsl 128 15 0 1 0 0 empty empty empty -2 -8 0 10 -262144
-1 -1 0 1;
#X obj 30 155 pow 3;
#X text 97 16 mode2: smooth \, si à ZÉRO=rnd;
#X obj 30 181 * 30;
#X obj 266 82 pow 2;
#X floatatom 348 78 5 0 0 0 - - -;
#X obj 203 198 sel 0 1, f 42;
#X obj 327 260 / 1e+06;
#X obj 327 331 * 0.05;
#X obj 371 354 * 0.95;
#X obj 300 143 < 0.01;
#X obj 368 422 * 0.95;
#X obj 327 400 * 0.05;
#X obj 327 237 random 2e+06;
#X obj 327 283 - 1;
#X obj 327 471 + 1;
#X obj 327 494 / 2;
#X obj 327 354 + 0;
#X obj 327 377 clip -1 1;
#X obj 327 423 + 0;
#X obj 327 447 clip -1 1;
#X obj 402 308 * -1;
#X obj 402 331 + 1;
#X obj 406 377 * -1;
#X obj 406 400 + 1;
#X obj 421 279 f;
#X floatatom 508 214 5 0 0 0 - - -;
#X obj 508 236 / 100;
#X obj 327 307 * 3;
#X obj 485 185 * 1;
#X obj 486 159 pow 3;
#X obj 201 65 > 0.01;
#X obj 30 61 r Gmode1-val;
#X obj 267 49 r Gmode3-val;
#X obj 300 113 r Gmode2-val;
#X obj 104 808 hsl 128 15 0 1 0 0 empty empty empty -2 -8 0 10 -262144
-1 -1 0 1;
#X obj 104 787 hsl 128 15 0 1 0 0 empty empty empty -2 -8 0 10 -262144
-1 -1 0 1;
#X obj 163 679 spigot;
#X obj 163 702 route 1 2 3 4, f 70;
#X obj 214 680 tgl 15 0 empty empty empty 17 7 0 10 -262144 -1 -1 0
1;
#X obj 44 317 s Gmode-dephase;
#X obj 160 558 gmode_chan 2;
#X obj 76 558 gmode_chan 1;
#X obj 241 559 gmode_chan 3;
#X obj 326 559 gmode_chan 4;
#X obj 203 105 loadbang;
#X obj 44 289 r Gmode4-val;
#X floatatom 561 289 5 0 0 0 - - -;
#X obj 203 173 f 1;
#X obj 203 149 metro 20;
#X connect 0 0 60 0;
#X connect 3 0 4 0;
#X connect 4 0 5 0;
#X connect 5 0 12 0;
#X connect 5 0 41 0;
#X connect 6 0 7 1;
#X connect 7 0 8 0;
#X connect 8 0 10 1;
#X connect 8 0 53 0;
#X connect 8 0 52 0;
#X connect 8 0 55 0;
#X connect 8 0 54 0;
#X connect 10 0 7 0;
#X connect 12 0 14 0;
#X connect 14 0 6 0;
#X connect 17 0 10 0;
#X connect 17 1 24 0;
#X connect 18 0 25 0;
#X connect 19 0 28 0;
#X connect 20 0 28 1;
#X connect 21 0 59 1;
#X connect 22 0 30 1;
#X connect 23 0 30 0;
#X connect 24 0 18 0;
#X connect 25 0 39 0;
#X connect 26 0 27 0;
#X connect 27 0 8 0;
#X connect 28 0 29 0;
#X connect 29 0 20 0;
#X connect 29 0 23 0;
#X connect 30 0 31 0;
#X connect 31 0 22 0;
#X connect 31 0 26 0;
#X connect 32 0 33 0;
#X connect 33 0 20 1;
#X connect 34 0 35 0;
#X connect 35 0 22 1;
#X connect 36 0 19 1;
#X connect 36 0 32 0;
#X connect 36 0 34 0;
#X connect 36 0 23 1;
#X connect 37 0 38 0;
#X connect 38 0 36 0;
#X connect 39 0 19 0;
#X connect 40 0 36 0;
#X connect 40 0 58 0;
#X connect 41 0 40 0;
#X connect 43 0 3 0;
#X connect 44 0 15 0;
#X connect 44 0 16 0;
#X connect 44 0 42 0;
#X connect 45 0 21 0;
#X connect 48 0 49 0;
#X connect 49 0 11 0;
#X connect 49 1 9 0;
#X connect 49 2 47 0;
#X connect 49 3 46 0;
#X connect 50 0 48 1;
#X connect 52 0 48 0;
#X connect 53 0 48 0;
#X connect 54 0 48 0;
#X connect 55 0 48 0;
#X connect 56 0 0 0;
#X connect 57 0 51 0;
#X connect 59 0 17 0;
#X connect 60 0 59 0;
#X restore 855 238 pd G-mode;
#X obj 258 673 r CONTROL_MOD;
#X obj 70 711 DMXout;
#X obj 36 179 cnv 15 130 100 empty empty empty 20 12 0 14 -261234 -66577
0;
#X obj 44 257 s Lyre1_ip;
#X obj 44 203 loadbang;
#X text 40 181 Adresse IP de Lyre1:;
#X msg 44 228 193.168.4.111;
#X obj 312 566 s PLAYED_CONTROL;
#X obj 840 80 mode LumG 1 Gmode1;
#X obj 840 116 mode LumG 2 Gmode2;
#X obj 840 152 mode LumG 3 Gmode3;
#X obj 840 188 mode LumG 4 Gmode4;
#X obj 312 458 r REC_CONTROL;
#X obj 233 432 loadbang;
#X obj 21 16 declare -path Fraise;
#X obj 291 38 declare -lib iemlib;
#X obj 516 425 projofix/iface 1 100;
#N canvas 694 213 827 377 leds 1;
#X obj 353 25 led/ledfruit 1 100;
#X obj 37 128 preset/preset preset_ledsHaut 16;
#X obj 439 130 preset/preset preset_ledsBas 16;
#X obj 301 63 preset/preset preset_leds 16;
#X obj 38 180 led/led ledH1 1 ledsH preset_ledsHaut preset_leds;
#X obj 39 200 led/led ledH2 2 ledsH preset_ledsHaut preset_leds;
#X obj 441 188 led/led ledB1 7 ledsB preset_ledsBas preset_leds;
#X obj 442 209 led/led ledB2 8 ledsB preset_ledsBas preset_leds;
#X obj 38 158 motlum/motlum moteur_ledsHaut ledsH preset_ledsHaut preset_leds
, f 63;
#X obj 441 162 motlum/motlum moteur_ledsBas ledsB preset_ledsBas preset_leds
, f 63;
#X restore 668 84 pd leds;
#X obj 291 16 declare -path abs -path main -path AutoPreset;
#X obj 669 16 oscnet 8080 18080;
#X obj 670 39 declare -path ../tools -path ../tools/sys -path .;
#X obj 180 46 s RELOAD_PRESETS;
#X obj 180 19 bng 18 250 50 0 empty empty empty 0 -9 0 10 -262144 -1
-1;
#X obj 644 109 transport/transport sequence;
#X obj 743 336 s sequence-deletemute;
#X obj 747 308 tgl 15 0 empty empty empty 17 7 0 10 -262144 -1 -1 0
1;
#X connect 0 0 16 0;
#X connect 8 0 9 0;
#X connect 11 0 21 0;
#X connect 12 0 3 1;
#X connect 15 0 14 0;
#X connect 16 0 3 0;
#X connect 21 0 3 0;
#X connect 23 0 25 0;
#X connect 24 0 25 0;
#X connect 26 0 35 0;
#X connect 28 0 25 0;
#X connect 32 0 34 0;
#X connect 34 0 31 0;
#X connect 40 0 26 0;
#X connect 41 0 11 0;
#X connect 50 0 49 0;
#X connect 53 0 52 0;
