#N canvas 1166 3 639 346 12;
#X msg 15 209 c 30 i \$1 c \$2;
#X obj 15 102 r 2DMX;
#X obj 15 237 fruit/send DMX1;
#X obj 15 180 spigot, f 9;
#X msg 260 280 c 30 i \$1 c \$2;
#X obj 253 41 vsl 15 128 0 255 0 0 empty empty pan 0 -9 0 10 #fcfcfc #000000 #000000 0 1;
#X msg 253 177 1 \$1;
#X obj 296 40 vsl 15 128 0 255 0 0 empty empty tilt 0 -9 0 10 #fcfcfc #000000 #000000 0 1;
#X msg 296 176 2 \$1;
#X obj 340 41 vsl 15 128 0 255 0 0 empty empty slow 0 -9 0 10 #fcfcfc #000000 #000000 0 1;
#X msg 340 177 3 \$1;
#X obj 384 41 vsl 15 128 0 255 0 0 empty empty color 0 -9 0 10 #fcfcfc #000000 #000000 0 1;
#X obj 427 40 vsl 15 128 0 255 0 0 empty empty gobo 0 -9 0 10 #fcfcfc #000000 #000000 0 1;
#X obj 471 41 vsl 15 128 0 255 0 0 empty empty dimm 0 -9 0 10 #fcfcfc #000000 #000000 0 1;
#X msg 384 177 4 \$1;
#X msg 427 176 5 \$1;
#X msg 472 177 6 \$1;
#X obj 513 40 vsl 15 128 0 255 0 0 empty empty shutter 0 -9 0 10 #fcfcfc #000000 #000000 0 1;
#X obj 560 61 vsl 15 128 0 255 0 0 empty empty func 0 -9 0 10 #fcfcfc #000000 #000000 0 1;
#X msg 513 176 7 \$1;
#X msg 561 197 8 \$1;
#X obj 13 36 fruit/fruit 1 DMX1 \$1 dmxFW 1;
#X obj 75 154 settings/onoff DMX;
#X obj 87 290 spigot;
#X obj 87 315 print;
#X obj 140 290 tgl 20 0 empty empty empty 0 -10 0 12 #fcfcfc #000000 #000000 0 1;
#X obj 156 183 tgl 20 0 empty empty empty 0 -10 0 12 #fcfcfc #000000 #000000 0 1;
#X obj 75 104 fruit/receive DMX1;
#X obj 75 129 route present;
#X connect 0 0 2 0;
#X connect 0 0 23 0;
#X connect 1 0 3 0;
#X connect 3 0 0 0;
#X connect 4 0 2 0;
#X connect 5 0 6 0;
#X connect 6 0 4 0;
#X connect 7 0 8 0;
#X connect 8 0 4 0;
#X connect 9 0 10 0;
#X connect 10 0 4 0;
#X connect 11 0 14 0;
#X connect 12 0 15 0;
#X connect 13 0 16 0;
#X connect 14 0 4 0;
#X connect 15 0 4 0;
#X connect 16 0 4 0;
#X connect 17 0 19 0;
#X connect 18 0 20 0;
#X connect 19 0 4 0;
#X connect 20 0 4 0;
#X connect 22 0 3 1;
#X connect 22 0 26 0;
#X connect 23 0 24 0;
#X connect 25 0 23 1;
#X connect 27 0 28 0;
#X connect 28 0 22 0;
