#N canvas 275 194 842 634 10;
#X obj 20 32 preset/preset preset_leds 16;
#X obj 20 72 preset/preset led_haut_preset 16;
#X obj 22 125 led/led led_haut_1 1 ledsH led_haut_preset preset_leds;
#X obj 21 146 led/led led_haut_2 2 ledsH led_haut_preset preset_leds;
#X obj 22 171 led/led led_haut_3 3 ledsH led_haut_preset preset_leds;
#X obj 21 192 led/led led_haut_4 4 ledsH led_haut_preset preset_leds;
#X obj 21 215 led/led led_haut_5 5 ledsH led_haut_preset preset_leds;
#X obj 21 238 led/led led_haut_6 6 ledsH led_haut_preset preset_leds;
#X obj 20 6 led/ledfruit 1 \$1;
#X obj 433 76 preset/preset led_bas_preset 16;
#X obj 21 101 motlum/motlum moteur_led_haut ledsH led_haut_preset preset_leds, f 63;
#X obj 434 105 motlum/motlum moteur_led_bas ledsB led_bas_preset preset_leds, f 63;
#X obj 435 129 led/led led_bas_7 7 ledsB led_bas_preset preset_leds;
#X obj 434 150 led/led led_bas_8 8 ledsB led_bas_preset preset_leds;
#X obj 434 172 led/led led_bas_9 9 ledsB led_bas_preset preset_leds;
#X obj 434 196 led/led led_bas_10 10 ledsB led_bas_preset preset_leds;
#X obj 434 219 led/led led_bas_11 11 ledsB led_bas_preset preset_leds;
#X obj 434 241 led/led led_bas_12 12 ledsB led_bas_preset preset_leds;
#X obj 23 345 r fromOSC;
#X obj 23 368 spigot, f 16;
#X obj 23 416 t b a, f 20;
#X msg 23 439 2 \, 3 \, 4 \, 5 \, 6;
#X obj 23 591 s toOSC;
#X obj 23 559 oscformat;
#X obj 23 507 list, f 20;
#X obj 23 485 t b a;
#X obj 101 532 list append;
#X obj 101 555 list trim;
#X obj 101 578 s fromOSC;
#X msg 50 529 set \$1;
#X obj 23 393 route led_haut_1;
#X msg 23 463 symbol led_haut_\$1;
#X obj 116 266 r fromOSC;
#X obj 116 293 route moteur_led_haut;
#X obj 116 343 tgl 18 0 empty empty empty 0 -9 0 10 #fcfcfc #000000 #000000 0 1;
#X obj 116 320 route all, f 21;
#X obj 438 355 r fromOSC;
#X obj 438 378 spigot, f 16;
#X obj 438 426 t b a, f 20;
#X obj 438 601 s toOSC;
#X obj 438 569 oscformat;
#X obj 438 517 list, f 20;
#X obj 438 495 t b a;
#X obj 516 542 list append;
#X obj 516 565 list trim;
#X obj 516 588 s fromOSC;
#X msg 465 539 set \$1;
#X obj 531 275 r fromOSC;
#X obj 531 352 tgl 18 0 empty empty empty 0 -9 0 10 #fcfcfc #000000 #000000 0 1;
#X obj 531 329 route all, f 21;
#X obj 531 302 route moteur_led_bas;
#X msg 438 473 symbol led_bas_\$1;
#X msg 438 449 8 \, 9 \, 10 \, 11 \, 12;
#X obj 438 403 route led_bas_7;
#X connect 18 0 19 0;
#X connect 19 0 30 0;
#X connect 20 0 21 0;
#X connect 20 1 24 1;
#X connect 20 1 26 1;
#X connect 21 0 31 0;
#X connect 23 0 22 0;
#X connect 24 0 23 0;
#X connect 25 0 24 0;
#X connect 25 1 29 0;
#X connect 25 1 26 0;
#X connect 26 0 27 0;
#X connect 27 0 28 0;
#X connect 29 0 23 0;
#X connect 30 0 20 0;
#X connect 31 0 25 0;
#X connect 32 0 33 0;
#X connect 33 0 35 0;
#X connect 34 0 19 1;
#X connect 35 0 34 0;
#X connect 36 0 37 0;
#X connect 37 0 53 0;
#X connect 38 0 52 0;
#X connect 38 1 41 1;
#X connect 38 1 43 1;
#X connect 40 0 39 0;
#X connect 41 0 40 0;
#X connect 42 0 41 0;
#X connect 42 1 46 0;
#X connect 42 1 43 0;
#X connect 43 0 44 0;
#X connect 44 0 45 0;
#X connect 46 0 40 0;
#X connect 47 0 50 0;
#X connect 48 0 37 1;
#X connect 49 0 48 0;
#X connect 50 0 49 0;
#X connect 51 0 42 0;
#X connect 52 0 51 0;
#X connect 53 0 38 0;
