#N canvas 131 691 450 300 10;
#X obj 34 17 preset/preset pixel_preset 16;
#X obj 34 41 motlum/motlum moteur_pixel pixels pixel_preset _none_, f 54;
#X obj 229 107 route moteur_pixel;
#X obj 229 84 r fromOSC;
#X obj 229 130 route all;
#X obj 229 153 s pixels_1toAll;
#X obj 58 71 pixel/pixel 1 10 pixels;
#X obj 58 89 pixel/pixel 2 13 pixels;
#X obj 57 112 pixel/pixel 3 16 pixels;
#X obj 57 130 pixel/pixel 4 19 pixels;
#X obj 57 153 pixel/pixel 5 22 pixels;
#X obj 57 177 pixel/pixel 6 25 pixels;
#X connect 2 0 4 0;
#X connect 3 0 2 0;
#X connect 4 0 5 0;
