#N canvas 6 94 558 520 10;
#X obj 135 35 inlet;
#X obj 135 419 s OSCrec-rcv;
#X msg 135 382 replay;
#X msg 188 397 stop;
#X obj 255 121 r OSCrec-snd;
#X obj 188 375 r STOPMOTORS;
#X obj 255 328 del 10;
#X obj 295 197 s STOPLAMPS;
#X obj 309 165 bng 15 250 50 0 empty empty empty 17 7 0 10 -262144
-1 -1;
#X obj 255 306 sel 1 0;
#X msg 309 329 0;
#X obj 255 284 f 0;
#X msg 255 169 bang;
#X obj 255 143 route end stop;
#X obj 99 448 s STOPMOTORS;
#X obj 72 479 outlet reHOME;
#X obj 135 134 f 0;
#X obj 135 164 sel 0 1;
#X obj 135 253 t f f;
#X msg 135 228 1;
#X obj 210 260 tgl 15 0 empty empty empty 17 7 0 10 -262144 -1 -1 1
1;
#X msg 217 163 0;
#X obj 135 77 sel 1 0;
#X obj 135 102 t b b;
#X msg 185 164 1;
#X obj 165 290 tgl 15 0 empty empty empty 17 7 0 10 -262144 -1 -1 1
1;
#X connect 0 0 22 0;
#X connect 3 0 1 0;
#X connect 4 0 13 0;
#X connect 5 0 3 0;
#X connect 6 0 2 0;
#X connect 8 0 7 0;
#X connect 9 0 6 0;
#X connect 9 1 10 0;
#X connect 10 0 25 0;
#X connect 11 0 9 0;
#X connect 12 0 11 0;
#X connect 13 0 12 0;
#X connect 13 1 7 0;
#X connect 16 0 17 0;
#X connect 17 0 19 0;
#X connect 18 0 2 0;
#X connect 18 1 25 0;
#X connect 19 0 18 0;
#X connect 20 0 11 1;
#X connect 21 0 20 0;
#X connect 22 0 23 0;
#X connect 22 1 21 0;
#X connect 23 0 16 0;
#X connect 23 1 24 0;
#X connect 24 0 20 0;
#X connect 25 0 16 1;
