#N canvas 1029 89 614 466 10;
#X obj 18 376 s tourneurs-speed;
#X obj 127 344 s tourneurs_home;
#X obj 29 73 tourneur 1 \$1;
#X obj 20 32 preset/preset tourneurs_preset 16;
#X obj 29 94 tourneur 2 \$2;
#X obj 29 115 tourneur 3 \$3;
#X obj 29 136 tourneur 4 \$4;
#X obj 29 156 tourneur 5 \$5;
#X obj 29 177 tourneur 6 \$6;
#X obj 18 292 route tourneurs_master;
#X obj 18 265 r fromOSC;
#X obj 18 319 route line home ALL, f 55;
#X obj 246 22 r fromOSC;
#X obj 246 69 route tourneurs_1;
#X obj 246 45 spigot, f 16;
#X obj 246 93 t b a, f 20;
#X msg 246 116 2 \, 3 \, 4 \, 5 \, 6;
#X obj 340 16 tgl 18 0 empty empty empty 0 -9 0 10 #fcfcfc #000000 #000000 0 1;
#X obj 246 268 s toOSC;
#X obj 246 236 oscformat;
#X obj 246 184 list, f 20;
#X obj 246 162 t b a;
#X obj 324 209 list append;
#X obj 324 232 list trim;
#X obj 324 255 s fromOSC;
#X msg 246 140 symbol tourneurs_\$1;
#X msg 273 206 set \$1;
#X obj 18 348 * 1000;
#X connect 9 0 11 0;
#X connect 10 0 9 0;
#X connect 11 0 27 0;
#X connect 11 1 1 0;
#X connect 11 2 17 0;
#X connect 12 0 14 0;
#X connect 13 0 15 0;
#X connect 14 0 13 0;
#X connect 15 0 16 0;
#X connect 15 1 20 1;
#X connect 15 1 22 1;
#X connect 16 0 25 0;
#X connect 17 0 14 1;
#X connect 19 0 18 0;
#X connect 20 0 19 0;
#X connect 21 0 20 0;
#X connect 21 1 26 0;
#X connect 21 1 22 0;
#X connect 22 0 23 0;
#X connect 23 0 24 0;
#X connect 25 0 21 0;
#X connect 26 0 19 0;
#X connect 27 0 0 0;
