#N canvas 1039 98 450 380 10;
#X obj 18 294 r fromTeleco;
#X obj 18 344 s tourneurs-speed;
#X obj 18 319 route tourneurs_speed tourneurs_home;
#X obj 127 344 s tourneurs_home;
#X obj 29 73 tourneur 1 \$1;
#X obj 20 32 preset/preset tourneurs_preset 16;
#X obj 29 94 tourneur 2 \$2;
#X obj 29 115 tourneur 3 \$3;
#X obj 29 136 tourneur 4 \$4;
#X obj 29 156 tourneur 5 \$5;
#X obj 29 177 tourneur 6 \$6;
#X connect 0 0 2 0;
#X connect 2 0 1 0;
#X connect 2 1 3 0;
