#N canvas 760 182 1088 693 10;
#X obj 532 335 tgl 15 0 empty empty set_LED 18 7 0 10 #00fc04 #000000 #000000 0 1;
#X obj 532 285 tgl 15 0 empty empty empty 17 7 0 10 #fcfcfc #000000 #000000 0 1;
#X msg 583 260 20;
#X floatatom 583 282 5 2 1000 0 - - - 0;
#X msg 613 259 100;
#X obj 532 304 metro 100;
#X text -5 132 fruit/fruit piedid fruitname fruitid firmware;
#X text 284 146 1 : open fruit's "utils" patch;
#X text 284 157 2 : rename your fruit;
#X text 284 168 3 : program your fruit;
#X text 284 179 4 : assign your fruit;
#X msg 532 358 L\$1 X;
#X floatatom 29 534 5 0 0 0 pos - - 0;
#X obj 57 392 change;
#X obj 55 469 timer;
#X floatatom 55 490 8 0 0 0 - - - 0;
#X obj 57 432 sel 1000;
#X obj 132 437 sel 1;
#X msg 458 409 c 255 c 255;
#X text 473 392 SAVE;
#X floatatom 103 525 4 0 0 3 cost - - 0;
#X obj 57 363 unpack f f f;
#X floatatom 192 524 6 0 0 3 period - - 0;
#X msg 704 273 dest \$1;
#X msg 846 78 speed \$1;
#X obj 849 58 hsl 128 15 0 1500 0 0 empty empty empty -2 -8 0 10 #fcfcfc #000000 #000000 0 1;
#X msg 363 517 c 1 l \$1;
#X msg 363 493 0;
#X obj 183 583 min;
#X obj 212 583 f;
#X floatatom 212 626 5 0 0 0 - - - 0;
#X msg 212 561 30000;
#X obj 212 605 change;
#X obj 707 221 hsl 300 15 0 75000 0 0 empty empty empty -2 -8 0 10 #fcfcfc #000000 #000000 0 0;
#X obj 707 239 hsl 300 15 0 75000 0 0 empty empty empty -2 -8 0 10 #fcfcfc #000000 #000000 0 1;
#X obj 135 389 change;
#X msg 143 364 set -1;
#X obj 119 472 change;
#X msg 371 458 c 100;
#X text 409 456 reset cost;
#X obj 537 458 tgl 16 0 empty empty reset 0 -8 0 10 #fcfcfc #000000 #000000 0 1;
#X msg 537 479 10 \$1;
#X msg 537 506 c \$1 c \$2;
#X obj 582 457 tgl 16 0 empty empty F/H 0 -8 0 10 #fcfcfc #000000 #000000 0 1;
#X obj 623 456 tgl 16 0 empty empty all_off 0 -8 0 10 #fcfcfc #000000 #000000 0 1;
#X obj 677 455 tgl 16 0 empty empty eco 0 -8 0 10 #fcfcfc #000000 #000000 0 1;
#X msg 582 478 11 \$1;
#X msg 623 477 12 \$1;
#X msg 677 476 13 \$1;
#X obj 69 316 change;
#X obj 69 296 unpack f f f;
#X obj 57 341 spigot;
#X obj 113 340 tgl 16 0 empty empty empty 0 -8 0 10 #fcfcfc #000000 #000000 0 1;
#X msg 790 186 0;
#X text 875 160 75000;
#X msg 859 275 9000;
#X floatatom 312 595 8 0 0 3 error - - 0;
#X obj 312 571 change;
#X obj 439 620 print;
#X obj 440 565 change;
#X msg 787 398 length 0;
#X msg 574 552 c 101;
#X text 614 547 testfunc;
#X obj 440 544 list split 1;
#X obj 440 586 list append;
#X msg 377 366 c 2 i \$1;
#X floatatom 377 347 5 0 0 0 - - - 0;
#X obj 380 242 hsl 136 16 -1 1 0 0 empty empty Speed -2 -8 0 10 #fcfcfc #000000 #000000 0 1;
#X obj 377 263 pow 3;
#X floatatom 377 284 5 0 0 0 - - - 0;
#X msg 377 207 0;
#X obj 377 326 i;
#X obj 377 304 * 220;
#X obj 984 131 metro 20;
#X obj 984 152 i;
#X obj 984 173 + 100;
#X obj 992 98 tgl 16 0 empty empty empty 0 -8 0 10 #fcfcfc #000000 #000000 0 1;
#X floatatom 1025 157 5 0 0 0 - - - 0;
#X obj 57 266 route p i;
#X floatatom 54 600 10 0 0 3 pos_on_zero - - 0;
#X obj 22 644 bng 16 250 50 0 empty empty empty 0 -8 0 10 #fcfcfc #000000 #000000;
#X obj 134 566 print;
#X obj 984 194 mod 75002;
#X obj 129 610 f;
#X obj 129 631 * -1;
#X obj 129 652 +;
#X obj 120 586 bng 16 250 50 0 empty empty empty 0 -8 0 10 #fcfcfc #000000 #000000;
#X floatatom 183 658 5 0 0 0 - - - 0;
#X obj 738 426 hsl 300 15 0 75000 0 0 empty empty empty -2 -8 0 10 #fcfcfc #000000 #000000 0 0;
#X obj 729 451 metro 20;
#X obj 729 472 f;
#X obj 729 514 +;
#X obj 709 425 tgl 16 0 empty empty empty 0 -8 0 10 #fcfcfc #000000 #000000 0 1;
#X obj 729 493 * 0.05;
#X obj 758 513 * 0.95;
#X obj 729 556 +;
#X obj 729 535 * 0.05;
#X obj 758 555 * 0.95;
#X obj 730 599 +;
#X obj 730 578 * 0.05;
#X obj 759 598 * 0.95;
#X obj 730 641 +;
#X obj 730 620 * 0.05;
#X obj 759 640 * 0.95;
#X obj 831 497 * -1;
#X obj 831 518 + 1;
#X obj 830 477 f;
#X msg 828 455 0.2;
#X floatatom 705 666 8 0 0 0 - - - 0;
#X msg 861 452 0.1;
#X msg 255 354 c 102;
#X msg 783 375 length 75000;
#X obj 857 303 + 75000;
#X text 561 151 3700 1500 1500;
#X msg 900 346 speed 3700 \, accel 1500 \, decel 1500 \, length 75000, f 13;
#X text 849 569 500 pas / 24 * 30 * 60 = 37500 pas = 75000 demipas, f 25;
#X obj 537 209 bng 16 250 50 0 empty empty empty 0 -8 0 10 #fcfcfc #000000 #000000;
#X obj 538 188 bng 16 250 50 0 empty empty empty 0 -8 0 10 #fcfcfc #000000 #000000;
#X msg 605 193 -700;
#X msg 459 206 0.25;
#X obj 688 187 bng 16 250 50 0 empty empty empty 0 -8 0 10 #fcfcfc #000000 #000000;
#X obj 689 166 bng 16 250 50 0 empty empty empty 0 -8 0 10 #fcfcfc #000000 #000000;
#X msg 717 182 -1500;
#X msg 643 215 0.7;
#X obj 334 243 bng 16 250 50 0 empty empty empty 0 -8 0 10 #faff00 #000000 #000000;
#X msg 455 361 EHello;
#X obj 555 55 ramp tourneur\$1 50 ramp;
#X obj 23 244 fruit/receive tourneur\$1;
#X obj 171 219 print from_tourneur\$1;
#X obj 704 304 s tourneur\$1-ramp-params;
#X obj 846 100 s tourneur\$1-ramp-params;
#X obj 293 50 inlet pos;
#X obj 362 55 inlet home;
#X obj 293 73 / 360;
#X obj 293 96 * 75000;
#X obj 254 406 fruit/send2 tourneur\$1;
#X obj 20 109 settings/onoff tourneur\$1;
#X obj 20 151 fruit/fruit 1 tourneur\$1 \$2 tourneurfw 1;
#X obj 20 61 fruit/receive tourneur\$1;
#X obj 20 84 route present;
#X msg 334 264 c 103;
#X connect 0 0 11 0;
#X connect 1 0 5 0;
#X connect 2 0 3 0;
#X connect 3 0 5 1;
#X connect 4 0 3 0;
#X connect 5 0 0 0;
#X connect 11 0 135 1;
#X connect 13 0 16 0;
#X connect 13 0 12 0;
#X connect 14 0 15 0;
#X connect 16 0 14 1;
#X connect 17 0 14 0;
#X connect 18 0 135 0;
#X connect 21 0 13 0;
#X connect 21 1 37 0;
#X connect 21 2 35 0;
#X connect 23 0 129 0;
#X connect 24 0 130 0;
#X connect 25 0 24 0;
#X connect 26 0 135 0;
#X connect 27 0 26 0;
#X connect 28 0 29 0;
#X connect 29 0 28 1;
#X connect 29 0 32 0;
#X connect 31 0 29 0;
#X connect 32 0 30 0;
#X connect 33 0 23 0;
#X connect 35 0 28 0;
#X connect 35 0 22 0;
#X connect 36 0 35 0;
#X connect 36 0 37 0;
#X connect 37 0 20 0;
#X connect 38 0 135 0;
#X connect 40 0 41 0;
#X connect 41 0 42 0;
#X connect 42 0 135 0;
#X connect 43 0 46 0;
#X connect 44 0 47 0;
#X connect 45 0 48 0;
#X connect 46 0 42 0;
#X connect 47 0 42 0;
#X connect 48 0 42 0;
#X connect 49 0 34 0;
#X connect 49 0 85 1;
#X connect 50 0 49 0;
#X connect 51 0 21 0;
#X connect 52 0 51 1;
#X connect 53 0 33 0;
#X connect 55 0 112 0;
#X connect 57 0 56 0;
#X connect 59 0 64 0;
#X connect 60 0 129 0;
#X connect 61 0 135 0;
#X connect 63 0 59 0;
#X connect 63 1 64 1;
#X connect 65 0 135 0;
#X connect 66 0 65 0;
#X connect 67 0 68 0;
#X connect 68 0 69 0;
#X connect 69 0 72 0;
#X connect 70 0 67 0;
#X connect 71 0 66 0;
#X connect 72 0 71 0;
#X connect 73 0 74 0;
#X connect 74 0 75 0;
#X connect 75 0 82 0;
#X connect 76 0 73 0;
#X connect 77 0 75 1;
#X connect 78 0 50 0;
#X connect 78 0 51 0;
#X connect 78 0 63 0;
#X connect 78 1 79 0;
#X connect 78 1 81 0;
#X connect 78 2 128 0;
#X connect 79 0 80 0;
#X connect 79 0 83 1;
#X connect 82 0 74 1;
#X connect 82 0 33 0;
#X connect 83 0 84 0;
#X connect 84 0 85 0;
#X connect 85 0 26 0;
#X connect 85 0 87 0;
#X connect 86 0 83 0;
#X connect 88 0 90 1;
#X connect 89 0 90 0;
#X connect 90 0 93 0;
#X connect 91 0 94 0;
#X connect 91 0 96 0;
#X connect 92 0 89 0;
#X connect 93 0 91 0;
#X connect 94 0 91 1;
#X connect 95 0 97 0;
#X connect 95 0 99 0;
#X connect 96 0 95 0;
#X connect 97 0 95 1;
#X connect 98 0 100 0;
#X connect 98 0 102 0;
#X connect 99 0 98 0;
#X connect 100 0 98 1;
#X connect 101 0 103 0;
#X connect 101 0 33 0;
#X connect 101 0 108 0;
#X connect 102 0 101 0;
#X connect 103 0 101 1;
#X connect 104 0 105 0;
#X connect 105 0 94 1;
#X connect 105 0 103 1;
#X connect 105 0 97 1;
#X connect 105 0 100 1;
#X connect 106 0 104 0;
#X connect 106 0 93 1;
#X connect 106 0 96 1;
#X connect 106 0 99 1;
#X connect 106 0 102 1;
#X connect 107 0 106 0;
#X connect 109 0 106 0;
#X connect 110 0 135 0;
#X connect 111 0 129 0;
#X connect 112 0 23 0;
#X connect 114 0 129 0;
#X connect 116 0 119 0;
#X connect 116 0 110 0;
#X connect 117 0 118 0;
#X connect 117 0 70 0;
#X connect 118 0 33 0;
#X connect 119 0 67 0;
#X connect 120 0 123 0;
#X connect 120 0 110 0;
#X connect 121 0 70 0;
#X connect 121 0 122 0;
#X connect 122 0 33 0;
#X connect 123 0 67 0;
#X connect 124 0 140 0;
#X connect 125 0 135 1;
#X connect 127 0 78 0;
#X connect 131 0 133 0;
#X connect 132 0 124 0;
#X connect 133 0 134 0;
#X connect 134 0 23 0;
#X connect 136 0 137 0;
#X connect 138 0 139 0;
#X connect 139 0 136 0;
#X connect 140 0 135 0;
