#N canvas 422 74 353 458 12;
#X obj 64 51 inlet;
#X obj 64 76 t a a, f 10;
#X obj 64 191 line;
#X obj 64 367 outlet;
#X obj 131 158 -;
#X obj 131 183 + 128;
#X obj 131 208 fmod 360;
#X obj 131 233 - 128;
#X obj 64 308 +;
#X obj 200 167 f;
#X obj 131 131 t f b;
#X obj 64 282 *;
#X obj 64 333 fmod 360;
#X msg 131 104 \$1;
#X msg 64 166 0 \, 1 \$2;
#X obj 64 137 pack f f;
#X msg 96 112 0;
#X connect 0 0 1 0;
#X connect 1 0 15 0;
#X connect 1 1 13 0;
#X connect 1 1 16 0;
#X connect 2 0 11 0;
#X connect 4 0 5 0;
#X connect 5 0 6 0;
#X connect 6 0 7 0;
#X connect 7 0 11 1;
#X connect 8 0 12 0;
#X connect 9 0 8 1;
#X connect 9 0 4 1;
#X connect 10 0 4 0;
#X connect 10 1 9 0;
#X connect 11 0 8 0;
#X connect 12 0 9 1;
#X connect 12 0 3 0;
#X connect 13 0 10 0;
#X connect 14 0 2 0;
#X connect 15 0 14 0;
#X connect 16 0 15 1;
