#N canvas 257 232 1120 458 12;
#X obj 23 107 unpack f f;
#X obj 23 66 route pantilt dimmer speed gobo color shutter, f 92;
#X msg 23 156 1 \$1;
#X msg 90 155 2 \$1;
#X msg 143 154 6 \$1;
#X msg 236 156 3 \$1;
#X msg 342 155 5 \$1;
#X msg 450 153 4 \$1;
#X msg 556 154 7 \$1;
#X obj 23 209 unpack f f;
#X obj 23 234 - 1;
#X obj 23 259 + \$2;
#X obj 23 284 pack f f;
#X obj 23 309 s 2DMX;
#X obj 143 127 line;
#X obj 565 250 param_f \$0 dimmer PRESETS_\$3 PRESETS_\$3_auto \$3-line;
#X obj 23 11 r \$0-toMachine;
#X obj 564 275 param_f \$0 speed PRESETS_\$3 PRESETS_\$3_auto;
#X obj 566 299 param_f \$0 gobo PRESETS_\$3 PRESETS_\$3_auto;
#X obj 566 324 param_f \$0 color PRESETS_\$3 PRESETS_\$3_auto;
#X obj 565 348 param_f \$0 shutter PRESETS_\$3 PRESETS_\$3_auto;
#X obj 554 9 sys/module_interface \$0 automatic_\$1 automatics_preset _none_, f 61;
#X obj 566 218 param_2f \$0 pantilt PRESETS_\$3 PRESETS_\$3_auto \$3-line;
#X obj 23 132 * 2.55;
#X obj 90 131 * 2.55;
#X connect 0 0 23 0;
#X connect 0 1 24 0;
#X connect 1 0 0 0;
#X connect 1 1 14 0;
#X connect 1 2 5 0;
#X connect 1 3 6 0;
#X connect 1 4 7 0;
#X connect 2 0 9 0;
#X connect 3 0 9 0;
#X connect 4 0 9 0;
#X connect 5 0 9 0;
#X connect 6 0 9 0;
#X connect 7 0 9 0;
#X connect 8 0 9 0;
#X connect 9 0 10 0;
#X connect 9 1 12 1;
#X connect 10 0 11 0;
#X connect 11 0 12 0;
#X connect 12 0 13 0;
#X connect 14 0 4 0;
#X connect 16 0 1 0;
#X connect 23 0 2 0;
#X connect 24 0 3 0;
