#N canvas 0 94 450 300 12;
#X obj 78 37 inlet;
#X obj 78 96 pack f f;
#X obj 78 142 line;
#X obj 78 188 outlet;
#X obj 131 70 inlet;
#X connect 0 0 1 0;
#X connect 1 0 2 0;
#X connect 2 0 3 0;
#X connect 4 0 1 1;
