#N canvas 1128 202 765 531 12;
#X msg 22 316 1 \$1;
#X msg 139 320 2 \$1;
#X obj 22 369 unpack f f;
#X obj 22 394 - 1;
#X obj 22 419 + \$2;
#X obj 22 444 pack f f;
#X obj 22 471 s 2DMX;
#X msg 257 318 3 \$1;
#X obj 445 122 r \$3-fromTeleco;
#X obj 22 74 t a b, f 12;
#X msg 103 101 0;
#X obj 22 126 pack f f f f;
#X obj 22 160 unpack f f f f, f 50;
#X obj 445 148 route Pixel\$1 Pixel1;
#X obj 513 197 spigot;
#X obj 552 172 r \$3-Pixel1_toAll;
#X obj 513 222 list prepend Pixel\$1;
#X obj 513 247 list trim;
#X obj 513 274 s \$3-fromTeleco;
#X obj 210 92 r Pixel\$1-mult;
#X obj 55 225 t b f;
#X obj 22 280 change;
#X obj 22 254 i;
#X obj 22 227 * 1;
#X obj 172 230 t b f;
#X obj 139 285 change;
#X obj 139 259 i;
#X obj 139 232 * 1;
#X obj 290 234 t b f;
#X obj 257 289 change;
#X obj 257 263 i;
#X obj 257 236 * 1;
#X obj 192 21 sys/module_interface \$0 pixel_1 preset_pixels _none_;
#X obj 22 192 line_f;
#X obj 139 194 line_f;
#X obj 257 193 line_f;
#X obj 22 12 r \$0-toMachine;
#X obj 22 40 route color stop;
#X obj 358 70 param_3f \$0 color preset_pixels NONE pixels-line;
#X connect 0 0 2 0;
#X connect 1 0 2 0;
#X connect 2 0 3 0;
#X connect 2 1 5 1;
#X connect 3 0 4 0;
#X connect 4 0 5 0;
#X connect 5 0 6 0;
#X connect 7 0 2 0;
#X connect 8 0 13 0;
#X connect 9 0 11 0;
#X connect 9 1 10 0;
#X connect 10 0 11 3;
#X connect 11 0 12 0;
#X connect 12 0 33 0;
#X connect 12 1 34 0;
#X connect 12 2 35 0;
#X connect 12 3 33 1;
#X connect 12 3 34 1;
#X connect 12 3 35 1;
#X connect 13 1 14 0;
#X connect 14 0 16 0;
#X connect 15 0 14 1;
#X connect 16 0 17 0;
#X connect 17 0 18 0;
#X connect 19 0 20 0;
#X connect 19 0 24 0;
#X connect 19 0 28 0;
#X connect 20 0 23 0;
#X connect 20 1 23 1;
#X connect 21 0 0 0;
#X connect 22 0 21 0;
#X connect 23 0 22 0;
#X connect 24 0 27 0;
#X connect 24 1 27 1;
#X connect 25 0 1 0;
#X connect 26 0 25 0;
#X connect 27 0 26 0;
#X connect 28 0 31 0;
#X connect 28 1 31 1;
#X connect 29 0 7 0;
#X connect 30 0 29 0;
#X connect 31 0 30 0;
#X connect 33 0 23 0;
#X connect 34 0 27 0;
#X connect 35 0 31 0;
#X connect 36 0 37 0;
#X connect 37 0 9 0;
