#N canvas 71 370 765 531 12;
#X msg 22 316 1 \$1;
#X msg 139 320 2 \$1;
#X obj 22 369 unpack f f;
#X obj 22 394 - 1;
#X obj 22 419 + \$2;
#X obj 22 444 pack f f;
#X obj 22 471 s 2DMX;
#X msg 257 318 3 \$1;
#X obj 22 74 t a b, f 12;
#X msg 103 101 0;
#X obj 22 126 pack f f f f;
#X obj 22 160 unpack f f f f, f 50;
#X obj 521 204 spigot;
#X obj 55 225 t b f;
#X obj 22 280 change;
#X obj 22 254 i;
#X obj 22 227 * 1;
#X obj 172 230 t b f;
#X obj 139 285 change;
#X obj 139 259 i;
#X obj 139 232 * 1;
#X obj 290 234 t b f;
#X obj 257 289 change;
#X obj 257 263 i;
#X obj 257 236 * 1;
#X obj 22 192 line_f;
#X obj 139 194 line_f;
#X obj 257 193 line_f;
#X obj 22 12 r \$0-toMachine;
#X obj 22 40 route color stop;
#X obj 192 21 sys/module_interface \$0 pixel_\$1 pixel_preset _none_;
#X obj 446 122 r fromOSC;
#X obj 446 148 route pixel_\$1 pixel_1;
#X obj 521 229 list prepend pixel_\$1;
#X obj 521 254 list trim;
#X obj 521 280 s fromOSC;
#X obj 475 311 s \$0-toOSC;
#X obj 373 54 param_3f \$0 color \$0-PRESETS NONE \$3-line;
#X obj 560 179 r \$3_1toAll;
#X obj 194 102 motlum/modulator \$3 \$1;
#X obj 282 450 hsl 170 20 0 1 0 0 empty empty empty -2 -10 0 12 #fcfcfc #000000 #000000 0 1;
#X connect 0 0 2 0;
#X connect 1 0 2 0;
#X connect 2 0 3 0;
#X connect 2 1 5 1;
#X connect 3 0 4 0;
#X connect 4 0 5 0;
#X connect 5 0 6 0;
#X connect 7 0 2 0;
#X connect 8 0 10 0;
#X connect 8 1 9 0;
#X connect 9 0 10 3;
#X connect 10 0 11 0;
#X connect 11 0 25 0;
#X connect 11 1 26 0;
#X connect 11 2 27 0;
#X connect 11 3 25 1;
#X connect 11 3 26 1;
#X connect 11 3 27 1;
#X connect 12 0 33 0;
#X connect 12 0 36 0;
#X connect 13 0 16 0;
#X connect 13 1 16 1;
#X connect 14 0 0 0;
#X connect 15 0 14 0;
#X connect 16 0 15 0;
#X connect 17 0 20 0;
#X connect 17 1 20 1;
#X connect 18 0 1 0;
#X connect 19 0 18 0;
#X connect 20 0 19 0;
#X connect 21 0 24 0;
#X connect 21 1 24 1;
#X connect 22 0 7 0;
#X connect 23 0 22 0;
#X connect 24 0 23 0;
#X connect 25 0 16 0;
#X connect 26 0 20 0;
#X connect 27 0 24 0;
#X connect 28 0 29 0;
#X connect 29 0 8 0;
#X connect 31 0 32 0;
#X connect 32 1 12 0;
#X connect 33 0 34 0;
#X connect 34 0 35 0;
#X connect 38 0 12 1;
#X connect 39 0 40 0;
#X connect 39 0 21 0;
#X connect 39 0 17 0;
#X connect 39 0 13 0;
