#N canvas 148 461 526 491 12;
#X obj 117 165 + 0.1;
#X obj 117 138 * 1000;
#X obj 117 114 pow 10;
#X obj 42 310 + 0.5;
#X obj 42 335 *, f 8;
#X obj 42 393 * -1;
#X obj 42 418 + 1;
#X obj 41 182 sin;
#X obj 41 207 * 1;
#X obj 41 233 atan;
#X obj 41 258 /, f 6;
#X obj 80 233 atan 1;
#X obj 80 207 f;
#X obj 41 134 * 3.14159;
#X obj 41 284 * 0.5;
#X obj 41 158 * 2;
#X obj 95 307 pow 2;
#X obj 41 82 + 0;
#X obj 229 11 loadbang;
#X obj 229 66 - 1;
#X obj 130 54 * 0;
#X obj 41 109 fmod 1;
#X obj 229 39 f \$2;
#X obj 42 365 change -1;
#X obj 41 32 r \$1-phase;
#X obj 130 27 r \$1-déphase;
#X obj 117 90 r \$1-dureté;
#X obj 95 279 r \$1-amplitude;
#X obj 42 446 outlet;
#X connect 0 0 12 0;
#X connect 1 0 0 0;
#X connect 2 0 1 0;
#X connect 3 0 4 0;
#X connect 4 0 23 0;
#X connect 5 0 6 0;
#X connect 6 0 28 0;
#X connect 7 0 8 0;
#X connect 8 0 9 0;
#X connect 9 0 10 0;
#X connect 10 0 14 0;
#X connect 11 0 10 1;
#X connect 12 0 11 0;
#X connect 12 0 8 1;
#X connect 13 0 15 0;
#X connect 14 0 3 0;
#X connect 15 0 7 0;
#X connect 16 0 4 1;
#X connect 17 0 21 0;
#X connect 18 0 22 0;
#X connect 19 0 20 1;
#X connect 20 0 17 1;
#X connect 21 0 13 0;
#X connect 22 0 19 0;
#X connect 23 0 5 0;
#X connect 24 0 17 0;
#X connect 25 0 20 0;
#X connect 26 0 2 0;
#X connect 27 0 16 0;
