#N canvas 530 198 458 720 10;
#X obj 25 46 sys/module_interface \$0 \$1 \$3 \$4;
#X text 17 8 motlum/motlum name motlum_ref preset1 preset2;
#X obj 365 112 route line;
#X obj 365 88 r \$0-fromOSC;
#X obj 365 165 s \$2-line;
#X obj 80 306 tgl 15 0 empty empty empty 17 7 0 10 #fcfcfc #000000 #000000 0 1;
#X obj 27 296 * 2;
#X obj 27 319 - 1;
#X obj 27 342 abs;
#X obj 27 416 / 100;
#X obj 80 467 + 0;
#X obj 80 490 fmod 1;
#X obj 80 444 f;
#X obj 27 367 pow 3;
#X obj 27 393 * 30;
#X obj 80 380 sel 0 1, f 42;
#X obj 204 442 / 1e+06;
#X obj 204 513 * 0.05;
#X obj 248 536 * 0.95;
#X obj 149 327 < 0.01;
#X obj 245 604 * 0.95;
#X obj 204 582 * 0.05;
#X obj 204 419 random 2e+06;
#X obj 204 465 - 1;
#X obj 204 653 + 1;
#X obj 204 676 / 2;
#X obj 204 536 + 0;
#X obj 204 559 clip -1 1;
#X obj 204 605 + 0;
#X obj 204 629 clip -1 1;
#X obj 279 490 * -1;
#X obj 279 513 + 1;
#X obj 283 559 * -1;
#X obj 283 582 + 1;
#X obj 298 461 f;
#X obj 204 489 * 3;
#X obj 298 437 * 1;
#X obj 298 414 pow 3;
#X obj 80 283 loadbang;
#X obj 80 351 f 1, f 12;
#X obj 80 327 metro 20;
#X obj 27 173 r \$0-toMachine;
#X obj 27 219 line, f 6;
#X obj 108 218 line, f 6;
#X obj 25 76 param_f \$0 vitesse \$0-PRESETS \$0-PRESETS2 \$2-line;
#X obj 25 96 param_f \$0 dureté \$0-PRESETS \$0-PRESETS2 \$2-line;
#X obj 25 116 param_f \$0 déphase \$0-PRESETS \$0-PRESETS2 \$2-line;
#X obj 25 136 param_f \$0 amplitude \$0-PRESETS \$0-PRESETS2 \$2-line;
#X obj 80 606 s \$2-phase;
#X obj 27 196 route vitesse dureté déphase amplitude, f 55;
#X obj 190 221 line, f 6;
#X obj 272 220 line, f 6;
#X obj 40 264 s \$2-vitesse;
#X obj 149 283 s \$2-dureté;
#X obj 190 261 s \$2-déphase;
#X obj 272 260 s \$2-amplitude;
#X floatatom 257 332 5 0 0 0 - - - 0;
#X obj 27 242 / 100;
#X obj 108 241 / 100;
#X obj 190 241 / 100;
#X obj 272 240 / 100;
#X obj 365 139 * 1000;
#X connect 2 0 61 0;
#X connect 3 0 2 0;
#X connect 5 0 40 0;
#X connect 6 0 7 0;
#X connect 7 0 8 0;
#X connect 8 0 13 0;
#X connect 8 0 37 0;
#X connect 9 0 10 1;
#X connect 10 0 11 0;
#X connect 11 0 12 1;
#X connect 11 0 48 0;
#X connect 12 0 10 0;
#X connect 13 0 14 0;
#X connect 14 0 9 0;
#X connect 15 0 12 0;
#X connect 15 1 22 0;
#X connect 16 0 23 0;
#X connect 17 0 26 0;
#X connect 18 0 26 1;
#X connect 19 0 39 1;
#X connect 20 0 28 1;
#X connect 21 0 28 0;
#X connect 22 0 16 0;
#X connect 23 0 35 0;
#X connect 24 0 25 0;
#X connect 25 0 11 0;
#X connect 26 0 27 0;
#X connect 27 0 18 0;
#X connect 27 0 21 0;
#X connect 28 0 29 0;
#X connect 29 0 20 0;
#X connect 29 0 24 0;
#X connect 30 0 31 0;
#X connect 31 0 18 1;
#X connect 32 0 33 0;
#X connect 33 0 20 1;
#X connect 34 0 17 1;
#X connect 34 0 30 0;
#X connect 34 0 32 0;
#X connect 34 0 21 1;
#X connect 35 0 17 0;
#X connect 36 0 34 0;
#X connect 37 0 36 0;
#X connect 38 0 5 0;
#X connect 39 0 15 0;
#X connect 40 0 39 0;
#X connect 41 0 49 0;
#X connect 42 0 57 0;
#X connect 43 0 58 0;
#X connect 49 0 42 0;
#X connect 49 1 43 0;
#X connect 49 2 50 0;
#X connect 49 3 51 0;
#X connect 50 0 59 0;
#X connect 51 0 60 0;
#X connect 57 0 52 0;
#X connect 57 0 6 0;
#X connect 58 0 53 0;
#X connect 58 0 19 0;
#X connect 59 0 54 0;
#X connect 60 0 55 0;
#X connect 61 0 4 0;
